<svg width="24" height="24" fill="none" xmlns="http://www.w3.org/2000/svg"><path d="M20.8 8.838a1.447 1.447 0 01-.42-1.013V6.548a2.935 2.935 0 00-2.931-2.931h-1.275a1.445 1.445 0 01-1.012-.418l-1.09-1.091a2.934 2.934 0 00-4.144 0l-1.089 1.09c-.27.268-.633.42-1.013.42H6.549a2.935 2.935 0 00-2.931 2.93v1.277A1.444 1.444 0 013.2 8.837l-1.092 1.09a2.934 2.934 0 000 4.144L3.2 15.16c.268.27.418.633.42 1.013v1.277a2.935 2.935 0 002.931 2.93h1.275c.38.002.743.153 1.012.42l1.09 1.09a2.933 2.933 0 004.144 0l1.089-1.09a1.45 1.45 0 011.013-.42h1.277a2.935 2.935 0 002.931-2.93v-1.277c.001-.38.152-.743.42-1.012l1.09-1.09a2.934 2.934 0 000-4.144L20.8 8.837z" fill="#2E4CEB"/><path d="M11 14.75a.743.743 0 01-.53-.22l-2-2a.75.75 0 011.06-1.06L11 12.939l3.47-3.47a.75.75 0 011.06 1.06l-4 4a.744.744 0 01-.53.22z" fill="#fff"/></svg>