<svg width="24" height="24" viewBox="0 0 24 24" fill="none" xmlns="http://www.w3.org/2000/svg">
<path d="M20.8 8.83768C20.5325 8.56825 20.3816 8.20439 20.38 7.82468V6.54768C20.379 5.77065 20.0698 5.02576 19.5204 4.47632C18.971 3.92688 18.2261 3.61774 17.449 3.61668H16.174C15.7949 3.61549 15.4315 3.46537 15.162 3.19868L14.072 2.10768C13.522 1.55907 12.7769 1.25098 12 1.25098C11.2232 1.25098 10.4781 1.55907 9.92804 2.10768L8.83904 3.19868C8.56962 3.46625 8.20576 3.61711 7.82604 3.61868H6.54904C5.77236 3.61973 5.02777 3.9286 4.47839 4.47761C3.929 5.02662 3.61963 5.771 3.61804 6.54768V7.82468C3.61686 8.20378 3.46674 8.56724 3.20004 8.83668L2.10804 9.92668C1.55943 10.4767 1.25134 11.2218 1.25134 11.9987C1.25134 12.7755 1.55943 13.5207 2.10804 14.0707L3.20004 15.1597C3.46762 15.4291 3.61848 15.793 3.62004 16.1727V17.4497C3.6211 18.2267 3.93024 18.9716 4.47968 19.521C5.02912 20.0705 5.77402 20.3796 6.55104 20.3807H7.82604C8.20529 20.3821 8.56877 20.5326 8.83804 20.7997L9.92804 21.8907C10.4779 22.4395 11.2231 22.7478 12 22.7478C12.777 22.7478 13.5222 22.4395 14.072 21.8907L15.161 20.8007C15.4305 20.5331 15.7943 20.3822 16.174 20.3807H17.451C18.2281 20.3796 18.973 20.0705 19.5224 19.521C20.0718 18.9716 20.381 18.2267 20.382 17.4497V16.1727C20.3834 15.7932 20.5343 15.4296 20.802 15.1607L21.892 14.0707C22.4407 13.5207 22.7487 12.7755 22.7487 11.9987C22.7487 11.2218 22.4407 10.4767 21.892 9.92668L20.8 8.83768Z" fill="#2E4CEB"/>
<path d="M11 14.7498C10.9015 14.7501 10.8039 14.7308 10.7129 14.693C10.6219 14.6552 10.5393 14.5998 10.47 14.5298L8.46997 12.5298C8.33749 12.3877 8.26537 12.1996 8.26879 12.0053C8.27222 11.811 8.35093 11.6256 8.48835 11.4882C8.62576 11.3508 8.81115 11.2721 9.00545 11.2687C9.19975 11.2652 9.38779 11.3374 9.52997 11.4698L11 12.9388L14.47 9.46985C14.6121 9.33737 14.8002 9.26524 14.9945 9.26867C15.1888 9.2721 15.3742 9.35081 15.5116 9.48823C15.649 9.62564 15.7277 9.81102 15.7311 10.0053C15.7346 10.1996 15.6624 10.3877 15.53 10.5298L11.53 14.5298C11.4606 14.5998 11.378 14.6552 11.287 14.693C11.1961 14.7308 11.0985 14.7501 11 14.7498Z" fill="white"/>
</svg>
