<svg width="310" height="223" viewBox="0 0 310 223" fill="none" xmlns="http://www.w3.org/2000/svg">
<path d="M36.966 181.004H38.156V191H36.966V181.004ZM41.2595 182.46H40.0695V181.004H41.2595V182.46ZM40.0695 183.762H41.2595V191H40.0695V183.762ZM43.103 183.762H44.223V184.826H44.251C44.7924 184.005 45.5717 183.594 46.589 183.594C47.037 183.594 47.443 183.687 47.807 183.874C48.171 184.061 48.4277 184.378 48.577 184.826C48.8197 184.434 49.137 184.131 49.529 183.916C49.9304 183.701 50.369 183.594 50.845 183.594C51.209 183.594 51.5357 183.636 51.825 183.72C52.1237 183.795 52.3757 183.916 52.581 184.084C52.7957 184.252 52.959 184.471 53.071 184.742C53.1924 185.003 53.253 185.321 53.253 185.694V191H52.063V186.254C52.063 186.03 52.0444 185.82 52.007 185.624C51.9697 185.428 51.8997 185.26 51.797 185.12C51.6944 184.971 51.5497 184.854 51.363 184.77C51.1857 184.686 50.9524 184.644 50.663 184.644C50.075 184.644 49.613 184.812 49.277 185.148C48.941 185.484 48.773 185.932 48.773 186.492V191H47.583V186.254C47.583 186.021 47.5597 185.806 47.513 185.61C47.4757 185.414 47.4057 185.246 47.303 185.106C47.2004 184.957 47.0604 184.845 46.883 184.77C46.715 184.686 46.4957 184.644 46.225 184.644C45.8797 184.644 45.581 184.714 45.329 184.854C45.0864 184.994 44.8857 185.162 44.727 185.358C44.5777 185.554 44.4657 185.759 44.391 185.974C44.3257 186.179 44.293 186.352 44.293 186.492V191H43.103V183.762ZM56.9986 193.758C56.6626 193.235 56.3592 192.713 56.0886 192.19C55.8179 191.677 55.5846 191.154 55.3886 190.622C55.2019 190.09 55.0572 189.544 54.9546 188.984C54.8519 188.424 54.8006 187.836 54.8006 187.22C54.8006 186.119 54.9826 185.008 55.3466 183.888C55.7199 182.768 56.2706 181.727 56.9986 180.766H57.9086C57.2366 181.83 56.7606 182.885 56.4806 183.93C56.2006 184.975 56.0606 186.072 56.0606 187.22C56.0606 188.396 56.2006 189.511 56.4806 190.566C56.7699 191.621 57.2459 192.685 57.9086 193.758H56.9986ZM58.6616 183.762H59.7816V184.826H59.8096C60.351 184.005 61.1303 183.594 62.1476 183.594C62.5956 183.594 63.0016 183.687 63.3656 183.874C63.7296 184.061 63.9863 184.378 64.1356 184.826C64.3783 184.434 64.6956 184.131 65.0876 183.916C65.489 183.701 65.9276 183.594 66.4036 183.594C66.7676 183.594 67.0943 183.636 67.3836 183.72C67.6823 183.795 67.9343 183.916 68.1396 184.084C68.3543 184.252 68.5176 184.471 68.6296 184.742C68.751 185.003 68.8116 185.321 68.8116 185.694V191H67.6216V186.254C67.6216 186.03 67.603 185.82 67.5656 185.624C67.5283 185.428 67.4583 185.26 67.3556 185.12C67.253 184.971 67.1083 184.854 66.9216 184.77C66.7443 184.686 66.511 184.644 66.2216 184.644C65.6336 184.644 65.1716 184.812 64.8356 185.148C64.4996 185.484 64.3316 185.932 64.3316 186.492V191H63.1416V186.254C63.1416 186.021 63.1183 185.806 63.0716 185.61C63.0343 185.414 62.9643 185.246 62.8616 185.106C62.759 184.957 62.619 184.845 62.4416 184.77C62.2736 184.686 62.0543 184.644 61.7836 184.644C61.4383 184.644 61.1396 184.714 60.8876 184.854C60.645 184.994 60.4443 185.162 60.2856 185.358C60.1363 185.554 60.0243 185.759 59.9496 185.974C59.8843 186.179 59.8516 186.352 59.8516 186.492V191H58.6616V183.762ZM77.0092 190.972C76.8038 191.093 76.5192 191.154 76.1552 191.154C75.8472 191.154 75.5998 191.07 75.4132 190.902C75.2358 190.725 75.1472 190.44 75.1472 190.048C74.8205 190.44 74.4378 190.725 73.9992 190.902C73.5698 191.07 73.1032 191.154 72.5992 191.154C72.2725 191.154 71.9598 191.117 71.6612 191.042C71.3718 190.967 71.1198 190.851 70.9052 190.692C70.6905 190.533 70.5178 190.328 70.3872 190.076C70.2658 189.815 70.2052 189.502 70.2052 189.138C70.2052 188.727 70.2752 188.391 70.4152 188.13C70.5552 187.869 70.7372 187.659 70.9612 187.5C71.1945 187.332 71.4558 187.206 71.7452 187.122C72.0438 187.038 72.3472 186.968 72.6552 186.912C72.9818 186.847 73.2898 186.8 73.5792 186.772C73.8778 186.735 74.1392 186.688 74.3632 186.632C74.5872 186.567 74.7645 186.478 74.8952 186.366C75.0258 186.245 75.0912 186.072 75.0912 185.848C75.0912 185.587 75.0398 185.377 74.9372 185.218C74.8438 185.059 74.7178 184.938 74.5592 184.854C74.4098 184.77 74.2372 184.714 74.0412 184.686C73.8545 184.658 73.6678 184.644 73.4812 184.644C72.9772 184.644 72.5572 184.742 72.2212 184.938C71.8852 185.125 71.7032 185.484 71.6752 186.016H70.4852C70.5038 185.568 70.5972 185.19 70.7652 184.882C70.9332 184.574 71.1572 184.327 71.4372 184.14C71.7172 183.944 72.0345 183.804 72.3892 183.72C72.7532 183.636 73.1405 183.594 73.5512 183.594C73.8778 183.594 74.1998 183.617 74.5172 183.664C74.8438 183.711 75.1378 183.809 75.3992 183.958C75.6605 184.098 75.8705 184.299 76.0292 184.56C76.1878 184.821 76.2672 185.162 76.2672 185.582V189.306C76.2672 189.586 76.2812 189.791 76.3092 189.922C76.3465 190.053 76.4585 190.118 76.6452 190.118C76.7478 190.118 76.8692 190.095 77.0092 190.048V190.972ZM75.0772 187.262C74.9278 187.374 74.7318 187.458 74.4892 187.514C74.2465 187.561 73.9898 187.603 73.7192 187.64C73.4578 187.668 73.1918 187.705 72.9212 187.752C72.6505 187.789 72.4078 187.855 72.1932 187.948C71.9785 188.041 71.8012 188.177 71.6612 188.354C71.5305 188.522 71.4652 188.755 71.4652 189.054C71.4652 189.25 71.5025 189.418 71.5772 189.558C71.6612 189.689 71.7638 189.796 71.8852 189.88C72.0158 189.964 72.1652 190.025 72.3332 190.062C72.5012 190.099 72.6785 190.118 72.8652 190.118C73.2572 190.118 73.5932 190.067 73.8732 189.964C74.1532 189.852 74.3818 189.717 74.5592 189.558C74.7365 189.39 74.8672 189.213 74.9512 189.026C75.0352 188.83 75.0772 188.648 75.0772 188.48V187.262ZM80.0627 187.192L77.5427 183.762H79.0687L80.8047 186.296L82.6107 183.762H84.0387L81.5467 187.094L84.3467 191H82.8207L80.8047 188.004L78.7887 191H77.3467L80.0627 187.192ZM87.3228 193.758C86.9868 193.235 86.6835 192.713 86.4128 192.19C86.1421 191.677 85.9088 191.154 85.7128 190.622C85.5261 190.09 85.3815 189.544 85.2788 188.984C85.1761 188.424 85.1248 187.836 85.1248 187.22C85.1248 186.119 85.3068 185.008 85.6708 183.888C86.0441 182.768 86.5948 181.727 87.3228 180.766H88.2328C87.5608 181.83 87.0848 182.885 86.8048 183.93C86.5248 184.975 86.3848 186.072 86.3848 187.22C86.3848 188.396 86.5248 189.511 86.8048 190.566C87.0941 191.621 87.5701 192.685 88.2328 193.758H87.3228ZM90.5118 189.88H92.7238C92.8732 189.88 93.0598 189.871 93.2838 189.852C93.5078 189.824 93.7458 189.768 93.9978 189.684C94.2498 189.591 94.4972 189.46 94.7398 189.292C94.9918 189.124 95.2158 188.895 95.4118 188.606C95.6078 188.317 95.7665 187.957 95.8878 187.528C96.0185 187.089 96.0838 186.562 96.0838 185.946C96.0838 185.349 96.0232 184.817 95.9018 184.35C95.7898 183.874 95.5985 183.473 95.3278 183.146C95.0665 182.81 94.7258 182.558 94.3058 182.39C93.8858 182.213 93.3678 182.124 92.7518 182.124H90.5118V189.88ZM89.1818 181.004H92.6118C94.1518 181.004 95.3372 181.396 96.1678 182.18C96.9985 182.964 97.4138 184.159 97.4138 185.764C97.4138 186.604 97.3205 187.351 97.1338 188.004C96.9472 188.648 96.6578 189.194 96.2658 189.642C95.8738 190.081 95.3745 190.417 94.7678 190.65C94.1612 190.883 93.4425 191 92.6118 191H89.1818V181.004ZM100.369 189.88H102.581C102.731 189.88 102.917 189.871 103.141 189.852C103.365 189.824 103.603 189.768 103.855 189.684C104.107 189.591 104.355 189.46 104.597 189.292C104.849 189.124 105.073 188.895 105.269 188.606C105.465 188.317 105.624 187.957 105.745 187.528C105.876 187.089 105.941 186.562 105.941 185.946C105.941 185.349 105.881 184.817 105.759 184.35C105.647 183.874 105.456 183.473 105.185 183.146C104.924 182.81 104.583 182.558 104.163 182.39C103.743 182.213 103.225 182.124 102.609 182.124H100.369V189.88ZM99.0393 181.004H102.469C104.009 181.004 105.195 181.396 106.025 182.18C106.856 182.964 107.271 184.159 107.271 185.764C107.271 186.604 107.178 187.351 106.991 188.004C106.805 188.648 106.515 189.194 106.123 189.642C105.731 190.081 105.232 190.417 104.625 190.65C104.019 190.883 103.3 191 102.469 191H99.0393V181.004ZM107.679 193.758C108.341 192.703 108.813 191.653 109.093 190.608C109.373 189.553 109.513 188.457 109.513 187.318C109.513 186.142 109.368 185.027 109.079 183.972C108.799 182.908 108.332 181.839 107.679 180.766H108.575C108.911 181.289 109.214 181.811 109.485 182.334C109.755 182.847 109.984 183.375 110.171 183.916C110.367 184.448 110.516 184.994 110.619 185.554C110.721 186.114 110.773 186.702 110.773 187.318C110.773 188.419 110.586 189.53 110.213 190.65C109.849 191.761 109.303 192.797 108.575 193.758H107.679ZM111.302 193.758C111.964 192.703 112.436 191.653 112.716 190.608C112.996 189.553 113.136 188.457 113.136 187.318C113.136 186.142 112.991 185.027 112.702 183.972C112.422 182.908 111.955 181.839 111.302 180.766H112.198C112.534 181.289 112.837 181.811 113.108 182.334C113.378 182.847 113.607 183.375 113.794 183.916C113.99 184.448 114.139 184.994 114.242 185.554C114.344 186.114 114.396 186.702 114.396 187.318C114.396 188.419 114.209 189.53 113.836 190.65C113.472 191.761 112.926 192.797 112.198 193.758H111.302ZM119.647 186.548H123.693V187.668H119.647V186.548ZM132.303 191.154C131.724 191.154 131.216 191.061 130.777 190.874C130.348 190.678 129.984 190.412 129.685 190.076C129.386 189.731 129.162 189.329 129.013 188.872C128.864 188.415 128.789 187.92 128.789 187.388C128.789 186.856 128.864 186.361 129.013 185.904C129.162 185.437 129.386 185.036 129.685 184.7C129.984 184.355 130.348 184.084 130.777 183.888C131.216 183.692 131.724 183.594 132.303 183.594C132.872 183.594 133.376 183.692 133.815 183.888C134.254 184.084 134.622 184.355 134.921 184.7C135.22 185.036 135.444 185.437 135.593 185.904C135.742 186.361 135.817 186.856 135.817 187.388C135.817 187.92 135.742 188.415 135.593 188.872C135.444 189.329 135.22 189.731 134.921 190.076C134.622 190.412 134.254 190.678 133.815 190.874C133.376 191.061 132.872 191.154 132.303 191.154ZM132.303 190.118C132.611 190.118 132.9 190.057 133.171 189.936C133.451 189.815 133.694 189.642 133.899 189.418C134.104 189.185 134.263 188.9 134.375 188.564C134.496 188.219 134.557 187.827 134.557 187.388C134.557 186.949 134.496 186.562 134.375 186.226C134.263 185.881 134.104 185.591 133.899 185.358C133.694 185.125 133.451 184.947 133.171 184.826C132.9 184.705 132.611 184.644 132.303 184.644C131.995 184.644 131.701 184.705 131.421 184.826C131.15 184.947 130.912 185.125 130.707 185.358C130.502 185.591 130.338 185.881 130.217 186.226C130.105 186.562 130.049 186.949 130.049 187.388C130.049 187.827 130.105 188.219 130.217 188.564C130.338 188.9 130.502 189.185 130.707 189.418C130.912 189.642 131.15 189.815 131.421 189.936C131.701 190.057 131.995 190.118 132.303 190.118ZM137.248 183.762H142.204V184.812H138.438V191H137.248V183.762ZM143.196 183.762H144.386V184.742H144.414C144.61 184.341 144.918 184.051 145.338 183.874C145.758 183.687 146.22 183.594 146.724 183.594C147.284 183.594 147.769 183.697 148.18 183.902C148.6 184.107 148.945 184.387 149.216 184.742C149.496 185.087 149.706 185.489 149.846 185.946C149.986 186.403 150.056 186.889 150.056 187.402C150.056 187.925 149.986 188.415 149.846 188.872C149.715 189.32 149.51 189.717 149.23 190.062C148.959 190.398 148.614 190.664 148.194 190.86C147.783 191.056 147.302 191.154 146.752 191.154C146.565 191.154 146.364 191.135 146.15 191.098C145.935 191.061 145.72 191 145.506 190.916C145.291 190.832 145.086 190.72 144.89 190.58C144.703 190.431 144.544 190.249 144.414 190.034H144.386V193.758H143.196V183.762ZM146.626 190.118C147.027 190.118 147.368 190.039 147.648 189.88C147.928 189.721 148.152 189.511 148.32 189.25C148.488 188.989 148.609 188.69 148.684 188.354C148.758 188.018 148.796 187.673 148.796 187.318C148.796 186.982 148.749 186.655 148.656 186.338C148.572 186.011 148.436 185.722 148.25 185.47C148.072 185.218 147.839 185.017 147.55 184.868C147.27 184.719 146.938 184.644 146.556 184.644C146.154 184.644 145.814 184.723 145.534 184.882C145.254 185.041 145.025 185.251 144.848 185.512C144.67 185.764 144.54 186.053 144.456 186.38C144.381 186.707 144.344 187.038 144.344 187.374C144.344 187.729 144.386 188.074 144.47 188.41C144.554 188.737 144.684 189.026 144.862 189.278C145.048 189.53 145.286 189.735 145.576 189.894C145.865 190.043 146.215 190.118 146.626 190.118ZM153.455 191.154C153.128 191.154 152.82 191.117 152.531 191.042C152.241 190.977 151.985 190.865 151.761 190.706C151.546 190.538 151.373 190.328 151.243 190.076C151.121 189.815 151.061 189.502 151.061 189.138C151.061 188.727 151.131 188.391 151.271 188.13C151.411 187.869 151.593 187.659 151.817 187.5C152.05 187.332 152.311 187.206 152.601 187.122C152.899 187.038 153.203 186.968 153.511 186.912C153.837 186.847 154.145 186.8 154.435 186.772C154.733 186.735 154.995 186.688 155.219 186.632C155.443 186.567 155.62 186.478 155.751 186.366C155.881 186.245 155.947 186.072 155.947 185.848C155.947 185.587 155.895 185.377 155.793 185.218C155.699 185.059 155.573 184.938 155.415 184.854C155.265 184.77 155.093 184.714 154.897 184.686C154.71 184.658 154.523 184.644 154.337 184.644C153.833 184.644 153.413 184.742 153.077 184.938C152.741 185.125 152.559 185.484 152.531 186.016H151.341C151.359 185.568 151.453 185.19 151.621 184.882C151.789 184.574 152.013 184.327 152.293 184.14C152.573 183.944 152.89 183.804 153.245 183.72C153.609 183.636 153.996 183.594 154.407 183.594C154.733 183.594 155.055 183.617 155.373 183.664C155.699 183.711 155.993 183.809 156.255 183.958C156.516 184.098 156.726 184.299 156.885 184.56C157.043 184.821 157.123 185.162 157.123 185.582V189.306C157.123 189.586 157.137 189.791 157.165 189.922C157.202 190.053 157.314 190.118 157.501 190.118C157.585 190.118 157.706 190.095 157.865 190.048V190.972C157.659 191.093 157.375 191.154 157.011 191.154C156.703 191.154 156.455 191.07 156.269 190.902C156.091 190.725 156.003 190.44 156.003 190.048C155.676 190.44 155.293 190.725 154.855 190.902C154.425 191.07 153.959 191.154 153.455 191.154ZM153.721 190.118C154.113 190.118 154.449 190.067 154.729 189.964C155.009 189.852 155.237 189.717 155.415 189.558C155.592 189.39 155.723 189.213 155.807 189.026C155.891 188.83 155.933 188.648 155.933 188.48V187.262C155.783 187.383 155.587 187.467 155.345 187.514C155.102 187.561 154.845 187.603 154.575 187.64C154.313 187.677 154.047 187.715 153.777 187.752C153.506 187.789 153.263 187.855 153.049 187.948C152.834 188.041 152.657 188.177 152.517 188.354C152.386 188.522 152.321 188.755 152.321 189.054C152.321 189.25 152.358 189.418 152.433 189.558C152.517 189.689 152.619 189.796 152.741 189.88C152.871 189.964 153.021 190.025 153.189 190.062C153.357 190.099 153.534 190.118 153.721 190.118ZM158.972 183.762H160.162V186.646H163.83V183.762H165.02V191H163.83V187.668H160.162V191H158.972V183.762ZM166.806 183.762H167.996V189.67L171.412 183.762H172.938V191H171.748V185.092L168.332 191H166.806V183.762ZM179.076 188.06C178.861 188.153 178.563 188.242 178.18 188.326C177.797 188.41 177.396 188.452 176.976 188.452C176.08 188.452 175.441 188.261 175.058 187.878C174.675 187.486 174.484 186.94 174.484 186.24V183.762H175.674V186.044C175.674 186.52 175.781 186.875 175.996 187.108C176.22 187.332 176.621 187.444 177.2 187.444C177.555 187.444 177.905 187.407 178.25 187.332C178.595 187.257 178.871 187.173 179.076 187.08V183.762H180.266V191H179.076V188.06ZM185.144 191.154C184.565 191.154 184.057 191.061 183.618 190.874C183.189 190.687 182.829 190.426 182.54 190.09C182.251 189.754 182.031 189.353 181.882 188.886C181.742 188.419 181.672 187.911 181.672 187.36C181.672 186.819 181.756 186.319 181.924 185.862C182.092 185.395 182.325 184.994 182.624 184.658C182.932 184.322 183.291 184.061 183.702 183.874C184.122 183.687 184.579 183.594 185.074 183.594C185.718 183.594 186.25 183.729 186.67 184C187.099 184.261 187.44 184.597 187.692 185.008C187.953 185.419 188.131 185.867 188.224 186.352C188.327 186.837 188.369 187.299 188.35 187.738H182.932C182.923 188.055 182.96 188.359 183.044 188.648C183.128 188.928 183.263 189.18 183.45 189.404C183.637 189.619 183.875 189.791 184.164 189.922C184.453 190.053 184.794 190.118 185.186 190.118C185.69 190.118 186.101 190.001 186.418 189.768C186.745 189.535 186.959 189.18 187.062 188.704H188.238C188.079 189.525 187.729 190.141 187.188 190.552C186.647 190.953 185.965 191.154 185.144 191.154ZM187.09 186.688C187.071 186.408 187.006 186.142 186.894 185.89C186.791 185.638 186.647 185.423 186.46 185.246C186.283 185.059 186.068 184.915 185.816 184.812C185.573 184.7 185.303 184.644 185.004 184.644C184.696 184.644 184.416 184.7 184.164 184.812C183.921 184.915 183.711 185.059 183.534 185.246C183.357 185.433 183.217 185.652 183.114 185.904C183.011 186.147 182.951 186.408 182.932 186.688H187.09ZM189.584 183.762H190.774V186.646H194.442V183.762H195.632V191H194.442V187.668H190.774V191H189.584V183.762ZM197.417 183.762H198.607V189.67L202.023 183.762H203.549V191H202.359V185.092L198.943 191H197.417V183.762ZM208.427 191.154C207.849 191.154 207.34 191.061 206.901 190.874C206.472 190.687 206.113 190.426 205.823 190.09C205.534 189.754 205.315 189.353 205.165 188.886C205.025 188.419 204.955 187.911 204.955 187.36C204.955 186.819 205.039 186.319 205.207 185.862C205.375 185.395 205.609 184.994 205.907 184.658C206.215 184.322 206.575 184.061 206.985 183.874C207.405 183.687 207.863 183.594 208.357 183.594C209.001 183.594 209.533 183.729 209.953 184C210.383 184.261 210.723 184.597 210.975 185.008C211.237 185.419 211.414 185.867 211.507 186.352C211.61 186.837 211.652 187.299 211.633 187.738H206.215C206.206 188.055 206.243 188.359 206.327 188.648C206.411 188.928 206.547 189.18 206.733 189.404C206.92 189.619 207.158 189.791 207.447 189.922C207.737 190.053 208.077 190.118 208.469 190.118C208.973 190.118 209.384 190.001 209.701 189.768C210.028 189.535 210.243 189.18 210.345 188.704H211.521C211.363 189.525 211.013 190.141 210.471 190.552C209.93 190.953 209.249 191.154 208.427 191.154ZM210.373 186.688C210.355 186.408 210.289 186.142 210.177 185.89C210.075 185.638 209.93 185.423 209.743 185.246C209.566 185.059 209.351 184.915 209.099 184.812C208.857 184.7 208.586 184.644 208.287 184.644C207.979 184.644 207.699 184.7 207.447 184.812C207.205 184.915 206.995 185.059 206.817 185.246C206.64 185.433 206.5 185.652 206.397 185.904C206.295 186.147 206.234 186.408 206.215 186.688H210.373ZM36.896 198.762H38.604L40.802 204.628H40.83L43.028 198.762H44.736V206H43.546V200.26L41.362 206H40.27L38.086 200.26V206H36.896V198.762ZM48.5367 206.154C48.21 206.154 47.902 206.117 47.6127 206.042C47.3233 205.977 47.0667 205.865 46.8427 205.706C46.628 205.538 46.4553 205.328 46.3247 205.076C46.2033 204.815 46.1427 204.502 46.1427 204.138C46.1427 203.727 46.2127 203.391 46.3527 203.13C46.4927 202.869 46.6747 202.659 46.8987 202.5C47.132 202.332 47.3933 202.206 47.6827 202.122C47.9813 202.038 48.2847 201.968 48.5927 201.912C48.9193 201.847 49.2273 201.8 49.5167 201.772C49.8153 201.735 50.0767 201.688 50.3007 201.632C50.5247 201.567 50.702 201.478 50.8327 201.366C50.9633 201.245 51.0287 201.072 51.0287 200.848C51.0287 200.587 50.9773 200.377 50.8747 200.218C50.7813 200.059 50.6553 199.938 50.4967 199.854C50.3473 199.77 50.1747 199.714 49.9787 199.686C49.792 199.658 49.6053 199.644 49.4187 199.644C48.9147 199.644 48.4947 199.742 48.1587 199.938C47.8227 200.125 47.6407 200.484 47.6127 201.016H46.4227C46.4413 200.568 46.5347 200.19 46.7027 199.882C46.8707 199.574 47.0947 199.327 47.3747 199.14C47.6547 198.944 47.972 198.804 48.3267 198.72C48.6907 198.636 49.078 198.594 49.4887 198.594C49.8153 198.594 50.1373 198.617 50.4547 198.664C50.7813 198.711 51.0753 198.809 51.3367 198.958C51.598 199.098 51.808 199.299 51.9667 199.56C52.1253 199.821 52.2047 200.162 52.2047 200.582V204.306C52.2047 204.586 52.2187 204.791 52.2467 204.922C52.284 205.053 52.396 205.118 52.5827 205.118C52.6667 205.118 52.788 205.095 52.9467 205.048V205.972C52.7413 206.093 52.4567 206.154 52.0927 206.154C51.7847 206.154 51.5373 206.07 51.3507 205.902C51.1733 205.725 51.0847 205.44 51.0847 205.048C50.758 205.44 50.3753 205.725 49.9367 205.902C49.5073 206.07 49.0407 206.154 48.5367 206.154ZM48.8027 205.118C49.1947 205.118 49.5307 205.067 49.8107 204.964C50.0907 204.852 50.3193 204.717 50.4967 204.558C50.674 204.39 50.8047 204.213 50.8887 204.026C50.9727 203.83 51.0147 203.648 51.0147 203.48V202.262C50.8653 202.383 50.6693 202.467 50.4267 202.514C50.184 202.561 49.9273 202.603 49.6567 202.64C49.3953 202.677 49.1293 202.715 48.8587 202.752C48.588 202.789 48.3453 202.855 48.1307 202.948C47.916 203.041 47.7387 203.177 47.5987 203.354C47.468 203.522 47.4027 203.755 47.4027 204.054C47.4027 204.25 47.44 204.418 47.5147 204.558C47.5987 204.689 47.7013 204.796 47.8227 204.88C47.9533 204.964 48.1027 205.025 48.2707 205.062C48.4387 205.099 48.616 205.118 48.8027 205.118ZM54.0542 198.762H55.2442V202.22L58.5622 198.762H60.1442L56.9382 201.898L60.5222 206H58.9962L55.9722 202.556L55.2442 203.27V206H54.0542V198.762ZM64.4193 206.154C63.8687 206.154 63.3787 206.065 62.9493 205.888C62.5293 205.711 62.1747 205.459 61.8853 205.132C61.6053 204.805 61.3907 204.418 61.2413 203.97C61.1013 203.522 61.0313 203.023 61.0313 202.472C61.0313 201.931 61.1013 201.427 61.2413 200.96C61.3813 200.484 61.5913 200.073 61.8713 199.728C62.1607 199.373 62.5153 199.098 62.9353 198.902C63.3647 198.697 63.8687 198.594 64.4473 198.594C64.858 198.594 65.2407 198.645 65.5953 198.748C65.9593 198.841 66.2767 198.991 66.5473 199.196C66.8273 199.401 67.056 199.663 67.2333 199.98C67.4107 200.288 67.5227 200.657 67.5693 201.086H66.3373C66.244 200.629 66.048 200.274 65.7493 200.022C65.4507 199.77 65.0493 199.644 64.5453 199.644C64.116 199.644 63.7567 199.723 63.4673 199.882C63.178 200.041 62.9447 200.251 62.7673 200.512C62.5993 200.773 62.478 201.077 62.4033 201.422C62.3287 201.758 62.2913 202.108 62.2913 202.472C62.2913 202.808 62.3287 203.135 62.4033 203.452C62.4873 203.769 62.6133 204.054 62.7813 204.306C62.9493 204.549 63.164 204.745 63.4253 204.894C63.696 205.043 64.0227 205.118 64.4053 205.118C64.9933 205.118 65.4507 204.964 65.7773 204.656C66.1133 204.348 66.3187 203.914 66.3933 203.354H67.6113C67.4807 204.259 67.1493 204.955 66.6173 205.44C66.0853 205.916 65.3527 206.154 64.4193 206.154ZM68.9429 198.762H70.1329V204.67L73.5489 198.762H75.0749V206H73.8849V200.092L70.4689 206H68.9429V198.762ZM76.8726 198.762H78.5806L80.7786 204.628H80.8066L83.0046 198.762H84.7126V206H83.5226V200.26L81.3386 206H80.2466L78.0626 200.26V206H76.8726V198.762ZM88.5132 206.154C88.1866 206.154 87.8786 206.117 87.5892 206.042C87.2999 205.977 87.0432 205.865 86.8192 205.706C86.6046 205.538 86.4319 205.328 86.3012 205.076C86.1799 204.815 86.1192 204.502 86.1192 204.138C86.1192 203.727 86.1892 203.391 86.3292 203.13C86.4692 202.869 86.6512 202.659 86.8752 202.5C87.1086 202.332 87.3699 202.206 87.6592 202.122C87.9579 202.038 88.2612 201.968 88.5692 201.912C88.8959 201.847 89.2039 201.8 89.4932 201.772C89.7919 201.735 90.0532 201.688 90.2772 201.632C90.5012 201.567 90.6786 201.478 90.8092 201.366C90.9399 201.245 91.0052 201.072 91.0052 200.848C91.0052 200.587 90.9539 200.377 90.8512 200.218C90.7579 200.059 90.6319 199.938 90.4732 199.854C90.3239 199.77 90.1512 199.714 89.9552 199.686C89.7686 199.658 89.5819 199.644 89.3952 199.644C88.8912 199.644 88.4712 199.742 88.1352 199.938C87.7992 200.125 87.6172 200.484 87.5892 201.016H86.3992C86.4179 200.568 86.5112 200.19 86.6792 199.882C86.8472 199.574 87.0712 199.327 87.3512 199.14C87.6312 198.944 87.9486 198.804 88.3032 198.72C88.6672 198.636 89.0546 198.594 89.4652 198.594C89.7919 198.594 90.1139 198.617 90.4312 198.664C90.7579 198.711 91.0519 198.809 91.3132 198.958C91.5746 199.098 91.7846 199.299 91.9432 199.56C92.1019 199.821 92.1812 200.162 92.1812 200.582V204.306C92.1812 204.586 92.1952 204.791 92.2232 204.922C92.2606 205.053 92.3726 205.118 92.5592 205.118C92.6432 205.118 92.7646 205.095 92.9232 205.048V205.972C92.7179 206.093 92.4332 206.154 92.0692 206.154C91.7612 206.154 91.5139 206.07 91.3272 205.902C91.1499 205.725 91.0612 205.44 91.0612 205.048C90.7346 205.44 90.3519 205.725 89.9132 205.902C89.4839 206.07 89.0172 206.154 88.5132 206.154ZM88.7792 205.118C89.1712 205.118 89.5072 205.067 89.7872 204.964C90.0672 204.852 90.2959 204.717 90.4732 204.558C90.6506 204.39 90.7812 204.213 90.8652 204.026C90.9492 203.83 90.9912 203.648 90.9912 203.48V202.262C90.8419 202.383 90.6459 202.467 90.4032 202.514C90.1606 202.561 89.9039 202.603 89.6332 202.64C89.3719 202.677 89.1059 202.715 88.8352 202.752C88.5646 202.789 88.3219 202.855 88.1072 202.948C87.8926 203.041 87.7152 203.177 87.5752 203.354C87.4446 203.522 87.3792 203.755 87.3792 204.054C87.3792 204.25 87.4166 204.418 87.4912 204.558C87.5752 204.689 87.6779 204.796 87.7992 204.88C87.9299 204.964 88.0792 205.025 88.2472 205.062C88.4152 205.099 88.5926 205.118 88.7792 205.118ZM93.9748 206.084C93.8534 206.084 93.7274 206.07 93.5968 206.042C93.4661 206.023 93.3588 206.005 93.2748 205.986V204.936C93.3681 204.964 93.4521 204.983 93.5268 204.992C93.6108 205.001 93.6901 205.006 93.7648 205.006C94.0728 205.006 94.3061 204.885 94.4648 204.642C94.6328 204.399 94.7541 204.026 94.8288 203.522C94.9128 203.018 94.9641 202.374 94.9828 201.59C95.0014 200.797 95.0201 199.854 95.0388 198.762H100.121V206H98.9308V199.812H96.1868C96.1588 200.661 96.1261 201.469 96.0888 202.234C96.0608 202.99 95.9814 203.653 95.8508 204.222C95.7201 204.791 95.5101 205.244 95.2208 205.58C94.9314 205.916 94.5161 206.084 93.9748 206.084ZM101.989 198.762H103.179V201.534H105.755C106.465 201.534 107.034 201.73 107.463 202.122C107.893 202.505 108.107 203.046 108.107 203.746C108.107 204.427 107.902 204.973 107.491 205.384C107.081 205.795 106.521 206 105.811 206H101.989V198.762ZM105.377 204.95C106.376 204.95 106.875 204.549 106.875 203.746C106.875 202.953 106.376 202.556 105.377 202.556H103.179V204.95H105.377ZM109.398 198.762H110.588V201.646H114.256V198.762H115.446V206H114.256V202.668H110.588V206H109.398V198.762ZM120.354 206.154C119.775 206.154 119.267 206.061 118.828 205.874C118.399 205.678 118.035 205.412 117.736 205.076C117.437 204.731 117.213 204.329 117.064 203.872C116.915 203.415 116.84 202.92 116.84 202.388C116.84 201.856 116.915 201.361 117.064 200.904C117.213 200.437 117.437 200.036 117.736 199.7C118.035 199.355 118.399 199.084 118.828 198.888C119.267 198.692 119.775 198.594 120.354 198.594C120.923 198.594 121.427 198.692 121.866 198.888C122.305 199.084 122.673 199.355 122.972 199.7C123.271 200.036 123.495 200.437 123.644 200.904C123.793 201.361 123.868 201.856 123.868 202.388C123.868 202.92 123.793 203.415 123.644 203.872C123.495 204.329 123.271 204.731 122.972 205.076C122.673 205.412 122.305 205.678 121.866 205.874C121.427 206.061 120.923 206.154 120.354 206.154ZM120.354 205.118C120.662 205.118 120.951 205.057 121.222 204.936C121.502 204.815 121.745 204.642 121.95 204.418C122.155 204.185 122.314 203.9 122.426 203.564C122.547 203.219 122.608 202.827 122.608 202.388C122.608 201.949 122.547 201.562 122.426 201.226C122.314 200.881 122.155 200.591 121.95 200.358C121.745 200.125 121.502 199.947 121.222 199.826C120.951 199.705 120.662 199.644 120.354 199.644C120.046 199.644 119.752 199.705 119.472 199.826C119.201 199.947 118.963 200.125 118.758 200.358C118.553 200.591 118.389 200.881 118.268 201.226C118.156 201.562 118.1 201.949 118.1 202.388C118.1 202.827 118.156 203.219 118.268 203.564C118.389 203.9 118.553 204.185 118.758 204.418C118.963 204.642 119.201 204.815 119.472 204.936C119.752 205.057 120.046 205.118 120.354 205.118ZM125.271 198.762H126.461V204.67L129.877 198.762H131.403V206H130.213V200.092L126.797 206H125.271V198.762ZM128.337 197.698C128.057 197.698 127.796 197.656 127.553 197.572C127.31 197.488 127.096 197.367 126.909 197.208C126.732 197.049 126.587 196.858 126.475 196.634C126.372 196.401 126.321 196.135 126.321 195.836H127.315C127.334 196.527 127.67 196.872 128.323 196.872C128.65 196.872 128.897 196.783 129.065 196.606C129.242 196.419 129.331 196.163 129.331 195.836H130.325C130.325 196.116 130.274 196.373 130.171 196.606C130.068 196.839 129.928 197.035 129.751 197.194C129.574 197.353 129.364 197.479 129.121 197.572C128.878 197.656 128.617 197.698 128.337 197.698ZM137.097 198.762H143.005V206H141.815V199.812H138.287V206H137.097V198.762ZM144.836 198.762H146.026V199.742H146.054C146.25 199.341 146.558 199.051 146.978 198.874C147.398 198.687 147.86 198.594 148.364 198.594C148.924 198.594 149.41 198.697 149.82 198.902C150.24 199.107 150.586 199.387 150.856 199.742C151.136 200.087 151.346 200.489 151.486 200.946C151.626 201.403 151.696 201.889 151.696 202.402C151.696 202.925 151.626 203.415 151.486 203.872C151.356 204.32 151.15 204.717 150.87 205.062C150.6 205.398 150.254 205.664 149.834 205.86C149.424 206.056 148.943 206.154 148.392 206.154C148.206 206.154 148.005 206.135 147.79 206.098C147.576 206.061 147.361 206 147.146 205.916C146.932 205.832 146.726 205.72 146.53 205.58C146.344 205.431 146.185 205.249 146.054 205.034H146.026V208.758H144.836V198.762ZM148.266 205.118C148.668 205.118 149.008 205.039 149.288 204.88C149.568 204.721 149.792 204.511 149.96 204.25C150.128 203.989 150.25 203.69 150.324 203.354C150.399 203.018 150.436 202.673 150.436 202.318C150.436 201.982 150.39 201.655 150.296 201.338C150.212 201.011 150.077 200.722 149.89 200.47C149.713 200.218 149.48 200.017 149.19 199.868C148.91 199.719 148.579 199.644 148.196 199.644C147.795 199.644 147.454 199.723 147.174 199.882C146.894 200.041 146.666 200.251 146.488 200.512C146.311 200.764 146.18 201.053 146.096 201.38C146.022 201.707 145.984 202.038 145.984 202.374C145.984 202.729 146.026 203.074 146.11 203.41C146.194 203.737 146.325 204.026 146.502 204.278C146.689 204.53 146.927 204.735 147.216 204.894C147.506 205.043 147.856 205.118 148.266 205.118ZM156.215 206.154C155.637 206.154 155.128 206.061 154.689 205.874C154.26 205.678 153.896 205.412 153.597 205.076C153.299 204.731 153.075 204.329 152.925 203.872C152.776 203.415 152.701 202.92 152.701 202.388C152.701 201.856 152.776 201.361 152.925 200.904C153.075 200.437 153.299 200.036 153.597 199.7C153.896 199.355 154.26 199.084 154.689 198.888C155.128 198.692 155.637 198.594 156.215 198.594C156.785 198.594 157.289 198.692 157.727 198.888C158.166 199.084 158.535 199.355 158.833 199.7C159.132 200.036 159.356 200.437 159.505 200.904C159.655 201.361 159.729 201.856 159.729 202.388C159.729 202.92 159.655 203.415 159.505 203.872C159.356 204.329 159.132 204.731 158.833 205.076C158.535 205.412 158.166 205.678 157.727 205.874C157.289 206.061 156.785 206.154 156.215 206.154ZM156.215 205.118C156.523 205.118 156.813 205.057 157.083 204.936C157.363 204.815 157.606 204.642 157.811 204.418C158.017 204.185 158.175 203.9 158.287 203.564C158.409 203.219 158.469 202.827 158.469 202.388C158.469 201.949 158.409 201.562 158.287 201.226C158.175 200.881 158.017 200.591 157.811 200.358C157.606 200.125 157.363 199.947 157.083 199.826C156.813 199.705 156.523 199.644 156.215 199.644C155.907 199.644 155.613 199.705 155.333 199.826C155.063 199.947 154.825 200.125 154.619 200.358C154.414 200.591 154.251 200.881 154.129 201.226C154.017 201.562 153.961 201.949 153.961 202.388C153.961 202.827 154.017 203.219 154.129 203.564C154.251 203.9 154.414 204.185 154.619 204.418C154.825 204.642 155.063 204.815 155.333 204.936C155.613 205.057 155.907 205.118 156.215 205.118ZM164.128 206.154C163.578 206.154 163.088 206.065 162.658 205.888C162.238 205.711 161.884 205.459 161.594 205.132C161.314 204.805 161.1 204.418 160.95 203.97C160.81 203.522 160.74 203.023 160.74 202.472C160.74 201.931 160.81 201.427 160.95 200.96C161.09 200.484 161.3 200.073 161.58 199.728C161.87 199.373 162.224 199.098 162.644 198.902C163.074 198.697 163.578 198.594 164.156 198.594C164.567 198.594 164.95 198.645 165.304 198.748C165.668 198.841 165.986 198.991 166.256 199.196C166.536 199.401 166.765 199.663 166.942 199.98C167.12 200.288 167.232 200.657 167.278 201.086H166.046C165.953 200.629 165.757 200.274 165.458 200.022C165.16 199.77 164.758 199.644 164.254 199.644C163.825 199.644 163.466 199.723 163.176 199.882C162.887 200.041 162.654 200.251 162.476 200.512C162.308 200.773 162.187 201.077 162.112 201.422C162.038 201.758 162 202.108 162 202.472C162 202.808 162.038 203.135 162.112 203.452C162.196 203.769 162.322 204.054 162.49 204.306C162.658 204.549 162.873 204.745 163.134 204.894C163.405 205.043 163.732 205.118 164.114 205.118C164.702 205.118 165.16 204.964 165.486 204.656C165.822 204.348 166.028 203.914 166.102 203.354H167.32C167.19 204.259 166.858 204.955 166.326 205.44C165.794 205.916 165.062 206.154 164.128 206.154ZM170.654 206.154C170.327 206.154 170.019 206.117 169.73 206.042C169.441 205.977 169.184 205.865 168.96 205.706C168.745 205.538 168.573 205.328 168.442 205.076C168.321 204.815 168.26 204.502 168.26 204.138C168.26 203.727 168.33 203.391 168.47 203.13C168.61 202.869 168.792 202.659 169.016 202.5C169.249 202.332 169.511 202.206 169.8 202.122C170.099 202.038 170.402 201.968 170.71 201.912C171.037 201.847 171.345 201.8 171.634 201.772C171.933 201.735 172.194 201.688 172.418 201.632C172.642 201.567 172.819 201.478 172.95 201.366C173.081 201.245 173.146 201.072 173.146 200.848C173.146 200.587 173.095 200.377 172.992 200.218C172.899 200.059 172.773 199.938 172.614 199.854C172.465 199.77 172.292 199.714 172.096 199.686C171.909 199.658 171.723 199.644 171.536 199.644C171.032 199.644 170.612 199.742 170.276 199.938C169.94 200.125 169.758 200.484 169.73 201.016H168.54C168.559 200.568 168.652 200.19 168.82 199.882C168.988 199.574 169.212 199.327 169.492 199.14C169.772 198.944 170.089 198.804 170.444 198.72C170.808 198.636 171.195 198.594 171.606 198.594C171.933 198.594 172.255 198.617 172.572 198.664C172.899 198.711 173.193 198.809 173.454 198.958C173.715 199.098 173.925 199.299 174.084 199.56C174.243 199.821 174.322 200.162 174.322 200.582V204.306C174.322 204.586 174.336 204.791 174.364 204.922C174.401 205.053 174.513 205.118 174.7 205.118C174.784 205.118 174.905 205.095 175.064 205.048V205.972C174.859 206.093 174.574 206.154 174.21 206.154C173.902 206.154 173.655 206.07 173.468 205.902C173.291 205.725 173.202 205.44 173.202 205.048C172.875 205.44 172.493 205.725 172.054 205.902C171.625 206.07 171.158 206.154 170.654 206.154ZM170.92 205.118C171.312 205.118 171.648 205.067 171.928 204.964C172.208 204.852 172.437 204.717 172.614 204.558C172.791 204.39 172.922 204.213 173.006 204.026C173.09 203.83 173.132 203.648 173.132 203.48V202.262C172.983 202.383 172.787 202.467 172.544 202.514C172.301 202.561 172.045 202.603 171.774 202.64C171.513 202.677 171.247 202.715 170.976 202.752C170.705 202.789 170.463 202.855 170.248 202.948C170.033 203.041 169.856 203.177 169.716 203.354C169.585 203.522 169.52 203.755 169.52 204.054C169.52 204.25 169.557 204.418 169.632 204.558C169.716 204.689 169.819 204.796 169.94 204.88C170.071 204.964 170.22 205.025 170.388 205.062C170.556 205.099 170.733 205.118 170.92 205.118ZM175.317 204.95H176.171C176.274 204.754 176.377 204.488 176.479 204.152C176.591 203.807 176.689 203.429 176.773 203.018C176.867 202.598 176.941 202.155 176.997 201.688C177.053 201.221 177.081 200.764 177.081 200.316V198.762H182.317V204.95H183.297V208.198H182.163V206H176.451V208.198H175.317V204.95ZM181.127 204.95V199.812H178.243V200.428C178.243 200.885 178.215 201.343 178.159 201.8C178.113 202.248 178.047 202.673 177.963 203.074C177.879 203.475 177.786 203.839 177.683 204.166C177.59 204.493 177.497 204.754 177.403 204.95H181.127ZM184.416 198.762H185.606V202.22L188.924 198.762H190.506L187.3 201.898L190.884 206H189.358L186.334 202.556L185.606 203.27V206H184.416V198.762ZM191.785 198.762H192.975V204.67L196.391 198.762H197.917V206H196.727V200.092L193.311 206H191.785V198.762Z" fill="#A567F7"/>
<path d="M38 169L71.9048 151.809C72.9198 151.294 73.6676 150.371 73.9608 149.272L82.9234 115.662C83.2817 114.319 84.3119 113.258 85.6442 112.86L114.966 104.107C116.238 103.727 117.239 102.741 117.637 101.475L136.579 41.2838C137.651 37.8744 142.317 37.4766 143.951 40.6551L156.779 65.5985C157.242 66.4991 158.03 67.1906 158.983 67.5332L200.099 82.3166C201.295 82.7464 202.215 83.7183 202.578 84.9353L214.779 125.759C214.925 126.249 215.163 126.705 215.481 127.105L234.5 151" stroke="#5A75FF"/>
<path d="M225.78 179.86H228.37C228.523 179.86 228.687 179.863 228.86 179.87C229.04 179.87 229.217 179.88 229.39 179.9C229.563 179.913 229.727 179.937 229.88 179.97C230.033 180.003 230.16 180.053 230.26 180.12C230.493 180.26 230.69 180.453 230.85 180.7C231.017 180.947 231.1 181.25 231.1 181.61C231.1 181.99 231.007 182.32 230.82 182.6C230.64 182.873 230.38 183.077 230.04 183.21V183.23C230.48 183.323 230.817 183.523 231.05 183.83C231.283 184.137 231.4 184.51 231.4 184.95C231.4 185.21 231.353 185.463 231.26 185.71C231.167 185.957 231.027 186.177 230.84 186.37C230.66 186.557 230.433 186.71 230.16 186.83C229.893 186.943 229.583 187 229.23 187H225.78V179.86ZM229.11 186.2C229.53 186.2 229.857 186.087 230.09 185.86C230.33 185.633 230.45 185.32 230.45 184.92C230.45 184.687 230.407 184.493 230.32 184.34C230.233 184.187 230.117 184.067 229.97 183.98C229.83 183.887 229.667 183.823 229.48 183.79C229.293 183.75 229.1 183.73 228.9 183.73H226.73V186.2H229.11ZM228.63 182.93C229.17 182.93 229.557 182.837 229.79 182.65C230.03 182.457 230.15 182.17 230.15 181.79C230.15 181.543 230.11 181.347 230.03 181.2C229.95 181.047 229.84 180.93 229.7 180.85C229.56 180.77 229.397 180.72 229.21 180.7C229.03 180.673 228.837 180.66 228.63 180.66H226.73V182.93H228.63ZM232.516 181.83H233.366V182.53H233.386C233.526 182.243 233.746 182.037 234.046 181.91C234.346 181.777 234.676 181.71 235.036 181.71C235.436 181.71 235.782 181.783 236.076 181.93C236.376 182.077 236.622 182.277 236.816 182.53C237.016 182.777 237.166 183.063 237.266 183.39C237.366 183.717 237.416 184.063 237.416 184.43C237.416 184.803 237.366 185.153 237.266 185.48C237.172 185.8 237.026 186.083 236.826 186.33C236.632 186.57 236.386 186.76 236.086 186.9C235.792 187.04 235.449 187.11 235.056 187.11C234.922 187.11 234.779 187.097 234.626 187.07C234.472 187.043 234.319 187 234.166 186.94C234.012 186.88 233.866 186.8 233.726 186.7C233.592 186.593 233.479 186.463 233.386 186.31H233.366V188.97H232.516V181.83ZM234.966 186.37C235.252 186.37 235.496 186.313 235.696 186.2C235.896 186.087 236.056 185.937 236.176 185.75C236.296 185.563 236.382 185.35 236.436 185.11C236.489 184.87 236.516 184.623 236.516 184.37C236.516 184.13 236.482 183.897 236.416 183.67C236.356 183.437 236.259 183.23 236.126 183.05C235.999 182.87 235.832 182.727 235.626 182.62C235.426 182.513 235.189 182.46 234.916 182.46C234.629 182.46 234.386 182.517 234.186 182.63C233.986 182.743 233.822 182.893 233.696 183.08C233.569 183.26 233.476 183.467 233.416 183.7C233.362 183.933 233.336 184.17 233.336 184.41C233.336 184.663 233.366 184.91 233.426 185.15C233.486 185.383 233.579 185.59 233.706 185.77C233.839 185.95 234.009 186.097 234.216 186.21C234.422 186.317 234.672 186.37 234.966 186.37ZM240.613 187.11C240.2 187.11 239.837 187.043 239.523 186.91C239.217 186.777 238.96 186.59 238.753 186.35C238.547 186.11 238.39 185.823 238.283 185.49C238.183 185.157 238.133 184.793 238.133 184.4C238.133 184.013 238.193 183.657 238.313 183.33C238.433 182.997 238.6 182.71 238.813 182.47C239.033 182.23 239.29 182.043 239.583 181.91C239.883 181.777 240.21 181.71 240.563 181.71C241.023 181.71 241.403 181.807 241.703 182C242.01 182.187 242.253 182.427 242.433 182.72C242.62 183.013 242.747 183.333 242.813 183.68C242.887 184.027 242.917 184.357 242.903 184.67H239.033C239.027 184.897 239.053 185.113 239.113 185.32C239.173 185.52 239.27 185.7 239.403 185.86C239.537 186.013 239.707 186.137 239.913 186.23C240.12 186.323 240.363 186.37 240.643 186.37C241.003 186.37 241.297 186.287 241.523 186.12C241.757 185.953 241.91 185.7 241.983 185.36H242.823C242.71 185.947 242.46 186.387 242.073 186.68C241.687 186.967 241.2 187.11 240.613 187.11ZM242.003 183.92C241.99 183.72 241.943 183.53 241.863 183.35C241.79 183.17 241.687 183.017 241.553 182.89C241.427 182.757 241.273 182.653 241.093 182.58C240.92 182.5 240.727 182.46 240.513 182.46C240.293 182.46 240.093 182.5 239.913 182.58C239.74 182.653 239.59 182.757 239.463 182.89C239.337 183.023 239.237 183.18 239.163 183.36C239.09 183.533 239.047 183.72 239.033 183.92H242.003ZM243.785 181.83H245.005L246.575 186.02H246.595L248.165 181.83H249.385V187H248.535V182.9L246.975 187H246.195L244.635 182.9V187H243.785V181.83ZM251.759 184.98C251.393 184.927 251.093 184.76 250.859 184.48C250.626 184.2 250.509 183.847 250.509 183.42C250.509 182.933 250.653 182.547 250.939 182.26C251.233 181.973 251.629 181.83 252.129 181.83H254.749V187H253.899V185.01H252.769L251.189 187H250.059L251.759 184.98ZM253.899 184.28V182.58H252.399C252.039 182.58 251.779 182.657 251.619 182.81C251.459 182.963 251.379 183.17 251.379 183.43C251.379 183.697 251.459 183.907 251.619 184.06C251.779 184.207 252.039 184.28 252.399 184.28H253.899Z" fill="#6A718B"/>
<path d="M39.8 21.16C39.2333 21.16 38.7367 21.06 38.31 20.86C37.8833 20.6533 37.5267 20.3767 37.24 20.03C36.9533 19.6833 36.7367 19.2867 36.59 18.84C36.45 18.3933 36.38 17.9233 36.38 17.43C36.38 16.9433 36.45 16.4767 36.59 16.03C36.7367 15.5767 36.9533 15.1767 37.24 14.83C37.5267 14.4833 37.8833 14.2067 38.31 14C38.7367 13.7933 39.2333 13.69 39.8 13.69C40.3667 13.69 40.8633 13.7933 41.29 14C41.7167 14.2067 42.0733 14.4833 42.36 14.83C42.6467 15.1767 42.86 15.5767 43 16.03C43.1467 16.4767 43.22 16.9433 43.22 17.43C43.22 17.9233 43.1467 18.3933 43 18.84C42.86 19.2867 42.6467 19.6833 42.36 20.03C42.0733 20.3767 41.7167 20.6533 41.29 20.86C40.8633 21.06 40.3667 21.16 39.8 21.16ZM39.8 20.37C40.2333 20.37 40.6067 20.2867 40.92 20.12C41.2333 19.9467 41.49 19.72 41.69 19.44C41.89 19.16 42.0367 18.8467 42.13 18.5C42.2233 18.1467 42.27 17.79 42.27 17.43C42.27 17.07 42.2233 16.7167 42.13 16.37C42.0367 16.0167 41.89 15.7 41.69 15.42C41.49 15.14 41.2333 14.9167 40.92 14.75C40.6067 14.5767 40.2333 14.49 39.8 14.49C39.3667 14.49 38.9933 14.5767 38.68 14.75C38.3667 14.9167 38.11 15.14 37.91 15.42C37.71 15.7 37.5633 16.0167 37.47 16.37C37.3767 16.7167 37.33 17.07 37.33 17.43C37.33 17.79 37.3767 18.1467 37.47 18.5C37.5633 18.8467 37.71 19.16 37.91 19.44C38.11 19.72 38.3667 19.9467 38.68 20.12C38.9933 20.2867 39.3667 20.37 39.8 20.37ZM44.2577 15.83H47.7977V16.58H45.1077V21H44.2577V15.83ZM48.5059 15.83H49.3559V16.53H49.3759C49.5159 16.2433 49.7359 16.0367 50.0359 15.91C50.3359 15.7767 50.6659 15.71 51.0259 15.71C51.4259 15.71 51.7726 15.7833 52.0659 15.93C52.3659 16.0767 52.6126 16.2767 52.8059 16.53C53.0059 16.7767 53.1559 17.0633 53.2559 17.39C53.3559 17.7167 53.4059 18.0633 53.4059 18.43C53.4059 18.8033 53.3559 19.1533 53.2559 19.48C53.1626 19.8 53.0159 20.0833 52.8159 20.33C52.6226 20.57 52.3759 20.76 52.0759 20.9C51.7826 21.04 51.4393 21.11 51.0459 21.11C50.9126 21.11 50.7693 21.0967 50.6159 21.07C50.4626 21.0433 50.3093 21 50.1559 20.94C50.0026 20.88 49.8559 20.8 49.7159 20.7C49.5826 20.5933 49.4693 20.4633 49.3759 20.31H49.3559V22.97H48.5059V15.83ZM50.9559 20.37C51.2426 20.37 51.4859 20.3133 51.6859 20.2C51.8859 20.0867 52.0459 19.9367 52.1659 19.75C52.2859 19.5633 52.3726 19.35 52.4259 19.11C52.4793 18.87 52.5059 18.6233 52.5059 18.37C52.5059 18.13 52.4726 17.8967 52.4059 17.67C52.3459 17.4367 52.2493 17.23 52.1159 17.05C51.9893 16.87 51.8226 16.7267 51.6159 16.62C51.4159 16.5133 51.1793 16.46 50.9059 16.46C50.6193 16.46 50.3759 16.5167 50.1759 16.63C49.9759 16.7433 49.8126 16.8933 49.6859 17.08C49.5593 17.26 49.4659 17.4667 49.4059 17.7C49.3526 17.9333 49.3259 18.17 49.3259 18.41C49.3259 18.6633 49.3559 18.91 49.4159 19.15C49.4759 19.3833 49.5693 19.59 49.6959 19.77C49.8293 19.95 49.9993 20.0967 50.2059 20.21C50.4126 20.3167 50.6626 20.37 50.9559 20.37ZM55.8337 21.11C55.6003 21.11 55.3803 21.0833 55.1737 21.03C54.967 20.9833 54.7837 20.9033 54.6237 20.79C54.4703 20.67 54.347 20.52 54.2537 20.34C54.167 20.1533 54.1237 19.93 54.1237 19.67C54.1237 19.3767 54.1737 19.1367 54.2737 18.95C54.3737 18.7633 54.5037 18.6133 54.6637 18.5C54.8303 18.38 55.017 18.29 55.2237 18.23C55.437 18.17 55.6537 18.12 55.8737 18.08C56.107 18.0333 56.327 18 56.5337 17.98C56.747 17.9533 56.9337 17.92 57.0937 17.88C57.2537 17.8333 57.3803 17.77 57.4737 17.69C57.567 17.6033 57.6137 17.48 57.6137 17.32C57.6137 17.1333 57.577 16.9833 57.5037 16.87C57.437 16.7567 57.347 16.67 57.2337 16.61C57.127 16.55 57.0037 16.51 56.8637 16.49C56.7303 16.47 56.597 16.46 56.4637 16.46C56.1037 16.46 55.8037 16.53 55.5637 16.67C55.3237 16.8033 55.1937 17.06 55.1737 17.44H54.3237C54.337 17.12 54.4037 16.85 54.5237 16.63C54.6437 16.41 54.8037 16.2333 55.0037 16.1C55.2037 15.96 55.4303 15.86 55.6837 15.8C55.9437 15.74 56.2203 15.71 56.5137 15.71C56.747 15.71 56.977 15.7267 57.2037 15.76C57.437 15.7933 57.647 15.8633 57.8337 15.97C58.0203 16.07 58.1703 16.2133 58.2837 16.4C58.397 16.5867 58.4537 16.83 58.4537 17.13V19.79C58.4537 19.99 58.4637 20.1367 58.4837 20.23C58.5103 20.3233 58.5903 20.37 58.7237 20.37C58.7837 20.37 58.8703 20.3533 58.9837 20.32V20.98C58.837 21.0667 58.6337 21.11 58.3737 21.11C58.1537 21.11 57.977 21.05 57.8437 20.93C57.717 20.8033 57.6537 20.6 57.6537 20.32C57.4203 20.6 57.147 20.8033 56.8337 20.93C56.527 21.05 56.1937 21.11 55.8337 21.11ZM56.0237 20.37C56.3037 20.37 56.5437 20.3333 56.7437 20.26C56.9437 20.18 57.107 20.0833 57.2337 19.97C57.3603 19.85 57.4537 19.7233 57.5137 19.59C57.5737 19.45 57.6037 19.32 57.6037 19.2V18.33C57.497 18.4167 57.357 18.4767 57.1837 18.51C57.0103 18.5433 56.827 18.5733 56.6337 18.6C56.447 18.6267 56.257 18.6533 56.0637 18.68C55.8703 18.7067 55.697 18.7533 55.5437 18.82C55.3903 18.8867 55.2637 18.9833 55.1637 19.11C55.0703 19.23 55.0237 19.3967 55.0237 19.61C55.0237 19.75 55.0503 19.87 55.1037 19.97C55.1637 20.0633 55.237 20.14 55.3237 20.2C55.417 20.26 55.5237 20.3033 55.6437 20.33C55.7637 20.3567 55.8903 20.37 56.0237 20.37ZM59.7748 15.83H60.6248V17.89H63.2448V15.83H64.0948V21H63.2448V18.62H60.6248V21H59.7748V15.83ZM65.3705 15.83H66.2205V20.05L68.6605 15.83H69.7505V21H68.9005V16.78L66.4605 21H65.3705V15.83ZM74.1345 18.9C73.9812 18.9667 73.7679 19.03 73.4945 19.09C73.2212 19.15 72.9345 19.18 72.6345 19.18C71.9945 19.18 71.5379 19.0433 71.2645 18.77C70.9912 18.49 70.8545 18.1 70.8545 17.6V15.83H71.7045V17.46C71.7045 17.8 71.7812 18.0533 71.9345 18.22C72.0945 18.38 72.3812 18.46 72.7945 18.46C73.0479 18.46 73.2979 18.4333 73.5445 18.38C73.7912 18.3267 73.9879 18.2667 74.1345 18.2V15.83H74.9845V21H74.1345V18.9ZM78.4689 21.11C78.0556 21.11 77.6922 21.0433 77.3789 20.91C77.0722 20.7767 76.8156 20.59 76.6089 20.35C76.4022 20.11 76.2456 19.8233 76.1389 19.49C76.0389 19.1567 75.9889 18.7933 75.9889 18.4C75.9889 18.0133 76.0489 17.6567 76.1689 17.33C76.2889 16.9967 76.4556 16.71 76.6689 16.47C76.8889 16.23 77.1456 16.0433 77.4389 15.91C77.7389 15.7767 78.0656 15.71 78.4189 15.71C78.8789 15.71 79.2589 15.8067 79.5589 16C79.8656 16.1867 80.1089 16.4267 80.2889 16.72C80.4756 17.0133 80.6022 17.3333 80.6689 17.68C80.7422 18.0267 80.7722 18.3567 80.7589 18.67H76.8889C76.8822 18.8967 76.9089 19.1133 76.9689 19.32C77.0289 19.52 77.1256 19.7 77.2589 19.86C77.3922 20.0133 77.5622 20.1367 77.7689 20.23C77.9756 20.3233 78.2189 20.37 78.4989 20.37C78.8589 20.37 79.1522 20.2867 79.3789 20.12C79.6122 19.9533 79.7656 19.7 79.8389 19.36H80.6789C80.5656 19.9467 80.3156 20.3867 79.9289 20.68C79.5422 20.9667 79.0556 21.11 78.4689 21.11ZM79.8589 17.92C79.8456 17.72 79.7989 17.53 79.7189 17.35C79.6456 17.17 79.5422 17.0167 79.4089 16.89C79.2822 16.7567 79.1289 16.6533 78.9489 16.58C78.7756 16.5 78.5822 16.46 78.3689 16.46C78.1489 16.46 77.9489 16.5 77.7689 16.58C77.5956 16.6533 77.4456 16.7567 77.3189 16.89C77.1922 17.0233 77.0922 17.18 77.0189 17.36C76.9456 17.5333 76.9022 17.72 76.8889 17.92H79.8589ZM81.64 15.83H82.49V17.89H85.11V15.83H85.96V21H85.11V18.62H82.49V21H81.64V15.83ZM87.2357 15.83H88.0857V20.05L90.5257 15.83H91.6157V21H90.7657V16.78L88.3257 21H87.2357V15.83ZM95.0998 21.11C94.6864 21.11 94.3231 21.0433 94.0098 20.91C93.7031 20.7767 93.4464 20.59 93.2398 20.35C93.0331 20.11 92.8764 19.8233 92.7698 19.49C92.6698 19.1567 92.6198 18.7933 92.6198 18.4C92.6198 18.0133 92.6798 17.6567 92.7998 17.33C92.9198 16.9967 93.0864 16.71 93.2998 16.47C93.5198 16.23 93.7764 16.0433 94.0698 15.91C94.3698 15.7767 94.6964 15.71 95.0498 15.71C95.5098 15.71 95.8898 15.8067 96.1898 16C96.4964 16.1867 96.7398 16.4267 96.9198 16.72C97.1064 17.0133 97.2331 17.3333 97.2998 17.68C97.3731 18.0267 97.4031 18.3567 97.3898 18.67H93.5198C93.5131 18.8967 93.5398 19.1133 93.5998 19.32C93.6598 19.52 93.7564 19.7 93.8898 19.86C94.0231 20.0133 94.1931 20.1367 94.3998 20.23C94.6064 20.3233 94.8498 20.37 95.1298 20.37C95.4898 20.37 95.7831 20.2867 96.0098 20.12C96.2431 19.9533 96.3964 19.7 96.4698 19.36H97.3098C97.1964 19.9467 96.9464 20.3867 96.5598 20.68C96.1731 20.9667 95.6864 21.11 95.0998 21.11ZM96.4898 17.92C96.4764 17.72 96.4298 17.53 96.3498 17.35C96.2764 17.17 96.1731 17.0167 96.0398 16.89C95.9131 16.7567 95.7598 16.6533 95.5798 16.58C95.4064 16.5 95.2131 16.46 94.9998 16.46C94.7798 16.46 94.5798 16.5 94.3998 16.58C94.2264 16.6533 94.0764 16.7567 93.9498 16.89C93.8231 17.0233 93.7231 17.18 93.6498 17.36C93.5764 17.5333 93.5331 17.72 93.5198 17.92H96.4898ZM104.644 17.92C104.631 17.72 104.584 17.53 104.504 17.35C104.431 17.17 104.327 17.0167 104.194 16.89C104.067 16.7567 103.914 16.6533 103.734 16.58C103.561 16.5 103.367 16.46 103.154 16.46C102.934 16.46 102.734 16.5 102.554 16.58C102.381 16.6533 102.231 16.7567 102.104 16.89C101.977 17.0233 101.877 17.18 101.804 17.36C101.731 17.5333 101.687 17.72 101.674 17.92H104.644ZM105.464 19.36C105.351 19.94 105.101 20.3767 104.714 20.67C104.327 20.9633 103.841 21.11 103.254 21.11C102.841 21.11 102.481 21.0433 102.174 20.91C101.874 20.7767 101.621 20.59 101.414 20.35C101.207 20.11 101.051 19.8233 100.944 19.49C100.844 19.1567 100.787 18.7933 100.774 18.4C100.774 18.0067 100.834 17.6467 100.954 17.32C101.074 16.9933 101.241 16.71 101.454 16.47C101.674 16.23 101.931 16.0433 102.224 15.91C102.524 15.7767 102.851 15.71 103.204 15.71C103.664 15.71 104.044 15.8067 104.344 16C104.651 16.1867 104.894 16.4267 105.074 16.72C105.261 17.0133 105.387 17.3333 105.454 17.68C105.527 18.0267 105.557 18.3567 105.544 18.67H101.674C101.667 18.8967 101.694 19.1133 101.754 19.32C101.814 19.52 101.911 19.7 102.044 19.86C102.177 20.0133 102.347 20.1367 102.554 20.23C102.761 20.3233 103.004 20.37 103.284 20.37C103.644 20.37 103.937 20.2867 104.164 20.12C104.397 19.9533 104.551 19.7 104.624 19.36H105.464ZM107.045 18.46C107.045 18.7 107.075 18.9367 107.135 19.17C107.202 19.3967 107.298 19.6 107.425 19.78C107.558 19.96 107.725 20.1033 107.925 20.21C108.132 20.3167 108.372 20.37 108.645 20.37C108.932 20.37 109.175 20.3133 109.375 20.2C109.575 20.0867 109.738 19.94 109.865 19.76C109.992 19.5733 110.082 19.3633 110.135 19.13C110.195 18.8967 110.225 18.66 110.225 18.42C110.225 18.1667 110.195 17.9233 110.135 17.69C110.075 17.45 109.978 17.24 109.845 17.06C109.718 16.88 109.552 16.7367 109.345 16.63C109.138 16.5167 108.888 16.46 108.595 16.46C108.308 16.46 108.065 16.5167 107.865 16.63C107.665 16.7433 107.505 16.8933 107.385 17.08C107.265 17.2667 107.178 17.48 107.125 17.72C107.072 17.96 107.045 18.2067 107.045 18.46ZM111.045 22.97H110.195V20.3H110.175C110.035 20.5867 109.815 20.7933 109.515 20.92C109.215 21.0467 108.885 21.11 108.525 21.11C108.125 21.11 107.775 21.0367 107.475 20.89C107.182 20.7433 106.935 20.5467 106.735 20.3C106.542 20.0533 106.395 19.7667 106.295 19.44C106.195 19.1133 106.145 18.7667 106.145 18.4C106.145 18.0333 106.192 17.6867 106.285 17.36C106.385 17.0333 106.532 16.75 106.725 16.51C106.925 16.2633 107.172 16.07 107.465 15.93C107.765 15.7833 108.112 15.71 108.505 15.71C108.638 15.71 108.782 15.7233 108.935 15.75C109.088 15.7767 109.242 15.8233 109.395 15.89C109.548 15.95 109.692 16.0333 109.825 16.14C109.965 16.24 110.082 16.3667 110.175 16.52H110.195V15.83H111.045V22.97ZM116.633 21H115.833V20.18H115.813C115.633 20.5 115.403 20.7367 115.123 20.89C114.843 21.0367 114.513 21.11 114.133 21.11C113.793 21.11 113.51 21.0667 113.283 20.98C113.056 20.8867 112.873 20.7567 112.733 20.59C112.593 20.4233 112.493 20.2267 112.433 20C112.38 19.7667 112.353 19.51 112.353 19.23V15.83H113.203V19.33C113.203 19.65 113.296 19.9033 113.483 20.09C113.67 20.2767 113.926 20.37 114.253 20.37C114.513 20.37 114.736 20.33 114.923 20.25C115.116 20.17 115.276 20.0567 115.403 19.91C115.53 19.7633 115.623 19.5933 115.683 19.4C115.75 19.2 115.783 18.9833 115.783 18.75V15.83H116.633V21ZM118.81 14.9H117.96V13.86H118.81V14.9ZM117.96 15.83H118.81V21H117.96V15.83ZM121.306 15.83H122.336V16.58H121.306V19.79C121.306 19.89 121.313 19.97 121.326 20.03C121.346 20.09 121.38 20.1367 121.426 20.17C121.473 20.2033 121.536 20.2267 121.616 20.24C121.703 20.2467 121.813 20.25 121.946 20.25H122.336V21H121.686C121.466 21 121.276 20.9867 121.116 20.96C120.963 20.9267 120.836 20.87 120.736 20.79C120.643 20.71 120.573 20.5967 120.526 20.45C120.48 20.3033 120.456 20.11 120.456 19.87V16.58H119.576V15.83H120.456V14.28H121.306V15.83ZM125.311 21.69C125.211 21.9433 125.111 22.1567 125.011 22.33C124.917 22.5033 124.811 22.6433 124.691 22.75C124.577 22.8633 124.447 22.9433 124.301 22.99C124.161 23.0433 123.997 23.07 123.811 23.07C123.711 23.07 123.611 23.0633 123.511 23.05C123.411 23.0367 123.314 23.0133 123.221 22.98V22.2C123.294 22.2333 123.377 22.26 123.471 22.28C123.571 22.3067 123.654 22.32 123.721 22.32C123.894 22.32 124.037 22.2767 124.151 22.19C124.271 22.11 124.361 21.9933 124.421 21.84L124.771 20.97L122.721 15.83H123.681L125.191 20.06H125.211L126.661 15.83H127.561L125.311 21.69Z" fill="#6A718B"/>
<path d="M6.616 41.14C6.656 41.148 6.692 41.152 6.724 41.152C6.764 41.152 6.804 41.152 6.844 41.152H7.06C7.276 41.152 7.48 41.124 7.672 41.068C7.872 41.004 8.044 40.916 8.188 40.804C8.34 40.684 8.46 40.536 8.548 40.36C8.636 40.184 8.68 39.984 8.68 39.76C8.68 39.304 8.536 38.964 8.248 38.74C7.96 38.508 7.6 38.392 7.168 38.392C6.896 38.392 6.656 38.444 6.448 38.548C6.248 38.644 6.08 38.776 5.944 38.944C5.816 39.112 5.72 39.308 5.656 39.532C5.592 39.756 5.56 39.992 5.56 40.24H4.54C4.556 39.832 4.62 39.46 4.732 39.124C4.852 38.788 5.02 38.5 5.236 38.26C5.452 38.02 5.72 37.832 6.04 37.696C6.368 37.56 6.744 37.492 7.168 37.492C7.536 37.492 7.876 37.54 8.188 37.636C8.508 37.724 8.784 37.86 9.016 38.044C9.248 38.228 9.428 38.464 9.556 38.752C9.692 39.04 9.76 39.38 9.76 39.772C9.76 40.156 9.648 40.496 9.424 40.792C9.2 41.088 8.92 41.312 8.584 41.464V41.488C9.104 41.6 9.488 41.844 9.736 42.22C9.992 42.596 10.12 43.04 10.12 43.552C10.12 43.976 10.04 44.352 9.88 44.68C9.728 45 9.52 45.268 9.256 45.484C8.992 45.7 8.68 45.864 8.32 45.976C7.968 46.08 7.592 46.132 7.192 46.132C6.76 46.132 6.368 46.072 6.016 45.952C5.664 45.832 5.364 45.656 5.116 45.424C4.868 45.184 4.676 44.892 4.54 44.548C4.412 44.204 4.352 43.812 4.36 43.372H5.38C5.396 43.924 5.556 44.376 5.86 44.728C6.164 45.072 6.608 45.244 7.192 45.244C7.44 45.244 7.676 45.208 7.9 45.136C8.124 45.056 8.32 44.948 8.488 44.812C8.656 44.668 8.788 44.496 8.884 44.296C8.988 44.088 9.04 43.856 9.04 43.6C9.04 43.336 8.992 43.104 8.896 42.904C8.8 42.696 8.672 42.524 8.512 42.388C8.352 42.244 8.16 42.14 7.936 42.076C7.72 42.004 7.484 41.968 7.228 41.968C7.012 41.968 6.808 41.98 6.616 42.004V41.14ZM12.252 41.812C12.252 42.132 12.26 42.492 12.276 42.892C12.3 43.284 12.364 43.656 12.468 44.008C12.58 44.352 12.756 44.644 12.996 44.884C13.236 45.124 13.572 45.244 14.004 45.244C14.436 45.244 14.772 45.124 15.012 44.884C15.252 44.644 15.424 44.352 15.528 44.008C15.64 43.656 15.704 43.284 15.72 42.892C15.744 42.492 15.756 42.132 15.756 41.812C15.756 41.604 15.752 41.376 15.744 41.128C15.744 40.872 15.724 40.62 15.684 40.372C15.652 40.116 15.6 39.868 15.528 39.628C15.464 39.388 15.364 39.18 15.228 39.004C15.1 38.82 14.936 38.672 14.736 38.56C14.536 38.448 14.292 38.392 14.004 38.392C13.716 38.392 13.472 38.448 13.272 38.56C13.072 38.672 12.904 38.82 12.768 39.004C12.64 39.18 12.54 39.388 12.468 39.628C12.404 39.868 12.352 40.116 12.312 40.372C12.28 40.62 12.26 40.872 12.252 41.128C12.252 41.376 12.252 41.604 12.252 41.812ZM11.172 41.824C11.172 41.512 11.18 41.188 11.196 40.852C11.212 40.516 11.252 40.188 11.316 39.868C11.38 39.548 11.472 39.244 11.592 38.956C11.712 38.668 11.876 38.416 12.084 38.2C12.292 37.984 12.552 37.812 12.864 37.684C13.184 37.556 13.564 37.492 14.004 37.492C14.444 37.492 14.82 37.556 15.132 37.684C15.452 37.812 15.716 37.984 15.924 38.2C16.132 38.416 16.296 38.668 16.416 38.956C16.536 39.244 16.628 39.548 16.692 39.868C16.756 40.188 16.796 40.516 16.812 40.852C16.828 41.188 16.836 41.512 16.836 41.824C16.836 42.136 16.828 42.46 16.812 42.796C16.796 43.132 16.756 43.46 16.692 43.78C16.628 44.1 16.536 44.404 16.416 44.692C16.296 44.972 16.132 45.22 15.924 45.436C15.716 45.652 15.456 45.824 15.144 45.952C14.832 46.072 14.452 46.132 14.004 46.132C13.564 46.132 13.184 46.072 12.864 45.952C12.552 45.824 12.292 45.652 12.084 45.436C11.876 45.22 11.712 44.972 11.592 44.692C11.472 44.404 11.38 44.1 11.316 43.78C11.252 43.46 11.212 43.132 11.196 42.796C11.18 42.46 11.172 42.136 11.172 41.824ZM19.3399 39.904C19.3399 40.08 19.3479 40.272 19.3639 40.48C19.3879 40.68 19.4359 40.868 19.5079 41.044C19.5799 41.212 19.6799 41.356 19.8079 41.476C19.9439 41.588 20.1239 41.644 20.3479 41.644C20.5799 41.644 20.7639 41.588 20.8999 41.476C21.0359 41.364 21.1399 41.224 21.2119 41.056C21.2919 40.88 21.3439 40.688 21.3679 40.48C21.3919 40.272 21.4039 40.076 21.4039 39.892C21.4039 39.716 21.3919 39.528 21.3679 39.328C21.3519 39.12 21.3079 38.932 21.2359 38.764C21.1639 38.588 21.0599 38.444 20.9239 38.332C20.7959 38.212 20.6159 38.152 20.3839 38.152C20.1599 38.152 19.9799 38.212 19.8439 38.332C19.7079 38.444 19.5999 38.588 19.5199 38.764C19.4479 38.932 19.3999 39.12 19.3759 39.328C19.3519 39.528 19.3399 39.72 19.3399 39.904ZM18.4399 39.928C18.4399 39.6 18.4719 39.292 18.5359 39.004C18.5999 38.708 18.7079 38.448 18.8599 38.224C19.0119 38 19.2119 37.824 19.4599 37.696C19.7079 37.56 20.0159 37.492 20.3839 37.492C20.7599 37.492 21.0679 37.556 21.3079 37.684C21.5559 37.812 21.7519 37.984 21.8959 38.2C22.0479 38.416 22.1519 38.672 22.2079 38.968C22.2719 39.256 22.3039 39.564 22.3039 39.892C22.3039 40.204 22.2679 40.508 22.1959 40.804C22.1319 41.092 22.0199 41.348 21.8599 41.572C21.7079 41.788 21.5119 41.964 21.2719 42.1C21.0319 42.236 20.7359 42.304 20.3839 42.304C20.0239 42.304 19.7199 42.244 19.4719 42.124C19.2239 41.996 19.0239 41.824 18.8719 41.608C18.7199 41.392 18.6079 41.14 18.5359 40.852C18.4719 40.564 18.4399 40.256 18.4399 39.928ZM25.2679 43.744C25.2679 43.92 25.2759 44.112 25.2919 44.32C25.3159 44.52 25.3639 44.708 25.4359 44.884C25.5079 45.052 25.6079 45.196 25.7359 45.316C25.8719 45.428 26.0519 45.484 26.2759 45.484C26.5079 45.484 26.6919 45.428 26.8279 45.316C26.9639 45.204 27.0679 45.064 27.1399 44.896C27.2199 44.72 27.2719 44.528 27.2959 44.32C27.3199 44.112 27.3319 43.916 27.3319 43.732C27.3319 43.556 27.3199 43.368 27.2959 43.168C27.2799 42.96 27.2359 42.772 27.1639 42.604C27.0919 42.428 26.9879 42.284 26.8519 42.172C26.7239 42.052 26.5439 41.992 26.3119 41.992C26.0879 41.992 25.9079 42.052 25.7719 42.172C25.6359 42.284 25.5279 42.428 25.4479 42.604C25.3759 42.772 25.3279 42.96 25.3039 43.168C25.2799 43.368 25.2679 43.56 25.2679 43.744ZM24.3679 43.768C24.3679 43.44 24.3999 43.132 24.4639 42.844C24.5279 42.548 24.6359 42.288 24.7879 42.064C24.9399 41.84 25.1399 41.664 25.3879 41.536C25.6359 41.4 25.9439 41.332 26.3119 41.332C26.6879 41.332 26.9959 41.396 27.2359 41.524C27.4839 41.652 27.6799 41.824 27.8239 42.04C27.9759 42.256 28.0799 42.512 28.1359 42.808C28.1999 43.096 28.2319 43.404 28.2319 43.732C28.2319 44.044 28.1959 44.348 28.1239 44.644C28.0599 44.932 27.9479 45.188 27.7879 45.412C27.6359 45.628 27.4399 45.804 27.1999 45.94C26.9599 46.068 26.6639 46.132 26.3119 46.132C25.9519 46.132 25.6479 46.072 25.3999 45.952C25.1519 45.824 24.9519 45.656 24.7999 45.448C24.6479 45.232 24.5359 44.98 24.4639 44.692C24.3999 44.404 24.3679 44.096 24.3679 43.768ZM26.0479 37.336H27.0679L20.6239 46.252H19.5919L26.0479 37.336Z" fill="#6A718B"/>
<path d="M4.528 81.504C4.504 81.072 4.548 80.672 4.66 80.304C4.772 79.936 4.944 79.62 5.176 79.356C5.416 79.084 5.712 78.872 6.064 78.72C6.416 78.568 6.816 78.492 7.264 78.492C7.632 78.492 7.976 78.548 8.296 78.66C8.624 78.764 8.908 78.92 9.148 79.128C9.388 79.328 9.576 79.58 9.712 79.884C9.856 80.188 9.928 80.54 9.928 80.94C9.928 81.316 9.868 81.648 9.748 81.936C9.636 82.224 9.484 82.484 9.292 82.716C9.1 82.94 8.88 83.144 8.632 83.328C8.384 83.512 8.128 83.688 7.864 83.856C7.6 84.016 7.336 84.176 7.072 84.336C6.808 84.488 6.564 84.652 6.34 84.828C6.124 85.004 5.936 85.196 5.776 85.404C5.624 85.604 5.524 85.836 5.476 86.1H9.844V87H4.288C4.328 86.496 4.416 86.068 4.552 85.716C4.696 85.356 4.876 85.044 5.092 84.78C5.308 84.516 5.552 84.284 5.824 84.084C6.096 83.884 6.38 83.696 6.676 83.52C7.036 83.296 7.352 83.092 7.624 82.908C7.896 82.716 8.12 82.524 8.296 82.332C8.48 82.14 8.616 81.932 8.704 81.708C8.8 81.484 8.848 81.224 8.848 80.928C8.848 80.696 8.804 80.488 8.716 80.304C8.628 80.112 8.508 79.948 8.356 79.812C8.212 79.676 8.04 79.572 7.84 79.5C7.64 79.428 7.428 79.392 7.204 79.392C6.908 79.392 6.652 79.456 6.436 79.584C6.228 79.704 6.056 79.864 5.92 80.064C5.784 80.264 5.684 80.492 5.62 80.748C5.564 80.996 5.54 81.248 5.548 81.504H4.528ZM12.252 82.812C12.252 83.132 12.26 83.492 12.276 83.892C12.3 84.284 12.364 84.656 12.468 85.008C12.58 85.352 12.756 85.644 12.996 85.884C13.236 86.124 13.572 86.244 14.004 86.244C14.436 86.244 14.772 86.124 15.012 85.884C15.252 85.644 15.424 85.352 15.528 85.008C15.64 84.656 15.704 84.284 15.72 83.892C15.744 83.492 15.756 83.132 15.756 82.812C15.756 82.604 15.752 82.376 15.744 82.128C15.744 81.872 15.724 81.62 15.684 81.372C15.652 81.116 15.6 80.868 15.528 80.628C15.464 80.388 15.364 80.18 15.228 80.004C15.1 79.82 14.936 79.672 14.736 79.56C14.536 79.448 14.292 79.392 14.004 79.392C13.716 79.392 13.472 79.448 13.272 79.56C13.072 79.672 12.904 79.82 12.768 80.004C12.64 80.18 12.54 80.388 12.468 80.628C12.404 80.868 12.352 81.116 12.312 81.372C12.28 81.62 12.26 81.872 12.252 82.128C12.252 82.376 12.252 82.604 12.252 82.812ZM11.172 82.824C11.172 82.512 11.18 82.188 11.196 81.852C11.212 81.516 11.252 81.188 11.316 80.868C11.38 80.548 11.472 80.244 11.592 79.956C11.712 79.668 11.876 79.416 12.084 79.2C12.292 78.984 12.552 78.812 12.864 78.684C13.184 78.556 13.564 78.492 14.004 78.492C14.444 78.492 14.82 78.556 15.132 78.684C15.452 78.812 15.716 78.984 15.924 79.2C16.132 79.416 16.296 79.668 16.416 79.956C16.536 80.244 16.628 80.548 16.692 80.868C16.756 81.188 16.796 81.516 16.812 81.852C16.828 82.188 16.836 82.512 16.836 82.824C16.836 83.136 16.828 83.46 16.812 83.796C16.796 84.132 16.756 84.46 16.692 84.78C16.628 85.1 16.536 85.404 16.416 85.692C16.296 85.972 16.132 86.22 15.924 86.436C15.716 86.652 15.456 86.824 15.144 86.952C14.832 87.072 14.452 87.132 14.004 87.132C13.564 87.132 13.184 87.072 12.864 86.952C12.552 86.824 12.292 86.652 12.084 86.436C11.876 86.22 11.712 85.972 11.592 85.692C11.472 85.404 11.38 85.1 11.316 84.78C11.252 84.46 11.212 84.132 11.196 83.796C11.18 83.46 11.172 83.136 11.172 82.824ZM19.3399 80.904C19.3399 81.08 19.3479 81.272 19.3639 81.48C19.3879 81.68 19.4359 81.868 19.5079 82.044C19.5799 82.212 19.6799 82.356 19.8079 82.476C19.9439 82.588 20.1239 82.644 20.3479 82.644C20.5799 82.644 20.7639 82.588 20.8999 82.476C21.0359 82.364 21.1399 82.224 21.2119 82.056C21.2919 81.88 21.3439 81.688 21.3679 81.48C21.3919 81.272 21.4039 81.076 21.4039 80.892C21.4039 80.716 21.3919 80.528 21.3679 80.328C21.3519 80.12 21.3079 79.932 21.2359 79.764C21.1639 79.588 21.0599 79.444 20.9239 79.332C20.7959 79.212 20.6159 79.152 20.3839 79.152C20.1599 79.152 19.9799 79.212 19.8439 79.332C19.7079 79.444 19.5999 79.588 19.5199 79.764C19.4479 79.932 19.3999 80.12 19.3759 80.328C19.3519 80.528 19.3399 80.72 19.3399 80.904ZM18.4399 80.928C18.4399 80.6 18.4719 80.292 18.5359 80.004C18.5999 79.708 18.7079 79.448 18.8599 79.224C19.0119 79 19.2119 78.824 19.4599 78.696C19.7079 78.56 20.0159 78.492 20.3839 78.492C20.7599 78.492 21.0679 78.556 21.3079 78.684C21.5559 78.812 21.7519 78.984 21.8959 79.2C22.0479 79.416 22.1519 79.672 22.2079 79.968C22.2719 80.256 22.3039 80.564 22.3039 80.892C22.3039 81.204 22.2679 81.508 22.1959 81.804C22.1319 82.092 22.0199 82.348 21.8599 82.572C21.7079 82.788 21.5119 82.964 21.2719 83.1C21.0319 83.236 20.7359 83.304 20.3839 83.304C20.0239 83.304 19.7199 83.244 19.4719 83.124C19.2239 82.996 19.0239 82.824 18.8719 82.608C18.7199 82.392 18.6079 82.14 18.5359 81.852C18.4719 81.564 18.4399 81.256 18.4399 80.928ZM25.2679 84.744C25.2679 84.92 25.2759 85.112 25.2919 85.32C25.3159 85.52 25.3639 85.708 25.4359 85.884C25.5079 86.052 25.6079 86.196 25.7359 86.316C25.8719 86.428 26.0519 86.484 26.2759 86.484C26.5079 86.484 26.6919 86.428 26.8279 86.316C26.9639 86.204 27.0679 86.064 27.1399 85.896C27.2199 85.72 27.2719 85.528 27.2959 85.32C27.3199 85.112 27.3319 84.916 27.3319 84.732C27.3319 84.556 27.3199 84.368 27.2959 84.168C27.2799 83.96 27.2359 83.772 27.1639 83.604C27.0919 83.428 26.9879 83.284 26.8519 83.172C26.7239 83.052 26.5439 82.992 26.3119 82.992C26.0879 82.992 25.9079 83.052 25.7719 83.172C25.6359 83.284 25.5279 83.428 25.4479 83.604C25.3759 83.772 25.3279 83.96 25.3039 84.168C25.2799 84.368 25.2679 84.56 25.2679 84.744ZM24.3679 84.768C24.3679 84.44 24.3999 84.132 24.4639 83.844C24.5279 83.548 24.6359 83.288 24.7879 83.064C24.9399 82.84 25.1399 82.664 25.3879 82.536C25.6359 82.4 25.9439 82.332 26.3119 82.332C26.6879 82.332 26.9959 82.396 27.2359 82.524C27.4839 82.652 27.6799 82.824 27.8239 83.04C27.9759 83.256 28.0799 83.512 28.1359 83.808C28.1999 84.096 28.2319 84.404 28.2319 84.732C28.2319 85.044 28.1959 85.348 28.1239 85.644C28.0599 85.932 27.9479 86.188 27.7879 86.412C27.6359 86.628 27.4399 86.804 27.1999 86.94C26.9599 87.068 26.6639 87.132 26.3119 87.132C25.9519 87.132 25.6479 87.072 25.3999 86.952C25.1519 86.824 24.9519 86.656 24.7999 86.448C24.6479 86.232 24.5359 85.98 24.4639 85.692C24.3999 85.404 24.3679 85.096 24.3679 84.768ZM26.0479 78.336H27.0679L20.6239 87.252H19.5919L26.0479 78.336Z" fill="#6A718B"/>
<path d="M8.272 128H7.252V121.904H5.044V121.088C5.332 121.088 5.612 121.068 5.884 121.028C6.156 120.98 6.4 120.896 6.616 120.776C6.84 120.656 7.028 120.492 7.18 120.284C7.332 120.076 7.436 119.812 7.492 119.492H8.272V128ZM12.252 123.812C12.252 124.132 12.26 124.492 12.276 124.892C12.3 125.284 12.364 125.656 12.468 126.008C12.58 126.352 12.756 126.644 12.996 126.884C13.236 127.124 13.572 127.244 14.004 127.244C14.436 127.244 14.772 127.124 15.012 126.884C15.252 126.644 15.424 126.352 15.528 126.008C15.64 125.656 15.704 125.284 15.72 124.892C15.744 124.492 15.756 124.132 15.756 123.812C15.756 123.604 15.752 123.376 15.744 123.128C15.744 122.872 15.724 122.62 15.684 122.372C15.652 122.116 15.6 121.868 15.528 121.628C15.464 121.388 15.364 121.18 15.228 121.004C15.1 120.82 14.936 120.672 14.736 120.56C14.536 120.448 14.292 120.392 14.004 120.392C13.716 120.392 13.472 120.448 13.272 120.56C13.072 120.672 12.904 120.82 12.768 121.004C12.64 121.18 12.54 121.388 12.468 121.628C12.404 121.868 12.352 122.116 12.312 122.372C12.28 122.62 12.26 122.872 12.252 123.128C12.252 123.376 12.252 123.604 12.252 123.812ZM11.172 123.824C11.172 123.512 11.18 123.188 11.196 122.852C11.212 122.516 11.252 122.188 11.316 121.868C11.38 121.548 11.472 121.244 11.592 120.956C11.712 120.668 11.876 120.416 12.084 120.2C12.292 119.984 12.552 119.812 12.864 119.684C13.184 119.556 13.564 119.492 14.004 119.492C14.444 119.492 14.82 119.556 15.132 119.684C15.452 119.812 15.716 119.984 15.924 120.2C16.132 120.416 16.296 120.668 16.416 120.956C16.536 121.244 16.628 121.548 16.692 121.868C16.756 122.188 16.796 122.516 16.812 122.852C16.828 123.188 16.836 123.512 16.836 123.824C16.836 124.136 16.828 124.46 16.812 124.796C16.796 125.132 16.756 125.46 16.692 125.78C16.628 126.1 16.536 126.404 16.416 126.692C16.296 126.972 16.132 127.22 15.924 127.436C15.716 127.652 15.456 127.824 15.144 127.952C14.832 128.072 14.452 128.132 14.004 128.132C13.564 128.132 13.184 128.072 12.864 127.952C12.552 127.824 12.292 127.652 12.084 127.436C11.876 127.22 11.712 126.972 11.592 126.692C11.472 126.404 11.38 126.1 11.316 125.78C11.252 125.46 11.212 125.132 11.196 124.796C11.18 124.46 11.172 124.136 11.172 123.824ZM19.3399 121.904C19.3399 122.08 19.3479 122.272 19.3639 122.48C19.3879 122.68 19.4359 122.868 19.5079 123.044C19.5799 123.212 19.6799 123.356 19.8079 123.476C19.9439 123.588 20.1239 123.644 20.3479 123.644C20.5799 123.644 20.7639 123.588 20.8999 123.476C21.0359 123.364 21.1399 123.224 21.2119 123.056C21.2919 122.88 21.3439 122.688 21.3679 122.48C21.3919 122.272 21.4039 122.076 21.4039 121.892C21.4039 121.716 21.3919 121.528 21.3679 121.328C21.3519 121.12 21.3079 120.932 21.2359 120.764C21.1639 120.588 21.0599 120.444 20.9239 120.332C20.7959 120.212 20.6159 120.152 20.3839 120.152C20.1599 120.152 19.9799 120.212 19.8439 120.332C19.7079 120.444 19.5999 120.588 19.5199 120.764C19.4479 120.932 19.3999 121.12 19.3759 121.328C19.3519 121.528 19.3399 121.72 19.3399 121.904ZM18.4399 121.928C18.4399 121.6 18.4719 121.292 18.5359 121.004C18.5999 120.708 18.7079 120.448 18.8599 120.224C19.0119 120 19.2119 119.824 19.4599 119.696C19.7079 119.56 20.0159 119.492 20.3839 119.492C20.7599 119.492 21.0679 119.556 21.3079 119.684C21.5559 119.812 21.7519 119.984 21.8959 120.2C22.0479 120.416 22.1519 120.672 22.2079 120.968C22.2719 121.256 22.3039 121.564 22.3039 121.892C22.3039 122.204 22.2679 122.508 22.1959 122.804C22.1319 123.092 22.0199 123.348 21.8599 123.572C21.7079 123.788 21.5119 123.964 21.2719 124.1C21.0319 124.236 20.7359 124.304 20.3839 124.304C20.0239 124.304 19.7199 124.244 19.4719 124.124C19.2239 123.996 19.0239 123.824 18.8719 123.608C18.7199 123.392 18.6079 123.14 18.5359 122.852C18.4719 122.564 18.4399 122.256 18.4399 121.928ZM25.2679 125.744C25.2679 125.92 25.2759 126.112 25.2919 126.32C25.3159 126.52 25.3639 126.708 25.4359 126.884C25.5079 127.052 25.6079 127.196 25.7359 127.316C25.8719 127.428 26.0519 127.484 26.2759 127.484C26.5079 127.484 26.6919 127.428 26.8279 127.316C26.9639 127.204 27.0679 127.064 27.1399 126.896C27.2199 126.72 27.2719 126.528 27.2959 126.32C27.3199 126.112 27.3319 125.916 27.3319 125.732C27.3319 125.556 27.3199 125.368 27.2959 125.168C27.2799 124.96 27.2359 124.772 27.1639 124.604C27.0919 124.428 26.9879 124.284 26.8519 124.172C26.7239 124.052 26.5439 123.992 26.3119 123.992C26.0879 123.992 25.9079 124.052 25.7719 124.172C25.6359 124.284 25.5279 124.428 25.4479 124.604C25.3759 124.772 25.3279 124.96 25.3039 125.168C25.2799 125.368 25.2679 125.56 25.2679 125.744ZM24.3679 125.768C24.3679 125.44 24.3999 125.132 24.4639 124.844C24.5279 124.548 24.6359 124.288 24.7879 124.064C24.9399 123.84 25.1399 123.664 25.3879 123.536C25.6359 123.4 25.9439 123.332 26.3119 123.332C26.6879 123.332 26.9959 123.396 27.2359 123.524C27.4839 123.652 27.6799 123.824 27.8239 124.04C27.9759 124.256 28.0799 124.512 28.1359 124.808C28.1999 125.096 28.2319 125.404 28.2319 125.732C28.2319 126.044 28.1959 126.348 28.1239 126.644C28.0599 126.932 27.9479 127.188 27.7879 127.412C27.6359 127.628 27.4399 127.804 27.1999 127.94C26.9599 128.068 26.6639 128.132 26.3119 128.132C25.9519 128.132 25.6479 128.072 25.3999 127.952C25.1519 127.824 24.9519 127.656 24.7999 127.448C24.6479 127.232 24.5359 126.98 24.4639 126.692C24.3999 126.404 24.3679 126.096 24.3679 125.768ZM26.0479 119.336H27.0679L20.6239 128.252H19.5919L26.0479 119.336Z" fill="#6A718B"/>
<path d="M24.584 164.812C24.584 165.132 24.592 165.492 24.608 165.892C24.632 166.284 24.696 166.656 24.8 167.008C24.912 167.352 25.088 167.644 25.328 167.884C25.568 168.124 25.904 168.244 26.336 168.244C26.768 168.244 27.104 168.124 27.344 167.884C27.584 167.644 27.756 167.352 27.86 167.008C27.972 166.656 28.036 166.284 28.052 165.892C28.076 165.492 28.088 165.132 28.088 164.812C28.088 164.604 28.084 164.376 28.076 164.128C28.076 163.872 28.056 163.62 28.016 163.372C27.984 163.116 27.932 162.868 27.86 162.628C27.796 162.388 27.696 162.18 27.56 162.004C27.432 161.82 27.268 161.672 27.068 161.56C26.868 161.448 26.624 161.392 26.336 161.392C26.048 161.392 25.804 161.448 25.604 161.56C25.404 161.672 25.236 161.82 25.1 162.004C24.972 162.18 24.872 162.388 24.8 162.628C24.736 162.868 24.684 163.116 24.644 163.372C24.612 163.62 24.592 163.872 24.584 164.128C24.584 164.376 24.584 164.604 24.584 164.812ZM23.504 164.824C23.504 164.512 23.512 164.188 23.528 163.852C23.544 163.516 23.584 163.188 23.648 162.868C23.712 162.548 23.804 162.244 23.924 161.956C24.044 161.668 24.208 161.416 24.416 161.2C24.624 160.984 24.884 160.812 25.196 160.684C25.516 160.556 25.896 160.492 26.336 160.492C26.776 160.492 27.152 160.556 27.464 160.684C27.784 160.812 28.048 160.984 28.256 161.2C28.464 161.416 28.628 161.668 28.748 161.956C28.868 162.244 28.96 162.548 29.024 162.868C29.088 163.188 29.128 163.516 29.144 163.852C29.16 164.188 29.168 164.512 29.168 164.824C29.168 165.136 29.16 165.46 29.144 165.796C29.128 166.132 29.088 166.46 29.024 166.78C28.96 167.1 28.868 167.404 28.748 167.692C28.628 167.972 28.464 168.22 28.256 168.436C28.048 168.652 27.788 168.824 27.476 168.952C27.164 169.072 26.784 169.132 26.336 169.132C25.896 169.132 25.516 169.072 25.196 168.952C24.884 168.824 24.624 168.652 24.416 168.436C24.208 168.22 24.044 167.972 23.924 167.692C23.804 167.404 23.712 167.1 23.648 166.78C23.584 166.46 23.544 166.132 23.528 165.796C23.512 165.46 23.504 165.136 23.504 164.824Z" fill="#6A718B"/>
<path d="M36.711 28.2929C36.3205 27.9024 35.6873 27.9024 35.2968 28.2929L28.9328 34.6568C28.5423 35.0474 28.5423 35.6805 28.9328 36.0711C29.3234 36.4616 29.9565 36.4616 30.3471 36.0711L36.0039 30.4142L41.6608 36.0711C42.0513 36.4616 42.6844 36.4616 43.075 36.0711C43.4655 35.6805 43.4655 35.0474 43.075 34.6568L36.711 28.2929ZM37.0039 171L37.0039 29H35.0039L35.0039 171H37.0039Z" fill="#2E63EB" fill-opacity="0.3"/>
<path d="M255.716 170.707C256.107 170.317 256.107 169.683 255.716 169.293L249.352 162.929C248.962 162.538 248.329 162.538 247.938 162.929C247.548 163.319 247.548 163.953 247.938 164.343L253.595 170L247.938 175.657C247.548 176.047 247.548 176.681 247.938 177.071C248.329 177.462 248.962 177.462 249.352 177.071L255.716 170.707ZM36 171L255.009 171V169L36 169V171Z" fill="#2E63EB" fill-opacity="0.3"/>
<line x1="36" y1="125.5" x2="255" y2="125.5" stroke="#2E63EB" stroke-opacity="0.2"/>
<line x1="36" y1="81.5" x2="255" y2="81.5" stroke="#2E63EB" stroke-opacity="0.2"/>
<line x1="36" y1="37.5" x2="255" y2="37.5" stroke="#2E63EB" stroke-opacity="0.2"/>
<line x1="35.9951" y1="38.5" x2="138.995" y2="37.5" stroke="#A567F6" stroke-dasharray="9 9"/>
<line x1="143.995" y1="152.5" x2="234.995" y2="151.5" stroke="#A567F6" stroke-dasharray="9 9"/>
<path d="M140.852 42.6429C140.656 42.4485 140.339 42.4499 140.145 42.6461L136.977 45.8426C136.783 46.0388 136.785 46.3554 136.981 46.5497C137.177 46.7441 137.493 46.7426 137.688 46.5465L140.503 43.7051L143.345 46.5205C143.541 46.7149 143.857 46.7135 144.052 46.5173C144.246 46.3211 144.245 46.0046 144.048 45.8102L140.852 42.6429ZM141.5 151.998L141 42.9957L140 43.0003L140.5 152.002L141.5 151.998Z" fill="#A567F6"/>
<path d="M141.351 152.352C141.156 152.548 140.84 152.549 140.644 152.355L137.447 149.187C137.251 148.993 137.25 148.677 137.444 148.48C137.638 148.284 137.955 148.283 138.151 148.477L140.992 151.293L143.808 148.451C144.002 148.255 144.319 148.254 144.515 148.448C144.711 148.643 144.712 148.959 144.518 149.155L141.351 152.352ZM141 42.9955L141.495 151.998L140.495 152.002L140 43.0001L141 42.9955Z" fill="#A567F6"/>
</svg>
