<svg width="92" height="31" viewBox="0 0 92 31" fill="none" xmlns="http://www.w3.org/2000/svg">
<g clip-path="url(#clip0_12_1389)">
<path d="M14.9628 30.8826C23.1392 30.8826 29.7675 24.2117 29.7675 15.9826C29.7675 7.7536 23.1392 1.08264 14.9628 1.08264C6.78647 1.08264 0.158203 7.7536 0.158203 15.9826C0.158203 24.2117 6.78647 30.8826 14.9628 30.8826Z" fill="#FF4500"/>
<path d="M24.8362 15.9827C24.7921 14.7827 23.7911 13.8456 22.5951 13.8864C22.0652 13.9049 21.561 14.1234 21.1783 14.4901C19.4929 13.3345 17.513 12.7012 15.478 12.6567L16.4385 8.00859L19.607 8.67896C19.6953 9.49748 20.4239 10.0901 21.2372 10.0012C22.0505 9.91229 22.6393 9.17896 22.551 8.36044C22.4626 7.54192 21.734 6.94933 20.9207 7.03822C20.4534 7.08637 20.0338 7.36044 19.802 7.76785L16.1735 7.03822C15.927 6.98266 15.6804 7.13822 15.6252 7.39007C15.6252 7.39377 15.6252 7.39377 15.6252 7.39748L14.5322 12.5678C12.4714 12.6012 10.4658 13.2382 8.75832 14.4012C7.88984 13.579 6.52088 13.6197 5.70392 14.4975C4.88696 15.3716 4.92744 16.7493 5.7996 17.5716C5.96888 17.7308 6.16392 17.8678 6.38104 17.9641C6.36632 18.1827 6.36632 18.4012 6.38104 18.6197C6.38104 21.9567 10.245 24.6716 15.0106 24.6716C19.7762 24.6716 23.6402 21.9604 23.6402 18.6197C23.655 18.4012 23.655 18.1827 23.6402 17.9641C24.3836 17.5901 24.851 16.8197 24.8362 15.9827ZM10.0316 17.4753C10.0316 16.653 10.6977 15.9827 11.5146 15.9827C12.3316 15.9827 12.9977 16.653 12.9977 17.4753C12.9977 18.2975 12.3316 18.9678 11.5146 18.9678C10.694 18.9604 10.0316 18.2975 10.0316 17.4753ZM18.6318 21.5716C17.5793 22.3678 16.2913 22.7753 14.9738 22.7197C13.6564 22.7753 12.3684 22.3678 11.3159 21.5716C11.1761 21.4012 11.2018 21.1456 11.3711 21.0049C11.5183 20.8827 11.7281 20.8827 11.879 21.0049C12.7695 21.6604 13.8551 21.9938 14.9591 21.9419C16.0631 22.0012 17.1524 21.6827 18.054 21.0345C18.2159 20.8753 18.4809 20.879 18.6391 21.0419C18.7974 21.2049 18.7937 21.4716 18.6318 21.6308V21.5716ZM18.3668 19.0197C17.5498 19.0197 16.8838 18.3493 16.8838 17.5271C16.8838 16.7049 17.5498 16.0345 18.3668 16.0345C19.1838 16.0345 19.8498 16.7049 19.8498 17.5271C19.883 18.3493 19.2463 19.0419 18.4294 19.0753C18.4036 19.0753 18.3815 19.0753 18.3558 19.0753L18.3668 19.0197Z" fill="#1C2546"/>
<path d="M82.7558 11.4382C83.8695 11.4382 84.7724 10.5295 84.7724 9.40854C84.7724 8.2876 83.8695 7.37891 82.7558 7.37891C81.642 7.37891 80.7391 8.2876 80.7391 9.40854C80.7391 10.5295 81.642 11.4382 82.7558 11.4382Z" fill="#FF4500"/>
<path d="M54.177 18.0455C54.9571 18.1011 55.6343 17.5085 55.6931 16.7196C55.6968 16.6752 55.6968 16.6233 55.6968 16.5752C55.6858 16.3011 55.6527 16.0233 55.5975 15.7529C55.1191 13.1826 52.9368 11.29 50.3424 11.1863C47.3874 11.1863 44.9181 13.9196 44.9181 17.2752C44.9181 20.6307 47.3469 23.3678 50.3387 23.3678C51.9248 23.4307 53.4631 22.7863 54.5303 21.6048C54.9682 21.1233 54.9314 20.3789 54.453 19.9381C54.4162 19.9048 54.3831 19.8752 54.3463 19.8492C53.8679 19.5492 53.2459 19.6122 52.8411 20.0048C52.1751 20.6715 51.2808 21.0529 50.3387 21.0826C48.7122 20.9529 47.4095 19.6715 47.2475 18.0307H54.1328L54.177 18.0455ZM50.3277 13.4789C51.7592 13.5752 52.9626 14.6048 53.2827 16.0159H47.38C47.6965 14.6011 48.8925 13.5715 50.3277 13.4789Z" fill="#1C2546"/>
<path d="M45.0358 12.3678C45.0358 11.7974 44.6163 11.3122 44.0532 11.2419C42.5334 10.9863 40.9878 11.553 39.9905 12.7382V12.59C39.9905 11.9567 39.4827 11.4456 38.8534 11.4456C38.2241 11.4456 37.7163 11.9567 37.7163 12.59V21.9604C37.7016 22.5752 38.1689 23.0974 38.7798 23.1493C39.4017 23.1937 39.9464 22.7197 39.9868 22.0937C39.9905 22.0493 39.9905 22.0048 39.9868 21.9604V17.153C39.8875 15.2345 41.3484 13.6011 43.2547 13.4974C43.424 13.4863 43.5969 13.49 43.7662 13.5085H43.9944C44.5832 13.4567 45.0358 12.9641 45.0358 12.3678Z" fill="#1C2546"/>
<path d="M83.8892 13.5974C83.8892 12.9641 83.3814 12.453 82.7521 12.453C82.1228 12.453 81.615 12.9641 81.615 13.5974V21.9567C81.615 22.59 82.1228 23.1012 82.7521 23.1012C83.3814 23.1012 83.8892 22.59 83.8892 21.9567V13.5974Z" fill="#1C2546"/>
<path d="M67.1084 7.2456C67.1084 6.61597 66.6006 6.10486 65.975 6.10486C65.3494 6.10486 64.8415 6.61597 64.8415 7.2456V12.3567C64.0761 11.5789 63.0236 11.1567 61.938 11.1863C58.983 11.1863 56.5137 13.9197 56.5137 17.2752C56.5137 20.6308 58.9462 23.3678 61.938 23.3678C63.042 23.4012 64.1092 22.9752 64.893 22.1863C65.0697 22.79 65.699 23.1345 66.2988 22.9567C66.7514 22.8234 67.0753 22.4234 67.1047 21.9456L67.1084 7.2456ZM61.9306 21.1123C60.19 21.1123 58.7732 19.4086 58.7732 17.3012C58.7732 15.1937 60.179 13.49 61.9306 13.49C63.6823 13.49 65.0881 15.1937 65.0881 17.3012C65.0881 19.4086 63.6823 21.0937 61.938 21.0937L61.9306 21.1123Z" fill="#1C2546"/>
<path d="M78.9654 7.2456C78.9654 6.61597 78.4576 6.10486 77.832 6.10486C77.2064 6.10486 76.6986 6.61597 76.6986 7.2456V12.3567C75.9331 11.5789 74.8806 11.1567 73.795 11.1863C70.84 11.1863 68.3707 13.9197 68.3707 17.2752C68.3707 20.6308 70.8032 23.3678 73.795 23.3678C74.899 23.4012 75.9663 22.9752 76.7501 22.1863C76.9267 22.79 77.556 23.1345 78.1558 22.9567C78.6085 22.8234 78.9323 22.4234 78.9618 21.9456L78.9654 7.2456ZM73.7914 21.1123C72.0507 21.1123 70.6339 19.4086 70.6339 17.3012C70.6339 15.1937 72.0397 13.49 73.7914 13.49C75.543 13.49 76.9488 15.1937 76.9488 17.3012C76.9488 19.4086 75.543 21.0937 73.7987 21.0937L73.7914 21.1123Z" fill="#1C2546"/>
<path d="M89.7809 21.953V13.479H90.7634C91.3081 13.5123 91.7718 13.0938 91.8049 12.5493C91.8049 12.5308 91.8086 12.5086 91.8086 12.4864C91.8564 11.9419 91.4553 11.4604 90.918 11.4123C90.8886 11.4086 90.8555 11.4086 90.826 11.4086H89.7846V9.83451C89.7919 9.2234 89.3282 8.70859 88.721 8.65303C88.0991 8.60859 87.5582 9.08266 87.514 9.70859C87.5103 9.73451 87.5103 9.76414 87.5103 9.79007V11.4345H86.5241C85.9794 11.4012 85.5158 11.8197 85.4826 12.3641C85.4826 12.3827 85.479 12.4049 85.479 12.4271C85.4311 12.9716 85.8322 13.453 86.3695 13.5012C86.399 13.5049 86.4321 13.5049 86.4615 13.5049H87.4441V21.9567C87.4441 22.5864 87.9519 23.0975 88.5775 23.0975C89.2031 23.1382 89.7367 22.6567 89.7772 22.0271C89.7809 22.0049 89.7809 21.979 89.7809 21.953Z" fill="#1C2546"/>
</g>
<defs>
<clipPath id="clip0_12_1389">
<rect width="92" height="30" fill="white" transform="translate(0 0.960449)"/>
</clipPath>
</defs>
</svg>
