<svg width="103" height="26" viewBox="0 0 103 26" fill="none" xmlns="http://www.w3.org/2000/svg">
<path d="M98.461 4.32581C98.461 3.66615 98.9641 3.16302 99.6013 3.16302C100.227 3.16302 100.731 3.66615 100.731 4.32581C100.731 4.99665 100.227 5.49978 99.6013 5.49978C98.9641 5.49978 98.461 4.99665 98.461 4.32581ZM99.6013 5.72339C100.362 5.72339 101.01 5.13082 101.01 4.32581C101.01 3.53198 100.362 2.92822 99.6013 2.92822C98.8299 2.92822 98.1815 3.53198 98.1815 4.32581C98.1815 5.13082 98.8299 5.72339 99.6013 5.72339ZM99.2995 4.43761H99.579L100.004 5.13082H100.283L99.8249 4.42643C100.06 4.39289 100.239 4.2699 100.239 3.97921C100.239 3.66615 100.049 3.53198 99.6684 3.53198H99.0535V5.13082H99.2995V4.43761ZM99.2995 4.22518V3.73323H99.6349C99.8026 3.73323 99.9815 3.76677 99.9815 3.96803C99.9815 4.214 99.8026 4.22518 99.6013 4.22518H99.2995ZM58.7166 6.17062C65.1562 6.17062 66.0953 5.96937 66.0953 12.879V12.9014C66.0953 19.8222 65.145 19.5539 58.7054 19.5539H51.3491L51.3603 6.17062H58.7166ZM61.0197 15.2046V10.5423H56.3577V15.2046H61.0197ZM70.7461 19.5539H65.4804L71.73 6.1818H76.8951L83.1446 19.5539H77.8789L77.141 18.011H71.484L70.7461 19.5539ZM74.3125 10.956L72.8368 14.1424H75.7883L74.3125 10.956ZM38.8612 6.17062C35.4401 6.22652 35.4625 8.46266 35.4625 10.3634C35.4625 12.2865 35.3731 14.6232 38.8612 14.6679M38.8612 14.6679H45.6809V15.5848H35.988V19.5539H46.6424C50.1417 19.498 50.041 17.1612 50.041 15.2493C50.041 13.3263 50.1305 11.0007 46.6424 10.9448H39.532V10.0391H49.0237V6.1818L38.8388 6.17062M6.75599 13.2815L13.0245 19.5539H17.5524V6.1818H12.7786L12.7674 12.443L6.49774 6.1818H1.98108V19.5539H6.75599V13.2815ZM82.5185 12.8567C82.5185 19.8111 83.48 19.621 89.9308 19.621C96.3815 19.621 97.3206 19.8111 97.3206 12.8567V12.8455C97.3206 5.87992 96.3815 6.08117 89.9308 6.08117C83.48 6.08117 82.5185 5.87992 82.5185 12.8455V12.8567ZM87.5942 15.1822V10.5199H92.2562V15.1822H87.5942ZM96.7728 23.9814V19.4421H92.245V23.9814H96.7728ZM23.9696 18.011H29.6378L30.3757 19.5539H35.6302L29.3807 6.1818H24.2156L17.9772 19.5539H23.2429L23.9696 18.011ZM28.2739 14.1424H25.3336L26.8093 10.956L28.2739 14.1424Z" fill="white"/>
</svg>
