<svg width="92" height="31" viewBox="0 0 92 31" fill="none" xmlns="http://www.w3.org/2000/svg">
<g clip-path="url(#clip0_12_529)">
<path d="M14.9629 30.8826C23.1393 30.8826 29.7675 24.2117 29.7675 15.9826C29.7675 7.7536 23.1393 1.08264 14.9629 1.08264C6.7865 1.08264 0.158234 7.7536 0.158234 15.9826C0.158234 24.2117 6.7865 30.8826 14.9629 30.8826Z" fill="#FF4500"/>
<path d="M24.8363 15.9827C24.7922 14.7827 23.7912 13.8456 22.5952 13.8864C22.0653 13.9049 21.5611 14.1234 21.1784 14.4901C19.493 13.3345 17.5131 12.7012 15.4781 12.6567L16.4386 8.00859L19.607 8.67896C19.6954 9.49748 20.424 10.0901 21.2373 10.0012C22.0506 9.91229 22.6394 9.17896 22.551 8.36044C22.4627 7.54192 21.7341 6.94933 20.9208 7.03822C20.4534 7.08637 20.0339 7.36044 19.8021 7.76785L16.1736 7.03822C15.927 6.98266 15.6805 7.13822 15.6253 7.39007C15.6253 7.39377 15.6253 7.39377 15.6253 7.39748L14.5323 12.5678C12.4715 12.6012 10.4659 13.2382 8.75839 14.4012C7.88991 13.579 6.52095 13.6197 5.70399 14.4975C4.88703 15.3716 4.92751 16.7493 5.79967 17.5716C5.96895 17.7308 6.16399 17.8678 6.38111 17.9641C6.36639 18.1827 6.36639 18.4012 6.38111 18.6197C6.38111 21.9567 10.2451 24.6716 15.0107 24.6716C19.7763 24.6716 23.6403 21.9604 23.6403 18.6197C23.655 18.4012 23.655 18.1827 23.6403 17.9641C24.3837 17.5901 24.851 16.8197 24.8363 15.9827ZM10.0317 17.4753C10.0317 16.653 10.6978 15.9827 11.5147 15.9827C12.3317 15.9827 12.9978 16.653 12.9978 17.4753C12.9978 18.2975 12.3317 18.9678 11.5147 18.9678C10.6941 18.9604 10.0317 18.2975 10.0317 17.4753ZM18.6318 21.5716C17.5794 22.3678 16.2914 22.7753 14.9739 22.7197C13.6565 22.7753 12.3685 22.3678 11.316 21.5716C11.1762 21.4012 11.2019 21.1456 11.3712 21.0049C11.5184 20.8827 11.7282 20.8827 11.879 21.0049C12.7696 21.6604 13.8552 21.9938 14.9592 21.9419C16.0632 22.0012 17.1525 21.6827 18.0541 21.0345C18.216 20.8753 18.481 20.879 18.6392 21.0419C18.7974 21.2049 18.7938 21.4716 18.6318 21.6308V21.5716ZM18.3669 19.0197C17.5499 19.0197 16.8838 18.3493 16.8838 17.5271C16.8838 16.7049 17.5499 16.0345 18.3669 16.0345C19.1838 16.0345 19.8499 16.7049 19.8499 17.5271C19.883 18.3493 19.2464 19.0419 18.4294 19.0753C18.4037 19.0753 18.3816 19.0753 18.3558 19.0753L18.3669 19.0197Z" fill="white"/>
<path d="M82.7558 11.4382C83.8696 11.4382 84.7725 10.5295 84.7725 9.40854C84.7725 8.2876 83.8696 7.37891 82.7558 7.37891C81.6421 7.37891 80.7392 8.2876 80.7392 9.40854C80.7392 10.5295 81.6421 11.4382 82.7558 11.4382Z" fill="#FF4500"/>
<path d="M54.177 18.0455C54.9571 18.1011 55.6342 17.5085 55.6931 16.7196C55.6968 16.6752 55.6968 16.6233 55.6968 16.5752C55.6858 16.3011 55.6526 16.0233 55.5974 15.7529C55.119 13.1826 52.9368 11.29 50.3424 11.1863C47.3874 11.1863 44.9181 13.9196 44.9181 17.2752C44.9181 20.6307 47.3469 23.3678 50.3387 23.3678C51.9248 23.4307 53.463 22.7863 54.5302 21.6048C54.9682 21.1233 54.9314 20.3789 54.453 19.9381C54.4162 19.9048 54.383 19.8752 54.3462 19.8492C53.8678 19.5492 53.2459 19.6122 52.8411 20.0048C52.175 20.6715 51.2808 21.0529 50.3387 21.0826C48.7122 20.9529 47.4094 19.6715 47.2475 18.0307H54.1328L54.177 18.0455ZM50.3277 13.4789C51.7592 13.5752 52.9626 14.6048 53.2827 16.0159H47.38C47.6965 14.6011 48.8925 13.5715 50.3277 13.4789Z" fill="white"/>
<path d="M45.0358 12.3678C45.0358 11.7974 44.6163 11.3122 44.0533 11.2419C42.5334 10.9863 40.9878 11.553 39.9906 12.7382V12.59C39.9906 11.9567 39.4827 11.4456 38.8534 11.4456C38.2242 11.4456 37.7163 11.9567 37.7163 12.59V21.9604C37.7016 22.5752 38.169 23.0974 38.7798 23.1493C39.4018 23.1937 39.9464 22.7197 39.9869 22.0937C39.9906 22.0493 39.9906 22.0048 39.9869 21.9604V17.153C39.8875 15.2345 41.3485 13.6011 43.2547 13.4974C43.424 13.4863 43.597 13.49 43.7662 13.5085H43.9944C44.5832 13.4567 45.0358 12.9641 45.0358 12.3678Z" fill="white"/>
<path d="M83.8893 13.5974C83.8893 12.9641 83.3814 12.453 82.7522 12.453C82.1229 12.453 81.6151 12.9641 81.6151 13.5974V21.9567C81.6151 22.59 82.1229 23.1012 82.7522 23.1012C83.3814 23.1012 83.8893 22.59 83.8893 21.9567V13.5974Z" fill="white"/>
<path d="M67.1085 7.2456C67.1085 6.61597 66.6006 6.10486 65.975 6.10486C65.3494 6.10486 64.8416 6.61597 64.8416 7.2456V12.3567C64.0762 11.5789 63.0237 11.1567 61.9381 11.1863C58.983 11.1863 56.5138 13.9197 56.5138 17.2752C56.5138 20.6308 58.9462 23.3678 61.9381 23.3678C63.0421 23.4012 64.1093 22.9752 64.8931 22.1863C65.0698 22.79 65.699 23.1345 66.2989 22.9567C66.7515 22.8234 67.0754 22.4234 67.1048 21.9456L67.1085 7.2456ZM61.9307 21.1123C60.1901 21.1123 58.7733 19.4086 58.7733 17.3012C58.7733 15.1937 60.179 13.49 61.9307 13.49C63.6824 13.49 65.0882 15.1937 65.0882 17.3012C65.0882 19.4086 63.6824 21.0937 61.9381 21.0937L61.9307 21.1123Z" fill="white"/>
<path d="M78.9654 7.2456C78.9654 6.61597 78.4576 6.10486 77.832 6.10486C77.2064 6.10486 76.6986 6.61597 76.6986 7.2456V12.3567C75.9331 11.5789 74.8806 11.1567 73.795 11.1863C70.84 11.1863 68.3707 13.9197 68.3707 17.2752C68.3707 20.6308 70.8032 23.3678 73.795 23.3678C74.899 23.4012 75.9663 22.9752 76.7501 22.1863C76.9267 22.79 77.556 23.1345 78.1558 22.9567C78.6085 22.8234 78.9323 22.4234 78.9618 21.9456L78.9654 7.2456ZM73.7914 21.1123C72.0507 21.1123 70.6339 19.4086 70.6339 17.3012C70.6339 15.1937 72.0397 13.49 73.7914 13.49C75.543 13.49 76.9488 15.1937 76.9488 17.3012C76.9488 19.4086 75.543 21.0937 73.7987 21.0937L73.7914 21.1123Z" fill="white"/>
<path d="M89.781 21.953V13.479H90.7635C91.3082 13.5123 91.7718 13.0938 91.805 12.5493C91.805 12.5308 91.8086 12.5086 91.8086 12.4864C91.8565 11.9419 91.4554 11.4604 90.9181 11.4123C90.8886 11.4086 90.8555 11.4086 90.8261 11.4086H89.7846V9.83451C89.792 9.2234 89.3283 8.70859 88.7211 8.65303C88.0992 8.60859 87.5582 9.08266 87.5141 9.70859C87.5104 9.73451 87.5104 9.76414 87.5104 9.79007V11.4345H86.5242C85.9795 11.4012 85.5158 11.8197 85.4827 12.3641C85.4827 12.3827 85.479 12.4049 85.479 12.4271C85.4312 12.9716 85.8323 13.453 86.3696 13.5012C86.399 13.5049 86.4322 13.5049 86.4616 13.5049H87.4442V21.9567C87.4442 22.5864 87.952 23.0975 88.5776 23.0975C89.2032 23.1382 89.7368 22.6567 89.7773 22.0271C89.781 22.0049 89.781 21.979 89.781 21.953Z" fill="white"/>
</g>
<defs>
<clipPath id="clip0_12_529">
<rect width="92" height="30" fill="white" transform="translate(0 0.960449)"/>
</clipPath>
</defs>
</svg>
