<svg viewBox="0 0 24 24"  xmlns="http://www.w3.org/2000/svg" style="display:none">

	<symbol viewBox="0 0 14 14" id="drop-down-arrow">
		<path fill-rule="evenodd" clip-rule="evenodd" d="M2.979 4.729C3.26675 4.44124 3.7333 4.44124 4.02105 4.729L7.00003 7.70797L9.979 4.729C10.2668 4.44124 10.7333 4.44124 11.0211 4.729C11.3088 5.01675 11.3088 5.4833 11.0211 5.77105L7.52105 9.27105C7.2333 9.55881 6.76675 9.55881 6.479 9.27105L2.979 5.77105C2.69124 5.4833 2.69124 5.01675 2.979 4.729Z"/>
	</symbol>
	
	<symbol viewBox="0 0 15 15" id="theme-dark">
		<path fill-rule="evenodd" clip-rule="evenodd" d="M7.49858 1.08989C7.5874 1.37074 7.46806 1.67548 7.21216 1.82134C5.8895 2.57521 5 3.99678 5 5.62532C5 8.04156 6.95875 10.0003 9.375 10.0003C11.0034 10.0003 12.4249 9.11095 13.1788 7.78847C13.3247 7.53257 13.6294 7.41327 13.9103 7.5021C14.1911 7.59094 14.3718 7.86381 14.344 8.15705C14.0129 11.6462 11.0755 14.3752 7.5 14.3752C3.70304 14.3752 0.625 11.2971 0.625 7.50017C0.625 3.92448 3.35427 0.986984 6.84367 0.656134C7.13691 0.62833 7.40976 0.809044 7.49858 1.08989ZM4.57194 2.69629C2.95464 3.68429 1.875 5.46633 1.875 7.50017C1.875 10.6068 4.3934 13.1252 7.5 13.1252C9.53368 13.1252 11.3156 12.0457 12.3036 10.4286C11.4508 10.9498 10.4481 11.2503 9.375 11.2503C6.2684 11.2503 3.75 8.73192 3.75 5.62532C3.75 4.55207 4.05066 3.54925 4.57194 2.69629Z"/>
	</symbol>

	<symbol viewBox="0 0 15 15" id="theme-light">
		<path fill-rule="evenodd" clip-rule="evenodd" d="M7.5 0.625C7.84518 0.625 8.125 0.904822 8.125 1.25V2.5C8.125 2.84518 7.84518 3.125 7.5 3.125C7.15482 3.125 6.875 2.84518 6.875 2.5V1.25C6.875 0.904822 7.15482 0.625 7.5 0.625ZM2.6205 2.6205C2.86457 2.37642 3.2603 2.37642 3.50438 2.6205L4.38826 3.50438C4.63234 3.74846 4.63234 4.14419 4.38826 4.38826C4.14419 4.63234 3.74846 4.63234 3.50438 4.38826L2.6205 3.50438C2.37642 3.2603 2.37642 2.86457 2.6205 2.6205ZM12.3795 2.6205C12.6236 2.86457 12.6236 3.2603 12.3795 3.50438L11.4956 4.38826C11.2515 4.63234 10.8558 4.63234 10.6117 4.38826C10.3677 4.14419 10.3677 3.74846 10.6117 3.50438L11.4956 2.6205C11.7397 2.37642 12.1354 2.37642 12.3795 2.6205ZM7.5 5C6.11929 5 5 6.11929 5 7.5C5 8.88071 6.11929 10 7.5 10C8.88071 10 10 8.88071 10 7.5C10 6.11929 8.88071 5 7.5 5ZM3.75 7.5C3.75 5.42893 5.42893 3.75 7.5 3.75C9.57107 3.75 11.25 5.42893 11.25 7.5C11.25 9.57107 9.57107 11.25 7.5 11.25C5.42893 11.25 3.75 9.57107 3.75 7.5ZM0.625 7.5C0.625 7.15482 0.904822 6.875 1.25 6.875H2.5C2.84518 6.875 3.125 7.15482 3.125 7.5C3.125 7.84518 2.84518 8.125 2.5 8.125H1.25C0.904822 8.125 0.625 7.84518 0.625 7.5ZM11.875 7.5C11.875 7.15482 12.1548 6.875 12.5 6.875H13.75C14.0952 6.875 14.375 7.15482 14.375 7.5C14.375 7.84518 14.0952 8.125 13.75 8.125H12.5C12.1548 8.125 11.875 7.84518 11.875 7.5ZM4.38826 10.6143C4.63234 10.8584 4.63234 11.2541 4.38826 11.4982L3.50438 12.3821C3.2603 12.6262 2.86457 12.6262 2.6205 12.3821C2.37642 12.138 2.37642 11.7423 2.6205 11.4982L3.50438 10.6143C3.74846 10.3702 4.14419 10.3702 4.38826 10.6143ZM10.6117 10.6143C10.8558 10.3702 11.2515 10.3702 11.4956 10.6143L12.3795 11.4982C12.6236 11.7423 12.6236 12.138 12.3795 12.3821C12.1354 12.6262 11.7397 12.6262 11.4956 12.3821L10.6117 11.4982C10.3677 11.2541 10.3677 10.8584 10.6117 10.6143ZM7.5 11.875C7.84518 11.875 8.125 12.1548 8.125 12.5V13.75C8.125 14.0952 7.84518 14.375 7.5 14.375C7.15482 14.375 6.875 14.0952 6.875 13.75V12.5C6.875 12.1548 7.15482 11.875 7.5 11.875Z"/>
	</symbol>

	<symbol viewBox="0 0 20 20" id="lang">
		<path fill-rule="evenodd" clip-rule="evenodd" d="M2.54569 9.16658H5.87499C6.06183 6.86393 6.8325 4.6536 8.10468 2.74144C5.14059 3.51323 2.88992 6.05262 2.54569 9.16658ZM9.99992 2.95892C8.60852 4.75153 7.75724 6.90561 7.54791 9.16658H12.4519C12.2426 6.90561 11.3913 4.75153 9.99992 2.95892ZM12.4519 10.8333C12.2426 13.0942 11.3913 15.2483 9.99992 17.0409C8.60852 15.2483 7.75724 13.0942 7.54791 10.8333H12.4519ZM5.87499 10.8333H2.54569C2.88992 13.9472 5.14059 16.4866 8.10467 17.2584C6.8325 15.3462 6.06183 13.1359 5.87499 10.8333ZM11.8952 17.2584C13.1673 15.3462 13.938 13.1359 14.1248 10.8333H17.4541C17.1099 13.9472 14.8592 16.4866 11.8952 17.2584ZM17.4541 9.16658H14.1248C13.938 6.86393 13.1673 4.6536 11.8952 2.74144C14.8592 3.51322 17.1099 6.05261 17.4541 9.16658ZM0.833252 9.99992C0.833252 4.93731 4.93731 0.833252 9.99992 0.833252C15.0625 0.833252 19.1666 4.93731 19.1666 9.99992C19.1666 15.0625 15.0625 19.1666 9.99992 19.1666C4.93731 19.1666 0.833252 15.0625 0.833252 9.99992Z"/>
	</symbol>

	<symbol viewBox="0 0 16 16" id="arrow-up">
		<path fill-rule="evenodd" clip-rule="evenodd" d="M8.00004 1.58301C8.19895 1.58301 8.38971 1.66203 8.53037 1.80268L12.577 5.84934C12.8699 6.14224 12.8699 6.61711 12.577 6.91C12.2841 7.2029 11.8093 7.2029 11.5164 6.91L8.00004 3.39367L4.4837 6.91C4.19081 7.2029 3.71593 7.2029 3.42304 6.91C3.13015 6.61711 3.13015 6.14224 3.42304 5.84934L7.46971 1.80268C7.61036 1.66203 7.80112 1.58301 8.00004 1.58301Z"/>
		<path fill-rule="evenodd" clip-rule="evenodd" d="M8 1.69629C8.41421 1.69629 8.75 2.03208 8.75 2.44629V13.6663C8.75 14.0805 8.41421 14.4163 8 14.4163C7.58579 14.4163 7.25 14.0805 7.25 13.6663V2.44629C7.25 2.03208 7.58579 1.69629 8 1.69629Z"/>
	</symbol>

	<symbol viewBox="0 0 28 28" id="tel">
		<path d="M11.7106 6.20253L12.4678 7.55928C13.1511 8.78367 12.8768 10.3899 11.8006 11.4661C11.8006 11.4661 11.8006 11.4661 11.8006 11.4661C11.8005 11.4662 10.4953 12.7716 12.862 15.1384C15.2281 17.5045 16.5335 16.2006 16.5343 16.1998C16.5343 16.1998 16.5343 16.1998 16.5343 16.1998C17.6106 15.1236 19.2167 14.8493 20.4411 15.5326L21.7979 16.2898C23.6467 17.3216 23.8651 19.9144 22.24 21.5396C21.2635 22.5161 20.0672 23.2759 18.7448 23.326C16.5187 23.4104 12.7381 22.847 8.94573 19.0547C5.1534 15.2623 4.59 11.4818 4.67439 9.25559C4.72452 7.93319 5.48435 6.73693 6.46085 5.76043C8.08596 4.13532 10.6788 4.35367 11.7106 6.20253Z"/>
	</symbol>

	<symbol viewBox="0 0 28 28" id="email">
		<path fill-rule="evenodd" clip-rule="evenodd" d="M3.70033 6.03346C2.3335 7.4003 2.3335 9.60018 2.3335 14C2.3335 18.3997 2.3335 20.5996 3.70033 21.9665C5.06717 23.3333 7.26705 23.3333 11.6668 23.3333H16.3335C20.7333 23.3333 22.9332 23.3333 24.3 21.9665C25.6668 20.5996 25.6668 18.3997 25.6668 14C25.6668 9.60018 25.6668 7.4003 24.3 6.03346C22.9332 4.66663 20.7333 4.66663 16.3335 4.66663H11.6668C7.26705 4.66663 5.06717 4.66663 3.70033 6.03346ZM21.6724 8.77313C21.9817 9.14437 21.9316 9.69612 21.5603 10.0055L18.9978 12.141C17.9637 13.0027 17.1255 13.7012 16.3858 14.177C15.6152 14.6726 14.8648 14.9856 14.0002 14.9856C13.1356 14.9856 12.3851 14.6726 11.6145 14.177C10.8748 13.7012 10.0367 13.0027 9.00258 12.141L6.44 10.0055C6.06876 9.69612 6.0186 9.14437 6.32797 8.77313C6.63734 8.40189 7.18908 8.35173 7.56032 8.6611L10.079 10.76C11.1675 11.6671 11.9232 12.2948 12.5612 12.7051C13.1788 13.1023 13.5976 13.2356 14.0002 13.2356C14.4027 13.2356 14.8216 13.1023 15.4391 12.7051C16.0771 12.2948 16.8328 11.6671 17.9213 10.76L20.44 8.6611C20.8112 8.35173 21.363 8.40189 21.6724 8.77313Z"/>
	</symbol>

	<symbol viewBox="0 0 28 28" id="map-point">
		<path d="M12 22.0003C17.5228 22.0003 22 19.9856 22 17.5003C22 16.2337 20.837 15.0892 18.9654 14.2715C17.8233 16.3673 16.0817 18.1738 13.8695 19.1192C12.6804 19.6274 11.3196 19.6274 10.1305 19.1192C7.91828 18.1738 6.17666 16.3673 5.03458 14.2715C3.16295 15.0892 2 16.2337 2 17.5003C2 19.9856 6.47715 22.0003 12 22.0003Z"/>
		<path fill-rule="evenodd" clip-rule="evenodd" d="M5 8.51464C5 4.9167 8.13401 2 12 2C15.866 2 19 4.9167 19 8.51464C19 12.0844 16.7658 16.2499 13.2801 17.7396C12.4675 18.0868 11.5325 18.0868 10.7199 17.7396C7.23416 16.2499 5 12.0844 5 8.51464ZM12 11C13.1046 11 14 10.1046 14 9C14 7.89543 13.1046 7 12 7C10.8954 7 10 7.89543 10 9C10 10.1046 10.8954 11 12 11Z"/>
	</symbol>

	<symbol viewBox="0 0 17 17" id="arrow-prev">
		<path fill-rule="evenodd" clip-rule="evenodd" d="M11.1519 3.86908C11.4774 4.19451 11.4774 4.72215 11.1519 5.04759L7.78284 8.41667L11.1519 11.7857C11.4774 12.1112 11.4774 12.6388 11.1519 12.9643C10.8265 13.2897 10.2988 13.2897 9.97341 12.9643L6.01507 9.00592C5.68964 8.68048 5.68964 8.15285 6.01507 7.82741L9.97341 3.86908C10.2988 3.54364 10.8265 3.54364 11.1519 3.86908Z"/>
	</symbol>

	<symbol viewBox="0 0 17 17" id="arrow-next">
		<path fill-rule="evenodd" clip-rule="evenodd" d="M5.84808 13.1309C5.52264 12.8055 5.52264 12.2778 5.84808 11.9524L9.21716 8.58333L5.84808 5.21426C5.52264 4.88882 5.52264 4.36118 5.84808 4.03574C6.17352 3.71031 6.70116 3.71031 7.02659 4.03574L10.9849 7.99408C11.3104 8.31951 11.3104 8.84715 10.9849 9.17259L7.02659 13.1309C6.70116 13.4564 6.17352 13.4564 5.84808 13.1309Z"/>
	</symbol>

	<symbol viewBox="0 0 24 24" id="like">
		<path fill-rule="evenodd" clip-rule="evenodd" d="M11.9932 5.13581C9.9938 2.7984 6.65975 2.16964 4.15469 4.31001C1.64964 6.45038 1.29697 10.029 3.2642 12.5604C4.89982 14.6651 9.84977 19.1041 11.4721 20.5408C11.6536 20.7016 11.7444 20.7819 11.8502 20.8135C11.9426 20.8411 12.0437 20.8411 12.1361 20.8135C12.2419 20.7819 12.3327 20.7016 12.5142 20.5408C14.1365 19.1041 19.0865 14.6651 20.7221 12.5604C22.6893 10.029 22.3797 6.42787 19.8316 4.31001C17.2835 2.19216 13.9925 2.7984 11.9932 5.13581Z" stroke-width="2" stroke-linecap="round" stroke-linejoin="round"/>
	</symbol>

	<symbol viewBox="0 0 30 30" id="check">
		<path fill-rule="evenodd" clip-rule="evenodd" d="M27.5 15C27.5 21.9036 21.9036 27.5 15 27.5C8.09644 27.5 2.5 21.9036 2.5 15C2.5 8.09644 8.09644 2.5 15 2.5C21.9036 2.5 27.5 8.09644 27.5 15ZM20.0379 11.2121C20.404 11.5782 20.404 12.1718 20.0379 12.5379L13.7879 18.7879C13.4218 19.154 12.8282 19.154 12.4621 18.7879L9.96209 16.2879C9.59597 15.9218 9.59597 15.3282 9.96209 14.9621C10.3282 14.596 10.9218 14.596 11.2879 14.9621L13.125 16.7992L15.9185 14.0056L18.7121 11.2121C19.0782 10.846 19.6718 10.846 20.0379 11.2121Z"/>
	</symbol>

	<symbol viewBox="0 0 16 16" id="time">
		<path fill-rule="evenodd" clip-rule="evenodd" d="M7.99967 2.08325C4.73199 2.08325 2.08301 4.73223 2.08301 7.99992C2.08301 11.2676 4.73199 13.9166 7.99967 13.9166C11.2674 13.9166 13.9163 11.2676 13.9163 7.99992C13.9163 4.73223 11.2674 2.08325 7.99967 2.08325ZM0.583008 7.99992C0.583008 3.90381 3.90356 0.583252 7.99967 0.583252C12.0958 0.583252 15.4163 3.90381 15.4163 7.99992C15.4163 12.096 12.0958 15.4166 7.99967 15.4166C3.90356 15.4166 0.583008 12.096 0.583008 7.99992Z"/>
		<path fill-rule="evenodd" clip-rule="evenodd" d="M8 4.58325C8.41421 4.58325 8.75 4.91904 8.75 5.33325V7.68926L10.197 9.13626C10.4899 9.42915 10.4899 9.90402 10.197 10.1969C9.9041 10.4898 9.42923 10.4898 9.13634 10.1969L7.46967 8.53025C7.32902 8.3896 7.25 8.19883 7.25 7.99992V5.33325C7.25 4.91904 7.58579 4.58325 8 4.58325Z"/>
	</symbol>

	<symbol viewBox="0 0 24 24" id="close">
		<path fill-rule="evenodd" clip-rule="evenodd" d="M5.29289 5.29289C5.68342 4.90237 6.31658 4.90237 6.70711 5.29289L12 10.5858L17.2929 5.29289C17.6834 4.90237 18.3166 4.90237 18.7071 5.29289C19.0976 5.68342 19.0976 6.31658 18.7071 6.70711L13.4142 12L18.7071 17.2929C19.0976 17.6834 19.0976 18.3166 18.7071 18.7071C18.3166 19.0976 17.6834 19.0976 17.2929 18.7071L12 13.4142L6.70711 18.7071C6.31658 19.0976 5.68342 19.0976 5.29289 18.7071C4.90237 18.3166 4.90237 17.6834 5.29289 17.2929L10.5858 12L5.29289 6.70711C4.90237 6.31658 4.90237 5.68342 5.29289 5.29289Z"/>
	</symbol>

	<symbol viewBox="0 0 10 10" id="danger">
		<path fill-rule="evenodd" clip-rule="evenodd" d="M2.21321 4.48396C3.42919 2.32799 4.03718 1.25 5 1.25C5.96281 1.25 6.5708 2.32798 7.78678 4.48395L7.9383 4.75261C8.94878 6.54421 9.45402 7.44001 8.99739 8.095C8.54076 8.75 7.41101 8.75 5.15152 8.75H4.84847C2.58898 8.75 1.45923 8.75 1.0026 8.095C0.545971 7.44001 1.05121 6.54421 2.06168 4.75261L2.21321 4.48396ZM5 3.02083C5.17258 3.02083 5.3125 3.16074 5.3125 3.33333V5.41667C5.3125 5.58926 5.17258 5.72917 5 5.72917C4.82741 5.72917 4.6875 5.58926 4.6875 5.41667V3.33333C4.6875 3.16074 4.82741 3.02083 5 3.02083ZM5 7.08333C5.23011 7.08333 5.41666 6.89679 5.41666 6.66667C5.41666 6.43655 5.23011 6.25 5 6.25C4.76988 6.25 4.58333 6.43655 4.58333 6.66667C4.58333 6.89679 4.76988 7.08333 5 7.08333Z"/>
	</symbol>

	<symbol viewBox="0 0 16 17" id="dollar">
		<path d="M9.50666 8.5L8.5 8.14667V5.88667H8.74C9.28 5.88667 9.72 6.36 9.72 6.94C9.72 7.21333 9.94666 7.44 10.22 7.44C10.4933 7.44 10.72 7.21333 10.72 6.94C10.72 5.80667 9.83333 4.88667 8.74 4.88667H8.5V4.5C8.5 4.22667 8.27333 4 8 4C7.72666 4 7.5 4.22667 7.5 4.5V4.88667H7.06666C6.08 4.88667 5.27333 5.72 5.27333 6.74C5.27333 7.93333 5.96666 8.31333 6.49333 8.5L7.5 8.85333V11.1067H7.26C6.72 11.1067 6.28 10.6333 6.28 10.0533C6.28 9.78 6.05333 9.55333 5.78 9.55333C5.50666 9.55333 5.28 9.78 5.28 10.0533C5.28 11.1867 6.16666 12.1067 7.26 12.1067H7.5V12.5C7.5 12.7733 7.72666 13 8 13C8.27333 13 8.5 12.7733 8.5 12.5V12.1133H8.93333C9.92 12.1133 10.7267 11.28 10.7267 10.26C10.72 9.06 10.0267 8.68 9.50666 8.5ZM6.82666 7.56C6.48666 7.44 6.28 7.32667 6.28 6.74667C6.28 6.27333 6.63333 5.89333 7.07333 5.89333H7.50666V7.8L6.82666 7.56ZM8.93333 11.1133H8.5V9.20667L9.17333 9.44C9.51333 9.56 9.72 9.67333 9.72 10.2533C9.72 10.7267 9.36666 11.1133 8.93333 11.1133Z"/>
	</symbol>

	<symbol viewBox="0 0 24 24" id="exchange">
		<path fill-rule="evenodd" clip-rule="evenodd" d="M6.29289 3.29289C6.68342 2.90237 7.31658 2.90237 7.70711 3.29289L11.7071 7.29289C12.0976 7.68342 12.0976 8.31658 11.7071 8.70711C11.3166 9.09763 10.6834 9.09763 10.2929 8.70711L8 6.41421V20C8 20.5523 7.55228 21 7 21C6.44772 21 6 20.5523 6 20V6.41421L3.70711 8.70711C3.31658 9.09763 2.68342 9.09763 2.29289 8.70711C1.90237 8.31658 1.90237 7.68342 2.29289 7.29289L6.29289 3.29289ZM16 17.5858V4C16 3.44772 16.4477 3 17 3C17.5523 3 18 3.44772 18 4V17.5858L20.2929 15.2929C20.6834 14.9024 21.3166 14.9024 21.7071 15.2929C22.0976 15.6834 22.0976 16.3166 21.7071 16.7071L17.7071 20.7071C17.3166 21.0976 16.6834 21.0976 16.2929 20.7071L12.2929 16.7071C11.9024 16.3166 11.9024 15.6834 12.2929 15.2929C12.6834 14.9024 13.3166 14.9024 13.7071 15.2929L16 17.5858Z"/>
	</symbol>

	<symbol viewBox="0 0 24 24" id="conclusion">
		<path fill-rule="evenodd" clip-rule="evenodd" d="M6 7C6 6.44772 6.44772 6 7 6H17C17.5523 6 18 6.44772 18 7C18 7.55228 17.5523 8 17 8H9.41421L17.7071 16.2929C18.0976 16.6834 18.0976 17.3166 17.7071 17.7071C17.3166 18.0976 16.6834 18.0976 16.2929 17.7071L8 9.41421V17C8 17.5523 7.55228 18 7 18C6.44772 18 6 17.5523 6 17V7Z"/>
	</symbol>

	<symbol viewBox="0 0 24 24" id="plus">
		<path fill-rule="evenodd" clip-rule="evenodd" d="M12 4C12.5523 4 13 4.44772 13 5V11H19C19.5523 11 20 11.4477 20 12C20 12.5523 19.5523 13 19 13H13V19C13 19.5523 12.5523 20 12 20C11.4477 20 11 19.5523 11 19V13H5C4.44772 13 4 12.5523 4 12C4 11.4477 4.44772 11 5 11H11V5C11 4.44772 11.4477 4 12 4Z"/>
	</symbol>

	<symbol viewBox="0 0 24 24" id="logout">
		<path fill-rule="evenodd" clip-rule="evenodd" d="M16.9096 8.96967C17.2025 8.67678 17.6774 8.67678 17.9703 8.96967L20.5303 11.5297C20.8232 11.8226 20.8232 12.2974 20.5303 12.5903L17.9703 15.1503C17.6774 15.4432 17.2025 15.4432 16.9096 15.1503C16.6167 14.8574 16.6167 14.3826 16.9096 14.0897L18.9393 12.06L16.9096 10.0303C16.6167 9.73744 16.6167 9.26256 16.9096 8.96967Z"/>
		<path fill-rule="evenodd" clip-rule="evenodd" d="M9.01001 12.0596C9.01001 11.6454 9.3458 11.3096 9.76001 11.3096H19.93C20.3442 11.3096 20.68 11.6454 20.68 12.0596C20.68 12.4738 20.3442 12.8096 19.93 12.8096H9.76001C9.3458 12.8096 9.01001 12.4738 9.01001 12.0596Z"/>
		<path fill-rule="evenodd" clip-rule="evenodd" d="M6.61905 6.66877C5.33261 7.89078 4.51001 9.68843 4.51001 12C4.51001 14.3116 5.33261 16.1092 6.61905 17.3312C7.91143 18.5589 9.7194 19.25 11.76 19.25C12.1742 19.25 12.51 19.5858 12.51 20C12.51 20.4142 12.1742 20.75 11.76 20.75C9.38062 20.75 7.18859 19.9411 5.58597 18.4188C3.97741 16.8908 3.01001 14.6884 3.01001 12C3.01001 9.31157 3.97741 7.10922 5.58597 5.58123C7.18859 4.05888 9.38062 3.25 11.76 3.25C12.1742 3.25 12.51 3.58579 12.51 4C12.51 4.41421 12.1742 4.75 11.76 4.75C9.7194 4.75 7.91143 5.44112 6.61905 6.66877Z"/>
	</symbol>

	<symbol viewBox="0 0 20 20" id="dashboard">
		<path fill-rule="evenodd" clip-rule="evenodd" d="M1.7613 1.76166C2.36822 1.15474 3.21768 0.916992 4.16663 0.916992H5.83329C6.78223 0.916992 7.6317 1.15474 8.23862 1.76166C8.84555 2.36859 9.08329 3.21805 9.08329 4.16699V5.83366C9.08329 6.7826 8.84555 7.63206 8.23862 8.23899C7.6317 8.84592 6.78223 9.08366 5.83329 9.08366H4.16663C3.21768 9.08366 2.36822 8.84592 1.7613 8.23899C1.15437 7.63206 0.916626 6.7826 0.916626 5.83366V4.16699C0.916626 3.21805 1.15437 2.36859 1.7613 1.76166ZM2.82196 2.82232C2.59555 3.04873 2.41663 3.44927 2.41663 4.16699V5.83366C2.41663 6.55138 2.59555 6.95192 2.82196 7.17833C3.04836 7.40474 3.4489 7.58366 4.16663 7.58366H5.83329C6.55102 7.58366 6.95156 7.40474 7.17796 7.17833C7.40437 6.95192 7.58329 6.55138 7.58329 5.83366V4.16699C7.58329 3.44927 7.40437 3.04873 7.17796 2.82232C6.95156 2.59592 6.55102 2.41699 5.83329 2.41699H4.16663C3.4489 2.41699 3.04836 2.59592 2.82196 2.82232Z"/>
		<path fill-rule="evenodd" clip-rule="evenodd" d="M11.7613 1.76166C12.3682 1.15474 13.2177 0.916992 14.1666 0.916992H15.8333C16.7822 0.916992 17.6317 1.15474 18.2386 1.76166C18.8455 2.36859 19.0833 3.21805 19.0833 4.16699V5.83366C19.0833 6.7826 18.8455 7.63206 18.2386 8.23899C17.6317 8.84592 16.7822 9.08366 15.8333 9.08366H14.1666C13.2177 9.08366 12.3682 8.84592 11.7613 8.23899C11.1544 7.63206 10.9166 6.7826 10.9166 5.83366V4.16699C10.9166 3.21805 11.1544 2.36859 11.7613 1.76166ZM12.822 2.82232C12.5955 3.04873 12.4166 3.44927 12.4166 4.16699V5.83366C12.4166 6.55138 12.5955 6.95192 12.822 7.17833C13.0484 7.40474 13.4489 7.58366 14.1666 7.58366H15.8333C16.551 7.58366 16.9516 7.40474 17.178 7.17833C17.4044 6.95192 17.5833 6.55138 17.5833 5.83366V4.16699C17.5833 3.44927 17.4044 3.04873 17.178 2.82232C16.9516 2.59592 16.551 2.41699 15.8333 2.41699H14.1666C13.4489 2.41699 13.0484 2.59592 12.822 2.82232Z"/>
		<path fill-rule="evenodd" clip-rule="evenodd" d="M11.7613 11.7617C12.3682 11.1547 13.2177 10.917 14.1666 10.917H15.8333C16.7822 10.917 17.6317 11.1547 18.2386 11.7617C18.8455 12.3686 19.0833 13.2181 19.0833 14.167V15.8337C19.0833 16.7826 18.8455 17.6321 18.2386 18.239C17.6317 18.8459 16.7822 19.0837 15.8333 19.0837H14.1666C13.2177 19.0837 12.3682 18.8459 11.7613 18.239C11.1544 17.6321 10.9166 16.7826 10.9166 15.8337V14.167C10.9166 13.2181 11.1544 12.3686 11.7613 11.7617ZM12.822 12.8223C12.5955 13.0487 12.4166 13.4493 12.4166 14.167V15.8337C12.4166 16.5514 12.5955 16.9519 12.822 17.1783C13.0484 17.4047 13.4489 17.5837 14.1666 17.5837H15.8333C16.551 17.5837 16.9516 17.4047 17.178 17.1783C17.4044 16.9519 17.5833 16.5514 17.5833 15.8337V14.167C17.5833 13.4493 17.4044 13.0487 17.178 12.8223C16.9516 12.5959 16.551 12.417 15.8333 12.417H14.1666C13.4489 12.417 13.0484 12.5959 12.822 12.8223Z"/>
		<path fill-rule="evenodd" clip-rule="evenodd" d="M1.7613 11.7617C2.36822 11.1547 3.21768 10.917 4.16663 10.917H5.83329C6.78223 10.917 7.6317 11.1547 8.23862 11.7617C8.84555 12.3686 9.08329 13.2181 9.08329 14.167V15.8337C9.08329 16.7826 8.84555 17.6321 8.23862 18.239C7.6317 18.8459 6.78223 19.0837 5.83329 19.0837H4.16663C3.21768 19.0837 2.36822 18.8459 1.7613 18.239C1.15437 17.6321 0.916626 16.7826 0.916626 15.8337V14.167C0.916626 13.2181 1.15437 12.3686 1.7613 11.7617ZM2.82196 12.8223C2.59555 13.0487 2.41663 13.4493 2.41663 14.167V15.8337C2.41663 16.5514 2.59555 16.9519 2.82196 17.1783C3.04836 17.4047 3.4489 17.5837 4.16663 17.5837H5.83329C6.55102 17.5837 6.95156 17.4047 7.17796 17.1783C7.40437 16.9519 7.58329 16.5514 7.58329 15.8337V14.167C7.58329 13.4493 7.40437 13.0487 7.17796 12.8223C6.95156 12.5959 6.55102 12.417 5.83329 12.417H4.16663C3.4489 12.417 3.04836 12.5959 2.82196 12.8223Z"/>
	</symbol>

	<symbol viewBox="0 0 20 20" id="market">
		<path fill-rule="evenodd" clip-rule="evenodd" d="M2.49046 2.49083C3.63743 1.34386 5.34265 0.916992 7.49996 0.916992H12.5C14.6573 0.916992 16.3625 1.34386 17.5095 2.49083C18.6564 3.6378 19.0833 5.34302 19.0833 7.50033V12.5003C19.0833 14.6576 18.6564 16.3629 17.5095 17.5098C16.3625 18.6568 14.6573 19.0837 12.5 19.0837H7.49996C5.34265 19.0837 3.63743 18.6568 2.49046 17.5098C1.34349 16.3629 0.916626 14.6576 0.916626 12.5003V7.50033C0.916626 5.34302 1.34349 3.6378 2.49046 2.49083ZM3.55112 3.55149C2.82309 4.27952 2.41663 5.49096 2.41663 7.50033V12.5003C2.41663 14.5097 2.82309 15.7211 3.55112 16.4492C4.27915 17.1772 5.4906 17.5837 7.49996 17.5837H12.5C14.5093 17.5837 15.7208 17.1772 16.4488 16.4492C17.1768 15.7211 17.5833 14.5097 17.5833 12.5003V7.50033C17.5833 5.49096 17.1768 4.27952 16.4488 3.55149C15.7208 2.82346 14.5093 2.41699 12.5 2.41699H7.49996C5.4906 2.41699 4.27915 2.82346 3.55112 3.55149Z"/>
		<path fill-rule="evenodd" clip-rule="evenodd" d="M14.3511 7.33208C14.6785 7.58585 14.7382 8.05696 14.4844 8.38433L12.555 10.8734C12.0168 11.5541 11.0249 11.6779 10.3331 11.1433L10.3278 11.1393L8.80674 9.9423C8.76721 9.91283 8.7144 9.92074 8.68527 9.95821C8.68522 9.95828 8.68533 9.95814 8.68527 9.95821L6.7025 12.5325C6.44974 12.8607 5.97882 12.9218 5.65066 12.669C5.3225 12.4163 5.26138 11.9453 5.51413 11.6172L7.49818 9.04125C8.03543 8.346 9.03164 8.22042 9.72523 8.75638L9.73046 8.76041L11.2516 9.95738C11.2924 9.98783 11.3487 9.97884 11.3773 9.94433L13.2989 7.46535C13.5527 7.13798 14.0238 7.07831 14.3511 7.33208Z"/>
	</symbol>

	<symbol viewBox="0 0 20 20" id="my-assets">
		<path fill-rule="evenodd" clip-rule="evenodd" d="M9.13329 7.8252C8.91957 7.8252 8.67497 8.02458 8.67497 8.35019C8.67497 8.6261 8.73396 8.70158 8.74295 8.71302C8.75906 8.73354 8.80794 8.78284 8.99939 8.85121L11.5098 9.72694C11.813 9.83487 12.1745 10.0092 12.4463 10.3573C12.7248 10.714 12.8333 11.1534 12.8333 11.6419C12.8333 12.7279 11.9914 13.6669 10.8749 13.6669H9.3083C8.09636 13.6669 7.16663 12.6493 7.16663 11.4585C7.16663 11.0443 7.50241 10.7085 7.91663 10.7085C8.33084 10.7085 8.66663 11.0443 8.66663 11.4585C8.66663 11.8844 8.98691 12.1669 9.3083 12.1669H10.8749C11.0918 12.1669 11.3333 11.9725 11.3333 11.6419C11.3333 11.372 11.2751 11.2947 11.2641 11.2805C11.2464 11.2579 11.1956 11.2075 11.0089 11.1409L8.49846 10.2651C8.19996 10.1589 7.83664 9.9876 7.56323 9.63945C7.28264 9.28214 7.17497 8.84096 7.17497 8.35019C7.17497 7.27581 8.01367 6.3252 9.13329 6.3252H10.7C11.9119 6.3252 12.8416 7.34274 12.8416 8.53353C12.8416 8.94774 12.5058 9.28353 12.0916 9.28353C11.6774 9.28353 11.3416 8.94774 11.3416 8.53353C11.3416 8.10765 11.0213 7.8252 10.7 7.8252H9.13329Z"/>
		<path fill-rule="evenodd" clip-rule="evenodd" d="M10 5.5C10.4142 5.5 10.75 5.83579 10.75 6.25V13.75C10.75 14.1642 10.4142 14.5 10 14.5C9.58579 14.5 9.25 14.1642 9.25 13.75V6.25C9.25 5.83579 9.58579 5.5 10 5.5Z"/>
		<path fill-rule="evenodd" clip-rule="evenodd" d="M9.99996 2.41699C5.81417 2.41699 2.41663 5.81454 2.41663 10.0003C2.41663 14.1861 5.81417 17.5837 9.99996 17.5837C14.1857 17.5837 17.5833 14.1861 17.5833 10.0003C17.5833 9.58611 17.9191 9.25033 18.3333 9.25033C18.7475 9.25033 19.0833 9.58611 19.0833 10.0003C19.0833 15.0145 15.0142 19.0837 9.99996 19.0837C4.98575 19.0837 0.916626 15.0145 0.916626 10.0003C0.916626 4.98611 4.98575 0.916992 9.99996 0.916992C10.4142 0.916992 10.75 1.25278 10.75 1.66699C10.75 2.08121 10.4142 2.41699 9.99996 2.41699Z"/>
		<path fill-rule="evenodd" clip-rule="evenodd" d="M14.25 1.66699C14.25 1.25278 14.5858 0.916992 15 0.916992H18.3333C18.7475 0.916992 19.0833 1.25278 19.0833 1.66699V5.00033C19.0833 5.41454 18.7475 5.75033 18.3333 5.75033C17.9191 5.75033 17.5833 5.41454 17.5833 5.00033V2.41699H15C14.5858 2.41699 14.25 2.08121 14.25 1.66699Z"/>
		<path fill-rule="evenodd" clip-rule="evenodd" d="M18.8636 1.13666C19.1565 1.42956 19.1565 1.90443 18.8636 2.19732L14.697 6.36399C14.4041 6.65688 13.9292 6.65688 13.6363 6.36399C13.3434 6.0711 13.3434 5.59622 13.6363 5.30333L17.803 1.13666C18.0959 0.843769 18.5707 0.843769 18.8636 1.13666Z"/>
	</symbol>

	<symbol viewBox="0 0 20 20" id="my-wallets">
		<path fill-rule="evenodd" clip-rule="evenodd" d="M5.21671 7.20801C3.90592 7.20801 2.83337 8.28056 2.83337 9.59135V15.1997C2.83337 16.5105 3.90592 17.583 5.21671 17.583H14.7834C16.0942 17.583 17.1667 16.5105 17.1667 15.1997V14.958H16.3334C15.1038 14.958 13.9007 14.0589 13.7863 12.7164C13.7156 11.9592 14.0039 11.252 14.5027 10.7613C14.9526 10.3028 15.5691 10.0414 16.2334 10.0414H17.1667V9.59135C17.1667 8.28056 16.0942 7.20801 14.7834 7.20801H5.21671ZM1.33337 9.59135C1.33337 7.45214 3.07749 5.70801 5.21671 5.70801H14.7834C16.9226 5.70801 18.6667 7.45214 18.6667 9.59135V10.7914C18.6667 11.2056 18.3309 11.5414 17.9167 11.5414H16.2334C15.9676 11.5414 15.7369 11.6439 15.5707 11.8145L15.5573 11.828C15.3612 12.0194 15.2526 12.2909 15.28 12.5786L15.2808 12.5874L15.2808 12.5874C15.3187 13.0424 15.7643 13.458 16.3334 13.458H17.9167C18.3309 13.458 18.6667 13.7938 18.6667 14.208V15.1997C18.6667 17.3389 16.9226 19.083 14.7834 19.083H5.21671C3.07749 19.083 1.33337 17.3389 1.33337 15.1997V9.59135Z"/>
		<path fill-rule="evenodd" clip-rule="evenodd" d="M11.625 3.2918C11.625 2.70594 11.0397 2.3049 10.4992 2.50975L3.88213 5.00991C3.25036 5.24911 2.83337 5.85225 2.83337 6.53348V10.3418C2.83337 10.756 2.49759 11.0918 2.08337 11.0918C1.66916 11.0918 1.33337 10.756 1.33337 10.3418V6.53348C1.33337 5.23149 2.13324 4.06786 3.35129 3.60698L9.96755 1.10713C9.96768 1.10708 9.96743 1.10718 9.96755 1.10713C11.4936 0.528983 13.125 1.66112 13.125 3.2918V6.45846C13.125 6.87267 12.7893 7.20846 12.375 7.20846C11.9608 7.20846 11.625 6.87267 11.625 6.45846V3.2918Z"/>
		<path fill-rule="evenodd" clip-rule="evenodd" d="M16.2323 11.542C15.9666 11.542 15.7358 11.6445 15.5696 11.8152L15.5562 11.8287C15.3601 12.02 15.2515 12.2915 15.2789 12.5792L15.2798 12.588L15.2797 12.588C15.3176 13.043 15.7632 13.4586 16.3323 13.4586H17.9466C18.0151 13.4526 18.049 13.4012 18.049 13.3587V11.642C18.049 11.5995 18.0151 11.548 17.9466 11.542H16.2323ZM14.5016 10.7619C14.9516 10.3035 15.568 10.042 16.2323 10.042H17.9656C17.9746 10.042 17.9835 10.0422 17.9924 10.0425C18.852 10.0732 19.549 10.7694 19.549 11.642V13.3587C19.549 14.2313 18.852 14.9275 17.9924 14.9582C17.9835 14.9585 17.9746 14.9586 17.9656 14.9586H16.3323C15.1027 14.9586 13.8996 14.0596 13.7853 12.717C13.7145 11.9598 14.0028 11.2527 14.5016 10.7619Z"/>
		<path fill-rule="evenodd" clip-rule="evenodd" d="M5.08337 10C5.08337 9.58579 5.41916 9.25 5.83337 9.25H11.6667C12.0809 9.25 12.4167 9.58579 12.4167 10C12.4167 10.4142 12.0809 10.75 11.6667 10.75H5.83337C5.41916 10.75 5.08337 10.4142 5.08337 10Z"/>
	</symbol>

	<symbol viewBox="0 0 20 20" id="payment-transactions">
		<path fill-rule="evenodd" clip-rule="evenodd" d="M0.916626 7.08301C0.916626 6.66879 1.25241 6.33301 1.66663 6.33301H12.0833C12.4975 6.33301 12.8333 6.66879 12.8333 7.08301C12.8333 7.49722 12.4975 7.83301 12.0833 7.83301H1.66663C1.25241 7.83301 0.916626 7.49722 0.916626 7.08301Z"/>
		<path fill-rule="evenodd" clip-rule="evenodd" d="M4.25 13.75C4.25 13.3358 4.58579 13 5 13H6.66667C7.08088 13 7.41667 13.3358 7.41667 13.75C7.41667 14.1642 7.08088 14.5 6.66667 14.5H5C4.58579 14.5 4.25 14.1642 4.25 13.75Z"/>
		<path fill-rule="evenodd" clip-rule="evenodd" d="M8 13.75C8 13.3358 8.33579 13 8.75 13H12.0833C12.4975 13 12.8333 13.3358 12.8333 13.75C12.8333 14.1642 12.4975 14.5 12.0833 14.5H8.75C8.33579 14.5 8 14.1642 8 13.75Z"/>
		<path fill-rule="evenodd" clip-rule="evenodd" d="M2.93457 4.18261C2.62055 4.49309 2.41663 5.109 2.41663 6.57533V13.4253C2.41663 14.8917 2.62055 15.5076 2.93457 15.818C3.25155 16.1315 3.88146 16.3337 5.36663 16.3337H14.6333C16.1185 16.3337 16.7484 16.1315 17.0653 15.818C17.3794 15.5076 17.5833 14.8917 17.5833 13.4253V11.692C17.5833 11.2778 17.9191 10.942 18.3333 10.942C18.7475 10.942 19.0833 11.2778 19.0833 11.692V13.4253C19.0833 14.884 18.9164 16.0973 18.12 16.8847C17.3265 17.6692 16.1065 17.8337 14.6333 17.8337H5.36663C3.89345 17.8337 2.67337 17.6692 1.87993 16.8847C1.08354 16.0973 0.916626 14.884 0.916626 13.4253V6.57533C0.916626 5.11665 1.08354 3.90339 1.87993 3.11596C2.67337 2.33145 3.89345 2.16699 5.36663 2.16699H12.0833C12.4975 2.16699 12.8333 2.50278 12.8333 2.91699C12.8333 3.33121 12.4975 3.66699 12.0833 3.66699H5.36663C3.88146 3.66699 3.25155 3.8692 2.93457 4.18261Z"/>
		<path fill-rule="evenodd" clip-rule="evenodd" d="M16.3796 2.2241C16.6599 2.10802 16.9825 2.17219 17.197 2.38668L18.8636 4.05335C19.1565 4.34624 19.1565 4.82112 18.8636 5.11401C18.5707 5.4069 18.0959 5.4069 17.803 5.11401L17.4166 4.72767V7.91701C17.4166 8.33123 17.0808 8.66701 16.6666 8.66701C16.2524 8.66701 15.9166 8.33123 15.9166 7.91701V2.91701C15.9166 2.61367 16.0994 2.34019 16.3796 2.2241Z"/>
		<path fill-rule="evenodd" clip-rule="evenodd" d="M17.197 2.38666C17.4899 2.67956 17.4899 3.15443 17.197 3.44732L15.5303 5.11399C15.2374 5.40688 14.7626 5.40688 14.4697 5.11399C14.1768 4.8211 14.1768 4.34622 14.4697 4.05333L16.1363 2.38666C16.4292 2.09377 16.9041 2.09377 17.197 2.38666Z"/>
	</symbol>

	<symbol viewBox="0 0 512 512" id="verification">
		<path d="M244.8 24.1c-5.4.4-13 1.5-17 2.4-12.1 3-122.5 45.1-130.3 49.7-8.2 4.9-22.3 18.6-28 27.3-5.4 8.2-9.9 17.6-12.7 26.5l-2.3 7.5v190l2.8 9c3.6 11.7 13.1 31.1 19.6 40.3 2.9 4 8.5 10.5 12.4 14.3 7.2 7 99.5 76.3 110.2 82.8 7.9 4.8 22.1 9.9 33.9 12.3 14.7 2.9 38.9 2.1 53.1-1.6 10.8-3 23.6-8.5 31.2-13.7 2.6-1.8 26.9-19.8 53.8-39.9 32.1-24 51-38.8 54.8-42.9 15.5-16.9 27.5-41.3 31.2-63.7 1.4-8.8 1.6-19.9 1.3-97.4-.4-98.5.1-91.7-8.3-109.6-5.6-12-11.4-20.4-19.7-28.6-13.3-13.1-15.9-14.3-82.1-39.2-63.5-23.7-67.5-24.9-86.2-25.8-4.4-.2-12.4-.1-17.7.3zm27.1 39c7.9 1.4 118.9 42.9 124.4 46.5 9.5 6.2 18.4 18.3 22 29.9 2.2 7 2.2 7 2.2 92.5 0 94.7.4 89-6.6 105.4-3.6 8.5-12.4 21.8-17.6 26.7-4.1 3.9-95.2 72-101.8 76.1-19.1 12-52.8 12.8-73.5 1.7-7.1-3.8-97.9-71.4-104.7-78.1-9.9-9.5-18.6-25-22.4-39.6-1.8-7.1-1.9-11.9-1.9-92.1 0-54.1.4-86.2 1.1-89.1 2.8-12.3 13.6-27.5 24-33.7 6.4-3.8 112.8-44 121.4-45.8 7.6-1.7 24.8-1.9 33.4-.4z"/><path d="M311 178.6c-2.2.9-18.7 16.7-43.8 41.7L227 260.5l-11.8-11.7c-15.3-15.3-20.6-17.5-30.2-12.6-6.5 3.4-10.2 8.6-10.8 15.2-.7 8.8 1.4 11.8 23.5 33.7 16.1 15.8 20.6 19.8 23.9 20.7 11.8 3.4 11.6 3.5 66.1-51 32.2-32.3 47.7-48.5 48.7-51 3.1-7.3 1.2-17.3-4-21.9-5.6-4.9-14.5-6.3-21.4-3.3z"/>
	</symbol>

	<symbol viewBox="0 0 17 17" id="check">
		<path d="M6.77206 10.6786L3.96694 7.87347L3.01172 8.82196L6.77206 12.5823L14.8443 4.51002L13.8958 3.56152L6.77206 10.6786Z"/>
	</symbol>

	<symbol viewBox="0 0 24 24" id="copy">
		<path d="M6.59961 11.3974C6.59961 8.67119 6.59961 7.3081 7.44314 6.46118C8.28667 5.61426 9.64432 5.61426 12.3596 5.61426H15.2396C17.9549 5.61426 19.3125 5.61426 20.1561 6.46118C20.9996 7.3081 20.9996 8.6712 20.9996 11.3974V16.2167C20.9996 18.9429 20.9996 20.306 20.1561 21.1529C19.3125 21.9998 17.9549 21.9998 15.2396 21.9998H12.3596C9.64432 21.9998 8.28667 21.9998 7.44314 21.1529C6.59961 20.306 6.59961 18.9429 6.59961 16.2167V11.3974Z"/>
		<path opacity="0.5" d="M4.17157 3.17157C3 4.34315 3 6.22876 3 10V12C3 15.7712 3 17.6569 4.17157 18.8284C4.78913 19.446 5.6051 19.738 6.79105 19.8761C6.59961 19.0353 6.59961 17.8796 6.59961 16.2167V11.3974C6.59961 8.6712 6.59961 7.3081 7.44314 6.46118C8.28667 5.61426 9.64432 5.61426 12.3596 5.61426H15.2396C16.8915 5.61426 18.0409 5.61426 18.8777 5.80494C18.7403 4.61146 18.4484 3.79154 17.8284 3.17157C16.6569 2 14.7712 2 11 2C7.22876 2 5.34315 2 4.17157 3.17157Z"/>
	</symbol>

	<symbol viewBox="0 0 24 24" id="alert">
		<path opacity="0.5" d="M16.1569 3.80211L16.8431 4.20846C18.8718 5.40987 19.8862 6.01057 20.4431 7C21 7.98943 21 9.19084 21 11.5937V12.4063C21 14.8092 21 16.0106 20.4431 17C19.8862 17.9894 18.8718 18.5901 16.8431 19.7915L16.1569 20.1979C14.1282 21.3993 13.1138 22 12 22C10.8862 22 9.8718 21.3993 7.84308 20.1979L7.15692 19.7915C5.1282 18.5901 4.11384 17.9894 3.55692 17C3 16.0106 3 14.8092 3 12.4063V11.5937C3 9.19084 3 7.98943 3.55692 7C4.11384 6.01057 5.1282 5.40987 7.15692 4.20846L7.84308 3.80211C9.8718 2.6007 10.8862 2 12 2C13.1138 2 14.1282 2.6007 16.1569 3.80211Z"/>
		<path d="M12 6.25C12.4142 6.25 12.75 6.58579 12.75 7V13C12.75 13.4142 12.4142 13.75 12 13.75C11.5858 13.75 11.25 13.4142 11.25 13V7C11.25 6.58579 11.5858 6.25 12 6.25Z"/>
		<path d="M12 17C12.5523 17 13 16.5523 13 16C13 15.4477 12.5523 15 12 15C11.4477 15 11 15.4477 11 16C11 16.5523 11.4477 17 12 17Z"/>
	</symbol>

	<symbol viewBox="0 0 24 24" id="alert-2">
		<path opacity="0.4" d="M21.76 15.92L15.36 4.4C14.5 2.85 13.31 2 12 2C10.69 2 9.49999 2.85 8.63999 4.4L2.23999 15.92C1.42999 17.39 1.33999 18.8 1.98999 19.91C2.63999 21.02 3.91999 21.63 5.59999 21.63H18.4C20.08 21.63 21.36 21.02 22.01 19.91C22.66 18.8 22.57 17.38 21.76 15.92Z"/>
		<path d="M12 14.75C11.59 14.75 11.25 14.41 11.25 14V9C11.25 8.59 11.59 8.25 12 8.25C12.41 8.25 12.75 8.59 12.75 9V14C12.75 14.41 12.41 14.75 12 14.75Z"/>
		<path d="M12 17.9996C11.94 17.9996 11.87 17.9896 11.8 17.9796C11.74 17.9696 11.68 17.9496 11.62 17.9196C11.56 17.8996 11.5 17.8696 11.44 17.8296C11.39 17.7896 11.34 17.7496 11.29 17.7096C11.11 17.5196 11 17.2596 11 16.9996C11 16.7396 11.11 16.4796 11.29 16.2896C11.34 16.2496 11.39 16.2096 11.44 16.1696C11.5 16.1296 11.56 16.0996 11.62 16.0796C11.68 16.0496 11.74 16.0296 11.8 16.0196C11.93 15.9896 12.07 15.9896 12.19 16.0196C12.26 16.0296 12.32 16.0496 12.38 16.0796C12.44 16.0996 12.5 16.1296 12.56 16.1696C12.61 16.2096 12.66 16.2496 12.71 16.2896C12.89 16.4796 13 16.7396 13 16.9996C13 17.2596 12.89 17.5196 12.71 17.7096C12.66 17.7496 12.61 17.7896 12.56 17.8296C12.5 17.8696 12.44 17.8996 12.38 17.9196C12.32 17.9496 12.26 17.9696 12.19 17.9796C12.13 17.9896 12.06 17.9996 12 17.9996Z"/>
	</symbol>

	<symbol viewBox="0 0 32 32" id="upload">
		<path opacity="0.5" d="M2.66797 16.0003C2.66797 9.71493 2.66797 6.57223 4.62059 4.61961C6.57321 2.66699 9.71591 2.66699 16.0013 2.66699C22.2867 2.66699 25.4294 2.66699 27.382 4.61961C29.3346 6.57223 29.3346 9.71493 29.3346 16.0003C29.3346 22.2857 29.3346 25.4284 27.382 27.381C25.4294 29.3337 22.2867 29.3337 16.0013 29.3337C9.71591 29.3337 6.57321 29.3337 4.62059 27.381C2.66797 25.4284 2.66797 22.2857 2.66797 16.0003Z"/>
		<path fill-rule="evenodd" clip-rule="evenodd" d="M5.66667 17.333C5.66667 16.7807 6.11438 16.333 6.66667 16.333H14.6667C15.219 16.333 15.6667 16.7807 15.6667 17.333V25.333C15.6667 25.8853 15.219 26.333 14.6667 26.333C14.1144 26.333 13.6667 25.8853 13.6667 25.333V19.7472L4.70711 28.7068C4.31658 29.0973 3.68342 29.0973 3.29289 28.7068C2.90237 28.3163 2.90237 27.6831 3.29289 27.2926L12.2525 18.333H6.66667C6.11438 18.333 5.66667 17.8853 5.66667 17.333Z"/>
	</symbol>

	<symbol viewBox="0 0 20 20" id="edit">
		<path d="M17.5 18.333H2.5C2.15833 18.333 1.875 18.0497 1.875 17.708C1.875 17.3663 2.15833 17.083 2.5 17.083H17.5C17.8417 17.083 18.125 17.3663 18.125 17.708C18.125 18.0497 17.8417 18.333 17.5 18.333Z"/>
		<path d="M15.8495 2.90005C14.2328 1.28338 12.6495 1.24172 10.9912 2.90005L9.98283 3.90838C9.89949 3.99172 9.86616 4.12505 9.89949 4.24172C10.5328 6.45005 12.2995 8.21672 14.5078 8.85005C14.5412 8.85838 14.5745 8.86672 14.6078 8.86672C14.6995 8.86672 14.7828 8.83338 14.8495 8.76672L15.8495 7.75838C16.6745 6.94172 17.0745 6.15005 17.0745 5.35005C17.0828 4.52505 16.6828 3.72505 15.8495 2.90005Z"/>
		<path d="M13.007 9.60866C12.7653 9.49199 12.532 9.37533 12.307 9.24199C12.1236 9.13366 11.9486 9.01699 11.7736 8.89199C11.632 8.80033 11.4653 8.66699 11.307 8.53366C11.2903 8.52533 11.232 8.47533 11.1653 8.40866C10.8903 8.17533 10.582 7.87533 10.307 7.54199C10.282 7.52533 10.2403 7.46699 10.182 7.39199C10.0986 7.29199 9.95697 7.12532 9.83197 6.93366C9.73197 6.80866 9.6153 6.62533 9.50697 6.44199C9.37364 6.21699 9.25697 5.99199 9.1403 5.75866C8.98734 5.43088 8.55713 5.3335 8.30135 5.58928L3.6153 10.2753C3.50697 10.3837 3.40697 10.592 3.38197 10.7337L2.93197 13.9253C2.84864 14.492 3.00697 15.0253 3.35697 15.3837C3.65697 15.6753 4.07364 15.8337 4.52364 15.8337C4.62364 15.8337 4.72364 15.8253 4.82364 15.8087L8.02364 15.3587C8.17364 15.3337 8.38197 15.2337 8.48197 15.1253L13.1758 10.4315C13.4264 10.1809 13.3322 9.7496 13.007 9.60866Z"/>
	</symbol>

	<symbol viewBox="0 0 24 24" id="personal-data">
		<path d="M1.75 10.0004V14.0004C1.75 16.8288 1.75 18.243 2.62868 19.1217C2.84602 19.339 3.09612 19.5026 3.39228 19.6257C3.38556 19.5812 3.37922 19.5366 3.37321 19.492C3.24986 18.5745 3.24992 17.4288 3.25 16.099L3.25 8.0003L3.25 7.90155V7.90155C3.24992 6.57182 3.24986 5.4261 3.37321 4.50861C3.37921 4.46399 3.38555 4.41944 3.39226 4.375C3.09611 4.49812 2.84601 4.6617 2.62868 4.87903C1.75 5.75771 1.75 7.17192 1.75 10.0004Z"/>
		<path d="M21.75 10.0004V14.0004C21.75 16.8288 21.75 18.243 20.8713 19.1217C20.654 19.339 20.4039 19.5026 20.1077 19.6257C20.1144 19.5812 20.1208 19.5366 20.1268 19.492C20.2501 18.5745 20.2501 17.4288 20.25 16.099V7.90156C20.2501 6.57183 20.2501 5.4261 20.1268 4.50861C20.1208 4.46399 20.1144 4.41944 20.1077 4.375C20.4039 4.49812 20.654 4.6617 20.8713 4.87903C21.75 5.75771 21.75 7.17192 21.75 10.0004Z"/>
		<path fill-rule="evenodd" clip-rule="evenodd" d="M5.62868 2.87868C4.75 3.75736 4.75 5.17157 4.75 8V16C4.75 18.8284 4.75 20.2426 5.62868 21.1213C6.50736 22 7.92157 22 10.75 22H12.75C15.5784 22 16.9926 22 17.8713 21.1213C18.75 20.2426 18.75 18.8284 18.75 16V8C18.75 5.17157 18.75 3.75736 17.8713 2.87868C16.9926 2 15.5784 2 12.75 2H10.75C7.92157 2 6.50736 2 5.62868 2.87868ZM8 17C8 16.5858 8.33579 16.25 8.75 16.25H11.75C12.1642 16.25 12.5 16.5858 12.5 17C12.5 17.4142 12.1642 17.75 11.75 17.75H8.75C8.33579 17.75 8 17.4142 8 17ZM8.75 12.25C8.33579 12.25 8 12.5858 8 13C8 13.4142 8.33579 13.75 8.75 13.75H14.75C15.1642 13.75 15.5 13.4142 15.5 13C15.5 12.5858 15.1642 12.25 14.75 12.25H8.75ZM8 9C8 8.58579 8.33579 8.25 8.75 8.25H14.75C15.1642 8.25 15.5 8.58579 15.5 9C15.5 9.41421 15.1642 9.75 14.75 9.75H8.75C8.33579 9.75 8 9.41421 8 9Z"/>
	</symbol>

	<symbol viewBox="0 0 24 24" id="security">
		<path fill-rule="evenodd" clip-rule="evenodd" d="M3.37752 5.08241C3 5.62028 3 7.21907 3 10.4167V11.9914C3 17.6294 7.23896 20.3655 9.89856 21.5273C10.62 21.8424 10.9807 22 12 22C13.0193 22 13.38 21.8424 14.1014 21.5273C16.761 20.3655 21 17.6294 21 11.9914V10.4167C21 7.21907 21 5.62028 20.6225 5.08241C20.245 4.54454 18.7417 4.02996 15.7351 3.00079L15.1623 2.80472C13.595 2.26824 12.8114 2 12 2C11.1886 2 10.405 2.26824 8.83772 2.80472L8.26491 3.00079C5.25832 4.02996 3.75503 4.54454 3.37752 5.08241ZM15.0595 10.4995C15.3353 10.1905 15.3085 9.71642 14.9995 9.44055C14.6905 9.16467 14.2164 9.19151 13.9405 9.50049L10.9286 12.8739L10.0595 11.9005C9.78358 11.5915 9.30947 11.5647 9.00049 11.8405C8.69151 12.1164 8.66467 12.5905 8.94055 12.8995L10.3691 14.4995C10.5114 14.6589 10.7149 14.75 10.9286 14.75C11.1422 14.75 11.3457 14.6589 11.488 14.4995L15.0595 10.4995Z"/>
	</symbol>

	<symbol viewBox="0 0 24 24" id="lock">
		<path fill-rule="evenodd" clip-rule="evenodd" d="M5.25 10.0546V8C5.25 4.27208 8.27208 1.25 12 1.25C15.7279 1.25 18.75 4.27208 18.75 8V10.0546C19.8648 10.1379 20.5907 10.348 21.1213 10.8787C22 11.7574 22 13.1716 22 16C22 18.8284 22 20.2426 21.1213 21.1213C20.2426 22 18.8284 22 16 22H8C5.17157 22 3.75736 22 2.87868 21.1213C2 20.2426 2 18.8284 2 16C2 13.1716 2 11.7574 2.87868 10.8787C3.40931 10.348 4.13525 10.1379 5.25 10.0546ZM6.75 8C6.75 5.10051 9.10051 2.75 12 2.75C14.8995 2.75 17.25 5.10051 17.25 8V10.0036C16.867 10 16.4515 10 16 10H8C7.54849 10 7.13301 10 6.75 10.0036V8ZM8 17C8.55228 17 9 16.5523 9 16C9 15.4477 8.55228 15 8 15C7.44772 15 7 15.4477 7 16C7 16.5523 7.44772 17 8 17ZM12 17C12.5523 17 13 16.5523 13 16C13 15.4477 12.5523 15 12 15C11.4477 15 11 15.4477 11 16C11 16.5523 11.4477 17 12 17ZM17 16C17 16.5523 16.5523 17 16 17C15.4477 17 15 16.5523 15 16C15 15.4477 15.4477 15 16 15C16.5523 15 17 15.4477 17 16Z"/>
	</symbol>

	<symbol viewBox="0 0 24 24" id="settings">
		<path fill-rule="evenodd" clip-rule="evenodd" d="M13.877 1.82196C13.8776 1.82234 13.8782 1.82271 13.8789 1.82309L19.3754 5.00107C19.3905 5.00977 19.4052 5.01899 19.4196 5.02872L19.4439 5.04509C19.9233 5.36867 20.3182 5.63522 20.622 5.87591C20.9359 6.12459 21.2064 6.38617 21.3993 6.72002C21.5966 7.06136 21.6779 7.41689 21.7152 7.79602C21.75 8.15079 21.75 8.57778 21.75 9.07594V14.9248C21.75 15.4229 21.75 15.8499 21.7152 16.2047C21.6779 16.5838 21.5966 16.9393 21.3993 17.2807C21.2064 17.6145 20.9359 17.8761 20.622 18.1248C20.3182 18.3655 19.9233 18.632 19.4439 18.9556L19.4196 18.972C19.4052 18.9817 19.3905 18.9909 19.3754 18.9996L13.8789 22.1776C13.8783 22.178 13.8777 22.1783 13.8771 22.1787C13.3243 22.5017 12.643 22.6404 12.0038 22.6404C11.3633 22.6404 10.6806 22.5012 10.1245 22.1796L4.6246 18.9996C4.60955 18.9909 4.59481 18.9817 4.5804 18.972L4.55605 18.9556C4.07673 18.632 3.68174 18.3654 3.37782 18.1245C3.06369 17.8754 2.79314 17.6134 2.60021 17.2786C2.4031 16.9366 2.32203 16.5803 2.28482 16.2001C2.24997 15.8441 2.24998 15.4154 2.25 14.9147V9.07594C2.24998 8.57778 2.24997 8.15079 2.28485 7.79602C2.32213 7.41689 2.40337 7.06136 2.60068 6.72002C2.79365 6.38617 3.06413 6.12459 3.37802 5.87591C3.68185 5.63522 4.07675 5.36866 4.55615 5.04508L4.5804 5.02872C4.59481 5.01899 4.60955 5.00977 4.6246 5.00107L10.1245 1.8211C10.1246 1.82109 10.1245 1.82112 10.1245 1.8211C10.6806 1.49952 11.3633 1.36035 12.0038 1.36035C12.643 1.36035 13.3242 1.49901 13.877 1.82196ZM12.0038 2.86035C11.5567 2.86035 11.1494 2.96121 10.8755 3.1196L5.39799 6.28658C4.90011 6.62267 4.55944 6.85364 4.30948 7.05166C4.06088 7.24861 3.95635 7.37203 3.89933 7.47068C3.84664 7.56184 3.80287 7.68631 3.77765 7.94281C3.75084 8.21552 3.75 8.56828 3.75 9.11035V14.8804C3.75 15.4249 3.75083 15.7797 3.77768 16.054C3.80297 16.3123 3.8469 16.4378 3.8998 16.5296C3.95687 16.6286 4.06131 16.7521 4.30968 16.949C4.55953 17.1471 4.90008 17.378 5.39799 17.7141L10.8754 20.8811C11.1493 21.0395 11.5567 21.1404 12.0038 21.1404C12.4513 21.1404 12.8542 21.0393 13.1211 20.8831L13.1246 20.8811L18.602 17.7141C19.0999 17.378 19.4406 17.1471 19.6905 16.949C19.9391 16.7521 20.0436 16.6287 20.1007 16.53C20.1534 16.4389 20.1971 16.3144 20.2224 16.0579C20.2492 15.7852 20.25 15.4324 20.25 14.8904V9.11035C20.25 8.56828 20.2492 8.21552 20.2224 7.94281C20.1971 7.68631 20.1534 7.56184 20.1007 7.47068C20.0436 7.37203 19.9391 7.24861 19.6905 7.05166C19.4406 6.85364 19.0999 6.62267 18.602 6.28658L13.1211 3.11762C12.8542 2.96138 12.4513 2.86035 12.0038 2.86035Z"/>
		<path fill-rule="evenodd" clip-rule="evenodd" d="M12 9.75C10.7574 9.75 9.75 10.7574 9.75 12C9.75 13.2426 10.7574 14.25 12 14.25C13.2426 14.25 14.25 13.2426 14.25 12C14.25 10.7574 13.2426 9.75 12 9.75ZM8.25 12C8.25 9.92893 9.92893 8.25 12 8.25C14.0711 8.25 15.75 9.92893 15.75 12C15.75 14.0711 14.0711 15.75 12 15.75C9.92893 15.75 8.25 14.0711 8.25 12Z"/>
	</symbol>

	<symbol viewBox="0 0 30 30" id="reload">
		<path d="M20.2375 2.5H9.7625C5.2125 2.5 2.5 5.2125 2.5 9.7625V20.225C2.5 24.7875 5.2125 27.5 9.7625 27.5H20.225C24.775 27.5 27.4875 24.7875 27.4875 20.2375V9.7625C27.5 5.2125 24.7875 2.5 20.2375 2.5ZM15 22.8125C12.7625 22.8125 11.0125 21.7 9.825 20.6V21.4875C9.825 22 9.4 22.425 8.8875 22.425C8.375 22.425 7.95 22 7.95 21.4875V18.05C7.95 17.5375 8.375 17.1125 8.8875 17.1125H11.9875C12.5 17.1125 12.925 17.5375 12.925 18.05C12.925 18.5625 12.5 18.9875 11.9875 18.9875H10.8625C11.7875 19.9125 13.225 20.9375 15 20.9375C18.275 20.9375 20.9375 18.275 20.9375 15C20.9375 14.4875 21.3625 14.0625 21.875 14.0625C22.3875 14.0625 22.8125 14.4875 22.8125 15C22.8125 19.3125 19.3125 22.8125 15 22.8125ZM22.8125 11.925C22.8125 11.9625 22.8125 12 22.8125 12.025C22.8 12.1625 22.7625 12.2875 22.7 12.4C22.6375 12.5125 22.55 12.6125 22.4375 12.7C22.35 12.7625 22.25 12.8125 22.1375 12.85C22.05 12.875 21.9625 12.8875 21.875 12.8875H18.8375C18.325 12.8875 17.9 12.4625 17.9 11.95C17.9 11.4375 18.325 11.0125 18.8375 11.0125H19.875C18.875 10.0875 17.2625 9.0625 15.025 9.0625C11.75 9.0625 9.0875 11.725 9.0875 15C9.0875 15.5125 8.6625 15.9375 8.15 15.9375C7.6375 15.9375 7.1875 15.5125 7.1875 15C7.1875 10.6875 10.6875 7.1875 15 7.1875C17.6875 7.1875 19.6625 8.35 20.9375 9.4625V8.5125C20.9375 8 21.3625 7.575 21.875 7.575C22.3875 7.575 22.8125 8 22.8125 8.5125V11.925Z"/>	
	</symbol>

	<symbol viewBox="0 0 24 24" id="password">
		<path opacity="0.5" d="M3.17157 5.17157C2 6.34315 2 8.22876 2 12C2 15.7712 2 17.6569 3.17157 18.8284C4.34315 20 6.22876 20 10 20H14C17.7712 20 19.6569 20 20.8284 18.8284C22 17.6569 22 15.7712 22 12C22 8.22876 22 6.34315 20.8284 5.17157C19.6569 4 17.7712 4 14 4H10C6.22876 4 4.34315 4 3.17157 5.17157Z"/>
		<path d="M8 13C8.55228 13 9 12.5523 9 12C9 11.4477 8.55228 11 8 11C7.44772 11 7 11.4477 7 12C7 12.5523 7.44772 13 8 13Z"/>
		<path d="M13 12C13 12.5523 12.5523 13 12 13C11.4477 13 11 12.5523 11 12C11 11.4477 11.4477 11 12 11C12.5523 11 13 11.4477 13 12Z"/>
		<path d="M16 13C16.5523 13 17 12.5523 17 12C17 11.4477 16.5523 11 16 11C15.4477 11 15 11.4477 15 12C15 12.5523 15.4477 13 16 13Z"/>
	</symbol>

	<symbol viewBox="0 0 20 20" id="search">
		<path fill-rule="evenodd" clip-rule="evenodd" d="M9.16663 3.33366C5.94496 3.33366 3.33329 5.94533 3.33329 9.16699C3.33329 12.3887 5.94496 15.0003 9.16663 15.0003C10.7382 15.0003 12.1647 14.3788 13.2136 13.3682C13.2355 13.3396 13.2596 13.3122 13.2857 13.2861C13.3118 13.2599 13.3393 13.2359 13.3678 13.214C14.3784 12.1651 15 10.7386 15 9.16699C15 5.94533 12.3883 3.33366 9.16663 3.33366ZM15.0265 13.8484C16.0529 12.5653 16.6666 10.9378 16.6666 9.16699C16.6666 5.02486 13.3088 1.66699 9.16663 1.66699C5.02449 1.66699 1.66663 5.02486 1.66663 9.16699C1.66663 13.3091 5.02449 16.667 9.16663 16.667C10.9375 16.667 12.565 16.0533 13.848 15.0269L16.9107 18.0896C17.2361 18.415 17.7638 18.415 18.0892 18.0896C18.4147 17.7641 18.4147 17.2365 18.0892 16.9111L15.0265 13.8484Z"/>
	</symbol>

	<symbol viewBox="0 0 21 21" id="message">
		<path fill-rule="evenodd" clip-rule="evenodd" d="M18.8864 10.015C18.8864 14.6173 15.1554 18.3483 10.5531 18.3483C9.21999 18.3483 7.96003 18.0353 6.84267 17.4788C6.54573 17.3309 6.20634 17.2816 5.88588 17.3674L4.03085 17.8637C3.22557 18.0792 2.48886 17.3425 2.70432 16.5372L3.20066 14.6822C3.2864 14.3617 3.23717 14.0223 3.08928 13.7254C2.53274 12.608 2.21973 11.348 2.21973 10.015C2.21973 5.4126 5.95069 1.68164 10.5531 1.68164C15.1554 1.68164 18.8864 5.4126 18.8864 10.015ZM10.5531 6.05664C10.8982 6.05664 11.1781 6.33646 11.1781 6.68164V13.3483C11.1781 13.6935 10.8982 13.9733 10.5531 13.9733C10.2079 13.9733 9.92806 13.6935 9.92806 13.3483V6.68164C9.92806 6.33646 10.2079 6.05664 10.5531 6.05664ZM7.84473 8.34831C7.84473 8.00313 7.5649 7.72331 7.21973 7.72331C6.87455 7.72331 6.59473 8.00313 6.59473 8.34831V11.6816C6.59473 12.0268 6.87455 12.3066 7.21973 12.3066C7.5649 12.3066 7.84473 12.0268 7.84473 11.6816V8.34831ZM13.8864 7.72331C14.2316 7.72331 14.5114 8.00313 14.5114 8.34831V11.6816C14.5114 12.0268 14.2316 12.3066 13.8864 12.3066C13.5412 12.3066 13.2614 12.0268 13.2614 11.6816V8.34831C13.2614 8.00313 13.5412 7.72331 13.8864 7.72331Z"/>	
	</symbol>

	<symbol viewBox="0 0 24 24" id="faq-account-opening">
		<path d="M9 22H15C20 22 22 20 22 15V9C22 4 20 2 15 2H9C4 2 2 4 2 9V15C2 20 4 22 9 22Z" stroke-width="1.5" stroke-linecap="round" stroke-linejoin="round"/>
		<path d="M17.5004 17.0801H15.6504" stroke-width="1.5" stroke-linecap="round" stroke-linejoin="round"/>
		<path d="M12.97 17.0801H6.5" stroke-width="1.5" stroke-linecap="round" stroke-linejoin="round"/>
		<path d="M17.4987 13.3201H11.9688" stroke-width="1.5" stroke-linecap="round" stroke-linejoin="round"/>
		<path d="M9.27 13.3201H6.5" stroke-width="1.5" stroke-linecap="round" stroke-linejoin="round"/>
	</symbol>

	<symbol viewBox="0 0 24 24" id="faq-main-questions">
		<path d="M21.0801 8.58003V15.42C21.0801 16.54 20.4802 17.58 19.5102 18.15L13.5702 21.58C12.6002 22.14 11.4002 22.14 10.4202 21.58L4.48016 18.15C3.51016 17.59 2.91016 16.55 2.91016 15.42V8.58003C2.91016 7.46003 3.51016 6.41999 4.48016 5.84999L10.4202 2.42C11.3902 1.86 12.5902 1.86 13.5702 2.42L19.5102 5.84999C20.4802 6.41999 21.0801 7.45003 21.0801 8.58003Z" stroke-width="1.5" stroke-linecap="round" stroke-linejoin="round"/>
		<path d="M9.75 11.9999V10.7999C9.75 9.25989 10.84 8.62993 12.17 9.39993L13.21 9.9999L14.25 10.5999C15.58 11.3699 15.58 12.6299 14.25 13.3999L13.21 13.9999L12.17 14.5999C10.84 15.3699 9.75 14.7399 9.75 13.1999V11.9999Z" stroke-width="1.5" stroke-miterlimit="10" stroke-linecap="round" stroke-linejoin="round"/>
	</symbol>

	<symbol viewBox="0 0 24 24" id="faq-settings">
		<path d="M21.0801 8.58003V15.42C21.0801 16.54 20.4802 17.58 19.5102 18.15L13.5702 21.58C12.6002 22.14 11.4002 22.14 10.4202 21.58L4.48016 18.15C3.51016 17.59 2.91016 16.55 2.91016 15.42V8.58003C2.91016 7.46003 3.51016 6.41999 4.48016 5.84999L10.4202 2.42C11.3902 1.86 12.5902 1.86 13.5702 2.42L19.5102 5.84999C20.4802 6.41999 21.0801 7.45003 21.0801 8.58003Z" stroke-width="1.5" stroke-linecap="round" stroke-linejoin="round"/>
		<path d="M9.75 11.9999V10.7999C9.75 9.25989 10.84 8.62993 12.17 9.39993L13.21 9.9999L14.25 10.5999C15.58 11.3699 15.58 12.6299 14.25 13.3999L13.21 13.9999L12.17 14.5999C10.84 15.3699 9.75 14.7399 9.75 13.1999V11.9999Z" stroke-width="1.5" stroke-miterlimit="10" stroke-linecap="round" stroke-linejoin="round"/>
	</symbol>

	<symbol viewBox="0 0 24 24" id="faq-bounty">
		<path d="M9 22H15C20 22 22 20 22 15V9C22 4 20 2 15 2H9C4 2 2 4 2 9V15C2 20 4 22 9 22Z" stroke-width="1.5" stroke-linecap="round" stroke-linejoin="round"/>
		<path d="M7.33008 14.49L9.71008 11.4C10.0501 10.96 10.6801 10.88 11.1201 11.22L12.9501 12.66C13.3901 13 14.0201 12.92 14.3601 12.49L16.6701 9.51001" stroke-width="1.5" stroke-linecap="round" stroke-linejoin="round"/>
	</symbol>

	<symbol viewBox="0 0 24 24" id="faq-security">
		<path d="M21.0801 8.58003V15.42C21.0801 16.54 20.4802 17.58 19.5102 18.15L13.5702 21.58C12.6002 22.14 11.4002 22.14 10.4202 21.58L4.48016 18.15C3.51016 17.59 2.91016 16.55 2.91016 15.42V8.58003C2.91016 7.46003 3.51016 6.41999 4.48016 5.84999L10.4202 2.42C11.3902 1.86 12.5902 1.86 13.5702 2.42L19.5102 5.84999C20.4802 6.41999 21.0801 7.45003 21.0801 8.58003Z" stroke-width="1.5" stroke-linecap="round" stroke-linejoin="round"/>
		<path d="M9.75 11.9999V10.7999C9.75 9.25989 10.84 8.62993 12.17 9.39993L13.21 9.9999L14.25 10.5999C15.58 11.3699 15.58 12.6299 14.25 13.3999L13.21 13.9999L12.17 14.5999C10.84 15.3699 9.75 14.7399 9.75 13.1999V11.9999Z" stroke-width="1.5" stroke-miterlimit="10" stroke-linecap="round" stroke-linejoin="round"/>
	</symbol>

	<symbol viewBox="0 0 24 24" id="faq-account">
		<path d="M20.9099 11.12C20.9099 16.01 17.3599 20.59 12.5099 21.93C12.1799 22.02 11.8198 22.02 11.4898 21.93C6.63984 20.59 3.08984 16.01 3.08984 11.12V6.73003C3.08984 5.91003 3.70986 4.98004 4.47986 4.67004L10.0498 2.39007C11.2998 1.88007 12.7098 1.88007 13.9598 2.39007L19.5298 4.67004C20.2898 4.98004 20.9199 5.91003 20.9199 6.73003L20.9099 11.12Z" stroke-width="1.5" stroke-linecap="round" stroke-linejoin="round"/>
		<path d="M12 12.5C13.1046 12.5 14 11.6046 14 10.5C14 9.39543 13.1046 8.5 12 8.5C10.8954 8.5 10 9.39543 10 10.5C10 11.6046 10.8954 12.5 12 12.5Z" stroke-width="1.5" stroke-miterlimit="10" stroke-linecap="round" stroke-linejoin="round"/>
		<path d="M12 12.5V15.5" stroke-width="1.5" stroke-miterlimit="10" stroke-linecap="round" stroke-linejoin="round"/>
	</symbol>

	<symbol viewBox="0 0 24 24" id="faq-other">
		<path d="M3 4.5H21" stroke-width="1.5" stroke-linecap="round" stroke-linejoin="round"/>
		<path d="M7.25977 9.5H16.7398" stroke-width="1.5" stroke-linecap="round" stroke-linejoin="round"/>
		<path d="M3 14.5H21" stroke-width="1.5" stroke-linecap="round" stroke-linejoin="round"/>
		<path d="M7.25977 19.5H16.7398" stroke-width="1.5" stroke-linecap="round" stroke-linejoin="round"/>
	</symbol>
	
	<symbol viewBox="0 0 32 32" id="shield">
		<path opacity="0.4" d="M12.5597 2.87992L5.22636 5.62659C3.82636 6.14659 2.67969 7.81324 2.67969 9.30658V20.1066C2.67969 21.1866 3.38636 22.6133 4.25303 23.2533L11.5864 28.7333C12.8797 29.7066 14.9997 29.7066 16.293 28.7333L23.6264 23.2533C24.493 22.5999 25.1997 21.1866 25.1997 20.1066V9.30658C25.1997 7.81324 24.053 6.14659 22.653 5.62659L15.3197 2.87992C14.5597 2.59992 13.3197 2.59992 12.5597 2.87992Z"/>
		<path d="M25.6828 9.01318H16.5495C16.2828 9.01318 16.0295 9.02653 15.7895 9.02653C13.4961 9.15986 12.8828 9.99987 12.8828 12.6132V13.3832C12.8828 13.7974 13.2186 14.1332 13.6328 14.1332H28.5861C29.0004 14.1332 29.3361 13.7974 29.3361 13.3832V12.6132C29.3361 9.7332 28.6028 9.01318 25.6828 9.01318Z"/>
		<path d="M13.6406 15.6001C13.2264 15.6001 12.8906 15.9359 12.8906 16.3501V19.3868C12.8906 22.2668 13.624 23.0001 16.544 23.0001H25.6773C28.544 23.0001 29.304 22.3068 29.3306 19.5468V16.3501C29.3306 15.9359 28.9948 15.6001 28.5806 15.6001H13.6406ZM17.6906 20.6268H16.024C15.624 20.6268 15.304 20.3068 15.304 19.9068C15.304 19.5068 15.624 19.1868 16.024 19.1868H17.6906C18.0906 19.1868 18.4106 19.5068 18.4106 19.9068C18.4106 20.3068 18.0906 20.6268 17.6906 20.6268ZM23.0906 20.6268H19.7706C19.3706 20.6268 19.0506 20.3068 19.0506 19.9068C19.0506 19.5068 19.3706 19.1868 19.7706 19.1868H23.0906C23.4906 19.1868 23.8106 19.5068 23.8106 19.9068C23.824 20.3068 23.4906 20.6268 23.0906 20.6268Z"/>
	</symbol>

	<symbol viewBox="0 0 24 24" id="sale">
		<path fill-rule="evenodd" clip-rule="evenodd" d="M14.6835 1.33293C13.3359 -0.44431 10.6641 -0.44431 9.31652 1.33293L8.19449 2.81269L6.35475 2.55974C4.14516 2.25593 2.25593 4.14516 2.55974 6.35475L2.81269 8.19449L1.33293 9.31652C-0.44431 10.6641 -0.44431 13.3359 1.33293 14.6835L2.81269 15.8055L2.55973 17.6453C2.25593 19.8548 4.14516 21.7441 6.35475 21.4403L8.19449 21.1873L9.31652 22.6671C10.6641 24.4443 13.3359 24.4443 14.6835 22.6671L15.8055 21.1873L17.6453 21.4403C19.8548 21.7441 21.7441 19.8548 21.4403 17.6453L21.1873 15.8055L22.6671 14.6835C24.4443 13.3359 24.4443 10.6641 22.6671 9.31652L21.1873 8.19449L21.4403 6.35475C21.7441 4.14516 19.8548 2.25593 17.6453 2.55973L15.8055 2.81269L14.6835 1.33293ZM11.1055 2.68943C11.5547 2.09702 12.4453 2.09702 12.8945 2.68943L14.0165 4.16919C14.5067 4.81567 15.3076 5.1474 16.1113 5.03688L17.9511 4.78393C18.6876 4.68266 19.3173 5.31241 19.2161 6.04894L18.9631 7.88868C18.8526 8.69243 19.1843 9.49328 19.8308 9.98348L21.3106 11.1055C21.903 11.5547 21.903 12.4453 21.3106 12.8945L19.8308 14.0165C19.1843 14.5067 18.8526 15.3076 18.9631 16.1113L19.2161 17.9511C19.3173 18.6876 18.6876 19.3173 17.9511 19.2161L16.1113 18.9631C15.3076 18.8526 14.5067 19.1843 14.0165 19.8308L12.8945 21.3106C12.4453 21.903 11.5547 21.903 11.1055 21.3106L9.98348 19.8308C9.49328 19.1843 8.69243 18.8526 7.88868 18.9631L6.04894 19.2161C5.31241 19.3173 4.68266 18.6876 4.78393 17.9511L5.03689 16.1113C5.1474 15.3076 4.81567 14.5067 4.16919 14.0165L2.68943 12.8945C2.09702 12.4453 2.09702 11.5547 2.68943 11.1055L4.16919 9.98348C4.81567 9.49328 5.1474 8.69243 5.03689 7.88868L4.78393 6.04894C4.68266 5.31241 5.31241 4.68266 6.04894 4.78393L7.88868 5.03688C8.69243 5.1474 9.49328 4.81567 9.98348 4.16919L11.1055 2.68943Z" fill-opacity="0.1"/>
		<path d="M9 11C8.44772 11 8 10.5523 8 10L8 9C8 8.44772 8.44772 8 9 8C9.55228 8 10 8.44772 10 9V10C10 10.5523 9.55228 11 9 11Z" fill-opacity="0.5"/>
		<path d="M8.30602 15.694C7.89799 15.286 7.89799 14.6244 8.30602 14.2164L14.2164 8.30602C14.6244 7.89799 15.286 7.89799 15.694 8.30602C16.102 8.71405 16.102 9.37559 15.694 9.78361L9.78361 15.694C9.37559 16.102 8.71405 16.102 8.30602 15.694Z" fill-opacity="0.5"/>
		<path d="M14 15C14 15.5523 14.4477 16 15 16C15.5523 16 16 15.5523 16 15V14C16 13.4477 15.5523 13 15 13C14.4477 13 14 13.4477 14 14V15Z" fill-opacity="0.5"/>
	</symbol>
</svg>