<svg width="70" height="70" fill="none" xmlns="http://www.w3.org/2000/svg"><path d="M68.945 43.467c-4.674 18.75-23.665 30.16-42.418 25.485C7.783 64.278-3.628 45.286 1.048 26.537 5.721 7.785 24.711-3.627 43.458 1.047 62.21 5.722 73.62 24.716 68.945 43.467z" fill="#F7931A"/><path fill-rule="evenodd" clip-rule="evenodd" d="M45.443 22.267c-1.726-4.382-6.048-4.777-11.083-3.8l-1.792-6.25-3.805 1.092 1.746 6.086c-1 .286-2.017.6-3.027.91l-1.757-6.126-3.802 1.09 1.79 6.25c-.818.253-1.623.5-2.412.727l-.006-.02-5.248 1.503 1.166 4.064s2.795-.86 2.763-.794c1.54-.442 2.3.309 2.667 1.039l2.042 7.12c.106-.03.246-.065.41-.088l-.11.032-.292.084 2.86 9.976c.071.504.008 1.36-1.069 1.67.062.03-2.765.792-2.765.792l.546 4.761 4.952-1.42c.543-.155 1.081-.303 1.615-.45.373-.102.743-.204 1.11-.307l1.814 6.321 3.8-1.089-1.793-6.255a152.44 152.44 0 003.048-.842l1.783 6.226 3.805-1.092-1.809-6.31c6.292-2.202 10.307-5.097 9.14-11.263-.938-4.966-3.832-6.471-7.713-6.302 1.884-1.756 2.696-4.13 1.427-7.335h-.001zm-1.447 15.044c1.245 4.334-5.591 6.192-8.719 7.042-.281.076-.533.145-.745.206l-2.401-8.377c.26-.074.572-.172.927-.282 3.17-.991 9.667-3.021 10.938 1.411zm-12.337-5.135c2.611-.702 8.308-2.235 7.179-6.175-1.156-4.03-6.566-2.322-9.208-1.488-.297.094-.56.176-.777.239l2.178 7.596c.18-.051.39-.108.628-.172z" fill="#fff"/></svg>