<svg width="70" height="70" fill="none" xmlns="http://www.w3.org/2000/svg"><path d="M68.953 43.467c-4.675 18.75-23.666 30.16-42.418 25.485C7.79 64.278-3.621 45.286 1.056 26.537 5.728 7.785 24.719-3.627 43.466 1.047c18.751 4.675 30.161 23.669 25.486 42.42z" fill="#F7931A"/><path fill-rule="evenodd" clip-rule="evenodd" d="M50.437 30.013c.697-4.658-2.849-7.161-7.698-8.831l1.573-6.31-3.84-.957-1.532 6.143c-1.01-.251-2.047-.489-3.077-.724l1.542-6.184-3.838-.957-1.574 6.308c-.835-.19-1.656-.379-2.452-.577l.004-.02-5.296-1.322-1.022 4.102s2.85.653 2.79.693c1.555.388 1.836 1.418 1.79 2.234l-1.792 7.188c.107.027.245.066.399.128l-.112-.028-.294-.073-2.512 10.07c-.19.472-.672 1.181-1.76.912.039.056-2.791-.697-2.791-.697l-1.907 4.397 4.998 1.246c.547.137 1.088.278 1.624.417.374.098.745.195 1.114.29l-1.589 6.38 3.836.958 1.574-6.314c1.048.284 2.065.547 3.06.794l-1.568 6.284 3.841.957 1.59-6.37c6.548 1.24 11.473.74 13.546-5.183 1.67-4.77-.084-7.52-3.529-9.314 2.51-.58 4.4-2.23 4.904-5.64h-.001zm-8.775 12.305c-1.089 4.376-7.938 2.567-11.072 1.74-.282-.075-.533-.142-.748-.195l2.109-8.455c.262.066.582.137.944.219 3.242.727 9.883 2.218 8.767 6.691zm-8.117-10.615c2.613.697 8.312 2.218 9.305-1.759 1.014-4.067-4.525-5.293-7.23-5.892a33.147 33.147 0 01-.792-.182l-1.912 7.668c.18.045.392.102.63.165z" fill="#fff"/></svg>