<svg width="70" height="70" fill="none" xmlns="http://www.w3.org/2000/svg"><circle cx="35" cy="35" r="35" fill="#988430"/><circle cx="35" cy="35" r="33.879" fill="#7A6A2A"/><circle cx="35" cy="35" r="33.165" fill="#BA9F33"/><path fill-rule="evenodd" clip-rule="evenodd" d="M15.304 31.262c-.199-.181-.408-.363-.6-.544-.193-.181-.391-.362-.59-.544l-.589-.56c-.096-.096-.198-.18-.294-.277-.096-.085-.21-.181-.306-.267-.782-.741-1.568-1.483-2.339-2.225.799.73 1.58 1.456 2.38 2.197l.276.278c.097.096.199.181.295.277l.589.544c.198.181.39.362.589.56.198.197.39.38.589.56zM4.928 31.15s2.843.294 4.23.492c1.286.181 5.308.799 5.308.799L4.928 31.15zm0 0c.799.068 1.597.152 2.396.238.407.039.798.084 1.19.124l.6.068.588.085 2.38.38 1.188.197c.391.068.782.142 1.19.21-.391-.04-.799-.096-1.19-.153l-1.189-.17-2.379-.35c-.198-.029-.39-.069-.589-.097l-.6-.07c-.391-.039-.799-.095-1.19-.14a69.453 69.453 0 01-2.395-.324v.002zm9.254 2.031s-3.035.77-4.06 1.065c-1.008.278-4.061 1.206-4.061 1.206l8.12-2.27h.001z" fill="#CFB66C"/><path fill-rule="evenodd" clip-rule="evenodd" d="M14.181 33.182a81.63 81.63 0 01-2.027.572l-2.028.544c-.674.198-1.344.39-2.016.589l-1.008.277c-.334.096-.674.181-1.019.278.334-.112.674-.227 1.008-.323l1.008-.323c.674-.21 1.344-.408 2.016-.617.685-.17 1.36-.352 2.044-.516a76.743 76.743 0 012.022-.481zm-7.696 4.14c.334-.125 4.185-1.92 5.08-2.34.448-.21 1.75-.671 1.75-.671l-6.83 3.01z" fill="#CFB66C"/><path fill-rule="evenodd" clip-rule="evenodd" d="M6.485 37.323c.294-.112.572-.25.855-.38l.838-.39 1.682-.81c.56-.267 1.104-.56 1.682-.81.294-.125.589-.227.883-.323l.448-.142c.153-.04.295-.085.448-.124-.56.266-1.15.492-1.71.753-.56.277-1.133.504-1.71.753l-1.71.753c-.575.233-1.135.482-1.707.72zm.373 1.567s3.489-2.044 4.69-2.701c.628-.351 2.661-1.36 2.661-1.36l-7.35 4.061z" fill="#CFB66C"/><path fill-rule="evenodd" clip-rule="evenodd" d="M6.86 38.891c.588-.362 1.188-.73 1.789-1.104l.896-.544c.306-.181.6-.35.912-.532.306-.181.6-.362.911-.532.149-.092.304-.171.465-.238l.476-.238c.628-.306 1.257-.617 1.92-.884-.6.38-1.218.703-1.835 1.037-.306.17-.618.323-.924.492-.305.17-.6.352-.912.516-.305.181-.6.351-.911.515l-.924.504-1.863 1.008zm7.322-3.613s-2.17 1.665-2.872 2.197c-.702.533-2.769 2.028-2.769 2.028l5.64-4.225z" fill="#CFB66C"/><path fill-rule="evenodd" clip-rule="evenodd" d="M26.63 48.706l-1.11-2.102.645-2.627 4.604-1.779-1.96-4.02.97-4.061 1.817-3.636 5.619-.884 4.128-3.936 8.914.674 1.75 9.532-3.37 12-1.92 6.213-7.781.295-3.613-2.503-4.23-1.768-4.463-1.398z" fill="#E2CC85"/><path fill-rule="evenodd" clip-rule="evenodd" d="M40.279 48.638s-1.077.493-2.913.38c-.53-.714-4.251-1.048-4.251-1.048s-.465-.142-1.286.198c-.827.336-1.608.295-2.34.476-.73.18-1.455-.77-2.015-.969-.56-.21-1.303-.713-1.303-.713l-1.568-.153-3.148-1.331-5.003-4.984-1.359 2.128-.42 2.634 1.513 3.12 4.072 3.71 7.94 2.016 4.706-1.387 5.896-2.492 1.479-1.585z" fill="#F1D789"/><path fill-rule="evenodd" clip-rule="evenodd" d="M12.069 31.024l1.008-3.052 1.2-1.971 3.869-.323-1.161 3.387-3.234 5.754 1.342 5.136-2.378 1.19-.731-1.122-.589-2.57-.04-2.89.714-3.539z" fill="#F4ECB4"/><path fill-rule="evenodd" clip-rule="evenodd" d="M16.406 48.428l-.741-1.036s-.199-.493-.085-.924c.112-.436.096-.464.04-.628-.057-.165-.533-.731-.505-1.218.028-.493-.04-.657.323-1.048.38-.38.266-1.036.266-1.036l.493.306.112-.17s.18.141.18.362c.04-.306-.124-1.722.25-2.044.374-.323 1.036 1.512 1.036 1.512l-.407-2.662-1.048-2.73-1.864-2.492-.112-2.746v-.238s-.855 1.314-1.093 2.352c-.17.713.238 1.58.153 2.605-.068 1.02-.153.94.096 1.344.25.404.856 1.235.618 1.835-.21.515-.924.153-.924.153s-.141.419-.334.572c-.068-.25-.141-.408-.277-.56-.012.096-.04.226-.04.226s-.124-.39-.249-.883c-.17-.657-.35-1.523-.515-1.988a44.116 44.116 0 00-.238 1.076l.096 1.246.465 1.71.448 1.12.436 1.371.379.92.306.703.266 1.58 1.285 1.36.686.305.498-.255z" fill="#F3E19D"/><path fill-rule="evenodd" clip-rule="evenodd" d="M12.742 28.532s-.923 1.569-1.189 3.15c-.266 1.58-.504 3.25-.336 5.402.17 2.17.493 3.5.754 4.452.448 1.58 1.608 3.777 1.608 3.777l.04-.085a5.964 5.964 0 01-.465-1.16c-.153-.601-.21-1.314-.351-1.637-.125-.323-.334-.6-.436-.997-.097-.38-.112-.98-.408-1.427-.125-.182-.278-.657-.323-1.133-.057-.714.029-1.512-.04-2.169-.124-1.093-.209-1.835-.096-2.407.113-.573.703-2.197 1.065-3.489.238-.826.096-1.523.532-2.243.436-.713.703-1.342.799-1.778.112-.396-1.155 1.744-1.155 1.744h.001z" fill="#F2E8B0"/><path fill-rule="evenodd" clip-rule="evenodd" d="M17.12 27.903s-.475.142-.702.391c-.226.238-.322.436-.628.838-.306.402-.323.73-.573 1.235-.249.493-.798 1.235-.866 1.5-.068.267-.181 1.513-.323 2.102-.124.589.142 1.314.142 1.314l.322-.068s0 .419.323.702c.323.278.38-.94.38-.94l1.206-4.072 1.818-1.235.198-.997-1.297-.77z" fill="#F5EEC0"/><path fill-rule="evenodd" clip-rule="evenodd" d="M18.004 29.75s-.855.057-1.274.363c-.17.125-.238.226-.419.38-.334.277-.674.532-.838.896-.182.362-.38.911-.516 1.948-.056.436-.056.838-.096 1.189-.057.476-.141.855-.096 1.12.056.544.617.827.672 1.444l1.16-.589 1.094-4.31 2.322-1.456-1.314-1.472-.696.485.001.003z" fill="#E6DB9D"/><path fill-rule="evenodd" clip-rule="evenodd" d="M11.88 58.773l.014-.129c.17-1.456.198-2.56.322-3.25.182-.98.306-1.344.278-1.71-.04-.59-.085-1.02-.028-1.473.085-.6.674-1.314.657-1.807-.012-.39-.21-.645-.38-.883s-.306-.436-.306-.436 1.162-.799 1.15-4.016a.304.304 0 01.068.029l.572 1.625.391.476 1.5 2.797 1.932 1.875 2.854 1.92 1.79 1.948.181 5.193-2.339 3.035-.383.694a33.267 33.267 0 01-8.274-5.888z" fill="#E5CB7A"/><path fill-rule="evenodd" clip-rule="evenodd" d="M19.023 63.742s.04-.645.572-1.065c.085.142.142.278.125.38.096-.17.77-1.257 2.294-1.54 1.523-.278 1.892-1.388 1.892-1.388l3.233-2.94 3.698-3.403 4.497-1.58 2.101-.516s.04.153-.04.493c.391-.028 1.258-.226 2.158-.544.363-.141.703-.198.884-.01.266.248.306.837.323 1.188.436-.096.94-.515 1.344-.475.645.068 1.218.827 1.874.827.867 0 1.258-.533 1.864-.952.362-.25.883-.56 1.178-.77.702-.516 8.132-2.787 8.132-2.787l2.605.17.42 2.798-.224 7.313-.084.081-11.845 6.187-16.419 2.516a32.93 32.93 0 01-10.496-3.61l-.084-.373h-.002z" fill="#D8C173"/><path fill-rule="evenodd" clip-rule="evenodd" d="M12.874 59.704c.233-.488.443-.896.48-1.042.03.294.083.94.19 1.626a35.37 35.37 0 01-.67-.584z" fill="#F1D789"/><path fill-rule="evenodd" clip-rule="evenodd" d="M24.868 66.587l2.123-.59.181.056s.097.057.097.25c.266-.153.493-.126.657-.227.085.181.17.781.543.855.39.085.81-.17 1.235-.493.419-.334.896-.753 1.257-.923.133.244.25.495.351.753.476-.38 1.303-1.92 2.48-1.892A4.47 4.47 0 0135.43 62.4c1.093-.742 1.778-.798 2.633-.73a4.51 4.51 0 011.235-1.105c.141.057.532.295 1.02.068.492-.226 1.047-1.104 1.778-1.217.393-.054.794.03 1.132.238 0 0 2.128-2.113 3.597-2.816-.057-.17-.17-.81 1.551-2.225.096.085.029.323.096.336.029 0 .449-.181.98-.59.657-.492 1.444-1.007 1.92-1.149.896-.266 1.846.277 1.846.277a.85.85 0 01.267-.124c.226-.04.39-.068.515-.112-.012.294.153.798 0 1.234.177.1.365.18.56.238-.096.21-.306.742-.657.997.294.142.334.306.753.448-.17.238-.448.646-.572.896-.125.266-.572 1.37-.77 1.79-.21.419-.493 1.189-.63 1.343-.136.155-.628.81-1.007 1.133.336-.125 1.71-.544 2.294-.703-.174.255-1.054 1.56-1.9 2.816a33.232 33.232 0 01-27.205 3.15l.003-.006z" fill="#E0CD81"/><path fill-rule="evenodd" clip-rule="evenodd" d="M18.144 29.597s-.492 0-.588.068c-.097.068.492.21.673.277.181.068.572.38.674.63.097.237 3.54 1.624 3.54 1.624l2.435-.124.84-1.16-1.597-1.4 1.12-3.301-1.484.238-3.568 2.128-1.79.685-.255.335z" fill="#DFC57C"/><path fill-rule="evenodd" clip-rule="evenodd" d="M23.492 30.69a.38.38 0 00.336.18c.504 0 .968.125 1.16.38.323.408 1.218 1.71 1.218 1.71l2.141.77.138-2.52-2.339-1.625-2.662.98v.124h.008z" fill="#E5CC7C"/><path fill-rule="evenodd" clip-rule="evenodd" d="M23.072 31.624s.39.029.883-.153c.493-.181 1.303-.572 1.654-.419.492.21.39.867.923 1.456.323.363.912.352 1.246.743.334.39 1.484.209 1.484.209l.436 2.352-1.75 2.243-.572 2.786h-2.367l-2.161-.857-1.065-2.576.533-2.605.756-3.179z" fill="#D2C281"/><path fill-rule="evenodd" clip-rule="evenodd" d="M27.649 31.738c.059.018.12.027.181.028-.068.057-.21.181-.153.504.057.323.238.73.085.98.122.133.213.292.266.464.097.278.125.533.753.572a1.36 1.36 0 00-.249.199s.436.379.657.73c.227-.01.827-.196.827-.196l.125.085.266-.112s-.25-.097-.068-.703c.17-.532.323-.504.336-.543.013-.04.124-.6.124-.827.085-.294.153-1.19.153-1.19l-.18-1.976-1.02-.617-.829-.8-.782 1.472-.514.514-.04 1.274.062.142z" fill="#E2C270"/><path fill-rule="evenodd" clip-rule="evenodd" d="M30.1 30.085s.182.515.25.912a.877.877 0 00.04-.238s.141.782.169 1.104c.057-.011.112-.028.125.029.012.056.142.685.112 1.036a2.81 2.81 0 01.951-.951c.227-.142.493-.295.77-.307.437-.01.754.278 1.275.278 1.257 0 2.395-.923 3.233-1.206.618-.21 1.15-.363 1.524-.703.181-.152.504-.492.798-.996.391-.672.799-1.258 1.207-1.331a2.533 2.533 0 01-.56.04s.125-.125.336-.295c.211-.17.464-.38.827-.38.645 0 .968.097 1.33.097.363-.012.572-.096.572-.096s.38.266 1.235.266c.855.011 1.427.085 1.875.125.448.04 1.948-.125 2.378-.112.281.01.557.078.81.198l-1.387-4.032-4.985-4.357-2.968 2.101-4.565 4.565-4.417 1.637-.923 1.036v1.58H30.1z" fill="#CCB360"/><path fill-rule="evenodd" clip-rule="evenodd" d="M40.013 27.773s.125-.124.334-.294c.209-.17.465-.38.827-.38.645 0 .968.097 1.33.097.363-.012.573-.097.573-.097s.38.266 1.234.266c.855.011 1.427.085 1.875.124.448.04 1.948-.124 2.379-.112.28.011.556.078.81.199l-.63-1.819-.73-1.387-2.084-2.282-2.52-1.484c-.012-.011-.867-.238-.867-.238l-2.265 1.37-2.056 5.319-.04 1.12 1.331.628c.334-.56.703-1.008 1.048-1.064-.312.034-.55.034-.55.034z" fill="#D5B457"/><path fill-rule="evenodd" clip-rule="evenodd" d="M39.985 28.154c-.199.01-.362-.029-.408-.17-.17-.476-.306-.544-.448-.544-.142 0-.334.306-.448.334-.114.028-.25-.351-.25-.351l-.124-.057s-.73.476-1.246 1.037c-.515.56-1.359 1.512-1.738 1.681-.38.17-1.682.227-2.128.323-.446.097-.94.42-1.008.493-.068.074.198.153.238.226.04.068-.436.04-.476.112-.028.057.112.38.181.544a.923.923 0 01.39-.096c.437-.012.754.277 1.275.277 1.258 0 2.396-.923 3.234-1.206.617-.21 1.15-.363 1.523-.702.182-.153.505-.493.799-.997.215-.346.425-.668.635-.906l-.001.002z" fill="#D2B257"/><path fill-rule="evenodd" clip-rule="evenodd" d="M21.952 56.181s-.112-.42-1.15-1.5c-.295-.306-.476-.56-.674-.743-.493-.464-.782-.589-1.133-.855-.77-.572-1.608-.572-2.253-1.274-.646-.702-1.398-2.044-1.92-3.415-.516-1.37-.658-1.807-.658-1.846 0-.04.142-.306.323-.267.181.04.181.39.227.476.09.139.192.27.305.39.267.307.646.672.838 1.218-.04-.464-.198-.98-.198-.98s.997.63 1.846 1.286c.856.657 1.207.884 1.456 1.303.25.419.838 1.523 1.12 1.846.282.323 4.144 1.54 4.144 1.54l1.838 1.37.912 2-.714 1.12-1.37.294-2.226-.997-.713-.966z" fill="#D2B159"/><path fill-rule="evenodd" clip-rule="evenodd" d="M17.007 49.295s.464.742 1.597 1.444c1.02.617 2.633 1.178 4.072 1.512.827.199 1.654.351 2.396.363 1.999.028 3.375-.544 5.08-.73.923-.097 2.056-.17 3.234-.449 1.512-.362 2.407-.77 3.624-1.344.884-.408 1.694-.713 2.35-1.104.924-.544 1.598-1.15 2.38-1.33-.097.265-.199.741-.969 1.234.408-.012.968-.04.968-.04s-.543.323-1.5 1.048c-.59.448-1.37 1.206-2.17 1.71-.515.323-1.076.56-1.444.753-.896.493-1.257.742-1.846 1.344.21-.01.227 0 .227 0s-.743.097-1.275.38c-.112 0-.306-.04-.645.056-.267.085-.618.278-.98.38-.516.153-.685.085-.685.085l.085.17s-.672-.012-.896.011c.04.011.028.028.028.028a.343.343 0 00-.112.04 1.17 1.17 0 01-.351.153c-.068.01-.125.01-.21.028.029.068.25.448.352.672-.085.057-1.36 1.02-1.36 1.02.04.062.072.128.097.198.04.124.056.306.096.39.096.17.153.199.153.199s-.153.028-.42.096c-.226.057-.504.153-.896.21a3.98 3.98 0 01-.362.028c.057.124.306.6-.153 1.15-.46.548-.6.628-.742.98a1.517 1.517 0 00-.227-.143c-.152-.068-.362-.17-.436-.305-.043.181-.1.36-.17.532-.141.38-.35.753-.39 1.036-.153-.17-.436-.504-.827-.436-.39.068-.702.6-.77.754 0-.097-.068-.17-.085-.057-.012.125-.227 1.427-1.427 2.48-.011-.266-.011-.855-.04-1.047-.112.112-.249.277-1.065.629-.798.35-.672.702-.672.702s-.067-.56.363-1.15c.436-.589.702-.867.702-.912a.251.251 0 00-.057-.125c-.056-.056-.17-.124-.17-.17.069-.027.742-.35.703-1.019-.04-.6-.294-.912-.476-1.132-.028-.029.267-.238.227-.306-.029-.04-.39-.306-.436-.448.01-.085.03-.168.056-.249.04-.125.068-.21.057-.295-.028-.141-.181-.532-.226-.572.04.012.322 0 .322 0s-.226-.362-.266-.532c-.04-.17-.125-.617-.17-.702.096.011.334.028.334 0 .012-.085-.21-.227-.112-.336.068.011.198.068.323.227-.068-.182-.181-.533-.42-.674.113-.04.493-.142.828.056.334.198.448.476.448.476s.198.153.504.38c.35.277.798.671 1.512.95.153.086.543.086.827.029.123-.03.241-.077.35-.142a.648.648 0 01.125-.056c-.06-.123-.13-.24-.209-.352.096 0 .21.012.21.012s.067-.153-.238-.448c.068-.068.153-.112.153-.227-.097-.01-.267-.152-.306-.21.056-.039.141-.169.238-.209-.085-.067-.295-.35-.391-.379.092-.034.18-.076.266-.125 0 0-.476-.124-.629-.226-.153-.112-.379-.306-.515-.363-.142-.056-.39-.084-.493-.198.096.028.25 0 .363 0 .085 0 .125.011.153.011-.012-.04-.012-.124.21-.152.106-.017.209-.049.305-.097 0 0-.21-.011-.448-.238-.238-.226-.436-.407-.572-.436-.141-.028-.407.097-.572.085-.226-.028-.323-.141-.323-.141s-.753.068-2.423-.952c-1.445-.883-2.074-1.665-2.074-1.665a2.485 2.485 0 01-.39-.181c-.544-.283-1.297-.872-1.274-1.643l-.003.006z" fill="#C2A44D"/><path fill-rule="evenodd" clip-rule="evenodd" d="M37.843 15.302a.734.734 0 01.336.227c.266.306.436.883-.17 1.5.238.085.336.113.544.085-.21.25-.685.782-.714 1.247-.028.379.21.492.21.492s-.363.42-.38 1.12c.172-.193.359-.37.56-.532.42-.334.997-.713 1.388-.951-.005.1.008.2.04.294 0 0 .73-.6 1.344-.334.277.125.152.515.152.515s.38-.141.646.125.643.953.836 1.219c.084.125.306.363.532.73.309.516.567 1.06.77 1.626.012-.295.085-.753.924-.465.838.295 1.789.912 2.588 2.128.798 1.216.996 2.589 1.398 3.112.408.504.827 1.342.855 1.693.029.352-.124 1.484.714 4.548.238-.951.6-3.064.6-3.064l.198-1.864.227-5.765-6.02-5.002-4.707-3.415-3.064.295.193.436z" fill="#CAA13E"/><path fill-rule="evenodd" clip-rule="evenodd" d="M49.029 23.882s-.086-.56-1.501-1.512c-1.416-.94-2.52-.94-3.54-1.738-.782-.629-1.597-2.073-2.128-2.549-.516-.47-.6-1.83-.6-1.83l1.738-1.455 2.586-3.738 2.186-2.407 1.047 1.456 1.456 1.71.81 3.433.295 5.023-2.352 3.608h.002z" fill="#B59544"/><path fill-rule="evenodd" clip-rule="evenodd" d="M50.778 29.904a6.384 6.384 0 00-.277-2.254c-.374-1.161-1.19-3.223-1.568-3.995-.154-.855-.04-.923.124-1.02.164-.096.782-.447 1.12-1.681.339-1.234 1.388-1.274 1.388-1.274l.645-.476.98 2.452.855 2.215.267 1.693.198 1.444-.465 3.053-2.293 2.073-.974-2.23z" fill="#C89D3A"/><path fill-rule="evenodd" clip-rule="evenodd" d="M18.774 63.929v-.063a.48.48 0 00.125-.112c.04-.056.068-.124.096-.141.057-.029.323-.112.464-.085.142.026.516.18.714.17.408-.012.884-.323 1.637-.182 1.133.21 1.399.98 2.056 1.416.448.306.912.17.98.17h.152c.029 0 .238-.238.352-.226.226.01.249.198.39.21.334.039.98-.17 1.303-.086a.623.623 0 01.408.408.629.629 0 01-.153.628c-.351.323-.685.63-.753.896.086.066.169.137.248.211a32.972 32.972 0 01-8.019-3.21v-.004z" fill="#CEB052"/><path fill-rule="evenodd" clip-rule="evenodd" d="M48.933 52.614s.883-1.178 1.19-1.762c.305-.601-.97-8.217-.97-8.217l2.56-8.387-.068-2.73s.125-2.52.42-3.614c.35.63 1.444 1.388 1.682 1.79.112-.77.492-2.396.436-4.129.21.323.713 3.568.713 3.568l.504 2.186.657 2.322.73 2.453.437 1.693.249.408.21.713.198.77.572 1.808.336 1.483.266 2.69c.058.206.1.416.125.629.011.295-.04.465-.04.516 0 .05.097.645.057 1.093-.057.448-.057.798-.408 1.12-.351.321-.572 2.242-.572 2.242l-.629-.419s.125-.572-.17-1.093a1.105 1.105 0 00-1.189-.543c-.322.068-.968.17-1.178.35-.198.182-.685.742-1.133.997-.56.337-1.472.363-1.959.476-.493.112-1.036.448-1.609.838-.448.29-.922.54-1.415.747l-.002.002z" fill="#CCA847"/><path fill-rule="evenodd" clip-rule="evenodd" d="M48.933 64.988s.037.025.109.064a33.264 33.264 0 0010.603-7.859c-.033-1.146-.075-2.32-.121-2.756-.096-.923-.028-1.863-.057-2.407-.028-.543-.334-2.758-.475-3.33-.153-.572-.448-.855-.493-.855-.04.011-.278 1.076-.278 1.344 0 .267-.057.912-.057 1.076-.04-.011-.056-.112-.056-.153-.057.142-.125.39-.153.42-.028.028.04-.239 0-.295-.04-.057-.112-.029-.096-.17a1.53 1.53 0 01.04-.25s-.17.25-.295.884c-.125.629-.125.646-.17.702-.04.069-.266.295-.278.38-.01.153.21.306.227.39.011.142-.198.8-.266 1.12-.068.322-.04.952-.112 1.275-.057.294-.112.464-.306.589.142.028.278.067.278.067s.198.839-.306 1.552c-.181.25-.227.363-.42.59-.379.418-.673.895-.702 1.206a2.032 2.032 0 01-.04-.278s-.588.685-.837 1.076c-.323.504-.77.476-.896.6-.126.125-.154.352-.113.533-.111.028-.322.068-.464.504a1.06 1.06 0 01-.504.6c-.266.153-.589.199-.753.238.141.04.198.04.266.085-.085.141-.476.362-.912.646a1.9 1.9 0 00-.753.911c-.112.238-.278.391-.544.42.112.068.278.226.363.277-.125.028-.336.028-.714.351-.396.329-.532.425-.714.454h-.001z" fill="#C39D3C"/><path fill-rule="evenodd" clip-rule="evenodd" d="M41.052 67.612c.217-.152.451-.276.699-.37.883-.351 1.818-.42 2.186-.532.351-.112.629-.267 1.065-.352l-.032.281c-1.286.404-2.595.73-3.92.973h.002z" fill="#D2BA6B"/><path fill-rule="evenodd" clip-rule="evenodd" d="M57.344 44.378s-.18.98-.504 1.597c-.322.618-.672 1.473-.672 1.473.003-.193.025-.385.068-.572-.407.237-1.398.81-1.68 1.064-.266.238-.713.657-.826.856.266-.782.543-1.484.589-1.807-.408.295-2.311 1.863-3.302 2.9l-3.087 2.497c-.356.192-.723.364-1.099.515-.532.226-1.16.419-1.625.6a2.59 2.59 0 01.6-.912c.295-.277 1.178-1.234 1.314-1.68.125-.464.154-.742-.01-1.133-.154.04-.505.057-.743.125-.237.068-.492.323-.492.323s.18-1.037.572-2.016a8.303 8.303 0 00-.799.096s.702-1.178 1.904-2a6.19 6.19 0 00-1.076.334c-.702.295-1.472.731-2.044.969.322-.448 2.588-3.681 3.936-6.694 1.344-3.007 1.846-3.778 2.14-5.392.153-.798.112-1.978.153-3.035.04-1.048.17-1.988.085-2.617.351.436 1.665 1.665 1.71 4.412.04 2.747-1.257 6.457-2.633 8.455.336.097 1.207.21 2.101-1.344.895-1.553.884-1.987 1.207-2.633.04.323.028.436.028.436s1.303-1.58 1.92-3.568c.124.855.492 1.609-.085 3.177-.516 1.416-1.19 1.762-1.19 1.762s.335-.057.827-.351c.085.209.068.448.21.532.141.084.334.227.362.362.153-.226.39-.515.465-.73-.057.448-.096 2.407.112 3.404.436-.04.883-.068 1.19-.856-.21.77-.21 1.235-.069 1.892.233-.158.442-.442.442-.442l.001.001z" fill="#C0993A"/><path fill-rule="evenodd" clip-rule="evenodd" d="M42.628 13.162s-.436.18-1.178.18c-.645 0-.464-.248-1.472-.248-1.552 0-6.972.896-7.923.883-.618-.011 2.084.266 2.084.266l6.904.097 1.387-.112.516-1.05-.318-.016z" fill="#A88F33"/><path fill-rule="evenodd" clip-rule="evenodd" d="M24.727 26.658s-.884.674-1.258 1.19c-.373.515-.572.854-.996 1.274.1.003.199-.01.294-.04 0 0 0 .112-.068.142a.396.396 0 01.323.112c-.125.068-.465.408-.198.81.198.305.617.334.617.334s-.096.277.306.249c.866-.04 1.835-.42 2.282-.323.448.112.703.153 1.02.703.336.543.628.628.628.628s.198-.504.153-1.257a3.74 3.74 0 00.267-1.274l-.295-2.17-1.285-1.625-1.665.923-.125.323v.001z" fill="#E3C571"/><path fill-rule="evenodd" clip-rule="evenodd" d="M26.307 26.335s.124.295.646.323c-.057.124-.057.141-.04.237l.028.238a.525.525 0 00.153-.112c.028.125-.028.323 0 .465.017.086.046.17.085.249a.513.513 0 01.028-.057c.011-.028.112.306.391.56 0-.039.01-.077.028-.112.004.071.028.14.068.199a.21.21 0 01-.056-.04s.028.896.18 1.36a.639.639 0 00.069-.097c0-.028-.012.25-.04.448-.04.198-.011.476-.011.476a1.52 1.52 0 01.334-.199c.17-.068.448-.277.617-.742.098-.263.174-.534.227-.81.054.106.092.22.112.336.011.142.277.068.277.068l.057-.617.336-1.399.306-.867 1.472-2.293 2.66-2.049 2.323.533 1.96-2.662-3.376-2.028-3.194.334-2.9 4.015-2.321 3.642-.42.6v.001z" fill="#D8B65B"/><path fill-rule="evenodd" clip-rule="evenodd" d="M43.036 20.524s-.198.04-.77.336c-.572.296-.968.39-1.19.826a2.142 2.142 0 00-.237.782s.39-.17.617-.226c.238-.057.505-.04.476.056a.658.658 0 01-.112.181s.448-.01.436.21c-.012.221-.085.465-.17.572-.084.112-.435.278-.475.408-.096.267.04.278-.012.493-.04.21-.226.617-.838 1.33-.628.714-.896 1.218-.896 1.218s-.306-.572-.464-1.064c-.112.056-.714.39-.714.39l-1.393-4.853.028-.323s.125-.153.153-.436c-.21-.068-.238-.125-.515-.39-.278-.266-.504-.59-.968-.81-.068-.125-.153-.295-.493-.363-.34-.069-.544-.125-.544-.125s.181-.068.266-.21c-.21.029-.379.097-.838.086-.464-.012-.515-.029-.77.01-.255.04-.56.154-.674-.237-.124-.096-.39-.011-.617.323-.227.333-.306.6-.742.73a1.51 1.51 0 01-.198.544c-.125.21-.323.42-.59.73-.419.493-.35 1.303-1.019 1.92-.674.618.112-1.71.112-1.71l1.076-2.576 3.064-2.996 4.757-.323.465 2.464 2.322.799 1.467 2.237v-.003z" fill="#D3AE4D"/><path fill-rule="evenodd" clip-rule="evenodd" d="M43.79 21.068l-2-2.882-1.399-1.076s-.996-1.835-1.064-1.892c-.057-.04-.997-.141-1.597-.18l.112.277a.736.736 0 01.336.226c.266.306.436.883-.17 1.5.237.086.336.113.543.086-.21.249-.685.781-.713 1.246-.029.38.21.492.21.492s-.363.42-.38 1.12c.171-.193.358-.37.56-.532.42-.336.997-.714 1.388-.952a.8.8 0 00.04.295s.73-.6 1.343-.334c.278.124.153.515.153.515s.38-.141.646.125.645.951.838 1.218c.085.125.306.362.532.73.31.515.567 1.06.77 1.625.012-.226.057-.543.448-.543l-.594-1.065-.003.001z" fill="#CAA13E"/><path fill-rule="evenodd" clip-rule="evenodd" d="M13.819 29.258s-.142-.352 0-1.037c.141-.685.362-1.008.436-2.016.073-1.008.73-2.265.73-2.265l1.818-.827 1.286.351.38 1.722-1.626.896s-.085.38-.544.685c-.459.306-1.093.544-1.246.855-.09.191-.158.393-.198.6 0 0-.464-.096-.742.21-.294.312-.283.59-.294.827v-.001z" fill="#F4EFC8"/><path fill-rule="evenodd" clip-rule="evenodd" d="M17.489 28.799s-.153.096-.266.336c-.112-.182-.38-1.258-.391-2.226-.011-.969-.07-1.209.155-1.542.224-.334 1.102-.686.978-1.287-.125-.572-.646-.81-1.286-.645-.448.112-.782 1.064-1.246 1.54-.351.362-.77.306-.883.504-.154.266-.012.532-.057.702-.012.057-.153.363-.408.73-.515.743-1.388 1.79-1.501 2.73.04-.532.012-.543.153-1.132l-.085-.142.56-1.835.362-1.512.81-2.532 1.428-2.587 1.387-1.552 1.444.096.17 2.169.827 4.072 1.739 2.141-2.787 1.875-1.104.097z" fill="#EBCC73"/><path fill-rule="evenodd" clip-rule="evenodd" d="M18.355 29.568s-.238.057-.323.012c-.085-.046-.17-.097-.141-.153.028-.057.181-.153.181-.199a.159.159 0 00-.142-.17c-.13-.016-.17.068-.17.068s-.124-.096-.226-.112c.06-.007.12-.01.181-.011a1.766 1.766 0 00-.492-.142c.141-.085.419-.334.6-.334s.294-.028.266-.124c-.028-.096-.17-.238-.322-.295.056-.068.096-.17-.04-.448-.142-.277-.085-.464-.04-.532.04-.085.181-.238.25-.334.067-.096.124-.227.237-.294.057-.04.238-.112.42-.181.198-.069.362-.154.475-.069.125.085.068.199.068.199s.391-.142.742.04c.351.169 1.206.277 1.206.277l.307.617-2.027 1.739-.839.42-.17.027v-.001z" fill="#E5C66B"/><path fill-rule="evenodd" clip-rule="evenodd" d="M21.17 26.726s-.629.42-.77.572c.084.012.226.069.17.153-.069.085-.477.38-.703.657a4.335 4.335 0 00-.544.799c-.084.153-.73.6-.95.657.463 0 1.398-.572 1.749-.572-.011.17.096.362.294.379.199.017.77.125 1.54-.35.771-.465.516-.811.839-1.037.617-.408.866-.77 1.206-.997.34-.226.516-.278.516-.278s.011-.17.112-.152a.152.152 0 01.124.096s.59-.42 1.345-.533a.078.078 0 01-.04-.04s.056-.027.068-.056c0 0 .04-.057.068-.028.028.028.068.238.125.323.124-.057.362-.59.362-.59l.572-1.636v-1.495l-.448.085-3.36 1.427-2.039 2.112-.238.504h.002z" fill="#E6BD62"/><path fill-rule="evenodd" clip-rule="evenodd" d="M30.843 19.391a1.9 1.9 0 00.517-.21c-.068.182-.068.38-.362.81-.295.431-.306.493-.544.94-.238.465-.266 1.133-.492 1.427.101-.049.21-.081.322-.095 0 0-.226.198-.322.407-.097.21-.267.646-.686.912-.418.267-.951.436-1.523 1.065-.572.617-1.161 1.399-1.456 1.68.153-.266.362-.799.42-1.15.056-.35-.012-.77.084-1.234.096-.464.096-.799.56-1.609.464-.81 1.257-3.624 1.257-3.624l1.71-.544.516 1.223v.002z" fill="#B6933F"/><path fill-rule="evenodd" clip-rule="evenodd" d="M29.608 18.356s-.515.741-.656 1.398c-.142.658-.012.6-.097.924-.05.197-.05.403 0 .6.179-.287.423-.528.713-.702.487-.295.884-.505 1.12-.753.238-.267.436-.703.951-1.037-.21-.028-.504-.125-.56-.112.21-.238.838-.6 1.473-1.036.629-.448.589-.629 1.608-1.076-.334.056-.492-.029-.77 0 .112-.238.504-.352.896-.742s-.25-.968-.25-.968l-2.986 1.806-1.444 1.7.002-.002z" fill="#C49937"/><path fill-rule="evenodd" clip-rule="evenodd" d="M21.504 17.007l.068-.544.855-1.37.895-2.407v-3.29l-.068-1.903.142-1.247.107-.396.114-.153.73.38 1.008 1.37.096 2.645-.98 4.174-2.797 3.053-.17-.312z" fill="#DFC068"/><path fill-rule="evenodd" clip-rule="evenodd" d="M23.73 5.544s-.448.012-.544 1.875c-.095 1.864-.142 2.843-.21 3.766-.067.924-.226 1.484-.305 2.028-.08.544-.125 1.285-.38 1.739-.112.209-.35.866-.912 1.359-.628.543-1.568.923-1.71.951-.25.057-1.512.182-2.027.465-.181.096-.493.21-.839.532-.685.617-1.597 1.722-2.254 3.053-1.008 1.988-2.016 7.6-2.016 7.6l.227-.38s.028-.503.532-1.387c.493-.883.351-1.875 1.037-3.568.266-.645.6-1.484 1.008-2.197.645-1.161 1.427-2.158 2.214-2.702a7.001 7.001 0 012.702-1.076l1.523-1.008s.266-.515.618-1.104c.492-.827 1.12-1.75 1.257-3.092.21-1.988-.295-3.29-.267-4.468.029-1.178.04-2.045.278-2.255.239-.21.068-.13.068-.13z" fill="#A88F33"/><path fill-rule="evenodd" clip-rule="evenodd" d="M23.73 14.436s.672-1.654.98-3.121c.056-.295.17-.589.198-.827.141-1.387.18-1.96 0-2.718-.142-.56-.686-1.065-.969-1.456-.277-.408-.407-.56-.35-.646.056-.086.277-.226.492-.21.462.014.898.216 1.206.56.436.504.782 2.215.782 2.215l.363 2.257.923 2.843-3.625 1.105v-.002z" fill="#C99E3D"/><path fill-rule="evenodd" clip-rule="evenodd" d="M30.044 12.714s-.125.057-.35 0a.505.505 0 01-.227.476c-.238-.096-2.464.096-2.464.096s-1.037-.181-1.36-1.552c-.226-.912.17-2.169.04-2.996-.198-1.218-.476-1.456-.504-1.835-.029-.379-.057-.475-.057-.713-.125-.029-.198-.068-.323-.068-.028-.112.028-.21-.096-.408.068.028.532.085 1.076.6.448.42.448.572.516.657.084.085.77.672 1.064 1.258.295.585.867 2.452.997 2.758.04.124.125.249.336.532.329.408.81 1.082 1.354 1.194l-.002.001z" fill="#B58634"/><path fill-rule="evenodd" clip-rule="evenodd" d="M26.375 7c.343.554.651 1.13.923 1.722.334.753.532 1.37.952 1.874-.227-.656-.63-1.948-.867-2.407-.266-.485-.81-1.008-1.008-1.189z" fill="#A88F33"/><path fill-rule="evenodd" clip-rule="evenodd" d="M22.524 16.31s-.572.142-1.637.703a17.76 17.76 0 01-1.008.476c-.839.38-1.738.73-2.452.923.057.068.085.096.085.096s0 .278.153.436c-.085.085-1.218.855-.884 3.432.227-.085.493-.198.532-.198.069.011.085.198.17.198s.363-.112.657-.493c-.01.153-.18 1.694.73 2.73.17-.198.601-.855.601-.855l.011-.21s.04-.73.278-1.398a3.717 3.717 0 01.702-1.162l2.424-3.46-.363-1.217z" fill="#E6C367"/><path fill-rule="evenodd" clip-rule="evenodd" d="M20.258 21.391c-.11.079-.233.14-.362.182-.04-.142-.097-.63.237-1.105.391-.572 1.246-1.314 1.484-1.904.153-.38.085-1.33 1.444-2.549 1.36-1.217 1.892-1.636 1.892-1.636l2.197-1.105 2.702 1.065-1.343 5.26-1.041 2.464-4.144-.781-3.066.11z" fill="#DCBA5A"/><path fill-rule="evenodd" clip-rule="evenodd" d="M21.84 19.963l.515-.645v-.46s.572-.152 1.19-.78c.617-.63 1.472-1.836 2.225-1.762.754.085.827 1.636.856 2.073.028.436.124 1.427.277 1.96.17.532-1.835 2.548-1.835 2.548l-1.362 1.036-1.866-3.97z" fill="#E9CE77"/><path fill-rule="evenodd" clip-rule="evenodd" d="M23.436 25.338s.419-.657.111-.799c.182-.407.516-.838.516-.838s.238-.588 1.008-1.314c.77-.725 1.246-1.206 1.37-1.693a4.46 4.46 0 00.125-.968c.084.068.173.128.267.18.124.057.713.544.628 1.524-.084.98-.448 1.388-.448 1.388s-.35.35-.6.532c-.266.181-.362.39-.81.408a.535.535 0 01.153-.085s-.464-.056-.714.17c-.249.226-.78.923-1.045 1.133-.267.17-.56.362-.56.362h-.002z" fill="#CDAE50"/><path fill-rule="evenodd" clip-rule="evenodd" d="M42.266 14.323a6.82 6.82 0 00-2.084-.408c-1.19-.04-2.928.029-4.632.04-1.835.011-3.5-.629-5.81-.742-.38-.227-1.345-1.218-4.356.883.18-.01 2.186-.464 2.882.408.703.867.504 2.34.408 2.69-.181.782-.77 1.92-1.008 2.719-.237.798-.181 1.218-.351 1.778-.17.56-.544.838-.323 1.484.295-.181.448-.181.94-1.286.492-1.104.391-1.892 1.207-2.826.798-.94 2.128-2.226 2.633-2.549.506-.323 4.52-2.406 8.722-.418 1.014-.108 1.773-1.774 1.773-1.774z" fill="#D2A83E"/><path fill-rule="evenodd" clip-rule="evenodd" d="M27.077 13.552a.523.523 0 00-.028-.124.909.909 0 00-.153-.227s-.997-.181-1.501-.125c-.884.097-1.682 1.19-2.056 1.75-.374.561-.838 1.427-1.342 1.875a.187.187 0 00-.029-.125s.029.04-.027.097c-.057.056-.057.084-.029.112l.085.084c.028 0 .81-.35 1.875-1.344 1.132-1.036 1.999-1.568 2.452-1.75.242-.103.494-.177.753-.223z" fill="#C29637"/><path fill-rule="evenodd" clip-rule="evenodd" d="M46.412 9.294s-.181.226-.408.476c-.504.532-1.16 1.132-1.721 1.75-.532.588-1.133 1.047-1.807 1.818-.674.77-1.456 1.625-1.654 1.874-.181.25-.323.657-.323.866-.096-.067-.209-.141-.209-.141.048.089.105.173.17.25.141.198.362.447.475.6.14.194.24.413.295.645.068.011.504.097 1.048-.798s1.257-1.875 1.257-1.875l1.132-1.682.714-1.427.896-1.597.136-.76z" fill="#AC8132"/><path fill-rule="evenodd" clip-rule="evenodd" d="M47.573 8.15s-.685.56-.951.896a45.561 45.561 0 00-.896 1.218l.226-.028 1.15-1.02.448-.798.023-.266V8.15z" fill="#A88F33"/><path fill-rule="evenodd" clip-rule="evenodd" d="M47.363 53.157s-.01-.464.25-.741c.266-.278.94-.686 1.597-2.215.657-1.53.73-1.875.73-1.875s-1.178 1.008-1.904 1.246c.17-.351.266-.6.351-.782-.096-.084-.504-.18-.543-.226.226-.227.35-.782.81-1.15.589-.448 1.665-1.218 2.5-1.904.837-.686 2.481-2.282 2.691-2.746.125.18.153.294.153.294s-.827 1.076-1.257 1.761c-.38.59-.352.923-.352.923l.782-.335s.227.838-.798 2.112c.448-.17.628-.068.883-.21-.42.267-.997.63-1.54 1.626-.533.997-1.258 2.158-2.48 2.882-1.19.765-1.876 1.337-1.876 1.337l.003.003z" fill="#A67A2E"/><path fill-rule="evenodd" clip-rule="evenodd" d="M44.294 14.912s-.464.968-.532 1.722c-.011.18-.057.322-.057.532-.011.674.04 1.427-.112 1.778-.057-.141-.085-.238-.142-.294-.085.238-.238.98-.362 1.257-.057-.181-.181-.81-.17-1.552.012-.742.028-.883.028-1.036-.028.226-.181.532-.238.713-.084-.152-.18-.35-.294-.515-.068.112-.153.278-.227.363a5.151 5.151 0 01-.056-.504c-.011-.295-.029-.674-.011-.754.028-.152.266-.753.77-1.302.6-.657 1.218-1.92 1.399-2.31.18-.392.95-2.017.95-2.017h.59l-.855 1.948s-.516 1.065-.782 1.456c-.266.392-.827 1.513-1.076 1.949.181-.238.334-.363.516-.59.175-.158.662-.843.662-.843v-.001z" fill="#8C6228"/><path fill-rule="evenodd" clip-rule="evenodd" d="M47.584 8.076a2.438 2.438 0 01-.448.81c-.35.42-1.104.98-1.472 1.427-.336.436-1.008 1.626-.703 3.036.112-.306.323-.912.884-1.597.56-.686 1.161-1.473 1.456-2.084.294-.618.334-1.105.334-1.105l.112-.141-.068-.323-.096-.023h.001z" fill="#CBA94C"/><path fill-rule="evenodd" clip-rule="evenodd" d="M59.053 45.641s-.227-.617-.295-1.178c-.068-.56.112-.672-.096-1.314-.125-.39-.35-.336-.408-.39-.056-.055-.096-.646-.085-.969.012-.323-.01-.742-.068-.923-.084-.068-.141-.125-.266-.544-.141-.419-.21-.628-.277-.753-.068-.124-.267-.237-.267-.362 0-.25.227-.38.227-.448-.011-.142-.181-.028-.227-.068-.056-.068.142-.476.069-.532-.029-.028-.227.21-.278.141-.057-.068-.125-.742-.227-1.19-.096-.435-.198-.752-.21-.882-.01-.125-.781-2.322-.968-2.855-.15-.45-.277-.907-.379-1.37-.057-.267-.096-.81-.125-.754-.028.057-.01.334-.056.323-.04-.012-.181-.98-.227-1.133-.04-.153-.277-.672-.336-1.047-.056-.38-.18-1.371-.266-2.045-.085-.674-.125-.951-.125-1.12a6.975 6.975 0 00-.067-1.235c-.112-.713-.336-1.58-.533-2.083-.38-.952-1.388-3.387-1.568-3.993 0-.153.198-.068.198-.068s.493 1.234.855 2.186c.352.951.686 1.79.77 1.875.069.084.601 1.019.839 2.548.238 1.53.323 2.94.464 3.88.068.447.125.922.267 1.398.152.516.39 1.048.702 1.863.266.686.464 1.258.572 1.75.124.63.124 1.105.198 1.417.068.266.17.798.408 1.568.238.77.589 1.761.827 2.378.464 1.235.672 2.265.742 2.815.062.566.272 2.526.215 3.115h.001z" fill="#A88F33"/><path fill-rule="evenodd" clip-rule="evenodd" d="M47.613 8.008l-.028.068s.085.028.068.142a3.37 3.37 0 01-.029.464c-.028.199-.084.351-.096.476 0 .266.04.572-.335 1.33-.112.21-.181.392-.238.516-.142.306-.17.351-.295.493.198-.112.912-.56 1.274-.493-.249.142-.628.42-.866.782.057.011.294.057.672 0 .628-.096 1.33-.323 1.948-.278.674.04.408-.81.408-.81l-.778-1.71-1.472-1.036-.233.057z" fill="#BE9C44"/><path fill-rule="evenodd" clip-rule="evenodd" d="M51.452 20.819s-.657-.657-.923-2.912c-.266-2.265-.21-5.6-.21-5.6l-.532-1.303s-.112-.866-.39-1.189c-.28-.322-.827-.866-1.077-1.132-.249-.266-.532-.629-.702-.686.085-.141.465-.94 1.92-.951 1.455-.011 1.904.799 2.056 1.093.152.295.838 1.568 1.093 3.995.237 2.423.249 2.605.21 3.443-.029.464-.182 1.54-.449 2.69-.243.974-.51 2.062-.996 2.554v-.002z" fill="#A17C34"/><path fill-rule="evenodd" clip-rule="evenodd" d="M49.392 22.75c.219.017.438-.033.629-.141.21-.011.968.085 1.551-.657.04.17.142.629-.124 1.036.142-.141.35-.198.38-.237.01.21.209.855-.63 2.423.227-.249.493-.237.73-.266.012.295.17 1.286-.248 1.818-.277.363-.73.25-.73.25a1.41 1.41 0 000-.238c-.012-.154-.069-.306-.029-.408a2.033 2.033 0 01-.589-.408c-.493-.465-1.133-1.257-1.178-1.846a.729.729 0 01.533-.799.63.63 0 01-.125-.153c-.029-.096-.057-.249-.17-.373z" fill="#8C6228"/><path fill-rule="evenodd" clip-rule="evenodd" d="M45.024 15.625s-.029-.04-.181.142c.028-.181.056-.351.068-.516.072-.152.166-.293.277-.419-.085.17-.141.323-.141.323s.21-.391.515-.629c.21-.17.476-.249.589-.408.125-.17.096-.198.125-.226 0 0 .277-.181.702-.714.057-.068.142-.141.198-.21.096-.039.323-.14.59-.277.277-.153.588-.362.781-.448.38-.17.782-.153.968-.42.142-.039.295-.464.267-.826.209.085 1.285.753 1.654 2.214.266 1.037-.21 2.634-.409 3.404-.198.77-.226 1.343-.504 1.693-.35.465-1.483 1.12-1.761 1.445-.238.266-.951.94-.923 1.427.028.362.475.56.572.628.097.07.096.154.277.112.182-.04.25-.124.323-.124.085.01.085.028.125.028a.402.402 0 00.085-.012s-.028.516-1.235.672c-.085.012-.17.04-.277.057.141-.068.226-.068.38-.277-.17-.029-.658-.057-.783-.096.04-.068.17-.25.278-.335.096-.084-.011-.112-.096-.067a4.53 4.53 0 00-.42.322c-.14.125-.266.295-.492.448a1.104 1.104 0 01.21-.968c-.069.01-.199.21-.323.17a1.805 1.805 0 01.04-.618c.067-.255.435-.702.435-.702l1.779-3.178.379-2.407-4.072.791v.001z" fill="#92723A"/><path fill-rule="evenodd" clip-rule="evenodd" d="M44.928 15.761s-.096.068.096.198c-.028.04-.096.181-.181.278-.096.112-.198.181-.238.278-.085.198-.153.334-.153.419 0 .085-.028.628-.266.98-.085.124-.181.334-.25.475-.14.25-.265.448-.294.56-.056.198-.096.742-.096.742l.17-.21c-.068.142-.142.295-.25.408.069-.057.267-.198.601-.493.465-.39 1.19-1.047 2.073-1.568-.266.097-.493.097-.674.125.142-.142 1.416-1.637 2.084-1.778a.266.266 0 00.057-.182l-.572-.056-1.161.249-.17-.896-.776.47v.001z" fill="#B18E3E"/><path fill-rule="evenodd" clip-rule="evenodd" d="M46.774 20.859s-.153.153-.295.532a1.792 1.792 0 01-.277-.38c-.21-.35-.532-.798-1.286-.543-.011-.238-.028-.363 0-.532.125-.028.504-.334.884-.782a3.62 3.62 0 00.685-1.104 9.12 9.12 0 01.56-.391c.362-.249.798-.59.866-.968-.17.068-.532.237-1.076.21.21-.097.532-.199.493-.618.085-.057.153-.096.153-.096a.56.56 0 00-.198-.029c-.012-.04-.029-.096-.125-.068-.096.028-.112.029-.125.068-.04.012-.17 0-.266.069-.096.068-.362.294-.464.333.04-.068.096-.17.096-.17s-.278.029-.476.113c-.363.125-.781.351-1.206.572.04-.068.056-.112.084-.125.029-.013.097-.028.097-.04 0-.011-.028-.111-.011-.152a5.2 5.2 0 01.448-.77c.198-.267.237-.646.237-.646l.867-.436 2.435-.56 1.58.096-.198 1.093-.933 1.909-.799 1.738-.912 1.065-.838.612z" fill="#543E26"/><path fill-rule="evenodd" clip-rule="evenodd" d="M50.722 16.128s-.952 1.177-1.218 1.359c.17-.363 1.218-2.52 1.597-3.12-.085-.069-.198-.069.068-1.12-.226.531-.306.809-.492.95-.187.142-.21.097-.336.097a.237.237 0 00.028-.142s-.799-.096-1.344-.096c-.546 0-1.625.294-2.226.532-.476.199-.742.199-.912.323-.17.141-.266.294-.351.334-.068.04-.39.141-.465.249-.068.112-.18.238-.18.266 0 .029-.03.068.056.04.028-.011.238-.125.476-.267.322-.18.713-.39.996-.515.81-.323 1.065-.266 1.427-.334.38-.068.924-.226 1.286-.226.362-.012 1.048 0 1.206.028-.068.057-.124.125-.096.362 0 .068-.057.142-.112.306a27.55 27.55 0 01-.672 1.626c-.249.532-.532.98-.672 1.257-.14.277-.448 1.008-.753 1.399-.305.39-.464.628-.56.713-.096.085-.782.59-.73.77.124-.039.911-.335 1.483-.979.572-.644.685-1.036 1.133-1.388.447-.351.798-.94 1.008-1.427.175-.453.136-.594.356-.996l-.001-.002z" fill="#806031"/><path fill-rule="evenodd" clip-rule="evenodd" d="M30.215 24.919s-.125.515-.408.77c-.277.25-.77.464-.827.884-.068.418.493.628.493.628s-.306.504-.306.884c0 .39-.011.464.028.838a.373.373 0 00-.112.112s.028.362.306.588c.278.227.515.363.657.306.021.046.04.094.057.142 0 0 .21-.532.35-.997.142-.475.267-.408.323-1.048.057-.64.672-1.738.672-1.738l.42-.94-.685-.532-.968.102z" fill="#B6903C"/><path fill-rule="evenodd" clip-rule="evenodd" d="M31.49 25.842a4.12 4.12 0 00-.391.464c-.181.25-.323.476-.589.572-.266.097-.436.096-.419.363.017.267.266.38.408.515.153.142.277.38.21.646.084-.04.237-.085.379-.39.141-.306 1.131-2.17 1.131-2.17h-.73z" fill="#685026"/><path fill-rule="evenodd" clip-rule="evenodd" d="M35.392 21.544s.085-.226 0-.39c-.085-.17-.6-.227-.855-.42-.266-.198-.589-.336-.855-.249.04-.096.198-.306.068-.351-.125-.04-.589.17-.714.266-.124.096-.408.21-.464.278-.056.068-.153.198-.21.141-.057-.04-.085-.141-.181-.085-.096.056-.56.436-.645.657-.086.221-.278.714-.856 1.274-.577.56-.827.924-.657 1.133.17.21.25.057.278.238.022.178.012.358-.028.532-.069.295-.182.572-.029.629.391.125.77-.112.855-.04.17.153-.096.703.306.81.408.112.81-.096.81-.096l1.484-.799 1.427-.753.73-1.444-.391-1.206-.075-.125h.002z" fill="#D4B968"/><path fill-rule="evenodd" clip-rule="evenodd" d="M33.992 24.992s-.25-.379.057-.713c.306-.335.742-.476.912-.685a.262.262 0 00-.125-.085 1.13 1.13 0 01.493-.465.472.472 0 00-.323-.153c-.278 0-.448.17-.702.17-.25 0-.278-.124-.278-.124s.42-.04.38-.227c-.04-.198-.112-.198-.112-.198s.81-.336.95-.515c.142-.18.126-.391.154-.476.096 0 .656-.295.883-.17.227.125.068.465.068.465s.686-.516 1.035-1.022c.306.029.448-.209.672-.209.278 0 .714.38.799 1.189.057.464.141.73.057 1.552-.04.464-.029 1.456.112 1.948.096.39.322.351.322.351a.636.636 0 01-.198.306c-.153.142-.17.516-.153.657.023.104.05.206.085.306 0 0-.181.21-.227.351-.04.142-.226.238-.362.238-.136 0-.068-.012-.25 0-.18.012-.237.04-.35 0-.114-.04-.199-.085-.153-.448.04-.363-1.399-1.206-1.399-1.206l-2.352-.838.005.002z" fill="#CCA849"/><path fill-rule="evenodd" clip-rule="evenodd" d="M31.29 28.571s.516.686 2.634.686c1.008 0 1.36-.097 1.568-.153.227-.057 1.076-.39 1.932-1.4.77-.91.6-1.285.6-1.285l-.448-.067-1.456.198-4.308 1.835-.523.186h.002z" fill="#585136"/><path fill-rule="evenodd" clip-rule="evenodd" d="M32.871 28.742s-1.835.408-1.835-.753c0-1.132 1.133-2.322 1.416-2.531.295-.21.997-.448.997-.448h1.693l.323.855-.142 1.846-2.452 1.031z" fill="#252211"/><path fill-rule="evenodd" clip-rule="evenodd" d="M34.564 25.356s-.351-.323-1.15.112c-.798.434-1.444 1.344-1.484 2.169-.04.73.6 1.274 1.598 1.303.741.028 1.189-.057 1.416-.112-.057-.068-.352-.436-.352-.436l-.028-3.036z" fill="#C3B378"/><path fill-rule="evenodd" clip-rule="evenodd" d="M34.219 25.537s-.085-.068-.336.068c-.21.111-.515.407-.753.617-.153.125-.25.181-.336.277-.351.42-.646 1.105-.476 1.445.17.34.73.73 2.158.464l-.261-2.871h.004z" fill="#E6D89C"/><path fill-rule="evenodd" clip-rule="evenodd" d="M33.754 26.238s-.226.351-.226.912c0 .572.323 1.484 1.512 1.552.912.056 1.523-1.314 2.186-1.847.504-.407.81-.419.81-.419s-.516-.56-1.892-1.285c-1.359-.73-2.883-.827-3.71.294.392-.028 1.654-.35 1.654-.35l.618.197-.952.946z" fill="#252211"/><path fill-rule="evenodd" clip-rule="evenodd" d="M35.532 26.98c-.04-.084-.068-.198.096-.226.164-.028.238-.011.295.112.056.124.112.227.028.278-.085.045-.306 0-.42-.164zm-.266-.798s-.057.04-.029-.04c.012-.096.086-.266.267-.226.18.04.142.238.112.295-.03.056-.181.152-.295.112a.094.094 0 01-.057-.142h.002z" fill="#6F674D"/><path fill-rule="evenodd" clip-rule="evenodd" d="M19.936 26.544s.448.336.968.323c.515-.012 1.178-.544 1.484-.884.18-.198.336-.407.504-.572.142-.141.237-.209.305-.305.097-.112.199-.323.25-.391-.125.096-.306.266-.493.38a5.818 5.818 0 01-.73.379c-.153.057-1.74.896-1.74.896l-.549.174z" fill="#AC924C"/><path fill-rule="evenodd" clip-rule="evenodd" d="M20.621 22.36s.25-.17.73-.278c.465-.112 1.4-.198 1.4-.198l.77.336.305 1.16-.56 1.207-.713.448-.81-1.302-1.12-1.371-.002-.002z" fill="#9F8E57"/><path fill-rule="evenodd" clip-rule="evenodd" d="M19.613 23.396l-.266.199s.068-.125.124-.504c.057-.38.352-1.303.782-1.835.43-.532.42-.504.42-.504a.283.283 0 00-.227.056c.056-.125.419-.573.781-.797.363-.224.505-.295.884-.112.38.182.476.277.753.266.278-.011.515-.306.515-.306s.057.181-.152.6c-.21.42-1.037 1.275-1.037 1.275l-1.722 1.178-.855.485v-.001z" fill="#EAC970"/><path fill-rule="evenodd" clip-rule="evenodd" d="M20.886 22.218s1.246.17 1.626-.181c.011.039.056.039.056.067a.1.1 0 01-.028.057.914.914 0 01.125-.011c.05.014.101.024.153.028a.884.884 0 00.125-.012.212.212 0 01-.085.142c.056 0 .111.011.111.057 0 .045.012.181-.056.21a.257.257 0 01-.17-.012.7.7 0 00.085.306c.112.21.35.448.672.38 0 0 .17.407-.544 1.313-.096.125-.198.295-.322.436-.05.107-.087.22-.113.334 0 0 1.207-.464 1.552-1.523.352-1.065.42-2.113.352-3.092-.012-.278-.057-.476-.125-.618-.17-.351-.646-.294-.838-.096-.278.278-.742.968-1.388 1.444-.657.476-.685.56-1.19.77h.002z" fill="#D7BC6B"/><path fill-rule="evenodd" clip-rule="evenodd" d="M19.392 23.747s-.238.141-.363.672c-.124.543.112 1.206.25 1.415.136.21.447.782 1.092.81a1.2 1.2 0 00.465-.096 2.96 2.96 0 00.629-.39c.277-.21.503-.391.475-.408-.068-.029-1.71-1.388-1.71-1.388l-.618-.69-.22.075z" fill="#585136"/><path fill-rule="evenodd" clip-rule="evenodd" d="M20.944 26.001s.334-.028.533-.153c.198-.124-1.162-1.472-1.162-1.472l.097 1.456.532.17z" fill="#453A25"/><path fill-rule="evenodd" clip-rule="evenodd" d="M19.499 23.645s-.17.323-.17.408c-.029.277.057 1.15.124 1.427.069.295.437.742.913.742.294 0 .702-.181.702-.226 0-.057-.42-.112-.533-.323-.067-.112-.096-.39-.111-.672-.012-.181-.012-.38.056-.448.153-.17.181-.657.181-.657l.544-1.01h-.715l-.855.532-.136.227z" fill="#84754B"/><path fill-rule="evenodd" clip-rule="evenodd" d="M19.29 23.956s.56-.742 1.065-.912c.505-.17.73-.068.73-.068l-.294.753-.42.465.029.237s-.068.63.35 1.065c.42.436.732.42.913.42.181 0 .702-.154.968-.782.238-.59.436-1.344-.04-2.102-.464-.753-1.285-.782-1.444-.782-.158 0-1.404.062-1.857 1.705z" fill="#252211"/><path fill-rule="evenodd" clip-rule="evenodd" d="M33.67 26.476c-.21-.096-.012-.685.197-.866.21-.182.476-.391.94-.42.17-.01.335.097.307.21-.04.21-.334.504-.6.713-.369.29-.607.47-.845.363z" fill="#F7F7E7"/><path fill-rule="evenodd" clip-rule="evenodd" d="M22.342 23.265c.153-.01.351.112.39.278.04.181-.095.544-.39.544-.238 0-.362-.295-.362-.38a.434.434 0 01.056-.198c.011-.017.04-.215.306-.244z" fill="#F8F6DE"/><path fill-rule="evenodd" clip-rule="evenodd" d="M20.133 23.395s-.39.182-.572.56c-.13.28-.169.594-.112.897.028.141.17.492.266.617.096.124.227.21.323.198.096-.012.294-.266.294-.419 0-.153.012-.799.199-1.15.164-.35-.397-.702-.397-.702h-.001z" fill="#D4C38B"/><path fill-rule="evenodd" clip-rule="evenodd" d="M20.19 23.368c-.067.04-.18.096-.152.17.028.068.266.112.35.277.097.17.097.351.069.437a.692.692 0 00.198-.142c.125-.142.277-.334.408-.334.085 0 .17.04.25.04.124 0 .248-.04.265-.17.028-.17-.238-.323-.39-.295.028-.112.067-.277-.057-.39-.125-.114-.515.084-.6.141-.086.057-.34.266-.34.266z" fill="#E2D59D"/><path fill-rule="evenodd" clip-rule="evenodd" d="M29.19 35.266l.837-.247.238.17s.17.362.436.407c-.085.181-.306.336-.294.465a.392.392 0 00.124.226s-.753 1.246.73 2.502a23.52 23.52 0 00-1.035.447c.17.04.532.113.685.25.153.137.153.18.294.266.142.085.226.198.198.25-.096-.058-.419-.227-.475-.069-.057.158-1.4.096-1.4.096l-2.264.436s.084-.226-.154-.436c-.277-.249-.617.012-.98-.266-.475-.362-.492-.782-.645-.94.153-.096.465-.238 1.207-.336-.029-.057-.125-.226-.068-.38.068-.197.35-.322.266-.56.125-.027.18-.027.493-.418.294-.391.475-.476.702-.504.226-.029.362 0 .782-.391.294-.278.198-.515.198-.515s.192-.063.125-.454v.001z" fill="#CBAC5A"/><path fill-rule="evenodd" clip-rule="evenodd" d="M26.715 35.392c.01-.057.056-.085.362-.057.306.029 2.243-.18 2.77-.21.532-.039 2.407-.01 3.319.182.912.193 1.835.42 2.282.532.448.125.589.17.572.227-.012.056-.112.111-.17.096-.057-.011-1.54-.465-1.999-.56-.459-.096-2.045-.351-2.912-.336-.81.011-1.133-.011-1.818.068-.685.085-1.818.198-2.158.153-.336-.04-.266-.04-.25-.096l.002.001z" fill="#D6BC6F"/><path fill-rule="evenodd" clip-rule="evenodd" d="M31.274 39.831s1.16.629 1.58 1.4c.306.571-.181.855-.181.855s.657 0 .572.362c-.04.226-1.133.838-1.863 1.16-.742.324-.714.307-1.076.363-.352.057-1.315-.112-1.513.17-.198.282-.112.572-.056.618.056.04.515.096.515.096s-.096.266-1.047.294c-.952.029-1.19.096-1.247.199-.056.096.181.04.618.112.436.068 1.047.112 1.047.112s-.198.17-.713.305c-.59.153-1.512.295-1.79.465.142.096.351.238.448.249-.238.057-.572.181-.629.227.085.056.199.124.199.124s-.476.572-.754.714c-.277.142-1.874.883-2.424.742-1.37-.363-1.54-1.864-1.874-1.977-.504-.17-.742.17-1.19-.068.199-.141.306-.226.516-.322-.227-.112-1.399-.856-1.399-.856a8.672 8.672 0 00-.408-.781c-.226-.391-.56-.912-.81-1.371-.543-1.008-.572-1.473-1.065-2.044.086-.112.38-.097.38-.097l4.129 1.36 7.321.212 1.904-2.719.81.097z" fill="#DFC677"/><path fill-rule="evenodd" clip-rule="evenodd" d="M20.428 43.976a.626.626 0 00.152.124c.142.097.352.21.493.38.057-.085.198-.238.448 0s.56.068.753.125c.198.068.21.096.21.096s.112-.096.362-.198c.153-.057.334-.097.533-.153.18-.04.379-.096.515-.096.125.084.572.56 2.367-.142 1.694-.657 2.084-.73 2.368-.629.028-.068.056-.198.492-.181 0-.181-.362-.799-.362-.799l-2-.685h-1.093l-3.279.6-1.817 1.037-.141.523-.001-.002z" fill="#C4A859"/><path fill-rule="evenodd" clip-rule="evenodd" d="M19.335 42.827s.04.305.493.628c.448.323.588.516.588.516s.086-.112.154-.227c.067-.124.124-.266.237-.305.227-.097.742.084.856.056.096-.028.068-.226.17-.226.237-.012.39.152.475.152.085 0 .294-.01.323-.056.028-.045.04-.516.362-.742.352-.25.782-.142.896-.085 0 .085.012.295.238.306.227.011.25-.029.448.04.2.067.436-.012.544.322.096-.028.323-.056.266-.38.112-.084.21-.14.448-.475.057-.085.152-.181.226-.306.199 0 .436-.04.753.238-.096.068-.153.112-.18.181.082.082.158.171.226.266.085.112.142.25.249.278.238.068.629-.028 1.065 0 .419.028.77.181.923.277.057-.027.057-.04.198-.01.142.028.25.039.097-.142.084.04.18.124.266.04.085-.086.152-.21.39-.238.238-.029.323.01.42-.238.124-.306-.306-.306-.306-.306s.198-.181.419-.42c.266-.248.572-.571.645-.968.125-.73-.588-.826-.588-.826l-3.46 1.065-4.231-.21-3.608 1.795h-.002z" fill="#927D49"/><path fill-rule="evenodd" clip-rule="evenodd" d="M16.226 32.831s-.112.142-.181.476c-.07.334-.04.295-.097.532-.056.238-.754 2.606-.492 3.404.261.799.714 1.093.997 1.739.056.141.112.226.141.351.096.419.012.742.125 1.161.04.142.142.306.294.476.336.35.884.685 1.12.923.334.351.81 1.065 1.416 1.132.323.04.782-.096 1.161-.322.336-.21.544-.504.896-.672.25-.125.515-.17.753-.227.493-.096.94-.112 1.207-.056.408.085 1.37.38 1.904.38a5.178 5.178 0 001.234-.17c.81-.239 1.79-.647 2.436-.828.379-.112.685-.141.997-.21.532-.124.98-.294 1.234-.617-.17-.198-.38-.504-1.512-.492-1.286.028-2.77.741-3.5.855-.73.113-1.048.21-1.864-.085-.8-.298-.826-.495-.826-.495s-.84-.587-1.19-2.084c-.352-1.497 0-2.588.911-3.625.238-.266.181-.504.181-.504s.6-.81.436-1.567c-.18-.754-1.342-.6-1.342-.6l-6.439 1.125z" fill="#6E6342"/><path fill-rule="evenodd" clip-rule="evenodd" d="M17.195 35.352a.586.586 0 00-.068.305c.011.153.056.351.515.799.39.39.306.826.306.826s.197.04.73-.21c.42-.198.56.153.56.153.122-.064.255-.106.391-.124a.855.855 0 00.351-.112s.493.504.923.741c.391.21.618.352.81.21.182-.124.182-.38.17-.492a1.467 1.467 0 00-.17-.295c-.124-.181-.322-.391-.335-.56-.029-.39.294-.855.226-.969-.069-.113-.323-.141-.951.086-.652.215-3.46-.357-3.46-.357l.002-.001z" fill="#39331F"/><path fill-rule="evenodd" clip-rule="evenodd" d="M18.678 37.883s-.323-.306-.21-1.79c.137-.002.274.011.408.04 0 0 .176 1.15-.198 1.75z" fill="#292311"/><path fill-rule="evenodd" clip-rule="evenodd" d="M16.378 31.699a.895.895 0 00.125-.112c-.112.209-.629 1.047-.21 2.367.42 1.314 1.473 2.293 2.77 2.339 1.297.045 1.978-.59 2.758-1.54.306-.38.657-.856.968-1.178.465-.505.827-.646.827-1.133 0-.997-1.02-1.445-2.52-1.892-1.501-.447-2.855-.392-3.557-.086-.685.334-.98.685-1.161 1.235z" fill="#252211"/><path fill-rule="evenodd" clip-rule="evenodd" d="M21.198 38.33l.112-.057s.028-.448.21-.436c.18.028.266.267.249.351-.011.085-.056.227-.238.21-.238.005-.334-.068-.334-.068h.001z" fill="#3F3824"/><path fill-rule="evenodd" clip-rule="evenodd" d="M20.694 36.427s.112-.04.25.097c.111 0 .6-.057.753.04.153.095.198.18.198.18s-.572.125-.884 0c-.317-.107-.317-.317-.317-.317z" fill="#2D2815"/><path fill-rule="evenodd" clip-rule="evenodd" d="M23.215 36.513c0-.029-.306-.238-.629-.306-.056-.012-.068.028-.112.028-.028-.011-.04-.096-.04-.096l-.183.096s-.028.04.068.112c.085.068.227.125.266.238.04.113.04.153.057.17.011.011.21 0 .306-.057.096-.056.277-.149.266-.186z" fill="#82764F"/><path fill-rule="evenodd" clip-rule="evenodd" d="M20.355 37.661s.056-.39.436-.407c.39-.029.464.35.464.35l-.227.227c0-.006-.17-.243-.672-.17h-.002z" fill="#2D2816"/><path fill-rule="evenodd" clip-rule="evenodd" d="M22.818 35.98s-.21.226-.674.294c-.04-.057-.124-.17 0-.351.125-.181.267-.238.408-.181a.33.33 0 01.266.237z" fill="#574F35"/><path fill-rule="evenodd" clip-rule="evenodd" d="M23.673 36.257c.012-.056-.028-.068 0-.096.028-.028.182-.085.21-.057.011.012 0 .057 0 .112s0 .112-.028.153c-.04.057-.153.085-.21.068-.057-.017-.068-.096-.068-.112.028-.011.096-.04.096-.068zm.967-.611c0-.029.096-.086.153-.086.085 0 .085.069.097.086.027.01.027-.012.056.04.028.05.068.14.04.197-.03.057-.142.096-.17.085-.04-.028-.164-.283-.176-.322z" fill="#82764F"/><path fill-rule="evenodd" clip-rule="evenodd" d="M22.693 36.387s.125.028.295.17c-.057.04-.142.085-.142.085s-.011-.13-.153-.255z" fill="#6E6342"/><path fill-rule="evenodd" clip-rule="evenodd" d="M22.416 35.141c-.029-.028.084-.096.152-.084.068.01.097.056.17.067.074.012.085-.028.112-.056.027-.029.125-.011.142 0 .01.012.02.025.028.04a.157.157 0 01.056-.113.179.179 0 01.154-.028c.01.04.067.181.056.21-.011.028-.18.068-.21.039.029.068.154.21.17.238.017.028-.124.096-.18.085-.08-.006-.567-.29-.652-.397h.002zm.741-.94a.132.132 0 00-.056-.068c-.04-.01-.17 0-.17.068s.112.448.238.646c.141.198.237.362.334.408a.131.131 0 00.17-.057c.01-.028.04-.238.028-.73-.011-.493-.029-.969-.057-.997-.028-.029-.141-.028-.181.028-.04.056-.294.617-.306.702z" fill="#585136"/><path fill-rule="evenodd" clip-rule="evenodd" d="M22.654 37.102s-.199-.125-.391-.04c-.181.085-.17.42-.17.42a.268.268 0 00.25-.03c.124-.084.282-.225.31-.35z" fill="#574F35"/><path fill-rule="evenodd" clip-rule="evenodd" d="M23.028 37.55c-.011-.112-.112-.112-.112-.17a.127.127 0 01.124-.097c.057 0 .112.068.182.112.068.04.17.112.18.198.012.087-.111.323-.248.323s-.096-.255-.125-.368l-.001.002zm1.093-.154s-.226.068-.21 0c.017-.068.069-.084.142-.084a.224.224 0 01.142-.069.122.122 0 01.085.029s.153-.068.198-.029c.045.04.011.04.04.085a.4.4 0 01.068.17c0 .045-.17.142-.306.125-.159-.034-.13-.198-.159-.227zm1.32-.255s.067.04.01.085c-.039.04-.237.112-.407.125-.17 0-.323.028-.323-.028 0-.057.142-.17.227-.199a.18.18 0 01.141-.067c.068 0 .334-.029.408-.04.068-.012.125.028.085.085-.017.04-.142.04-.142.04zm.39-1.748s-.085.18-.181.18c-.096-.01-.096-.039-.096-.067 0-.04.096-.142.085-.17-.029 0-.097 0-.085-.068 0-.057.096-.125.18-.112a.373.373 0 01.227-.085c.097 0 .181.028.181.085 0 .057-.111.181-.153.21-.045.045-.102.075-.158.028v-.001zm-1.291 3.346s-.112.012-.112.068c0 .029.028.029.068.012a.307.307 0 00.068-.012c.011.012.011.068.096.068a.538.538 0 00.198-.068c.068-.028.125-.056.125-.112-.028-.096-.085-.142-.17-.142a.226.226 0 00-.124.029s-.029-.057-.125 0-.085.057-.057.085c.05.045.034.075.034.075l-.001-.003zm-.64.59c0-.029.141-.085.181-.068.04.011.153.226.153.249 0 .028-.142.096-.199.096-.056 0-.152-.096-.152-.112 0-.011.068-.028.068-.04.017-.027-.051-.096-.051-.124v-.001zm-.448-.827c.028-.011.028-.04.068-.068a.097.097 0 01.085-.011.138.138 0 01.096-.069c.068-.01.125 0 .112.029 0 .085.057.141.057.21 0 .067-.04.152-.181.21a1.02 1.02 0 01-.363.028c-.028-.012-.056-.125-.028-.182a.472.472 0 01.153-.147z" fill="#82764F"/><path fill-rule="evenodd" clip-rule="evenodd" d="M23.632 38.54s-.096.056-.096.084a.253.253 0 00-.011.085c0 .017.124-.011.141-.028.006-.012-.034-.112-.034-.142z" fill="#6E6342"/><path fill-rule="evenodd" clip-rule="evenodd" d="M22.79 38.274c.056.011.153 0 .226.028.057.029.097.085.04.153-.057.068-.112.17-.238.153-.142-.011-.277-.085-.277-.142a.271.271 0 01.068-.198c.056-.045.084-.017.18.006h.001z" fill="#585136"/><path fill-rule="evenodd" clip-rule="evenodd" d="M22.722 38.33s-.181.142-.227.21c-.056.068-.334.419-.419.492.029-.05.06-.097.096-.141a.58.58 0 00-.237.306c-.068.21.38.322.674.408.294.085.408.112.408.112a3.161 3.161 0 01-.278-.516c-.112-.266-.17-.294-.097-.419.057-.124.142-.21.142-.306a1.732 1.732 0 00-.062-.146z" fill="#574F35"/><path fill-rule="evenodd" clip-rule="evenodd" d="M16.265 38.778a.344.344 0 00.125 0c.085-.012.968-.336 1.892-.278a10.11 10.11 0 012.044.336c1.161.306 2.605.912 3.54 1.258.249.096.492.266.672.333.713.278.741.278 1.16.352.494.068.998-.097 1.524-.21.646-.142 1.75-.21 2.719-.351a5.55 5.55 0 00.923-.21s-.77.77-2.617 1.048a8.189 8.189 0 01-2.254.028 6.884 6.884 0 01-1.274-.226c-.334-.097-1.02-.352-1.863-.56-.59-.153-1.246-.266-2-.408-1.857-.34-3.873-.73-4.591-1.11v-.002z" fill="#252211"/><path fill-rule="evenodd" clip-rule="evenodd" d="M14.182 35.277c-.448.38-.924.742-1.388 1.093l-1.399 1.075c-.475.35-.94.713-1.416 1.065-.476.351-.95.685-1.456 1.008.448-.38.924-.73 1.4-1.076.475-.346.968-.684 1.427-1.034l1.399-1.077c.481-.35.945-.713 1.433-1.053zm-2.475 3.965s.504-.42 1.133-1.008c.781-.73 1.738-1.666 2.044-1.835l-3.177 2.843z" fill="#CFB66C"/><path fill-rule="evenodd" clip-rule="evenodd" d="M11.706 39.242c.25-.249.516-.492.782-.73l.408-.351c.124-.112.266-.238.39-.363.25-.249.493-.515.742-.77.124-.128.254-.25.391-.362.069-.061.145-.113.226-.154.069-.04.142-.112.238-.124-.056.085-.124.124-.18.198-.069.057-.126.125-.182.181-.125.125-.266.238-.39.351-.267.227-.545.448-.81.685-.267.237-.516.493-.782.731-.289.244-.555.482-.833.71v-.002zm3.387-2.265s-1.846 1.807-2.226 2.1l2.226-2.1z" fill="#CFB66C"/><path fill-rule="evenodd" clip-rule="evenodd" d="M15.094 36.976a6.052 6.052 0 01-.533.543l-.56.532c-.181.182-.351.363-.544.544-.198.17-.379.336-.589.493l.544-.532c.181-.181.38-.334.572-.516l.544-.532c.186-.187.368-.368.566-.532zm.085.98c-.17.474-.37.938-.6 1.387-.476.952-1.19 2.14-1.501 2.747l2.1-4.135z" fill="#CFB66C"/><path fill-rule="evenodd" clip-rule="evenodd" d="M15.178 37.957c0 .21-.057.39-.125.572a5.649 5.649 0 01-.226.532c-.085.17-.182.352-.278.516-.096.164-.21.334-.295.504l-.572 1.008c-.198.336-.39.674-.6.997.141-.363.334-.703.516-1.037.198-.336.379-.672.56-1.02a5.75 5.75 0 00.237-.531c.085-.182.17-.351.238-.516.085-.18.153-.351.238-.515.096-.176.175-.346.306-.51z" fill="#CFB66C"/><path fill-rule="evenodd" clip-rule="evenodd" d="M17.195 42.6s-.56.742-.505 1.682c.153-.492.346-1.245.505-1.681zm.532.744s-.198 2.016-.363 3.007c.233-1.146.278-1.05.363-3.007zm3.709 3.126s-.838 2.464-.855 3.149c.181-.704.532-2.143.855-3.15v.001z" fill="#DEC270"/><path fill-rule="evenodd" clip-rule="evenodd" d="M23.395 42.447s1.36 2.243 2.38 4.157c-.276-.963-.911-2.73-2.38-4.157z" fill="#CBAF59"/><path fill-rule="evenodd" clip-rule="evenodd" d="M27.049 45.75a41.207 41.207 0 012.016 4.072c-.113-.963-.42-2.61-2.016-4.072z" fill="#E3C677"/><path fill-rule="evenodd" clip-rule="evenodd" d="M37.786 49.056c.227-.141.674-.912 1.065-1.104.39-.198.685-.238 1.037-.629.35-.408.448-.657 1.217-.98 1.076-.464.336-1.064.336-1.064.119-.117.245-.225.38-.323.277-.21.6-.464.572-.912-.04-.753-.181-1.846-.799-2.48.6-.125 1.75-.21 2.464-.391.827-.21 1.206-.504 1.206-.504s-.475-.81.295-1.625c.77-.816 1.399-1.303 1.863-2.215-.532-.068-1.344-.351-3.415.436.112.053.22.113.323.181 0 0-1.274.351-1.739.742-.81.685-.912 1.246-1.79 1.665-.877.42-1.76.306-2.491.646-.73.34-.838.628-1.105.753.057.068-.011.181.096.277-.067.097-.464.742-.866.742.04.153.38.267.38.267s-.25.181-.884.226c.323.336.629.702 1.473 1.235-.069.141-.352.351-.238.617.124.267.448.629 1.738.923-.657.029-1.427.182-2.464.04-1.036-.125-1.206-.198-1.846-.04.068.069.25.069.408.25-.17.01-1.235-.125-1.597.35-.38.493-.544 1.303-.516 1.847-.198.096-.39.266-.294.617.096.352.6.465.923.685.323.238.351.323.657.267.323-.068.798-.39 1.076-.39s.476.209.476.209.753-.363.827-.295c.068.068.01.504.084.572.075.051.924-.453 1.15-.595h-.002z" fill="#ECD592"/><path fill-rule="evenodd" clip-rule="evenodd" d="M54.25 26.392c-3.539-9.14-12.29-10.834-12.29-10.834H16.998l.096 9.31h4.971v20.79h-5.068v9.294H41.27c5.85 0 10.54-5.878 10.54-5.878 7.509-10.659 2.44-22.682 2.44-22.682zM41.4 42.81s-1.904 2.747-3.975 2.747H33.28l-.099-20.666H38.5s2.464.515 4.185 5.391c0 0 2.282 6.982-1.286 12.528z" fill="#fff" fill-opacity=".8"/></svg>