<svg width="70" height="70" fill="none" xmlns="http://www.w3.org/2000/svg"><path d="M68.945 43.467c-4.674 18.75-23.665 30.16-42.418 25.485C7.783 64.278-3.628 45.286 1.048 26.537 5.721 7.785 24.711-3.627 43.458 1.047 62.21 5.722 73.62 24.716 68.945 43.467z" fill="#50AF95"/><path fill-rule="evenodd" clip-rule="evenodd" d="M39.429 38.967c-.248.019-1.526.095-4.378.095-2.269 0-3.88-.068-4.445-.095-8.767-.385-15.31-1.911-15.31-3.739 0-1.827 6.543-3.351 15.31-3.743v5.962c.574.042 2.215.139 4.484.139 2.722 0 4.085-.114 4.33-.137v-5.96c8.75.39 15.279 1.916 15.279 3.74 0 1.822-6.528 3.349-15.278 3.736l.008.002zm0-8.094v-5.336h12.21v-8.136H18.396v8.136h12.207v5.334c-9.922.455-17.383 2.42-17.383 4.776 0 2.355 7.461 4.319 17.383 4.776V57.52h8.823V40.417c9.9-.456 17.348-2.419 17.348-4.772s-7.443-4.317-17.348-4.774l.002.002z" fill="#fff"/></svg>