<svg width="71" height="71" fill="none" xmlns="http://www.w3.org/2000/svg"><path fill-rule="evenodd" clip-rule="evenodd" d="M35.5 71C15.975 71 0 55.025 0 35.323.177 15.8 15.975-.176 35.678.001 55.203.18 71 15.976 71 35.856 70.823 55.203 55.025 71 35.5 71z" fill="#FC070C"/><path fill-rule="evenodd" clip-rule="evenodd" d="M60.794 27.99c-.969-.895-2.092-1.986-3.263-3.122-1.644-1.597-3.381-3.283-4.914-4.644l-.156-.109a2.966 2.966 0 00-.862-.481l-1.183-.221c-8.165-1.524-34.63-6.462-35.175-6.396a1.088 1.088 0 00-.45.171l-.148.117a1.72 1.72 0 00-.404.652l-.039.1v.638c1.797 5.003 6.465 16.177 10.774 26.493 3.644 8.723 7.032 16.833 8.213 20.085v.001c.156.482.451 1.396 1.002 1.443h.124c.295 0 1.553-1.662 1.553-1.662s22.49-27.273 24.765-30.177a7.34 7.34 0 00.776-1.15 1.871 1.871 0 00-.613-1.739zm-19.158 3.175l9.598-7.96 5.63 5.188-15.228 2.772zM21.383 17.102l16.525 13.543 10.212-8.612-26.737-4.93zM39.4 34.194l16.914-2.726-19.337 23.297L39.4 34.194zm-2.873-.986L19.14 18.453l14.87 36.328 2.516-21.573z" fill="#fff"/></svg>