<svg width="70" height="70" fill="none" xmlns="http://www.w3.org/2000/svg"><path d="M68.945 43.467c-4.674 18.75-23.665 30.16-42.418 25.485C7.783 64.278-3.628 45.286 1.048 26.537 5.721 7.785 24.711-3.627 43.458 1.047 62.21 5.722 73.62 24.716 68.945 43.467z" fill="#23292F"/><path d="M52.21 14.583h7.063L44.574 29.137c-5.323 5.267-13.953 5.267-19.28 0L10.59 14.583h7.069l11.167 11.055a8.696 8.696 0 0012.208 0L52.21 14.583zM17.568 55.052H10.5l14.794-14.643c5.323-5.268 13.953-5.268 19.28 0l14.794 14.643h-7.063L41.042 43.907a8.696 8.696 0 00-12.208 0L17.568 55.052z" fill="#fff"/></svg>