<svg width="35" height="36" fill="none" xmlns="http://www.w3.org/2000/svg"><path d="M35 18c0 9.665-7.835 17.5-17.5 17.5a17.452 17.452 0 01-12.88-5.652A17.423 17.423 0 010 18C0 8.335 7.835.5 17.5.5c3.233 0 6.26.876 8.859 2.405a17.491 17.491 0 012.988 2.216A17.449 17.449 0 0135 18z" fill="#F0CD00"/><path d="M35 18c0 9.447-7.485 17.145-16.849 17.487C8.788 35.145 1.303 27.447 1.303 18 1.303 8.552 8.788.854 18.15.512 27.515.854 35 8.552 35 18z" fill="#FFDE50"/><path d="M29.347 5.122L4.621 29.848a17.573 17.573 0 01-2.217-2.99L26.36 2.906a17.497 17.497 0 012.988 2.217zm4.446 6.48L11.102 34.294a17.477 17.477 0 01-4.431-2.546L31.248 7.171a17.443 17.443 0 012.545 4.431z" fill="#FFEA94"/><path d="M31.099 18c0 7.51-6.09 13.599-13.6 13.599a13.53 13.53 0 01-7.131-2.02 13.628 13.628 0 01-3.985-3.745 13.556 13.556 0 01-2.48-7.667C3.9 18.111 3.9 18.056 3.9 18c.001-7.51 6.09-13.6 13.6-13.6a13.547 13.547 0 019.615 3.983c.747.747 1.408 1.58 1.965 2.484A13.533 13.533 0 0131.099 18z" fill="#FAA300"/><path d="M27.115 8.384l-19.23 19.23a13.617 13.617 0 01-3.038-4.622 13.535 13.535 0 01-.944-4.825C3.9 18.111 3.9 18.056 3.9 18c.001-7.51 6.09-13.6 13.6-13.6a13.547 13.547 0 019.615 3.983z" fill="#FFBD00"/><path d="M31.098 18c0 7.51-6.089 13.599-13.599 13.599-.258 0-.513-.008-.768-.022 7.153-.398 12.83-6.325 12.83-13.577S23.884 4.82 16.731 4.423c.255-.014.51-.022.768-.022 7.51 0 13.599 6.089 13.599 13.599z" fill="#F68E00"/><path d="M22.975 18.853h-6.232c1.013-.484 2.03-1.005 2.902-1.707h3.33a1.365 1.365 0 100-2.73H21.58c.142-.472.213-.968.213-1.487a6.444 6.444 0 00-6.436-6.437 6.427 6.427 0 00-5.93 3.93 1.365 1.365 0 002.515 1.065 3.701 3.701 0 013.415-2.264 3.71 3.71 0 013.705 3.705 2.32 2.32 0 01-.511 1.487H7.738a1.365 1.365 0 000 2.731h6.226c-.896.43-1.937.975-2.84 1.707H7.739a1.365 1.365 0 000 2.73h1.406a4.912 4.912 0 00-.224 1.488 6.444 6.444 0 006.437 6.436 6.4 6.4 0 003.66-1.141 6.425 6.425 0 002.326-2.927 1.365 1.365 0 10-2.54-1.005 3.688 3.688 0 01-3.447 2.342 3.71 3.71 0 01-3.705-3.705c0-.56.211-1.048.57-1.487h10.754a1.365 1.365 0 000-2.73z" fill="#F68E00"/><path d="M25.118 18.853h-6.231c1.012-.484 2.029-1.005 2.902-1.707h3.33a1.365 1.365 0 000-2.73h-1.395a5.17 5.17 0 00.213-1.487A6.444 6.444 0 0017.5 6.492a6.427 6.427 0 00-5.93 3.93 1.365 1.365 0 102.515 1.065A3.701 3.701 0 0117.5 9.223a3.71 3.71 0 013.706 3.705 2.32 2.32 0 01-.512 1.487H9.882a1.365 1.365 0 000 2.731h6.226c-.896.43-1.937.975-2.84 1.707H9.882a1.365 1.365 0 000 2.73h1.406a4.913 4.913 0 00-.224 1.488 6.444 6.444 0 006.436 6.436 6.4 6.4 0 003.66-1.141 6.425 6.425 0 002.326-2.927 1.365 1.365 0 10-2.539-1.005 3.688 3.688 0 01-3.447 2.342 3.71 3.71 0 01-3.706-3.705c0-.56.212-1.048.572-1.487h10.752a1.365 1.365 0 000-2.73z" fill="#FFEA94"/></svg>