<svg xmlns="http://www.w3.org/2000/svg" width="35" height="36" fill="none"><g clip-path="url(#clip0_117_17164)"><path d="M35 18c0 9.665-7.835 17.5-17.5 17.5a17.452 17.452 0 01-12.88-5.652A17.423 17.423 0 010 18C0 8.335 7.835.5 17.5.5c3.233 0 6.26.876 8.859 2.405a17.491 17.491 0 012.988 2.216A17.449 17.449 0 0135 18z" fill="#F0CD00"/><path d="M35 18c0 9.447-7.485 17.145-16.849 17.487C8.788 35.145 1.303 27.447 1.303 18 1.303 8.552 8.788.854 18.15.512 27.515.854 35 8.552 35 18z" fill="#FFDE50"/><path d="M29.347 5.122L4.621 29.848a17.573 17.573 0 01-2.217-2.99L26.36 2.906a17.497 17.497 0 012.988 2.217zm4.446 6.48L11.102 34.294a17.477 17.477 0 01-4.431-2.546L31.248 7.171a17.443 17.443 0 012.545 4.431z" fill="#FFEA94"/><path d="M31.099 18c0 7.51-6.09 13.599-13.6 13.599a13.53 13.53 0 01-7.131-2.02 13.628 13.628 0 01-3.985-3.745 13.556 13.556 0 01-2.48-7.667C3.9 18.111 3.9 18.056 3.9 18c.001-7.51 6.09-13.6 13.6-13.6a13.547 13.547 0 019.615 3.983c.747.747 1.408 1.58 1.965 2.484A13.533 13.533 0 0131.099 18z" fill="#FAA300"/><path d="M27.115 8.384l-19.23 19.23a13.617 13.617 0 01-3.038-4.622 13.535 13.535 0 01-.944-4.825C3.9 18.111 3.9 18.056 3.9 18c.001-7.51 6.09-13.6 13.6-13.6a13.547 13.547 0 019.615 3.983z" fill="#FFBD00"/><path d="M31.098 18c0 7.51-6.089 13.599-13.599 13.599-.258 0-.513-.008-.768-.022 7.153-.398 12.83-6.325 12.83-13.577S23.884 4.82 16.731 4.423c.255-.014.51-.022.768-.022 7.51 0 13.599 6.089 13.599 13.599z" fill="#F68E00"/><path d="M17.052 16.955v-5.507a2.781 2.781 0 011.441 2.435 1.338 1.338 0 102.677 0 5.465 5.465 0 00-4.118-5.289V7.505a1.338 1.338 0 00-2.676 0v1.09a5.465 5.465 0 00-4.117 5.288c0 1.52.446 2.706 1.365 3.625.67.67 1.56 1.165 2.752 1.529v5.515a2.781 2.781 0 01-1.441-2.434 1.338 1.338 0 10-2.676 0 5.465 5.465 0 004.117 5.288v1.09a1.338 1.338 0 102.676 0v-1.09a5.465 5.465 0 004.117-5.288c0-1.5-.465-2.726-1.384-3.644-.667-.668-1.568-1.168-2.733-1.519zm-3.536-1.34c-.27-.27-.581-.712-.581-1.732 0-1.048.583-1.961 1.441-2.435v4.737c-.36-.167-.646-.356-.86-.57zm3.536 8.937v-4.751c1.163.542 1.441 1.316 1.441 2.317a2.781 2.781 0 01-1.44 2.434z" fill="#F68E00"/><path d="M18.837 16.955v-5.507a2.781 2.781 0 011.442 2.435 1.338 1.338 0 002.676 0 5.465 5.465 0 00-4.118-5.289V7.505a1.338 1.338 0 00-2.676 0v1.09a5.465 5.465 0 00-4.117 5.288c0 1.52.447 2.706 1.365 3.625.67.67 1.56 1.165 2.752 1.529v5.515a2.781 2.781 0 01-1.44-2.434 1.338 1.338 0 00-2.677 0 5.465 5.465 0 004.117 5.288v1.09a1.338 1.338 0 002.676 0v-1.09a5.465 5.465 0 004.118-5.288c0-1.5-.466-2.726-1.384-3.644-.668-.668-1.569-1.168-2.734-1.519zm-3.536-1.34c-.27-.27-.58-.712-.58-1.732a2.78 2.78 0 011.44-2.435v4.737c-.36-.167-.646-.356-.86-.57zm3.536 8.937v-4.751c1.163.542 1.442 1.316 1.442 2.317a2.781 2.781 0 01-1.442 2.434z" fill="#FFEA94"/></g><defs><clipPath id="clip0_117_17164"><rect y=".5" width="35" height="35" rx="17.5" fill="#fff"/></clipPath></defs></svg>