<svg width="70" height="70" viewBox="0 0 70 70" fill="none" xmlns="http://www.w3.org/2000/svg">
<path d="M68.945 43.4667C64.2705 62.2169 45.2796 73.6279 26.5272 68.9521C7.78264 64.2776 -3.62836 45.2856 1.0482 26.5369C5.72065 7.78467 24.7115 -3.62718 43.4581 1.04732C62.2092 5.72182 73.6195 24.716 68.9445 43.467L68.9448 43.4667H68.945Z" fill="#F7931A"/>
<path fill-rule="evenodd" clip-rule="evenodd" d="M45.443 22.267C43.7174 17.885 39.3946 17.4897 34.3601 18.4678L32.5677 12.2172L28.7631 13.3088L30.5086 19.3946C29.5082 19.6813 28.4916 19.9943 27.4815 20.3059L25.7254 14.1794L21.9229 15.2697L23.7135 21.5189C22.8947 21.7719 22.09 22.0194 21.3014 22.246L21.2954 22.2266L16.0473 23.7293L17.2135 27.7927C17.2135 27.7927 20.0078 26.9336 19.9759 26.9985C21.5169 26.557 22.2752 27.308 22.6428 28.038L24.6849 35.1588C24.7913 35.1288 24.9312 35.0934 25.0948 35.0701L24.9843 35.1018L24.9841 35.1018C24.8902 35.1286 24.7926 35.1565 24.693 35.1861L27.5524 45.162C27.6241 45.6662 27.5608 46.5215 26.4845 46.832C26.5457 46.8611 23.7187 47.6245 23.7187 47.6245L24.2655 52.3852L29.2169 50.9652C29.7595 50.8104 30.2984 50.6621 30.8319 50.5153L30.832 50.5153C31.2047 50.4127 31.5748 50.3108 31.9416 50.208L33.7561 56.5293L37.5568 55.44L35.7629 49.185C36.8128 48.9074 37.8248 48.6262 38.8107 48.3426L40.5944 54.5691L44.3991 53.4775L42.5905 47.1666C48.882 44.9654 52.8968 42.0704 51.73 35.9039C50.7919 30.9385 47.8979 29.4328 44.0171 29.602C45.901 27.846 46.7128 25.4715 45.4444 22.2667L45.443 22.2666L45.443 22.267ZM43.996 37.3111C45.2408 41.645 38.4048 43.5029 35.277 44.353C34.9957 44.4294 34.7443 44.4977 34.5316 44.559L32.1308 36.1825C32.3902 36.1082 32.7032 36.0104 33.0578 35.8996L33.0579 35.8996C36.2288 34.9089 42.7255 32.879 43.9962 37.311L43.996 37.3111ZM31.659 32.1762C34.2702 31.4737 39.9666 29.9413 38.8377 26.0009L38.838 26.0007C37.6821 21.9714 32.2721 23.6789 29.6299 24.5128C29.3327 24.6066 29.0705 24.6893 28.8533 24.7516L31.0313 32.3482C31.2101 32.2969 31.4218 32.24 31.659 32.1762Z" fill="white"/>
</svg>
