<svg width="70" height="70" viewBox="0 0 70 70" fill="none" xmlns="http://www.w3.org/2000/svg">
<path d="M68.9528 43.4667C64.2783 62.2169 45.2874 73.6279 26.535 68.9521C7.79045 64.2776 -3.62054 45.2856 1.05601 26.5369C5.72846 7.78467 24.7194 -3.62718 43.466 1.04732C62.217 5.72182 73.6273 24.716 68.9523 43.467L68.9526 43.4667H68.9528Z" fill="#F7931A"/>
<path fill-rule="evenodd" clip-rule="evenodd" d="M50.4374 30.0132C51.134 25.3555 47.588 22.8518 42.739 21.1816L44.312 14.8723L40.4713 13.9152L38.94 20.0584C37.9303 19.8066 36.8934 19.5693 35.8629 19.3341L37.4053 13.1504L33.567 12.1934L31.9931 18.5006C31.1576 18.3104 30.3369 18.1224 29.5407 17.9243L29.5452 17.9044L24.2488 16.5818L23.2271 20.6839C23.2271 20.6839 26.0766 21.3371 26.0165 21.3773C27.5718 21.7654 27.853 22.795 27.8063 23.611L26.0145 30.7988C26.1216 30.826 26.2605 30.8654 26.4138 30.927L26.3022 30.8991L26.302 30.8991C26.2073 30.8754 26.1089 30.8507 26.0078 30.8265L23.4962 40.8956C23.3062 41.3681 22.8237 42.0772 21.7364 41.808C21.7749 41.8637 18.9449 41.1113 18.9449 41.1113L17.0381 45.5077L22.0361 46.7536C22.5834 46.8909 23.1243 47.0319 23.6596 47.1714L23.6598 47.1715C24.0339 47.269 24.4053 47.3658 24.7744 47.4602L23.185 53.8418L27.0213 54.7988L28.5952 48.4849C29.6432 48.7694 30.6602 49.0318 31.6559 49.2792L30.0873 55.5634L33.9282 56.5204L35.5173 50.1507C42.0665 51.3901 46.9909 50.8904 49.0637 44.9667C50.7339 40.1974 48.9805 37.4465 45.535 35.6526C48.0446 35.0739 49.9348 33.4233 50.4388 30.0137L50.4376 30.0129L50.4374 30.0132ZM41.6622 42.3182C40.5732 46.6938 33.7241 44.8848 30.5904 44.0571C30.3085 43.9827 30.0567 43.9162 29.8418 43.8628L31.9508 35.4082C32.2127 35.4736 32.5326 35.5454 32.8951 35.6267L32.8952 35.6268C36.1367 36.3542 42.7779 37.8446 41.6624 42.3182H41.6622ZM33.5454 31.703C36.158 32.4002 41.8574 33.9213 42.8499 29.9444H42.8503C43.8638 25.877 38.325 24.6507 35.6198 24.0517C35.3155 23.9844 35.0471 23.9249 34.8278 23.8703L32.9157 31.5381C33.0962 31.5831 33.3081 31.6397 33.5454 31.703Z" fill="white"/>
</svg>
