<svg width="70" height="70" viewBox="0 0 70 70" fill="none" xmlns="http://www.w3.org/2000/svg">
<g id="Dogecoin (DOGE)">
<circle id="Dogecoin (DOGE)_2" cx="35" cy="35" r="35" fill="#988430"/>
<circle id="Dogecoin (DOGE)_3" cx="35" cy="35" r="33.8789" fill="#7A6A2A"/>
<circle id="Dogecoin (DOGE)_4" cx="35" cy="35" r="33.1651" fill="#BA9F33"/>
<path id="Dogecoin (DOGE)_5" fill-rule="evenodd" clip-rule="evenodd" d="M15.3036 31.2616C15.1054 31.0806 14.8959 30.8991 14.7033 30.7181C14.5107 30.537 14.3128 30.3556 14.1146 30.1745L13.5254 29.6145C13.4291 29.5182 13.3272 29.4334 13.2309 29.3367C13.1346 29.252 13.0214 29.1557 12.9251 29.0705C12.1434 28.3287 11.3571 27.5869 10.5862 26.8447C11.3847 27.5753 12.1665 28.3007 12.9651 29.0422L13.2424 29.3199C13.3388 29.4159 13.4407 29.501 13.537 29.5973L14.1258 30.1409C14.324 30.322 14.5166 30.5034 14.7149 30.7009C14.9131 30.8984 15.1058 31.0802 15.304 31.2609L15.3036 31.2616ZM4.9283 31.1497C4.9283 31.1497 7.77124 31.4438 9.15892 31.6421C10.4443 31.8235 14.4655 32.4406 14.4655 32.4406L4.9283 31.1497ZM4.92811 31.1496C5.72667 31.2176 6.52523 31.3023 7.32379 31.3875C7.73147 31.427 8.12235 31.4722 8.51323 31.5118L9.11317 31.5801C9.31141 31.6081 9.50405 31.6365 9.70229 31.6648L12.0812 32.0441L13.2702 32.2424C13.6611 32.3103 14.052 32.3843 14.4597 32.4522C14.0688 32.4126 13.6611 32.3559 13.2702 32.2991L12.0812 32.1293L9.70229 31.7783C9.50405 31.75 9.31141 31.71 9.11317 31.682L8.51285 31.6129C8.12197 31.5734 7.71429 31.5166 7.32341 31.4711C6.52485 31.3751 5.72629 31.2728 4.92773 31.1485L4.92811 31.1496ZM14.1823 33.1811C14.1823 33.1811 11.1467 33.9516 10.1215 34.2462C9.11354 34.5236 6.06079 35.4524 6.06079 35.4524L14.1819 33.1814L14.1823 33.1811Z" fill="#CFB66C"/>
<path id="Dogecoin (DOGE)_6" fill-rule="evenodd" clip-rule="evenodd" d="M14.1814 33.1816C13.5075 33.3799 12.8374 33.5725 12.1538 33.754L10.1262 34.2975C9.45234 34.4958 8.78221 34.6884 8.11021 34.8867L7.10221 35.164C6.76807 35.2604 6.42834 35.3451 6.08301 35.4418C6.41677 35.3298 6.75687 35.2152 7.09101 35.1189L8.09901 34.7963C8.77287 34.5865 9.44301 34.3883 10.115 34.1788C10.8001 34.0089 11.4743 33.8275 12.1594 33.6632C12.8105 33.499 13.4959 33.3351 14.1814 33.182V33.1816ZM6.48503 37.3216C6.81879 37.1969 10.6701 35.402 11.565 34.9827C12.013 34.7729 13.3152 34.3107 13.3152 34.3107L6.48503 37.3216Z" fill="#CFB66C"/>
<path id="Dogecoin (DOGE)_7" fill-rule="evenodd" clip-rule="evenodd" d="M6.48475 37.3226C6.77894 37.2106 7.05669 37.0736 7.33968 36.9433L8.17781 36.5524L9.86005 35.7426C10.4201 35.4764 10.9644 35.1826 11.5419 34.9325C11.8365 34.8082 12.131 34.7063 12.4252 34.6099L12.8732 34.4684C13.0259 34.4289 13.1678 34.3833 13.3212 34.3438C12.7612 34.6099 12.1717 34.8365 11.611 35.0968C11.051 35.3745 10.4783 35.6011 9.90037 35.8501L8.19014 36.6032C7.61595 36.8357 7.05595 37.0848 6.48438 37.3226H6.48475ZM6.85807 38.8904C6.85807 38.8904 10.3465 36.846 11.5471 36.189C12.1758 35.838 14.209 34.8297 14.209 34.8297L6.85807 38.8904Z" fill="#CFB66C"/>
<path id="Dogecoin (DOGE)_8" fill-rule="evenodd" clip-rule="evenodd" d="M6.85938 38.8913C7.44812 38.5288 8.04844 38.1607 8.64876 37.787L9.54476 37.243C9.85052 37.0619 10.1451 36.8921 10.4568 36.711C10.7626 36.5296 11.0571 36.3485 11.3685 36.1786C11.5167 36.0871 11.672 36.0076 11.8329 35.9408L12.3085 35.703C12.9372 35.3973 13.5659 35.0855 14.2286 34.8193C13.6283 35.199 13.0108 35.5219 12.3937 35.8557C12.0879 36.0256 11.7762 36.1786 11.4704 36.3485C11.1647 36.5184 10.8701 36.6998 10.5584 36.8641C10.2526 37.0451 9.95804 37.215 9.64668 37.3793L8.72343 37.8833L6.86012 38.8913H6.85938ZM14.1817 35.2779C14.1817 35.2779 12.0126 36.943 11.3104 37.4754C10.6082 38.0077 8.54102 39.5029 8.54102 39.5029L14.1817 35.2779Z" fill="#CFB66C"/>
<path id="Dogecoin (DOGE)_9" fill-rule="evenodd" clip-rule="evenodd" d="M26.6295 48.7055L25.5195 46.6044L26.165 43.9765L30.7693 42.1983L28.8097 38.1775L29.7781 34.1168L31.5963 30.4805L37.2146 29.5972L41.3429 25.6611L50.2573 26.335L52.0072 35.8666L48.6374 47.8674L46.7178 54.0804L38.936 54.3749L35.3229 51.8717L31.0923 50.1044L26.6295 48.7055Z" fill="#E2CC85"/>
<path id="Dogecoin (DOGE)_10" fill-rule="evenodd" clip-rule="evenodd" d="M40.2785 48.638C40.2785 48.638 39.2022 49.1308 37.3665 49.0173C36.8353 48.3039 33.1146 47.9698 33.1146 47.9698C33.1146 47.9698 32.6502 47.8283 31.8289 48.168C31.0023 48.504 30.2205 48.4626 29.4899 48.6436C28.7593 48.8247 28.0339 47.8734 27.4739 47.6752C26.9139 47.4658 26.1714 46.9618 26.1714 46.9618L24.6034 46.8087L21.4547 45.4778L16.4524 40.4941L15.0931 42.6221L14.6738 45.2556L16.1862 48.3763L20.2581 52.0858L28.1982 54.1018L32.9044 52.7152L38.8001 50.2232L40.2785 48.6377V48.638Z" fill="#F1D789"/>
<path id="Dogecoin (DOGE)_11" fill-rule="evenodd" clip-rule="evenodd" d="M12.0689 31.0242L13.0769 27.9719L14.2779 26.0007L18.1457 25.6777L16.9846 29.0646L13.7511 34.8188L15.0933 39.9555L12.7148 41.1446L11.9838 40.0234L11.395 37.4523L11.3555 34.5638L12.0689 31.0242Z" fill="#F4ECB4"/>
<path id="Dogecoin (DOGE)_12" fill-rule="evenodd" clip-rule="evenodd" d="M16.4063 48.4279L15.6645 47.3915C15.6645 47.3915 15.4662 46.8987 15.5797 46.4683C15.6917 46.0322 15.6757 46.0038 15.6193 45.8396C15.5629 45.6753 15.0869 45.109 15.1153 44.6218C15.1433 44.129 15.0757 43.9647 15.4379 43.5742C15.8172 43.1949 15.7041 42.5378 15.7041 42.5378L16.1969 42.8436L16.3089 42.6737C16.3089 42.6737 16.4899 42.8152 16.4899 43.0362C16.5295 42.7305 16.3652 41.3144 16.7389 40.9918C17.1126 40.6693 17.7753 42.5038 17.7753 42.5038L17.3676 39.842L16.3197 37.1125L14.4564 34.6205L14.3444 31.8736V31.6357C14.3444 31.6357 13.4891 32.9499 13.2513 33.9877C13.0814 34.7012 13.4891 35.5677 13.4043 36.5929C13.336 37.6124 13.2513 37.5329 13.5003 37.9369C13.7493 38.3408 14.3556 39.1715 14.1178 39.7718C13.9083 40.2874 13.1945 39.9249 13.1945 39.9249C13.1945 39.9249 13.053 40.3437 12.8604 40.4968C12.7924 40.2478 12.7189 40.0891 12.583 39.9368C12.5714 40.0331 12.5434 40.1634 12.5434 40.1634C12.5434 40.1634 12.4187 39.7725 12.294 39.2797C12.1245 38.623 11.9431 37.7565 11.7788 37.2921C11.7109 37.5583 11.541 38.3681 11.541 38.3681L11.6373 39.6142L12.1018 41.3245L12.5498 42.4445L12.9858 43.815L13.3647 44.7356L13.6705 45.4379L13.9367 47.0182L15.2221 48.3771L15.9075 48.6833L16.4055 48.4283L16.4063 48.4279Z" fill="#F3E19D"/>
<path id="Dogecoin (DOGE)_13" fill-rule="evenodd" clip-rule="evenodd" d="M12.7423 28.5325C12.7423 28.5325 11.819 30.1005 11.5532 31.6811C11.2874 33.2618 11.0492 34.9321 11.2172 37.084C11.3871 39.2535 11.71 40.584 11.9706 41.5357C12.4186 43.116 13.5789 45.3134 13.5789 45.3134L13.6185 45.2283C13.4234 44.8586 13.2678 44.4694 13.1541 44.0672C13.001 43.4669 12.9442 42.7535 12.8027 42.4305C12.6781 42.108 12.4686 41.8302 12.3667 41.4337C12.2704 41.0544 12.2547 40.4541 11.959 40.0069C11.8343 39.8254 11.6813 39.3498 11.6361 38.8742C11.5793 38.1603 11.6645 37.3618 11.5965 36.7051C11.4718 35.612 11.3871 34.8702 11.5002 34.2978C11.6133 33.7255 12.2028 32.1008 12.5653 30.8094C12.8031 29.9825 12.6613 29.2858 13.0973 28.5664C13.5334 27.853 13.7999 27.2243 13.8959 26.7882C14.0079 26.3918 12.7408 28.5325 12.7408 28.5325H12.7423Z" fill="#F2E8B0"/>
<path id="Dogecoin (DOGE)_14" fill-rule="evenodd" clip-rule="evenodd" d="M17.1207 27.9033C17.1207 27.9033 16.6451 28.0452 16.4184 28.2942C16.1918 28.532 16.0955 28.7303 15.7898 29.1323C15.484 29.5344 15.4668 29.8629 15.2174 30.3669C14.9684 30.8597 14.4189 31.6016 14.3509 31.8677C14.283 32.1339 14.1699 33.3797 14.0284 33.9689C13.9037 34.558 14.1699 35.283 14.1699 35.283L14.4924 35.2147C14.4924 35.2147 14.4924 35.6339 14.8154 35.9173C15.1379 36.1947 15.1947 34.9769 15.1947 34.9769L16.4009 30.9049L18.2187 29.6703L18.4169 28.6735L17.1199 27.9033H17.1207Z" fill="#F5EEC0"/>
<path id="Dogecoin (DOGE)_15" fill-rule="evenodd" clip-rule="evenodd" d="M18.0041 29.7506C18.0041 29.7506 17.1488 29.807 16.73 30.1131C16.5601 30.2375 16.4921 30.3394 16.3111 30.4925C15.9769 30.7698 15.6368 31.0248 15.4729 31.3885C15.2915 31.7506 15.0933 32.3001 14.9574 33.3365C14.9006 33.7726 14.9006 34.1746 14.8611 34.5259C14.8043 35.0016 14.7196 35.3809 14.7647 35.6459C14.8215 36.1895 15.3822 36.4729 15.4367 37.09L16.5978 36.5013L17.6909 32.1911L20.0131 30.7351L18.6989 29.2627L18.0027 29.748L18.0041 29.7506Z" fill="#E6DB9D"/>
<path id="Dogecoin (DOGE)_16" fill-rule="evenodd" clip-rule="evenodd" d="M11.8793 58.7733C11.8841 58.7307 11.889 58.6882 11.8938 58.6445C12.0633 57.1885 12.0921 56.0849 12.2164 55.3939C12.3975 54.4142 12.5222 54.0499 12.4938 53.6833C12.4542 53.0945 12.409 52.6641 12.4658 52.2108C12.5505 51.6105 13.1397 50.8971 13.1229 50.4043C13.1113 50.0134 12.913 49.7588 12.7432 49.521C12.5733 49.2831 12.4374 49.0849 12.4374 49.0849C12.4374 49.0849 13.5985 48.2863 13.5873 45.0693C13.611 45.076 13.6338 45.0855 13.6552 45.0977L14.2272 46.7228L14.6181 47.1985L16.1189 49.9962L18.0501 51.8711L20.9042 53.7908L22.694 55.7385L22.8751 60.9319L20.5361 63.9675L20.1531 64.6611C17.1099 63.1334 14.3194 61.1475 11.8789 58.7729L11.8793 58.7733Z" fill="#E5CB7A"/>
<path id="Dogecoin (DOGE)_17" fill-rule="evenodd" clip-rule="evenodd" d="M19.0234 63.7421C19.0234 63.7421 19.063 63.0966 19.5954 62.6773C19.6805 62.8188 19.7369 62.9551 19.7201 63.0566C19.8164 62.8871 20.4903 61.7996 22.0138 61.5163C23.5374 61.2389 23.9055 60.129 23.9055 60.129L27.139 57.1897L30.8372 53.786L35.334 52.2057L37.4355 51.6901C37.4355 51.6901 37.4751 51.8432 37.3959 52.1829C37.7864 52.1549 38.6529 51.9567 39.5534 51.6394C39.9159 51.4979 40.256 51.4411 40.4371 51.6282C40.7033 51.8772 40.7429 52.4663 40.7597 52.8172C41.1957 52.7209 41.6997 52.302 42.1036 52.3416C42.7495 52.4095 43.3215 53.1685 43.9785 53.1685C44.845 53.1685 45.2355 52.6362 45.8418 52.2169C46.2043 51.9679 46.7251 51.6569 47.0197 51.4467C47.7219 50.9311 55.1524 48.6602 55.1524 48.6602L57.7575 48.83L58.1768 51.6278L57.9528 58.9414C57.9251 58.9679 57.8975 58.9955 57.8695 59.022L46.0244 65.2085L29.6052 67.7255C25.9272 67.1246 22.3779 65.9038 19.1086 64.115L19.0246 63.7417L19.0234 63.7421Z" fill="#D8C173"/>
<path id="Dogecoin (DOGE)_18" fill-rule="evenodd" clip-rule="evenodd" d="M12.874 59.7041C13.1074 59.2161 13.3172 58.8081 13.3541 58.6621C13.3833 58.9563 13.4366 59.6018 13.5442 60.288C13.3184 60.0961 13.095 59.9013 12.874 59.7037V59.7041Z" fill="#F1D789"/>
<path id="Dogecoin (DOGE)_19" fill-rule="evenodd" clip-rule="evenodd" d="M24.8678 66.587L26.9914 65.9964L27.1724 66.0531C27.1724 66.0531 27.2688 66.1099 27.2688 66.3022C27.5349 66.1495 27.7616 66.1775 27.9258 66.0759C28.0106 66.257 28.0953 66.8573 28.4694 66.9309C28.8599 67.016 29.2792 66.761 29.704 66.4384C30.1229 66.1043 30.6 65.685 30.961 65.5152C31.0935 65.7587 31.2108 66.0102 31.3123 66.2682C31.788 65.8889 32.6149 64.3485 33.7928 64.3765C34.1332 63.572 34.702 62.8849 35.4287 62.4001C36.5218 61.6583 37.2069 61.6015 38.0622 61.6695C38.4019 61.2282 38.8205 60.8537 39.2968 60.5651C39.4383 60.6219 39.8292 60.8597 40.3164 60.6331C40.8092 60.4069 41.364 59.5288 42.0946 59.4157C42.4883 59.3615 42.8886 59.4455 43.2273 59.6535C43.2273 59.6535 45.3553 57.5408 46.8236 56.8385C46.7668 56.6687 46.6537 56.0288 48.3752 54.6127C48.4715 54.6978 48.4035 54.9357 48.4715 54.9487C48.4995 54.9487 48.9195 54.7677 49.4511 54.3596C50.1082 53.8672 50.8952 53.3516 51.3708 53.2101C52.2668 52.9439 53.2173 53.4875 53.2173 53.4875C53.2981 53.4308 53.3882 53.3886 53.4835 53.3628C53.7097 53.3232 53.874 53.2949 53.9987 53.2508C53.9875 53.5454 54.1517 54.0494 53.9987 54.4854C54.176 54.5851 54.3638 54.6649 54.5587 54.7232C54.4627 54.9327 54.2529 55.465 53.902 55.72C54.1962 55.8615 54.2357 56.0258 54.655 56.168C54.4851 56.4058 54.207 56.8139 54.083 57.064C53.9584 57.3302 53.5107 58.4345 53.3125 58.8534C53.103 59.2727 52.8201 60.0429 52.6838 60.1974C52.5475 60.352 52.0551 61.0072 51.6758 61.3297C52.0118 61.205 53.3864 60.7862 53.9696 60.6275C53.796 60.8821 52.916 62.1877 52.07 63.4432C43.876 68.3545 33.9647 69.5019 24.8652 66.5926L24.8678 66.587Z" fill="#E0CD81"/>
<path id="Dogecoin (DOGE)_20" fill-rule="evenodd" clip-rule="evenodd" d="M18.1442 29.5967C18.1442 29.5967 17.6518 29.5967 17.5555 29.6646C17.4592 29.7326 18.0483 29.8745 18.2294 29.9424C18.4104 30.0104 18.8013 30.3217 18.9032 30.5711C18.9995 30.8089 22.4428 32.1962 22.4428 32.1962L24.878 32.0715L25.7177 30.9116L24.1206 29.5127L25.2406 26.2109L23.7569 26.4488L20.189 28.5768L18.3992 29.2622L18.1442 29.5967Z" fill="#DFC57C"/>
<path id="Dogecoin (DOGE)_21" fill-rule="evenodd" clip-rule="evenodd" d="M23.4918 30.6897C23.5635 30.8057 23.6916 30.8747 23.8278 30.8707C24.3318 30.8707 24.7959 30.9954 24.9885 31.25C25.3115 31.6581 26.2063 32.9606 26.2063 32.9606L28.347 33.7308L28.4852 31.2101L26.1462 29.585L23.4844 30.5646V30.6893H23.4903L23.4918 30.6897Z" fill="#E5CC7C"/>
<path id="Dogecoin (DOGE)_22" fill-rule="evenodd" clip-rule="evenodd" d="M23.0719 31.6243C23.0719 31.6243 23.4625 31.6527 23.9553 31.4713C24.4481 31.2898 25.2578 30.8993 25.6091 31.0524C26.1015 31.2618 25.9996 31.9189 26.5324 32.5084C26.8549 32.8709 27.4441 32.8597 27.7782 33.2506C28.1123 33.6415 29.2618 33.46 29.2618 33.46L29.6979 35.812L27.9481 38.055L27.3757 40.8412H25.0095L22.8479 39.9836L21.7832 37.4076L22.3156 34.8025L23.0719 31.6243Z" fill="#D2C281"/>
<path id="Dogecoin (DOGE)_23" fill-rule="evenodd" clip-rule="evenodd" d="M27.6489 31.7378C27.7076 31.7558 27.7686 31.7654 27.83 31.7661C27.762 31.8229 27.6201 31.9472 27.6769 32.2701C27.7336 32.5931 27.9147 33.0007 27.762 33.2498C27.8839 33.383 27.9748 33.5416 28.0282 33.7142C28.1245 33.9919 28.1529 34.2466 28.7812 34.2865C28.6905 34.3423 28.6069 34.4089 28.5322 34.4847C28.5322 34.4847 28.9682 34.864 29.1893 35.215C29.4155 35.2053 30.0158 35.0186 30.0158 35.0186L30.1405 35.1037L30.4067 34.9917C30.4067 34.9917 30.1577 34.8954 30.3388 34.2895C30.5086 33.7571 30.6617 33.7855 30.6748 33.7459C30.6878 33.7063 30.7994 33.1456 30.7994 32.919C30.8842 32.6248 30.9521 31.7299 30.9521 31.7299L30.7711 29.7535L29.7519 29.136L28.9231 28.3359L28.1413 29.8084L27.6265 30.3217L27.5869 31.5959L27.6489 31.7378Z" fill="#E2C270"/>
<path id="Dogecoin (DOGE)_24" fill-rule="evenodd" clip-rule="evenodd" d="M30.1006 30.0849C30.1006 30.0849 30.2817 30.6001 30.35 30.9966C30.374 30.9195 30.3874 30.8395 30.3895 30.7588C30.3895 30.7588 30.531 31.5405 30.559 31.8635C30.6158 31.8519 30.671 31.8351 30.6837 31.8915C30.6964 31.9478 30.8256 32.5769 30.7957 32.9278C31.0316 32.5388 31.3579 32.2124 31.747 31.9766C31.9736 31.8347 32.2398 31.682 32.5175 31.6704C32.9536 31.6592 33.2706 31.9482 33.7917 31.9482C35.0487 31.9482 36.1874 31.025 37.0255 30.742C37.6427 30.5322 38.175 30.3795 38.5487 30.0393C38.7302 29.8867 39.0531 29.5469 39.3473 29.0426C39.7382 28.3705 40.1459 27.7855 40.5539 27.712C40.3693 27.7459 40.1815 27.7592 39.9939 27.7516C39.9939 27.7516 40.1186 27.6269 40.3299 27.457C40.5412 27.2871 40.7943 27.0777 41.1565 27.0777C41.8023 27.0777 42.1249 27.1736 42.4874 27.1736C42.8499 27.1624 43.0594 27.0777 43.0594 27.0777C43.0594 27.0777 43.439 27.3439 44.294 27.3439C45.1493 27.3551 45.7212 27.4286 46.1689 27.4686C46.6165 27.5085 48.1169 27.3439 48.5474 27.3566C48.828 27.3674 49.1036 27.4348 49.3575 27.5548L47.9698 23.5228L42.9851 19.166L40.0174 21.2671L35.4523 25.8319L31.035 27.4686L30.1118 28.5049V30.0849H30.1006Z" fill="#CCB360"/>
<path id="Dogecoin (DOGE)_25" fill-rule="evenodd" clip-rule="evenodd" d="M40.0129 27.7731C40.0129 27.7731 40.1376 27.6488 40.3467 27.479C40.5558 27.3091 40.8115 27.0993 41.1736 27.0993C41.8191 27.0993 42.142 27.1956 42.5046 27.1956C42.8671 27.1844 43.0765 27.0993 43.0765 27.0993C43.0765 27.0993 43.4566 27.3651 44.3111 27.3651C45.1664 27.3763 45.7384 27.4498 46.186 27.4894C46.6336 27.529 48.134 27.3651 48.5645 27.3774C48.8451 27.388 49.1205 27.4554 49.3743 27.5757L48.7456 25.7575L48.0153 24.3702L45.931 22.0877C45.931 22.0877 43.4297 20.6152 43.4106 20.604C43.3994 20.5928 42.5441 20.3662 42.5441 20.3662L40.2787 21.7367L38.2232 27.0549L38.1836 28.1749L39.5142 28.8035C39.8483 28.2435 40.2168 27.7955 40.5621 27.7388C40.2504 27.7728 40.0126 27.7728 40.0126 27.7728L40.0129 27.7731Z" fill="#D5B457"/>
<path id="Dogecoin (DOGE)_26" fill-rule="evenodd" clip-rule="evenodd" d="M39.9846 28.1536C39.7864 28.1648 39.6225 28.1252 39.5769 27.9837C39.407 27.5081 39.2712 27.4401 39.1289 27.4401C38.9867 27.4401 38.7948 27.7459 38.6809 27.7739C38.567 27.8019 38.4319 27.423 38.4319 27.423L38.3072 27.3662C38.3072 27.3662 37.5766 27.8418 37.0614 28.4026C36.5462 28.9633 35.7021 29.915 35.3228 30.0845C34.9435 30.2539 33.6405 30.3111 33.1948 30.4074C32.749 30.5037 32.2547 30.8266 32.1868 30.9002C32.1188 30.9737 32.3854 31.0529 32.425 31.1264C32.4645 31.1944 31.9885 31.166 31.949 31.2384C31.921 31.2952 32.061 31.6177 32.1304 31.782C32.2519 31.7216 32.3852 31.6887 32.5209 31.6857C32.957 31.6745 33.2743 31.9634 33.7951 31.9634C35.0525 31.9634 36.1908 31.0402 37.0289 30.7568C37.6464 30.5474 38.1788 30.3943 38.5525 30.0546C38.7336 29.9019 39.0565 29.5618 39.351 29.0578C39.5661 28.7125 39.7759 28.3895 39.9857 28.1517L39.9846 28.1536Z" fill="#D2B257"/>
<path id="Dogecoin (DOGE)_27" fill-rule="evenodd" clip-rule="evenodd" d="M21.9518 56.181C21.9518 56.181 21.8398 55.7618 20.8019 54.6802C20.5074 54.3745 20.3263 54.1202 20.1281 53.9384C19.6353 53.4736 19.3463 53.3493 18.9954 53.0831C18.2252 52.5112 17.387 52.5112 16.7416 51.8089C16.0961 51.1067 15.3438 49.7649 14.8211 48.3937C14.3059 47.0232 14.1641 46.5871 14.1641 46.5475C14.1641 46.508 14.3059 46.2418 14.487 46.2813C14.6681 46.3209 14.6681 46.6718 14.7136 46.757C14.8038 46.8959 14.9061 47.0266 15.0194 47.1475C15.2856 47.4536 15.6649 47.8195 15.8575 48.3653C15.8179 47.9009 15.6593 47.3857 15.6593 47.3857C15.6593 47.3857 16.6561 48.0144 17.5054 48.671C18.3607 49.3281 18.7116 49.5547 18.9614 49.9736C19.2112 50.3925 19.7995 51.4972 20.0814 51.8201C20.3633 52.143 24.2254 53.3605 24.2254 53.3605L26.0626 54.7302L26.9746 56.7294L26.2608 57.8494L24.8903 58.144L22.6645 57.1472L21.9518 56.1806V56.181Z" fill="#D2B159"/>
<path id="Dogecoin (DOGE)_28" fill-rule="evenodd" clip-rule="evenodd" d="M17.0068 49.2948C17.0068 49.2948 17.4713 50.0366 18.604 50.7389C19.6235 51.3564 21.2374 51.9171 22.6763 52.2512C23.5028 52.4495 24.3298 52.6022 25.0716 52.6137C27.0708 52.6417 28.4469 52.0702 30.1519 51.8831C31.0752 51.7868 32.2078 51.7133 33.3857 51.4351C34.8977 51.0726 35.7926 50.6646 37.0104 50.0911C37.8937 49.6834 38.7038 49.3777 39.3605 48.9868C40.2838 48.4432 40.9577 47.8373 41.7394 47.6562C41.6431 47.9224 41.5412 48.3981 40.771 48.8909C41.1787 48.8793 41.7394 48.8513 41.7394 48.8513C41.7394 48.8513 41.1958 49.1738 40.2386 49.8989C39.6495 50.3469 38.8681 51.1051 38.0696 51.6091C37.554 51.932 36.9932 52.1691 36.6251 52.3625C35.7291 52.8553 35.3677 53.1043 34.779 53.7065C34.9884 53.6953 35.0056 53.7065 35.0056 53.7065C35.0056 53.7065 34.2634 53.8028 33.7314 54.0858C33.6194 54.0858 33.4253 54.0462 33.0856 54.1425C32.8194 54.2273 32.4681 54.4203 32.1059 54.5218C31.5904 54.6749 31.4209 54.607 31.4209 54.607L31.5056 54.7768C31.5056 54.7768 30.8336 54.7653 30.6096 54.788C30.6492 54.7992 30.638 54.8164 30.638 54.8164C30.5986 54.823 30.5607 54.8364 30.526 54.856C30.4182 54.9258 30.2996 54.9774 30.175 55.0087C30.1071 55.0199 30.0504 55.0199 29.9652 55.037C29.9936 55.105 30.2146 55.485 30.3165 55.7091C30.2318 55.7658 28.9572 56.7286 28.9572 56.7286C28.9968 56.7908 29.0291 56.8573 29.0536 56.9269C29.0931 57.0512 29.1103 57.2326 29.1499 57.3174C29.2458 57.4872 29.3026 57.5156 29.3026 57.5156C29.3026 57.5156 29.1499 57.544 28.8833 57.6119C28.6571 57.6687 28.3793 57.7646 27.9873 57.8214C27.867 57.837 27.746 57.8465 27.6248 57.8497C27.6816 57.9744 27.9306 58.4501 27.4717 58.9992C27.0129 59.5484 26.8714 59.6283 26.7299 59.9792C26.6587 59.9254 26.5829 59.8779 26.5033 59.8374C26.3506 59.7694 26.1408 59.6679 26.0673 59.5316C26.0244 59.7132 25.9676 59.8911 25.8974 60.064C25.7559 60.4433 25.5465 60.8174 25.5069 61.1004C25.3538 60.9305 25.0708 60.5964 24.68 60.6643C24.2891 60.7323 23.9777 61.2646 23.9098 61.4177C23.9098 61.3214 23.8418 61.2478 23.825 61.3609C23.8134 61.4856 23.5984 62.7878 22.3978 63.8414C22.3866 63.5752 22.3866 62.9861 22.3582 62.7938C22.2462 62.9058 22.1092 63.0712 21.2934 63.4225C20.4949 63.7734 20.6214 64.1247 20.6214 64.1247C20.6214 64.1247 20.5535 63.5647 20.984 62.9749C21.42 62.3861 21.6862 62.1084 21.6862 62.0632C21.6792 62.0172 21.6595 61.974 21.6294 61.9385C21.5727 61.8817 21.4596 61.8138 21.4596 61.7686C21.5275 61.7406 22.2014 61.4177 22.1618 60.749C22.1222 60.1491 21.8676 59.8374 21.6862 59.6167C21.6582 59.5884 21.9528 59.3789 21.9128 59.311C21.8844 59.2714 21.5223 59.0048 21.4768 58.863C21.4875 58.7783 21.5065 58.6949 21.5335 58.614C21.5731 58.4893 21.6014 58.4041 21.5902 58.3194C21.5619 58.1779 21.4088 57.787 21.3636 57.7474C21.4032 57.7586 21.6862 57.7474 21.6862 57.7474C21.6862 57.7474 21.46 57.3849 21.42 57.2151C21.3801 57.0452 21.2953 56.5976 21.2501 56.5128C21.3465 56.524 21.5843 56.5408 21.5843 56.5128C21.5958 56.4277 21.3748 56.2862 21.4723 56.1768C21.5402 56.188 21.6705 56.2448 21.7948 56.4035C21.7269 56.222 21.6138 55.8711 21.3756 55.7296C21.4876 55.69 21.8684 55.5877 22.2025 55.786C22.5366 55.9842 22.6505 56.2616 22.6505 56.2616C22.6505 56.2616 22.8488 56.4146 23.1549 56.6413C23.5058 56.9186 23.9531 57.3133 24.6669 57.5925C24.82 57.6776 25.2105 57.6776 25.4938 57.6209C25.6172 57.5915 25.7355 57.5438 25.8448 57.4794C25.8842 57.4561 25.926 57.4371 25.9694 57.4226C25.9086 57.3004 25.8386 57.183 25.76 57.0713C25.8563 57.0713 25.9694 57.0829 25.9694 57.0829C25.9694 57.0829 26.0374 56.9298 25.7316 56.6349C25.7996 56.567 25.8847 56.5229 25.8847 56.4083C25.7884 56.3971 25.6185 56.2556 25.5789 56.1989C25.6353 56.1593 25.7204 56.029 25.8168 55.9894C25.7316 55.9215 25.5222 55.6381 25.4259 55.6101C25.5179 55.576 25.6069 55.5343 25.6921 55.4854C25.6921 55.4854 25.2164 55.3607 25.0634 55.2588C24.9103 55.1468 24.6841 54.953 24.5482 54.8963C24.4063 54.8396 24.1573 54.8116 24.0554 54.6981C24.1513 54.7264 24.3044 54.6981 24.4179 54.6981C24.5026 54.6981 24.5426 54.7093 24.5706 54.7093C24.5594 54.6697 24.5594 54.5846 24.7804 54.5566C24.8867 54.5405 24.9898 54.508 25.0861 54.4602C25.0861 54.4602 24.8763 54.449 24.6381 54.2224C24.4 53.9958 24.2021 53.8148 24.0662 53.7864C23.9247 53.758 23.6585 53.8827 23.4942 53.8711C23.2676 53.8431 23.1713 53.7296 23.1713 53.7296C23.1713 53.7296 22.4183 53.7976 20.7476 52.7784C19.3032 51.8947 18.6745 51.1133 18.6745 51.1133C18.5393 51.0643 18.4087 51.0035 18.284 50.9319C17.7404 50.6489 16.987 50.0598 17.0098 49.2892L17.0068 49.2948Z" fill="#C2A44D"/>
<path id="Dogecoin (DOGE)_29" fill-rule="evenodd" clip-rule="evenodd" d="M37.843 15.3023C37.9741 15.3448 38.0905 15.4234 38.179 15.5289C38.4452 15.8346 38.6151 16.4122 38.0092 17.0297C38.247 17.1144 38.3452 17.1417 38.5527 17.1144C38.3433 17.3638 37.8677 17.8962 37.8393 18.3606C37.8109 18.7399 38.0487 18.8534 38.0487 18.8534C38.0487 18.8534 37.6862 19.2723 37.6694 19.9734C37.8406 19.7804 38.028 19.6023 38.2294 19.441C38.6487 19.1069 39.2262 18.7276 39.6171 18.4898C39.6118 18.5895 39.6252 18.6893 39.6567 18.784C39.6567 18.784 40.3869 18.1837 41.0007 18.4502C41.2781 18.5749 41.1534 18.9654 41.1534 18.9654C41.1534 18.9654 41.5331 18.8239 41.7992 19.0901C42.0654 19.3563 42.4418 20.0429 42.6348 20.309C42.7195 20.4337 42.9405 20.6716 43.1668 21.0397C43.4758 21.555 43.7339 22.0993 43.9373 22.6648C43.9485 22.3702 44.0221 21.9118 44.8606 22.2004C45.6987 22.4949 46.65 23.1124 47.4485 24.3284C48.2471 25.5443 48.445 26.917 48.847 27.4397C49.2547 27.9437 49.674 28.7818 49.7023 29.1332C49.7307 29.4845 49.5776 30.6168 50.4158 33.6807C50.6536 32.7295 51.0161 30.6168 51.0161 30.6168L51.2143 28.7535L51.441 22.9881L45.4206 17.9865L40.7143 14.5713L37.6504 14.8658L37.8427 15.3019L37.843 15.3023Z" fill="#CAA13E"/>
<path id="Dogecoin (DOGE)_30" fill-rule="evenodd" clip-rule="evenodd" d="M49.0285 23.8823C49.0285 23.8823 48.9433 23.3223 47.5277 22.3703C46.1116 21.4303 45.0073 21.4303 43.9881 20.6317C43.2063 20.003 42.391 18.5586 41.8601 18.083C41.3445 17.6129 41.2598 16.2536 41.2598 16.2536L42.9984 14.7976L45.5841 11.0602L47.77 8.65332L48.8175 10.1093L50.2735 11.8196L51.0833 15.2516L51.3778 20.2752L49.0258 23.8827L49.0285 23.8823Z" fill="#B59544"/>
<path id="Dogecoin (DOGE)_31" fill-rule="evenodd" clip-rule="evenodd" d="M50.7783 29.9038C50.8212 29.142 50.7271 28.3787 50.5006 27.65C50.1272 26.489 49.3115 24.4274 48.9326 23.6554C48.7795 22.8 48.893 22.7321 49.0573 22.6358C49.2215 22.5395 49.839 22.1878 50.1773 20.9539C50.5155 19.72 51.5649 19.6797 51.5649 19.6797L52.2104 19.2041L53.1904 21.6562L54.0454 23.8708L54.3115 25.5642L54.5098 27.0083L54.0454 30.061L51.752 32.1338L50.7779 29.9038H50.7783Z" fill="#C89D3A"/>
<path id="Dogecoin (DOGE)_32" fill-rule="evenodd" clip-rule="evenodd" d="M18.7744 63.929V63.8662C18.8221 63.8365 18.8641 63.7985 18.8987 63.7542C18.9383 63.6975 18.9671 63.6295 18.9951 63.6127C19.0518 63.5844 19.318 63.5007 19.4595 63.5276C19.601 63.5545 19.9751 63.7087 20.1733 63.6975C20.581 63.6863 21.0566 63.3746 21.81 63.5164C22.9427 63.7259 23.2089 64.4961 23.8659 64.9321C24.3139 65.2382 24.7776 65.102 24.8456 65.102H24.9983C25.0266 65.102 25.2361 64.8642 25.3496 64.8757C25.5762 64.8869 25.5986 65.074 25.7401 65.0852C26.0742 65.1247 26.7201 64.9153 27.043 65.0004C27.2374 65.0613 27.3896 65.2134 27.4507 65.4077C27.5186 65.6172 27.4619 65.8834 27.2976 66.0364C26.9467 66.359 26.6125 66.6651 26.5446 66.9324C26.631 66.9983 26.714 67.0686 26.7932 67.143C23.9911 66.429 21.295 65.3496 18.7744 63.9323V63.929Z" fill="#CEB052"/>
<path id="Dogecoin (DOGE)_33" fill-rule="evenodd" clip-rule="evenodd" d="M48.9326 52.6138C48.9326 52.6138 49.8159 51.4359 50.1221 50.8524C50.4278 50.251 49.1536 42.635 49.1536 42.635L51.7136 34.2477L51.6453 31.5179C51.6453 31.5179 51.77 28.9975 52.0645 27.9044C52.4158 28.5331 53.5089 29.292 53.7468 29.6941C53.8588 28.9236 54.2392 27.2984 54.1828 25.5654C54.3922 25.888 54.8962 29.1334 54.8962 29.1334L55.4002 31.3192L56.0573 33.6414L56.7879 36.0938L57.224 37.7872L57.473 38.1949L57.6828 38.9084L57.881 39.6789L58.453 41.4855L58.789 42.9691L59.0552 45.6593C59.1131 45.8653 59.1548 46.0755 59.1799 46.288C59.1911 46.5826 59.1403 46.7525 59.1403 46.8036C59.1403 46.8548 59.2366 47.4491 59.197 47.8967C59.1403 48.3447 59.1403 48.6953 58.789 49.0167C58.4377 49.3382 58.217 51.2593 58.217 51.2593L57.5884 50.8405C57.5884 50.8405 57.713 50.2681 57.4185 49.7473C57.1239 49.2265 56.552 49.1187 56.229 49.2038C55.9065 49.2717 55.261 49.3733 55.0512 49.5547C54.8529 49.7358 54.3661 50.2965 53.9185 50.5515C53.3585 50.8875 52.4461 50.914 51.9592 51.0271C51.4664 51.1391 50.9229 51.4751 50.3505 51.8653C49.9018 52.1558 49.428 52.4057 48.9349 52.6119L48.9326 52.6138Z" fill="#CCA847"/>
<path id="Dogecoin (DOGE)_34" fill-rule="evenodd" clip-rule="evenodd" d="M48.9326 64.9882C48.9326 64.9882 48.97 65.0125 49.042 65.052C53.0656 63.1669 56.6708 60.4948 59.6447 57.1934C59.6122 56.0472 59.57 54.8724 59.5237 54.437C59.4278 53.5138 59.4957 52.5737 59.4673 52.0302C59.439 51.4866 59.1332 49.272 58.9917 48.7C58.8386 48.1281 58.5437 47.8447 58.4989 47.8447C58.4593 47.8563 58.2212 48.921 58.2212 49.1887C58.2212 49.4564 58.1644 50.1008 58.1644 50.265C58.1248 50.2535 58.108 50.153 58.108 50.112C58.0513 50.2535 57.9833 50.5029 57.955 50.5312C57.9266 50.5596 57.9945 50.2934 57.955 50.2367C57.9154 50.1799 57.843 50.2083 57.8586 50.0668C57.8653 49.9829 57.8786 49.8996 57.8982 49.8178C57.8982 49.8178 57.7284 50.0668 57.604 50.7011C57.4793 51.3298 57.4793 51.347 57.4342 51.4033C57.3946 51.4717 57.168 51.6979 57.1564 51.783C57.1452 51.9357 57.3662 52.0888 57.383 52.1735C57.3942 52.3154 57.1848 52.9721 57.1168 53.2935C57.0489 53.615 57.0773 54.2448 57.0048 54.5677C56.9481 54.8623 56.8928 55.0321 56.6991 55.1565C56.8406 55.1848 56.9765 55.2244 56.9765 55.2244C56.9765 55.2244 57.1747 56.0625 56.6707 56.7764C56.4896 57.0254 56.4445 57.1389 56.2518 57.3655C55.8721 57.7844 55.5776 58.2615 55.5492 58.5717C55.5296 58.4802 55.5164 58.3873 55.5096 58.294C55.5096 58.294 54.9209 58.9794 54.6715 59.3703C54.3489 59.8743 53.9013 59.8459 53.7755 59.9706C53.6497 60.0953 53.6224 60.3215 53.6635 60.503C53.5515 60.531 53.3409 60.5709 53.1991 61.007C53.1311 61.2332 52.9613 61.455 52.6951 61.6073C52.4289 61.7596 52.106 61.8055 51.9417 61.8451C52.0832 61.8847 52.1399 61.8847 52.2079 61.9298C52.1231 62.0713 51.7322 62.2924 51.2962 62.5757C50.8601 62.8419 50.6503 63.2324 50.5428 63.4874C50.4308 63.7252 50.2654 63.8783 49.9992 63.9066C50.1112 63.9746 50.277 64.1329 50.3617 64.184C50.237 64.2124 50.0257 64.2124 49.6483 64.5353C49.2518 64.8639 49.1159 64.9602 48.9345 64.9886L48.9326 64.9882Z" fill="#C39D3C"/>
<path id="Dogecoin (DOGE)_35" fill-rule="evenodd" clip-rule="evenodd" d="M41.0517 67.6124C41.2685 67.4604 41.5034 67.3359 41.7509 67.2417C42.6342 66.8908 43.5687 66.8228 43.9368 66.7097C44.2881 66.5977 44.5655 66.4431 45.0015 66.3584C44.99 66.4577 44.9803 66.551 44.9698 66.6391C43.6842 67.0433 42.3751 67.3683 41.0498 67.6124H41.0517Z" fill="#D2BA6B"/>
<path id="Dogecoin (DOGE)_36" fill-rule="evenodd" clip-rule="evenodd" d="M57.3445 44.3784C57.3445 44.3784 57.1634 45.358 56.8405 45.9755C56.5176 46.593 56.1685 47.4479 56.1685 47.4479C56.1706 47.2553 56.1934 47.0634 56.2364 46.8756C55.8288 47.1134 54.8376 47.6857 54.5564 47.9403C54.2903 48.1782 53.8426 48.5974 53.7295 48.7956C53.9957 48.0143 54.2731 47.312 54.3186 46.9891C53.9109 47.2836 52.0077 48.8524 51.0169 49.8888L47.9301 52.3864C47.5739 52.5785 47.2071 52.7503 46.8314 52.9008C46.2994 53.1271 45.6707 53.3197 45.2063 53.5011C45.331 53.167 45.5289 52.8721 45.8066 52.5891C46.1012 52.3117 46.9845 51.3545 47.1204 50.9091C47.2451 50.4447 47.2735 50.1673 47.1092 49.7764C46.9561 49.816 46.6052 49.8331 46.3674 49.9011C46.1296 49.969 45.8746 50.2236 45.8746 50.2236C45.8746 50.2236 46.0556 49.1873 46.4465 48.2076C46.152 48.2188 45.648 48.3036 45.648 48.3036C45.648 48.3036 46.3502 47.1257 47.552 46.3048C47.1839 46.3831 46.8238 46.4948 46.476 46.6385C45.7738 46.9331 45.0036 47.3691 44.4316 47.607C44.7542 47.159 47.0196 43.9259 48.3677 40.9127C49.7117 37.9055 50.2138 37.1353 50.5084 35.5214C50.6611 34.7228 50.6204 33.5427 50.6611 32.4858C50.7007 31.4379 50.8309 30.4978 50.7462 29.8691C51.0971 30.3052 52.4113 31.5342 52.4564 34.2812C52.496 37.0278 51.1994 40.7376 49.8229 42.7364C50.1589 42.8328 51.0296 42.9463 51.9241 41.3924C52.8186 39.8386 52.8077 39.4048 53.1307 38.759C53.1703 39.0819 53.1587 39.195 53.1587 39.195C53.1587 39.195 54.4616 37.6151 55.0787 35.6271C55.2034 36.4824 55.5715 37.2358 54.9936 38.8045C54.4784 40.2202 53.8045 40.5659 53.8045 40.5659C53.8045 40.5659 54.1387 40.5091 54.6311 40.2146C54.7162 40.424 54.6994 40.6626 54.8409 40.747C54.9824 40.8313 55.1751 40.9736 55.2034 41.1095C55.3561 40.8828 55.5939 40.5939 55.6679 40.3788C55.6111 40.8268 55.5715 42.7857 55.7799 43.7825C56.2163 43.743 56.6635 43.7146 56.9693 42.9272C56.7599 43.6978 56.7599 44.1618 56.9013 44.8189C57.1336 44.6606 57.343 44.3772 57.343 44.3772L57.3445 44.3784Z" fill="#C0993A"/>
<path id="Dogecoin (DOGE)_37" fill-rule="evenodd" clip-rule="evenodd" d="M42.6282 13.1617C42.6282 13.1617 42.1921 13.3428 41.4503 13.3428C40.8048 13.3428 40.9859 13.0938 39.9779 13.0938C38.4263 13.0938 33.0063 13.9898 32.0546 13.9771C31.4372 13.9659 34.1386 14.2432 34.1386 14.2432L41.0426 14.3396L42.43 14.2276L42.9455 13.1785L42.6282 13.1617Z" fill="#A88F33"/>
<path id="Dogecoin (DOGE)_38" fill-rule="evenodd" clip-rule="evenodd" d="M24.7268 26.6581C24.7268 26.6581 23.8432 27.3319 23.4695 27.8475C23.0957 28.3631 22.8975 28.7024 22.4727 29.1217C22.5724 29.1255 22.672 29.1121 22.7672 29.0821C22.7672 29.0821 22.7672 29.1941 22.6993 29.2236C22.8182 29.2103 22.9367 29.2515 23.0218 29.3356C22.8971 29.4036 22.5574 29.7437 22.8236 30.1457C23.0218 30.4515 23.4411 30.4795 23.4411 30.4795C23.4411 30.4795 23.3448 30.7573 23.7468 30.7289C24.6133 30.6893 25.5818 30.3096 26.029 30.406C26.477 30.518 26.7316 30.559 27.0486 31.1086C27.3846 31.6521 27.6773 31.7373 27.6773 31.7373C27.6773 31.7373 27.8755 31.2329 27.8304 30.4799C27.9929 30.074 28.083 29.6427 28.0965 29.2057L27.802 27.0366L26.5166 25.4111L24.8515 26.3344L24.7268 26.6569V26.6581Z" fill="#E3C571"/>
<path id="Dogecoin (DOGE)_39" fill-rule="evenodd" clip-rule="evenodd" d="M26.3066 26.3351C26.3066 26.3351 26.4313 26.6296 26.9525 26.6576C26.8958 26.7823 26.8958 26.7995 26.9129 26.8954C26.9241 26.9918 26.9409 27.1332 26.9409 27.1332C26.9983 27.1055 27.0502 27.0675 27.094 27.0212C27.1224 27.1459 27.0656 27.3438 27.094 27.4857C27.1115 27.572 27.14 27.6556 27.1787 27.7347C27.187 27.7153 27.1965 27.6965 27.2071 27.6783C27.2183 27.6499 27.3191 27.9841 27.598 28.2383C27.5978 28.1992 27.6074 28.1607 27.626 28.1263C27.6303 28.1973 27.6538 28.2658 27.6939 28.3246C27.6731 28.3146 27.654 28.3012 27.6376 28.285C27.6376 28.285 27.6656 29.181 27.8186 29.6443C27.8442 29.6143 27.867 29.5821 27.8866 29.548C27.8866 29.52 27.8754 29.7974 27.847 29.996C27.8074 30.1942 27.8358 30.4716 27.8358 30.4716C27.9379 30.3912 28.0501 30.3246 28.1696 30.2734C28.3394 30.205 28.6176 29.9956 28.7871 29.5312C28.8854 29.2681 28.9612 28.9973 29.0137 28.7214C29.0684 28.8268 29.1062 28.9402 29.1257 29.0574C29.1373 29.1989 29.4034 29.1254 29.4034 29.1254L29.4602 28.5079L29.7962 27.109L30.1019 26.2425L31.5744 23.9491L34.2347 21.9002L36.5569 22.4326L38.5161 19.7707L35.1408 17.7432L31.9466 18.0773L29.0477 22.0925L26.7259 25.7344L26.3066 26.3347L26.3066 26.3351Z" fill="#D8B65B"/>
<path id="Dogecoin (DOGE)_40" fill-rule="evenodd" clip-rule="evenodd" d="M43.0364 20.5239C43.0364 20.5239 42.8382 20.5635 42.2662 20.8599C41.6943 21.1564 41.2978 21.2504 41.0768 21.6865C40.8558 22.1225 40.839 22.4683 40.839 22.4683C40.839 22.4683 41.2298 22.2984 41.4564 22.2416C41.6943 22.1853 41.9605 22.2021 41.9321 22.2984C41.9048 22.3644 41.867 22.4256 41.8201 22.4794C41.8201 22.4794 42.2681 22.4683 42.2561 22.6893C42.2442 22.9103 42.1714 23.1537 42.0866 23.2612C42.0015 23.3732 41.6506 23.539 41.611 23.6693C41.5147 23.9355 41.6506 23.9467 41.5994 24.1617C41.5599 24.3715 41.3732 24.7792 40.7613 25.4926C40.1326 26.2064 39.8653 26.7104 39.8653 26.7104C39.8653 26.7104 39.5595 26.1385 39.4009 25.6457C39.2889 25.7021 38.6874 26.0362 38.6874 26.0362L37.2942 21.1829L37.3222 20.8599C37.3222 20.8599 37.4468 20.7072 37.4752 20.4239C37.2658 20.3559 37.2374 20.2992 36.9596 20.0334C36.6819 19.7676 36.4556 19.4443 35.9916 19.2232C35.9236 19.0985 35.8385 18.9291 35.4988 18.8607C35.1591 18.7924 34.9552 18.7364 34.9552 18.7364C34.9552 18.7364 35.1363 18.6681 35.2214 18.5266C35.0116 18.555 34.8421 18.6229 34.3833 18.6117C33.9188 18.6001 33.8677 18.5833 33.6131 18.6229C33.3585 18.6625 33.0531 18.776 32.9392 18.3851C32.8145 18.2888 32.5483 18.3739 32.3217 18.7077C32.0951 19.0414 32.016 19.308 31.5799 19.4383C31.5493 19.6305 31.482 19.815 31.3817 19.9819C31.257 20.1917 31.0587 20.4011 30.7926 20.7125C30.3733 21.2053 30.4412 22.015 29.773 22.6325C29.0991 23.2496 29.885 20.9219 29.885 20.9219L30.9609 18.3459L34.0249 15.3499L38.7823 15.0273L39.2467 17.4913L41.5688 18.2899L43.0357 20.5269L43.0364 20.5239Z" fill="#D3AE4D"/>
<path id="Dogecoin (DOGE)_41" fill-rule="evenodd" clip-rule="evenodd" d="M43.7895 21.0683L41.7903 18.1858L40.3914 17.1095C40.3914 17.1095 39.3946 15.2749 39.3267 15.2182C39.2699 15.1786 38.3299 15.0767 37.7296 15.0371L37.8416 15.3145C37.9726 15.3571 38.089 15.4356 38.1776 15.5411C38.4438 15.8469 38.6136 16.4244 38.0077 17.0419C38.2455 17.1267 38.3437 17.1539 38.5513 17.1267C38.3418 17.376 37.8662 17.9084 37.8378 18.3728C37.8095 18.7521 38.0473 18.8653 38.0473 18.8653C38.0473 18.8653 37.6848 19.2845 37.668 19.9853C37.8392 19.7922 38.0265 19.6141 38.228 19.4529C38.6472 19.1169 39.2248 18.7391 39.6156 18.5013C39.6103 18.6011 39.6237 18.701 39.6552 18.7958C39.6552 18.7958 40.3855 18.1955 40.9992 18.4617C41.2766 18.5864 41.1519 18.9773 41.1519 18.9773C41.1519 18.9773 41.5316 18.8358 41.7978 19.102C42.064 19.3681 42.4433 20.0532 42.6359 20.3198C42.7207 20.4445 42.9417 20.6823 43.1679 21.05C43.4771 21.5655 43.7351 22.1099 43.9385 22.6755C43.9497 22.4489 43.9952 22.1319 44.3865 22.1319L43.7918 21.0672L43.7895 21.0683Z" fill="#CAA13E"/>
<path id="Dogecoin (DOGE)_42" fill-rule="evenodd" clip-rule="evenodd" d="M13.8187 29.2576C13.8187 29.2576 13.6773 28.9063 13.8187 28.2212C13.9602 27.5362 14.1813 27.2132 14.2548 26.2052C14.3283 25.1972 14.9854 23.9398 14.9854 23.9398L16.8032 23.1133L18.0889 23.4642L18.4682 25.186L16.8427 26.082C16.8427 26.082 16.758 26.4613 16.2992 26.7671C15.8403 27.0729 15.2061 27.3107 15.0534 27.6224C14.9621 27.8133 14.8955 28.015 14.8551 28.2227C14.8551 28.2227 14.3907 28.1264 14.1133 28.4322C13.8187 28.7439 13.8299 29.0213 13.8187 29.2591V29.2576Z" fill="#F4EFC8"/>
<path id="Dogecoin (DOGE)_43" fill-rule="evenodd" clip-rule="evenodd" d="M17.4888 28.7986C17.4888 28.7986 17.3358 28.8949 17.2227 29.1346C17.1107 28.9535 16.843 27.8772 16.8318 26.9088C16.8206 25.9404 16.7627 25.7003 16.9867 25.3666C17.2107 25.0328 18.0892 24.6811 17.9645 24.08C17.8398 23.5081 17.3186 23.2703 16.6787 23.4346C16.2307 23.5466 15.8973 24.4993 15.4329 24.9749C15.0816 25.3374 14.6627 25.2807 14.5496 25.4789C14.3965 25.7451 14.538 26.0113 14.4928 26.1812C14.4813 26.2379 14.3398 26.5437 14.0848 26.9118C13.5696 27.6536 12.6975 28.7015 12.584 29.6416C12.6236 29.1092 12.5956 29.098 12.7371 28.5089L12.6519 28.3674L13.2119 26.5325L13.5744 25.0205L14.3846 22.4885L15.8115 19.9006L17.1991 18.3486L18.6432 18.445L18.8131 20.614L19.64 24.6863L21.3786 26.827L18.592 28.7023L17.4877 28.7986H17.4888Z" fill="#EBCC73"/>
<path id="Dogecoin (DOGE)_44" fill-rule="evenodd" clip-rule="evenodd" d="M18.3553 29.568C18.3553 29.568 18.1175 29.6247 18.0324 29.5796C17.9473 29.5344 17.8629 29.4832 17.8909 29.4265C17.9189 29.3697 18.072 29.2738 18.072 29.2283C18.0785 29.1427 18.0158 29.0674 17.9305 29.0584C17.8002 29.0416 17.7606 29.1263 17.7606 29.1263C17.7606 29.1263 17.6359 29.0304 17.5344 29.0143C17.5945 29.007 17.6549 29.0031 17.7155 29.0028C17.5589 28.9319 17.3929 28.8842 17.2227 28.8613C17.3641 28.7765 17.6419 28.5271 17.823 28.5271C18.004 28.5271 18.1175 28.4991 18.0892 28.4028C18.0608 28.3065 17.9193 28.165 17.7666 28.1083C17.823 28.0403 17.8629 27.9384 17.727 27.6603C17.5852 27.3829 17.6419 27.1958 17.6875 27.1283C17.727 27.0431 17.8685 26.8904 17.9365 26.7941C18.0044 26.6978 18.0612 26.5675 18.1743 26.4996C18.231 26.46 18.4121 26.3876 18.5935 26.3185C18.7918 26.2505 18.956 26.1654 19.0692 26.2505C19.1939 26.3353 19.1371 26.4488 19.1371 26.4488C19.1371 26.4488 19.528 26.3069 19.8789 26.4884C20.2302 26.6579 21.0855 26.7657 21.0855 26.7657L21.392 27.3832L19.3645 29.1219L18.5263 29.5411L18.3565 29.5691L18.3553 29.568Z" fill="#E5C66B"/>
<path id="Dogecoin (DOGE)_45" fill-rule="evenodd" clip-rule="evenodd" d="M21.1698 26.7263C21.1698 26.7263 20.5411 27.1456 20.3996 27.2983C20.4844 27.3099 20.6259 27.3666 20.5691 27.4514C20.5012 27.5361 20.0935 27.8307 19.8669 28.1084C19.6291 28.3858 19.4025 28.7371 19.3233 28.907C19.2386 29.0597 18.5927 29.5073 18.3721 29.5637C18.8365 29.5637 19.771 28.9917 20.1219 28.9917C20.1107 29.1616 20.2182 29.3542 20.4164 29.371C20.6147 29.3878 21.1866 29.4957 21.9568 29.0201C22.727 28.5557 22.4724 28.21 22.795 27.9837C23.4124 27.5757 23.6615 27.2132 24.0012 26.9869C24.3409 26.7607 24.5168 26.7092 24.5168 26.7092C24.5168 26.7092 24.528 26.5393 24.6288 26.5565C24.685 26.5629 24.733 26.6 24.7535 26.6528C24.7535 26.6528 25.3426 26.2335 26.0975 26.1204C26.0798 26.1126 26.0658 26.0985 26.0579 26.0809C26.0579 26.0809 26.1143 26.0525 26.1258 26.0241C26.1258 26.0241 26.1654 25.9674 26.1938 25.9957C26.2221 26.0241 26.2617 26.2335 26.3185 26.3187C26.4432 26.2619 26.681 25.7295 26.681 25.7295L27.2533 24.0929V22.5977L26.8053 22.6828L23.4453 24.1097L21.4062 26.2223L21.1683 26.7263H21.1698Z" fill="#E6BD62"/>
<path id="Dogecoin (DOGE)_46" fill-rule="evenodd" clip-rule="evenodd" d="M30.8433 19.3913C31.0251 19.3472 31.1993 19.2765 31.3604 19.1815C31.2924 19.3629 31.2924 19.5612 30.9979 19.9916C30.7033 20.4221 30.6921 20.4844 30.4543 20.9317C30.2165 21.3961 30.1881 22.0644 29.9615 22.3585C30.0631 22.3092 30.172 22.2768 30.2841 22.2626C30.2841 22.2626 30.0578 22.4608 29.9615 22.6703C29.8652 22.8797 29.6953 23.3158 29.2764 23.5823C28.8576 23.8489 28.3248 24.0184 27.7529 24.6471C27.1806 25.2642 26.5918 26.046 26.2969 26.3271C26.4499 26.0609 26.6594 25.5285 26.7161 25.1776C26.7729 24.8267 26.7046 24.407 26.8009 23.943C26.8972 23.4789 26.8972 23.1444 27.3609 22.3343C27.8246 21.5241 28.6183 18.7096 28.6183 18.7096L30.3285 18.166L30.8441 19.3894L30.8433 19.3913Z" fill="#B6933F"/>
<path id="Dogecoin (DOGE)_47" fill-rule="evenodd" clip-rule="evenodd" d="M29.6084 18.3557C29.6084 18.3557 29.0932 19.0975 28.9517 19.7545C28.8102 20.4116 28.9401 20.3549 28.8554 20.6778C28.8047 20.8747 28.8047 21.0812 28.8554 21.2781C29.0338 20.9907 29.2781 20.7498 29.5681 20.5755C30.0553 20.2813 30.4518 20.0715 30.6881 19.8225C30.9259 19.5563 31.1241 19.1203 31.6393 18.7861C31.4299 18.7577 31.1353 18.6614 31.0793 18.6741C31.2892 18.4363 31.9175 18.0738 32.5518 17.6377C33.1805 17.1897 33.1409 17.0091 34.1605 16.5618C33.8263 16.6185 33.6677 16.5334 33.3899 16.5618C33.5019 16.324 33.8939 16.2105 34.2859 15.82C34.6779 15.4295 34.0369 14.8516 34.0369 14.8516L31.0502 16.6581L29.6062 18.3572L29.6084 18.3557Z" fill="#C49937"/>
<path id="Dogecoin (DOGE)_48" fill-rule="evenodd" clip-rule="evenodd" d="M21.5039 17.007L21.5719 16.4635L22.4272 15.0929L23.322 12.6861V9.39551L23.2541 7.49263L23.3956 6.24644L23.5031 5.85033L23.6166 5.69727L24.3468 6.07657L25.3552 7.44708L25.4515 10.0921L24.4715 14.266L21.6738 17.3188L21.5039 17.007Z" fill="#DFC068"/>
<path id="Dogecoin (DOGE)_49" fill-rule="evenodd" clip-rule="evenodd" d="M23.7298 5.54431C23.7298 5.54431 23.2818 5.55588 23.1863 7.41919C23.0907 9.2825 23.0444 10.2621 22.9765 11.1854C22.9085 12.1086 22.7502 12.669 22.6707 13.213C22.5912 13.7569 22.546 14.4983 22.2914 14.9516C22.1794 15.161 21.9401 15.8181 21.3793 16.3109C20.7506 16.8544 19.8113 17.2341 19.6691 17.2625C19.4197 17.3189 18.1567 17.4436 17.6415 17.7269C17.4605 17.8232 17.1487 17.9364 16.8034 18.2593C16.1179 18.8764 15.2063 19.9807 14.5492 21.3117C13.5412 23.2997 12.5332 28.912 12.5332 28.912L12.7598 28.5327C12.7598 28.5327 12.7882 28.0287 13.2922 27.145C13.785 26.2617 13.6435 25.2705 14.3286 23.5771C14.5947 22.9316 14.9289 22.0934 15.3366 21.3796C15.9824 20.2186 16.7638 19.2218 17.5512 18.6782C18.8366 17.7949 20.2526 17.6022 20.2526 17.6022L21.7762 16.5942C21.7762 16.5942 22.0424 16.079 22.3937 15.4899C22.8861 14.6634 23.5137 13.7401 23.6507 12.398C23.8605 10.41 23.3561 9.1074 23.3845 7.92954C23.4129 6.75167 23.4241 5.88516 23.6623 5.67535C23.9005 5.46554 23.7302 5.54506 23.7302 5.54506L23.7298 5.54431Z" fill="#A88F33"/>
<path id="Dogecoin (DOGE)_50" fill-rule="evenodd" clip-rule="evenodd" d="M23.7297 14.4356C23.7297 14.4356 24.4017 12.7817 24.7094 11.3149C24.7661 11.0203 24.8792 10.7261 24.9076 10.4883C25.0491 9.10065 25.0887 8.52871 24.9076 7.76972C24.7661 7.20972 24.2225 6.70497 23.9392 6.31372C23.6618 5.90567 23.5315 5.75372 23.5883 5.66785C23.645 5.58199 23.8656 5.44161 24.0807 5.45841C24.5426 5.47186 24.9788 5.6743 25.2873 6.01841C25.7233 6.52241 26.0687 8.23303 26.0687 8.23303L26.4319 10.4902L27.3552 13.3331L23.7305 14.4378L23.7297 14.4356Z" fill="#C99E3D"/>
<path id="Dogecoin (DOGE)_51" fill-rule="evenodd" clip-rule="evenodd" d="M30.044 12.7142C30.044 12.7142 29.9193 12.7706 29.6931 12.7142C29.7128 12.9027 29.6253 13.0864 29.4665 13.1899C29.2287 13.0935 27.0025 13.2862 27.0025 13.2862C27.0025 13.2862 25.9661 13.1047 25.6432 11.7342C25.4169 10.8222 25.813 9.56517 25.6828 8.73824C25.4845 7.52043 25.2071 7.28224 25.1788 6.90331C25.1504 6.52437 25.122 6.42768 25.122 6.18987C24.9973 6.16149 24.9238 6.12192 24.7994 6.12192C24.7711 6.00992 24.8274 5.91211 24.7031 5.71387C24.7711 5.74224 25.2355 5.79899 25.7791 6.31419C26.2271 6.73344 26.2271 6.88613 26.2946 6.97125C26.3794 7.056 27.0648 7.64325 27.3594 8.22864C27.654 8.81403 28.2259 10.6807 28.3562 10.9865C28.3958 11.1111 28.4809 11.2358 28.6922 11.5188C29.0207 11.9269 29.502 12.6015 30.0455 12.7135L30.044 12.7142Z" fill="#B58634"/>
<path id="Dogecoin (DOGE)_52" fill-rule="evenodd" clip-rule="evenodd" d="M26.375 7C26.7181 7.55422 27.0263 8.12927 27.2979 8.72181C27.632 9.47483 27.8303 10.0923 28.2495 10.5963C28.0229 9.93963 27.6208 8.64827 27.383 8.18944C27.1168 7.70411 26.5732 7.18144 26.375 7.00037V7Z" fill="#A88F33"/>
<path id="Dogecoin (DOGE)_53" fill-rule="evenodd" clip-rule="evenodd" d="M22.5239 16.3109C22.5239 16.3109 21.952 16.4524 20.8872 17.0132C20.5359 17.1942 20.2022 17.3469 19.8792 17.4888C19.0404 17.8681 18.1406 18.2187 17.4268 18.412C17.4836 18.48 17.5116 18.508 17.5116 18.508C17.5116 18.508 17.5116 18.7857 17.6646 18.944C17.5799 19.0292 16.4468 19.7993 16.7813 22.3761C17.0076 22.2913 17.2737 22.1779 17.3133 22.1779C17.3816 22.1894 17.3984 22.3761 17.4832 22.3761C17.5679 22.3761 17.8457 22.2641 18.1403 21.8833C18.1291 22.0364 17.9592 23.5767 18.8709 24.6131C19.0407 24.4149 19.4712 23.7578 19.4712 23.7578L19.4824 23.5484C19.4824 23.5484 19.522 22.8177 19.7601 22.1495C19.9983 21.4812 20.4624 20.9884 20.4624 20.9884L22.8857 17.528L22.5232 16.3105L22.5239 16.3109Z" fill="#E6C367"/>
<path id="Dogecoin (DOGE)_54" fill-rule="evenodd" clip-rule="evenodd" d="M20.2581 21.3914C20.1472 21.4698 20.0249 21.5309 19.8956 21.5725C19.856 21.431 19.7993 20.9438 20.1334 20.4682C20.5243 19.8959 21.3792 19.154 21.6171 18.5642C21.7701 18.1845 21.7022 17.2332 23.0615 16.0154C24.4208 14.7976 24.9528 14.3787 24.9528 14.3787L27.1502 13.2744L29.8517 14.3392L28.5095 19.5994L27.4676 22.0634L23.3236 21.282L20.2578 21.3914H20.2581Z" fill="#DCBA5A"/>
<path id="Dogecoin (DOGE)_55" fill-rule="evenodd" clip-rule="evenodd" d="M21.8398 19.9632L22.3554 19.3177V18.8589C22.3554 18.8589 22.9274 18.7058 23.5445 18.0771C24.1616 17.4484 25.0169 16.2422 25.7703 16.3157C26.5237 16.4008 26.5972 17.9524 26.6256 18.3888C26.654 18.8253 26.7503 19.8157 26.903 20.3485C27.0729 20.8808 25.0681 22.8968 25.0681 22.8968L23.7065 23.9332L21.8398 19.9632Z" fill="#E9CE77"/>
<path id="Dogecoin (DOGE)_56" fill-rule="evenodd" clip-rule="evenodd" d="M23.4355 25.3379C23.4355 25.3379 23.8548 24.6808 23.5475 24.5393C23.7286 24.1317 24.0627 23.7012 24.0627 23.7012C24.0627 23.7012 24.3006 23.1125 25.0707 22.3875C25.8409 21.6624 26.3169 21.1808 26.4416 20.694C26.5185 20.3767 26.5603 20.052 26.5663 19.7256C26.6496 19.7936 26.7387 19.8542 26.8325 19.9067C26.9572 19.9634 27.5459 20.4502 27.4612 21.4302C27.3765 22.4102 27.0132 22.8179 27.0132 22.8179C27.0132 22.8179 26.6623 23.1688 26.4133 23.3503C26.1467 23.5313 26.0507 23.7408 25.6031 23.758C25.6491 23.7214 25.7008 23.6926 25.7562 23.6728C25.7562 23.6728 25.2918 23.6165 25.0424 23.8427C24.793 24.0689 24.2629 24.766 23.9967 24.9758C23.7305 25.1456 23.4367 25.3383 23.4367 25.3383L23.4355 25.3379Z" fill="#CDAE50"/>
<path id="Dogecoin (DOGE)_57" fill-rule="evenodd" clip-rule="evenodd" d="M42.2663 14.3229C41.5972 14.079 40.894 13.9415 40.1823 13.9152C38.9929 13.8756 37.2543 13.9436 35.5497 13.9548C33.7147 13.966 32.0497 13.3261 29.7391 13.213C29.3598 12.9863 28.3951 11.9951 25.3838 14.0963C25.5649 14.0851 27.57 13.6318 28.2663 14.5043C28.9685 15.3708 28.7703 16.8433 28.6743 17.1942C28.4929 17.9759 27.9038 19.1142 27.6663 19.9128C27.4289 20.7114 27.4849 21.131 27.315 21.691C27.1452 22.251 26.7715 22.5291 26.9921 23.1746C27.2867 22.9935 27.4401 22.9935 27.9322 21.8892C28.4242 20.7849 28.323 19.9975 29.1388 19.0631C29.9373 18.123 31.2668 16.8373 31.7723 16.5143C32.2778 16.1914 36.2915 14.1075 40.4941 16.0955C41.5077 15.9879 42.2667 14.3225 42.2667 14.3225L42.2663 14.3229Z" fill="#D2A83E"/>
<path id="Dogecoin (DOGE)_58" fill-rule="evenodd" clip-rule="evenodd" d="M27.0768 13.5523C27.0726 13.5097 27.0632 13.4679 27.0488 13.4276C27.0095 13.3448 26.9579 13.2684 26.8957 13.201C26.8957 13.201 25.8989 13.0199 25.3949 13.0763C24.5112 13.1726 23.7127 14.2657 23.339 14.8265C22.9653 15.3872 22.5008 16.2534 21.9968 16.701C22.0023 16.6574 21.9923 16.6132 21.9685 16.5763C21.9685 16.5763 21.9968 16.6159 21.9405 16.6726C21.8841 16.7294 21.8837 16.7574 21.9121 16.7846L21.9972 16.8694C22.0252 16.8694 22.807 16.5181 23.8717 15.5254C25.0044 14.489 25.8709 13.9574 26.3241 13.7752C26.5658 13.6725 26.8185 13.5977 27.0771 13.5523H27.0768Z" fill="#C29637"/>
<path id="Dogecoin (DOGE)_59" fill-rule="evenodd" clip-rule="evenodd" d="M46.4123 9.29395C46.4123 9.29395 46.2309 9.52019 46.0043 9.76957C45.5003 10.3019 44.8432 10.9019 44.2825 11.5194C43.7505 12.1085 43.1501 12.5673 42.4759 13.3375C41.8017 14.1077 41.0199 14.9626 40.822 15.212C40.641 15.4614 40.4995 15.8691 40.4995 16.0785C40.4032 16.0106 40.29 15.937 40.29 15.937C40.3377 16.026 40.3946 16.1096 40.4599 16.1864C40.6014 16.3847 40.822 16.6344 40.9355 16.7867C41.0748 16.9807 41.1747 17.1999 41.2297 17.4322C41.2977 17.4434 41.7337 17.5286 42.2777 16.6337C42.8216 15.7388 43.5347 14.7592 43.5347 14.7592L44.6674 13.0769L45.3812 11.6501L46.2772 10.0529L46.4135 9.29395H46.4123Z" fill="#AC8132"/>
<path id="Dogecoin (DOGE)_60" fill-rule="evenodd" clip-rule="evenodd" d="M47.5732 8.15039C47.5732 8.15039 46.8878 8.71039 46.6216 9.04639C46.3554 9.38239 45.7256 10.2642 45.7256 10.2642L45.9522 10.2358L47.1021 9.21663L47.5501 8.41807L47.5728 8.15188L47.5732 8.15039Z" fill="#A88F33"/>
<path id="Dogecoin (DOGE)_61" fill-rule="evenodd" clip-rule="evenodd" d="M47.3633 53.1573C47.3633 53.1573 47.3521 52.6928 47.6127 52.4155C47.8789 52.1377 48.5528 51.73 49.2098 50.2008C49.8669 48.6717 49.9401 48.3263 49.9401 48.3263C49.9401 48.3263 48.7622 49.3343 48.0361 49.5722C48.206 49.2208 48.3023 48.9718 48.3874 48.7904C48.2911 48.7056 47.8834 48.6093 47.8438 48.5642C48.0701 48.3375 48.1948 47.7824 48.6536 47.4143C49.2427 46.9663 50.3186 46.1965 51.1549 45.5103C51.9912 44.8241 53.6353 43.2281 53.8452 42.7637C53.9698 42.9447 53.9978 43.0579 53.9978 43.0579C53.9978 43.0579 53.1713 44.1342 52.7408 44.8192C52.3612 45.4084 52.3895 45.7425 52.3895 45.7425L53.1713 45.4065C53.1713 45.4065 53.3975 46.2446 52.3727 47.5192C52.8207 47.3493 53.0014 47.4512 53.256 47.3094C52.8368 47.5759 52.2592 47.9384 51.7157 48.9349C51.1833 49.9317 50.4583 51.0927 49.2352 51.8174C48.0458 52.582 47.3604 53.1539 47.3604 53.1539L47.3633 53.1573Z" fill="#A67A2E"/>
<path id="Dogecoin (DOGE)_62" fill-rule="evenodd" clip-rule="evenodd" d="M44.2941 14.912C44.2941 14.912 43.8297 15.8801 43.7617 16.6335C43.7505 16.8149 43.705 16.9564 43.705 17.1659C43.6938 17.8397 43.7446 18.5931 43.593 18.944C43.5362 18.8026 43.5079 18.7062 43.4511 18.6499C43.3664 18.8877 43.2133 19.6295 43.0886 19.9069C43.0322 19.7258 42.9075 19.0971 42.9191 18.3553C42.9307 17.6135 42.9471 17.4716 42.9471 17.3189C42.9191 17.5452 42.766 17.8513 42.7093 18.0324C42.6246 17.8797 42.5282 17.6814 42.4147 17.5172C42.3468 17.6292 42.262 17.7946 42.1885 17.8797C42.1769 17.8117 42.1489 17.6303 42.1318 17.3757C42.1206 17.0811 42.1034 16.7018 42.1206 16.6223C42.1486 16.4696 42.3867 15.8693 42.8907 15.3197C43.4911 14.6627 44.1086 13.4 44.2896 13.0092C44.4707 12.6183 45.2409 10.9932 45.2409 10.9932H45.83L44.9747 12.9412C44.9747 12.9412 44.4595 14.006 44.1933 14.3972C43.9271 14.7885 43.3664 15.9096 43.117 16.3456C43.298 16.1078 43.4511 15.9831 43.6326 15.7565C43.808 15.5979 44.2948 14.9128 44.2948 14.9128L44.2941 14.912Z" fill="#8C6228"/>
<path id="Dogecoin (DOGE)_63" fill-rule="evenodd" clip-rule="evenodd" d="M47.5844 8.07617C47.4882 8.37235 47.3361 8.64735 47.1364 8.88631C46.7851 9.30556 46.0317 9.86593 45.664 10.3132C45.328 10.7492 44.656 11.9387 44.9614 13.3488C45.0734 13.043 45.2843 12.4371 45.8451 11.7516C46.4058 11.0662 47.0061 10.2792 47.3011 9.66769C47.5952 9.0502 47.6348 8.56337 47.6348 8.56337L47.7468 8.42188L47.6789 8.09895L47.5825 8.07617L47.5844 8.07617Z" fill="#CBA94C"/>
<path id="Dogecoin (DOGE)_64" fill-rule="evenodd" clip-rule="evenodd" d="M59.053 45.6411C59.053 45.6411 58.8264 45.0239 58.7584 44.4632C58.6905 43.9025 58.8704 43.7912 58.6621 43.1494C58.5374 42.7586 58.3112 42.8134 58.2544 42.7586C58.1977 42.7037 58.1581 42.1131 58.1693 41.7901C58.1805 41.4672 58.1581 41.0483 58.1014 40.8669C58.0166 40.7989 57.9599 40.7422 57.8352 40.3233C57.6937 39.9041 57.6257 39.6946 57.5578 39.5703C57.4898 39.446 57.2912 39.3325 57.2912 39.2078C57.2912 38.9584 57.5178 38.8285 57.5178 38.7598C57.5066 38.6183 57.3368 38.7318 57.2912 38.6918C57.2349 38.6239 57.4331 38.2162 57.3595 38.1595C57.3312 38.1315 57.1329 38.3693 57.0818 38.3013C57.025 38.233 56.9571 37.5591 56.8552 37.1119C56.7592 36.6758 56.6569 36.3589 56.6457 36.2286C56.6345 36.1039 55.864 33.9065 55.6773 33.3741C55.5269 32.9242 55.4003 32.4668 55.298 32.0036C55.2413 31.7374 55.2017 31.1934 55.1733 31.2502C55.1449 31.3069 55.1621 31.5843 55.1166 31.5731C55.077 31.5615 54.9355 30.5935 54.8903 30.4404C54.8507 30.2874 54.6126 29.7684 54.5543 29.3928C54.4976 29.0132 54.3733 28.022 54.2881 27.3481C54.203 26.6742 54.1634 26.3969 54.1634 26.2281C54.1774 25.8154 54.1546 25.4022 54.0955 24.9935C53.9835 24.2797 53.7595 23.4132 53.5631 22.9095C53.1838 21.9579 52.1754 19.5227 51.9951 18.9167C51.9951 18.7637 52.1934 18.8488 52.1934 18.8488C52.1934 18.8488 52.6858 20.0834 53.0483 21.0347C53.3996 21.9863 53.7337 22.8244 53.8189 22.9095C53.8868 22.9943 54.4192 23.9287 54.657 25.4579C54.8948 26.9871 54.9795 28.3972 55.1214 29.3372C55.1894 29.7852 55.2461 30.2605 55.3876 30.7361C55.5403 31.2517 55.7781 31.784 56.0898 32.5994C56.356 33.2849 56.5543 33.8568 56.6618 34.3496C56.7865 34.9783 56.7865 35.4539 56.86 35.7657C56.9283 36.0318 57.0299 36.5638 57.2681 37.3337C57.5063 38.1035 57.8568 39.095 58.0946 39.7122C58.5594 40.9468 58.7666 41.9775 58.8368 42.5271C58.8988 43.0934 59.1086 45.0531 59.0519 45.6418L59.053 45.6411Z" fill="#A88F33"/>
<path id="Dogecoin (DOGE)_65" fill-rule="evenodd" clip-rule="evenodd" d="M47.6133 8.00815L47.5849 8.0761C47.5849 8.0761 47.6696 8.10447 47.6528 8.21796C47.6541 8.37324 47.6446 8.52841 47.6245 8.68239C47.5965 8.88063 47.5397 9.03332 47.5285 9.15802C47.5285 9.4242 47.5681 9.72996 47.1925 10.4889C47.0805 10.6984 47.0115 10.8795 46.9547 11.0041C46.8132 11.3099 46.7848 11.3555 46.6602 11.4969C46.8584 11.3849 47.5722 10.9369 47.9343 11.0041C47.6853 11.1456 47.3056 11.4234 47.0678 11.7859C47.1246 11.7971 47.3624 11.8427 47.7398 11.7859C48.3685 11.6896 49.0708 11.463 49.6879 11.5081C50.3621 11.5477 50.0959 10.6984 50.0959 10.6984L49.3179 8.98815L47.8455 7.95215L47.6133 8.00852V8.00815Z" fill="#BE9C44"/>
<path id="Dogecoin (DOGE)_66" fill-rule="evenodd" clip-rule="evenodd" d="M51.4523 20.819C51.4523 20.819 50.7952 20.162 50.529 17.907C50.2629 15.6416 50.3196 12.307 50.3196 12.307L49.7872 11.0045C49.7872 11.0045 49.6752 10.138 49.3964 9.8154C49.1175 9.49284 48.5698 8.94889 48.3204 8.68271C48.071 8.41652 47.788 8.05401 47.6182 7.99727C47.7029 7.85577 48.0826 7.05721 49.5378 7.04601C50.9931 7.03481 51.4418 7.84457 51.5938 8.13913C51.7457 8.43369 52.4319 9.70713 52.6865 12.1338C52.9244 14.5575 52.9359 14.7389 52.8964 15.5771C52.868 16.0415 52.7149 17.1174 52.4484 18.2669C52.2049 19.2413 51.9388 20.3288 51.4516 20.8213L51.4523 20.819Z" fill="#A17C34"/>
<path id="Dogecoin (DOGE)_67" fill-rule="evenodd" clip-rule="evenodd" d="M49.3921 22.7507C49.611 22.7665 49.8298 22.7171 50.0207 22.6088C50.2302 22.5976 50.9892 22.694 51.5723 21.9521C51.6119 22.1216 51.7142 22.5808 51.4476 22.9885C51.5895 22.8467 51.7989 22.7903 51.8273 22.7507C51.8385 22.9601 52.0367 23.6056 51.1986 25.1744C51.4249 24.9254 51.691 24.9366 51.9289 24.9082C51.9404 25.2028 52.0987 26.1936 51.6798 26.7263C51.4025 27.0888 50.9492 26.9753 50.9492 26.9753C50.9559 26.8962 50.9559 26.8167 50.9492 26.7375C50.938 26.5845 50.8813 26.4318 50.9212 26.3299C50.7022 26.2298 50.5028 26.0917 50.3321 25.9218C49.8393 25.4574 49.1994 24.6648 49.1542 24.0757C49.0975 23.4186 49.6866 23.2771 49.6866 23.2771C49.6373 23.233 49.5952 23.1813 49.5619 23.124C49.5335 23.0281 49.5052 22.875 49.3921 22.7507Z" fill="#8C6228"/>
<path id="Dogecoin (DOGE)_68" fill-rule="evenodd" clip-rule="evenodd" d="M45.0238 15.6253C45.0238 15.6253 44.9955 15.5857 44.8428 15.7668C44.8711 15.5857 44.8995 15.4155 44.9107 15.2512C44.983 15.0991 45.0765 14.9581 45.1885 14.8323C45.1034 15.0018 45.0466 15.1549 45.0466 15.1549C45.0466 15.1549 45.2564 14.764 45.5622 14.5262C45.7716 14.3563 46.0378 14.2772 46.1509 14.1185C46.2756 13.9486 46.2473 13.9203 46.2756 13.8919C46.2756 13.8919 46.5534 13.7108 46.9782 13.1781C47.0346 13.1101 47.1197 13.0366 47.1765 12.9686C47.2724 12.9291 47.499 12.8272 47.7652 12.6909C48.043 12.5382 48.3543 12.3288 48.547 12.2429C48.9263 12.073 49.3287 12.0902 49.5154 11.8236C49.6569 11.7841 49.8096 11.3592 49.7816 10.9971C49.991 11.0818 51.067 11.7501 51.4355 13.2113C51.7017 14.2477 51.2257 15.8448 51.0274 16.6154C50.8292 17.3859 50.8012 17.9575 50.5234 18.3084C50.1721 18.7732 49.0398 19.4284 48.762 19.7529C48.5242 20.019 47.8108 20.6929 47.8388 21.1797C47.8671 21.5422 48.3144 21.7397 48.4111 21.8084C48.5078 21.8771 48.507 21.9615 48.6885 21.9204C48.8699 21.8794 48.9375 21.7957 49.0114 21.7957C49.0962 21.8069 49.0962 21.8241 49.1357 21.8241C49.1644 21.8233 49.193 21.8194 49.2209 21.8125C49.2209 21.8125 49.1925 22.3281 47.9862 22.4845C47.9011 22.4961 47.8164 22.5241 47.7085 22.5413C47.8503 22.4733 47.9351 22.4733 48.0882 22.2639C47.9183 22.2355 47.4311 22.2072 47.3064 22.1676C47.346 22.0996 47.4763 21.9182 47.5838 21.8334C47.6801 21.7487 47.5726 21.7214 47.4878 21.7655C47.3419 21.8648 47.2019 21.9725 47.0686 22.0881C46.9271 22.2128 46.8024 22.3826 46.5758 22.5361C46.5078 22.3094 46.519 21.879 46.7856 21.5676C46.7173 21.5788 46.587 21.7771 46.4627 21.7375C46.4402 21.5309 46.4536 21.322 46.5022 21.12C46.5702 20.865 46.9383 20.4178 46.9383 20.4178L48.7165 17.2403L49.0958 14.8334L45.0238 15.6245V15.6253Z" fill="#92723A"/>
<path id="Dogecoin (DOGE)_69" fill-rule="evenodd" clip-rule="evenodd" d="M44.928 15.7612C44.928 15.7612 44.8317 15.8291 45.0243 15.9594C44.996 15.999 44.928 16.1405 44.8429 16.2368C44.747 16.3488 44.6447 16.4183 44.6051 16.5146C44.5203 16.7128 44.4524 16.8487 44.4524 16.9338C44.4524 17.0189 44.424 17.5625 44.1862 17.9135C44.1011 18.0381 44.0048 18.2476 43.9368 18.3891C43.7953 18.6381 43.6706 18.8371 43.6423 18.9491C43.5859 19.1473 43.5463 19.6909 43.5463 19.6909C43.5463 19.6909 43.671 19.5378 43.7162 19.4815C43.6479 19.6229 43.5743 19.7756 43.4668 19.8891C43.5347 19.8324 43.733 19.6909 44.0671 19.3963C44.5315 19.0058 45.2566 18.3488 46.1402 17.8283C45.8737 17.9247 45.6474 17.9247 45.4664 17.953C45.6079 17.8115 46.8821 16.3163 47.5503 16.1748C47.5909 16.1234 47.6111 16.0588 47.6071 15.9934L47.0347 15.937L45.8737 16.186L45.7042 15.29L44.928 15.7601V15.7612Z" fill="#B18E3E"/>
<path id="Dogecoin (DOGE)_70" fill-rule="evenodd" clip-rule="evenodd" d="M46.7739 20.8589C46.7739 20.8589 46.6208 21.0116 46.4793 21.3913C46.3704 21.2775 46.277 21.1498 46.2015 21.0116C45.9921 20.6606 45.6695 20.213 44.9162 20.468C44.905 20.2302 44.8878 20.1055 44.9162 19.9356C45.0409 19.9076 45.4202 19.6019 45.7995 19.1542C46.066 18.8485 46.315 18.4972 46.4849 18.0499C46.5969 17.9648 46.7907 17.8233 47.0449 17.659C47.4074 17.41 47.8435 17.0699 47.9114 16.6906C47.7415 16.7586 47.379 16.9284 46.8351 16.9004C47.0449 16.8041 47.3675 16.7022 47.3279 16.2829C47.413 16.2262 47.481 16.1866 47.481 16.1866C47.4171 16.1653 47.35 16.1557 47.2827 16.1582C47.2711 16.1187 47.2543 16.0623 47.158 16.0903C47.0617 16.1183 47.046 16.1187 47.0333 16.1582C46.9938 16.1698 46.8635 16.1582 46.7671 16.2266C46.6708 16.2949 46.4046 16.5207 46.3027 16.5603C46.3423 16.4924 46.3987 16.3908 46.3987 16.3908C46.3987 16.3908 46.1213 16.4188 45.923 16.5028C45.5605 16.6275 45.1417 16.8541 44.7168 17.0748C44.7564 17.0068 44.7735 16.9628 44.8015 16.9501C44.8295 16.9374 44.8979 16.9221 44.8979 16.9105C44.8979 16.8989 44.8699 16.7985 44.8867 16.7578C45.0137 16.4887 45.1636 16.2311 45.3347 15.9876C45.5329 15.7211 45.5725 15.3418 45.5725 15.3418L46.439 14.9057L48.8742 14.3457L50.4546 14.442L50.2563 15.5351L49.323 17.4436L48.5244 19.1822L47.6124 20.2474L46.7742 20.8589H46.7739Z" fill="#543E26"/>
<path id="Dogecoin (DOGE)_71" fill-rule="evenodd" clip-rule="evenodd" d="M50.7217 16.1275C50.7217 16.1275 49.7701 17.3053 49.5039 17.4868C49.6738 17.1243 50.7217 14.9664 51.1011 14.3661C51.0163 14.2981 50.9028 14.2981 51.169 13.2461C50.9428 13.7781 50.8632 14.0559 50.6766 14.1973C50.4899 14.3388 50.4668 14.2937 50.3406 14.2937C50.3644 14.2506 50.3742 14.2011 50.3686 14.1522C50.3686 14.1522 49.57 14.0559 49.0246 14.0559C48.4791 14.0559 47.3995 14.3504 46.7988 14.5882C46.3231 14.7865 46.0569 14.7865 45.8871 14.9108C45.7172 15.0523 45.6209 15.2053 45.5358 15.2449C45.4678 15.2845 45.1453 15.3864 45.0713 15.4939C45.0034 15.6059 44.8903 15.7317 44.8903 15.7601C44.8903 15.7885 44.8619 15.8284 44.947 15.7997C44.975 15.7885 45.1848 15.675 45.4227 15.5335C45.7452 15.3524 46.1361 15.143 46.4195 15.0183C47.2292 14.6954 47.4842 14.7521 47.8463 14.6842C48.2256 14.6162 48.7696 14.4576 49.1317 14.4576C49.4942 14.4464 50.1797 14.4576 50.3383 14.4859C50.2704 14.5427 50.2136 14.6106 50.242 14.8484C50.242 14.9164 50.1853 14.9899 50.13 15.1542C49.9605 15.6186 49.6376 16.3888 49.458 16.7797C49.209 17.3117 48.926 17.7593 48.786 18.0367C48.646 18.3141 48.338 19.0447 48.033 19.4356C47.728 19.8265 47.5686 20.0643 47.473 20.1494C47.3774 20.2345 46.6912 20.7381 46.7424 20.9196C46.8671 20.88 47.6544 20.5836 48.226 19.94C48.7976 19.2963 48.9115 18.9036 49.3587 18.5523C49.806 18.201 50.1573 17.6122 50.3667 17.1254C50.5422 16.6722 50.5026 16.5307 50.7232 16.1286L50.7217 16.1275Z" fill="#806031"/>
<path id="Dogecoin (DOGE)_72" fill-rule="evenodd" clip-rule="evenodd" d="M30.2149 24.9187C30.2149 24.9187 30.0902 25.4339 29.8069 25.6889C29.5295 25.9383 29.0367 26.1533 28.9803 26.5726C28.9124 26.9914 29.4731 27.2013 29.4731 27.2013C29.4731 27.2013 29.167 27.7053 29.167 28.0846C29.167 28.4754 29.1558 28.549 29.1954 28.9227C29.1504 28.9516 29.1123 28.9898 29.0834 29.0347C29.0834 29.0347 29.1114 29.3972 29.3891 29.6234C29.6669 29.8497 29.9043 29.986 30.0458 29.9292C30.0674 29.9754 30.0864 30.0227 30.1026 30.0711C30.1026 30.0711 30.3124 29.5387 30.4539 29.0743C30.5954 28.5986 30.7201 28.6662 30.7764 28.0263C30.8328 27.3864 31.4484 26.2877 31.4484 26.2877L31.8684 25.3488L31.1834 24.8164L30.2149 24.9183V24.9187Z" fill="#B6903C"/>
<path id="Dogecoin (DOGE)_73" fill-rule="evenodd" clip-rule="evenodd" d="M31.4891 25.8418C31.3478 25.9868 31.2175 26.142 31.099 26.3062C30.9179 26.5556 30.7764 26.7819 30.5102 26.8785C30.2441 26.9752 30.0742 26.9745 30.091 27.2411C30.1078 27.5076 30.3572 27.6204 30.4987 27.7563C30.6517 27.8977 30.7764 28.1356 30.7085 28.4021C30.7932 28.3625 30.9463 28.317 31.0878 28.0112C31.2293 27.7055 32.219 25.8422 32.219 25.8422H31.4891V25.8418Z" fill="#685026"/>
<path id="Dogecoin (DOGE)_74" fill-rule="evenodd" clip-rule="evenodd" d="M35.3924 21.5439C35.3924 21.5439 35.4771 21.3177 35.3924 21.1534C35.3073 20.9835 34.7921 20.9268 34.5371 20.7341C34.2709 20.5359 33.948 20.3981 33.6818 20.4851C33.7213 20.3888 33.88 20.179 33.7497 20.1338C33.625 20.0942 33.161 20.3037 33.0363 20.4C32.9116 20.4963 32.6282 20.6094 32.5719 20.6778C32.5155 20.7461 32.4188 20.876 32.362 20.8193C32.3053 20.7797 32.2773 20.6778 32.181 20.7341C32.0847 20.7905 31.621 21.1702 31.5355 21.3912C31.45 21.6122 31.2577 22.105 30.6802 22.6654C30.1026 23.2258 29.8532 23.5886 30.0231 23.7981C30.193 24.0075 30.2725 23.8548 30.3009 24.0359C30.3227 24.2137 30.3131 24.3939 30.2725 24.5683C30.2045 24.8628 30.0914 25.1402 30.2441 25.197C30.635 25.3217 31.0147 25.085 31.0994 25.1574C31.2693 25.3101 31.0031 25.8596 31.4052 25.9672C31.8132 26.0792 32.2153 25.8708 32.2153 25.8708L33.6989 25.0723L35.1262 24.3193L35.8564 22.8748L35.4648 21.6686L35.3901 21.5439H35.3924Z" fill="#D4B968"/>
<path id="Dogecoin (DOGE)_75" fill-rule="evenodd" clip-rule="evenodd" d="M33.9922 24.9925C33.9922 24.9925 33.7429 24.6132 34.049 24.2787C34.3551 23.9442 34.7908 23.8031 34.9607 23.5937C34.9283 23.5538 34.885 23.5243 34.836 23.5089C34.9487 23.3071 35.1208 23.1449 35.3288 23.0441C35.244 22.9594 35.1305 22.8914 35.0062 22.8914C34.7285 22.8914 34.5582 23.0613 34.3036 23.0613C34.0546 23.0613 34.0262 22.9366 34.0262 22.9366C34.0262 22.9366 34.4455 22.897 34.4055 22.71C34.366 22.5117 34.2935 22.5117 34.2935 22.5117C34.2935 22.5117 35.1033 22.1757 35.2448 21.9965C35.3863 21.8173 35.3695 21.6057 35.3978 21.5209C35.4938 21.5209 36.0545 21.2263 36.2812 21.351C36.5078 21.4757 36.3491 21.8155 36.3491 21.8155C36.3491 21.8155 37.0349 21.2999 37.3844 20.7944C37.6901 20.8228 37.8324 20.585 38.0564 20.585C38.3341 20.585 38.7702 20.9643 38.8549 21.774C38.9117 22.2385 38.9964 22.5046 38.9117 23.326C38.8721 23.7904 38.8833 24.782 39.0237 25.274C39.1196 25.6649 39.3462 25.6253 39.3462 25.6253C39.3114 25.7444 39.2425 25.8507 39.148 25.9311C38.9949 26.0726 38.9781 26.4467 38.9949 26.5882C39.0175 26.6916 39.0459 26.7937 39.08 26.8939C39.08 26.8939 38.899 27.1034 38.8534 27.2452C38.8138 27.3867 38.6272 27.483 38.4909 27.483C38.3546 27.483 38.423 27.4715 38.2419 27.483C38.0608 27.4946 38.0041 27.5226 37.8906 27.483C37.7771 27.4435 37.6924 27.3979 37.7379 27.035C37.7775 26.6725 36.339 25.8288 36.339 25.8288L33.987 24.9907L33.9922 24.9925Z" fill="#CCA849"/>
<path id="Dogecoin (DOGE)_76" fill-rule="evenodd" clip-rule="evenodd" d="M31.2909 28.5714C31.2909 28.5714 31.8061 29.2568 33.9244 29.2568C34.9324 29.2568 35.2837 29.1605 35.4924 29.1038C35.719 29.047 36.5684 28.7133 37.4237 27.7049C38.1939 26.7932 38.024 26.4195 38.024 26.4195L37.576 26.3516L36.12 26.5498L31.8117 28.3847L31.2891 28.5714H31.2909Z" fill="#585136"/>
<path id="Dogecoin (DOGE)_77" fill-rule="evenodd" clip-rule="evenodd" d="M32.8711 28.7424C32.8711 28.7424 31.0361 29.1504 31.0361 27.9893C31.0361 26.8566 32.1688 25.6672 32.4522 25.4578C32.7467 25.248 33.449 25.0098 33.449 25.0098H35.1424L35.465 25.8651L35.3235 27.7112L32.8711 28.742V28.7424Z" fill="#252211"/>
<path id="Dogecoin (DOGE)_78" fill-rule="evenodd" clip-rule="evenodd" d="M34.5639 25.3556C34.5639 25.3556 34.213 25.0326 33.4144 25.4676C32.6159 25.9025 31.97 26.8116 31.9304 27.637C31.8909 28.3672 32.5308 28.9112 33.5276 28.9396C34.2694 28.9676 34.717 28.8828 34.9436 28.8276C34.8869 28.7596 34.5923 28.3915 34.5923 28.3915L34.5643 25.3559L34.5639 25.3556Z" fill="#C3B378"/>
<path id="Dogecoin (DOGE)_79" fill-rule="evenodd" clip-rule="evenodd" d="M34.2188 25.5365C34.2188 25.5365 34.1341 25.4686 33.8828 25.6045C33.6734 25.7165 33.3676 26.0125 33.1298 26.222C32.9767 26.3467 32.8804 26.403 32.7938 26.4993C32.4425 26.9186 32.1479 27.604 32.3182 27.9438C32.4884 28.2835 33.0488 28.6744 34.4761 28.4082L34.2147 25.5369L34.2188 25.5365Z" fill="#E6D89C"/>
<path id="Dogecoin (DOGE)_80" fill-rule="evenodd" clip-rule="evenodd" d="M33.7543 26.238C33.7543 26.238 33.5277 26.5893 33.5277 27.15C33.5277 27.722 33.8506 28.6337 35.0401 28.7016C35.9517 28.7583 36.5633 27.3878 37.2259 26.8555C37.7299 26.4478 38.0357 26.4362 38.0357 26.4362C38.0357 26.4362 37.5205 25.8762 36.1444 25.1508C34.7851 24.4202 33.2615 24.3239 32.4346 25.4454C32.8255 25.417 34.0884 25.0941 34.0884 25.0941L34.7059 25.2923L33.7543 26.2383V26.238Z" fill="#252211"/>
<path id="Dogecoin (DOGE)_81" fill-rule="evenodd" clip-rule="evenodd" d="M35.5317 26.9804C35.4922 26.8957 35.4638 26.7822 35.6281 26.7542C35.7923 26.7262 35.8659 26.7426 35.9226 26.8662C35.9794 26.9897 36.0346 27.0928 35.9506 27.1439C35.8659 27.1891 35.6449 27.1439 35.5314 26.9797L35.5317 26.9804ZM35.2658 26.1819C35.2658 26.1819 35.2091 26.2215 35.2374 26.1424C35.2486 26.0464 35.3226 25.8762 35.5036 25.9161C35.6847 25.9561 35.6455 26.1539 35.6156 26.2107C35.5858 26.2674 35.4346 26.3634 35.3211 26.3227C35.2919 26.3152 35.268 26.2943 35.2568 26.2663C35.2456 26.2384 35.2484 26.2067 35.2643 26.1812L35.2658 26.1819Z" fill="#6F674D"/>
<path id="Dogecoin (DOGE)_82" fill-rule="evenodd" clip-rule="evenodd" d="M19.9355 26.5442C19.9355 26.5442 20.3835 26.8802 20.904 26.8671C21.4192 26.8555 22.0818 26.3235 22.3876 25.9834C22.5687 25.7852 22.7236 25.5758 22.8916 25.4115C23.0335 25.27 23.1294 25.202 23.1974 25.1057C23.2937 24.9937 23.3956 24.7832 23.4467 24.7148C23.3221 24.8112 23.141 24.9814 22.9539 25.0945C22.7729 25.2065 22.382 25.4171 22.2233 25.4738C22.0706 25.5306 20.4847 26.3698 20.4847 26.3698L19.9355 26.5442Z" fill="#AC924C"/>
<path id="Dogecoin (DOGE)_83" fill-rule="evenodd" clip-rule="evenodd" d="M20.6211 22.3598C20.6211 22.3598 20.8701 22.1899 21.3517 22.082C21.8161 21.97 22.7506 21.8838 22.7506 21.8838L23.5208 22.2198L23.8265 23.3809L23.2665 24.5875L22.5531 25.0355L21.743 23.7329L20.623 22.362L20.6211 22.3598Z" fill="#9F8E57"/>
<path id="Dogecoin (DOGE)_84" fill-rule="evenodd" clip-rule="evenodd" d="M19.6132 23.3959L19.3467 23.5949C19.3467 23.5949 19.415 23.4702 19.4714 23.0909C19.5277 22.7116 19.8227 21.7884 20.2531 21.256C20.6836 20.7236 20.6724 20.752 20.6724 20.752C20.5923 20.7373 20.5097 20.7579 20.4458 20.8084C20.5025 20.6829 20.865 20.2349 21.2275 20.0109C21.59 19.7869 21.7315 19.7164 22.1108 19.8989C22.4901 20.0815 22.5865 20.1763 22.8642 20.1651C23.142 20.1539 23.3794 19.8594 23.3794 19.8594C23.3794 19.8594 23.4362 20.0404 23.2267 20.4597C23.0173 20.8789 22.1904 21.7339 22.1904 21.7339L20.4685 22.9117L19.6132 23.3971V23.3959Z" fill="#EAC970"/>
<path id="Dogecoin (DOGE)_85" fill-rule="evenodd" clip-rule="evenodd" d="M20.8863 22.2175C20.8863 22.2175 22.1324 22.3874 22.5118 22.0365C22.523 22.076 22.5685 22.076 22.5685 22.1044C22.5654 22.1258 22.5555 22.1456 22.5401 22.1608C22.5814 22.1542 22.623 22.1505 22.6648 22.1496C22.7147 22.1644 22.766 22.1739 22.8179 22.178C22.8597 22.1771 22.9013 22.1732 22.9426 22.1664C22.9346 22.2233 22.9039 22.2745 22.8575 22.3082C22.9142 22.3082 22.9695 22.3194 22.9695 22.3646C22.9695 22.4098 22.9807 22.5461 22.9127 22.5744C22.8564 22.59 22.7965 22.5859 22.7428 22.5629C22.7473 22.6701 22.7765 22.7748 22.828 22.869C22.94 23.0784 23.1789 23.317 23.5 23.2483C23.5 23.2483 23.6695 23.656 22.956 24.5621C22.8601 24.6868 22.7578 24.8566 22.6335 24.9981C22.5843 25.1052 22.5468 25.2172 22.5215 25.3322C22.5215 25.3322 23.7281 24.8678 24.0734 23.8087C24.4247 22.7439 24.4927 21.6964 24.4247 20.7167C24.4131 20.439 24.368 20.2411 24.3 20.0992C24.1302 19.7479 23.6542 19.8047 23.4619 20.0029C23.1841 20.2807 22.7197 20.9713 22.0742 21.447C21.4171 21.9226 21.3891 22.007 20.8848 22.2175H20.8863Z" fill="#D7BC6B"/>
<path id="Dogecoin (DOGE)_86" fill-rule="evenodd" clip-rule="evenodd" d="M19.3918 23.7468C19.3918 23.7468 19.154 23.8883 19.0293 24.4188C18.9046 24.9623 19.1413 25.625 19.2783 25.8345C19.4153 26.0439 19.7263 26.6162 20.3714 26.6446C20.5311 26.6437 20.689 26.611 20.8358 26.5483C21.0611 26.445 21.2723 26.3137 21.4645 26.1574C21.7423 25.9479 21.9685 25.7669 21.9402 25.7497C21.8722 25.7213 20.2299 24.362 20.2299 24.362L19.6124 23.6729L19.3914 23.7475L19.3918 23.7468Z" fill="#585136"/>
<path id="Dogecoin (DOGE)_87" fill-rule="evenodd" clip-rule="evenodd" d="M20.9441 26.0011C20.9441 26.0011 21.2783 25.9731 21.4765 25.8484C21.6747 25.7237 20.3154 24.376 20.3154 24.376L20.4117 25.832L20.9441 26.0011Z" fill="#453A25"/>
<path id="Dogecoin (DOGE)_88" fill-rule="evenodd" clip-rule="evenodd" d="M19.4987 23.6451C19.4987 23.6451 19.3288 23.968 19.3288 24.0532C19.3005 24.3305 19.3856 25.2026 19.4535 25.48C19.5215 25.7746 19.8896 26.2218 20.3656 26.2218C20.6598 26.2218 21.0678 26.0408 21.0678 25.9956C21.0678 25.9389 20.6486 25.8836 20.5355 25.6727C20.4675 25.5607 20.4391 25.2822 20.4235 25.0007C20.4123 24.8196 20.4123 24.6214 20.4802 24.5527C20.6333 24.3828 20.6613 23.8956 20.6613 23.8956L21.2048 22.8857H20.4899L19.6346 23.4181L19.4987 23.6451Z" fill="#84754B"/>
<path id="Dogecoin (DOGE)_89" fill-rule="evenodd" clip-rule="evenodd" d="M19.29 23.9558C19.29 23.9558 19.85 23.2139 20.3548 23.0437C20.8595 22.8735 21.0854 22.9758 21.0854 22.9758L20.7908 23.7291L20.3716 24.1936L20.4 24.4314C20.4 24.4314 20.3316 25.0601 20.7509 25.4961C21.1701 25.9322 21.4815 25.9154 21.6629 25.9154C21.8444 25.9154 22.3652 25.7623 22.6314 25.1336C22.8692 24.5449 23.0674 23.7896 22.5918 23.0325C22.127 22.2791 21.306 22.25 21.1474 22.25C20.9887 22.25 19.7429 22.3123 19.29 23.9546V23.9558Z" fill="#252211"/>
<path id="Dogecoin (DOGE)_90" fill-rule="evenodd" clip-rule="evenodd" d="M33.6692 26.476C33.4598 26.3797 33.658 25.791 33.8674 25.6095C34.0769 25.4281 34.3431 25.219 34.8079 25.1903C34.9774 25.1791 35.1416 25.2866 35.1136 25.4001C35.0741 25.6095 34.7795 25.9041 34.5133 26.1135C34.1452 26.4025 33.907 26.5835 33.6692 26.476Z" fill="#F7F7E7"/>
<path id="Dogecoin (DOGE)_91" fill-rule="evenodd" clip-rule="evenodd" d="M22.342 23.2654C22.4951 23.2542 22.6933 23.3774 22.7329 23.5431C22.7725 23.7242 22.6366 24.0867 22.342 24.0867C22.1042 24.0867 21.9795 23.7921 21.9795 23.7074C21.9822 23.6377 22.0016 23.5697 22.0362 23.5091C22.0474 23.492 22.0758 23.2937 22.342 23.2654Z" fill="#F8F6DE"/>
<path id="Dogecoin (DOGE)_92" fill-rule="evenodd" clip-rule="evenodd" d="M20.133 23.3955C20.133 23.3955 19.7421 23.5766 19.561 23.9555C19.4316 24.2353 19.3925 24.5485 19.449 24.8515C19.4774 24.993 19.6189 25.3439 19.7152 25.4686C19.8115 25.5933 19.9418 25.6784 20.0381 25.6669C20.1345 25.6553 20.3323 25.4007 20.3323 25.248C20.3323 25.0953 20.3439 24.4494 20.5306 24.0981C20.6948 23.7472 20.1341 23.3959 20.1341 23.3959L20.133 23.3955Z" fill="#D4C38B"/>
<path id="Dogecoin (DOGE)_93" fill-rule="evenodd" clip-rule="evenodd" d="M20.1906 23.3679C20.1227 23.4075 20.0096 23.4642 20.0376 23.5378C20.0659 23.6057 20.3038 23.6498 20.3889 23.8155C20.4852 23.9854 20.4852 24.1665 20.4568 24.2516C20.5308 24.2164 20.5979 24.1684 20.6551 24.1097C20.7798 23.9682 20.9325 23.7759 21.0627 23.7759C21.1479 23.7759 21.2326 23.8155 21.3121 23.8155C21.4368 23.8155 21.5611 23.7759 21.5783 23.6457C21.6063 23.4758 21.3405 23.3227 21.1874 23.3511C21.2158 23.2391 21.2554 23.0737 21.1307 22.9602C21.006 22.8467 20.6155 23.0453 20.5304 23.1021C20.4453 23.1588 20.1906 23.3683 20.1906 23.3683V23.3679Z" fill="#E2D59D"/>
<path id="Dogecoin (DOGE)_94" fill-rule="evenodd" clip-rule="evenodd" d="M29.1892 35.2661L30.0273 35.0186L30.2651 35.1884C30.2651 35.1884 30.4346 35.5509 30.7012 35.5961C30.6161 35.7772 30.3951 35.9321 30.4066 36.0605C30.4182 36.189 30.5313 36.2871 30.5313 36.2871C30.5313 36.2871 29.7779 37.533 31.2619 38.7885C30.9106 38.93 30.4634 39.1245 30.2256 39.2365C30.3951 39.276 30.7576 39.3485 30.9106 39.4859C31.0637 39.6232 31.0637 39.6669 31.2052 39.752C31.3467 39.8372 31.4314 39.9503 31.4034 40.0011C31.3071 39.9443 30.9842 39.7748 30.9278 39.9331C30.8714 40.0914 29.5289 40.0294 29.5289 40.0294L27.2635 40.4655C27.2635 40.4655 27.3483 40.2389 27.1105 40.0294C26.8331 39.7804 26.4934 40.0406 26.1308 39.7632C25.6552 39.4007 25.638 38.9815 25.4854 38.8232C25.638 38.7269 25.9498 38.5854 26.6916 38.4872C26.6632 38.4304 26.5669 38.2606 26.6236 38.1079C26.6916 37.9096 26.9746 37.785 26.8898 37.5479C27.0145 37.5195 27.0709 37.5195 27.3826 37.1286C27.6772 36.7378 27.8583 36.653 28.0849 36.6246C28.3115 36.5963 28.4474 36.6246 28.8666 36.2338C29.1608 35.9564 29.0649 35.7186 29.0649 35.7186C29.0649 35.7186 29.2571 35.6562 29.1896 35.2653L29.1892 35.2661Z" fill="#CBAC5A"/>
<path id="Dogecoin (DOGE)_95" fill-rule="evenodd" clip-rule="evenodd" d="M26.7147 35.392C26.7259 35.3353 26.7714 35.3069 27.0772 35.3353C27.383 35.3637 29.3198 35.1542 29.8466 35.1258C30.379 35.0863 32.2535 35.1143 33.1655 35.3069C34.0776 35.4996 35.0005 35.7262 35.4477 35.8393C35.8957 35.964 36.0368 36.0088 36.0197 36.0655C36.0085 36.1223 35.9076 36.1775 35.8498 36.1618C35.7934 36.1506 34.3094 35.6974 33.851 35.6018C33.3925 35.5063 31.8062 35.2505 30.939 35.2658C30.1292 35.2774 29.8063 35.2546 29.1212 35.3338C28.4358 35.4189 27.3031 35.532 26.9633 35.4869C26.6273 35.4473 26.6968 35.4473 26.7139 35.3905L26.7147 35.392Z" fill="#D6BC6F"/>
<path id="Dogecoin (DOGE)_96" fill-rule="evenodd" clip-rule="evenodd" d="M31.2737 39.8313C31.2737 39.8313 32.4347 40.46 32.854 41.2302C33.1597 41.8021 32.6729 42.0855 32.6729 42.0855C32.6729 42.0855 33.33 42.0855 33.2449 42.448C33.2053 42.6742 32.1122 43.2858 31.3816 43.6087C30.6397 43.9316 30.6681 43.9148 30.3056 43.9712C29.9543 44.0279 28.9915 43.8592 28.7932 44.1411C28.595 44.4229 28.6812 44.7134 28.7365 44.7586C28.7932 44.7981 29.2521 44.8549 29.2521 44.8549C29.2521 44.8549 29.1557 45.1211 28.2045 45.1494C27.2532 45.1778 27.0151 45.2454 26.9583 45.3477C26.9016 45.4436 27.1394 45.3872 27.5758 45.4597C28.0119 45.5276 28.6234 45.5717 28.6234 45.5717C28.6234 45.5717 28.4251 45.7415 27.9099 45.8774C27.3208 46.0301 26.3976 46.172 26.1202 46.3419C26.2617 46.4382 26.4715 46.5797 26.5682 46.5909C26.3304 46.6476 25.9959 46.7723 25.9395 46.8175C26.0242 46.8742 26.1377 46.9422 26.1377 46.9422C26.1377 46.9422 25.6617 47.5141 25.3843 47.656C25.1069 47.7979 23.5098 48.5393 22.9603 48.3978C21.5898 48.0353 21.4199 46.5345 21.0858 46.4214C20.5818 46.2515 20.344 46.5909 19.8963 46.3531C20.0946 46.2116 20.2025 46.1268 20.4119 46.0305C20.1853 45.9185 19.013 45.1752 19.013 45.1752C18.8904 44.908 18.7544 44.6472 18.6053 44.3938C18.3787 44.0029 18.0453 43.4818 17.7952 43.0229C17.2516 42.0149 17.2233 41.5505 16.7305 40.9786C16.8156 40.8666 17.1098 40.8822 17.1098 40.8822L21.2388 42.2415L28.5603 42.4536L30.4643 39.7354L31.274 39.8317L31.2737 39.8313Z" fill="#DFC677"/>
<path id="Dogecoin (DOGE)_97" fill-rule="evenodd" clip-rule="evenodd" d="M20.4277 43.9759C20.4719 44.025 20.5234 44.0671 20.5804 44.1005C20.7223 44.1969 20.9317 44.3104 21.0732 44.4799C21.13 44.3951 21.2715 44.242 21.5212 44.4799C21.771 44.7177 22.0812 44.5482 22.2742 44.6045C22.4725 44.6729 22.4837 44.7009 22.4837 44.7009C22.4837 44.7009 22.5957 44.6045 22.8462 44.5026C22.9993 44.4459 23.1803 44.4063 23.3786 44.3499C23.5596 44.3104 23.7579 44.2536 23.8941 44.2536C24.0188 44.3384 24.4661 44.8136 26.2614 44.1121C27.9549 43.4551 28.3454 43.3815 28.6287 43.4831C28.6571 43.4151 28.6855 43.2848 29.1215 43.302C29.1215 43.1209 28.759 42.5034 28.759 42.5034L26.7598 41.8184H25.6663L22.3874 42.4187L20.5703 43.4554L20.4289 43.9781L20.4277 43.9759Z" fill="#C4A859"/>
<path id="Dogecoin (DOGE)_98" fill-rule="evenodd" clip-rule="evenodd" d="M19.335 42.8267C19.335 42.8267 19.3745 43.1324 19.8278 43.4554C20.2758 43.7779 20.4165 43.9706 20.4165 43.9706C20.4165 43.9706 20.5016 43.8586 20.5696 43.7443C20.6375 43.6196 20.6943 43.4781 20.8074 43.4386C21.034 43.3423 21.5492 43.5233 21.6627 43.4949C21.759 43.4669 21.7306 43.2687 21.8326 43.2687C22.0704 43.2571 22.2231 43.4214 22.3082 43.4214C22.3933 43.4214 22.6024 43.4102 22.6307 43.365C22.6591 43.3199 22.6703 42.8495 22.9933 42.6228C23.3446 42.3738 23.775 42.4813 23.8893 42.5381C23.8893 42.6228 23.9005 42.8327 24.1271 42.8439C24.3537 42.8551 24.3761 42.8155 24.5751 42.8834C24.7741 42.9514 25.0111 42.8722 25.1186 43.206C25.215 43.178 25.4416 43.1496 25.3848 42.8267C25.4968 42.7419 25.5946 42.6852 25.8328 42.3511C25.8896 42.2663 25.9855 42.17 26.0594 42.0453C26.2577 42.0453 26.4955 42.0057 26.8125 42.2831C26.7161 42.3511 26.6594 42.3951 26.6314 42.4642C26.7143 42.5463 26.79 42.6353 26.8576 42.7304C26.9427 42.8424 26.9995 42.9797 27.107 43.0081C27.3448 43.0761 27.7357 42.9797 28.1718 43.0081C28.591 43.0365 28.9419 43.1892 29.095 43.2855C29.1518 43.2575 29.1518 43.2459 29.2933 43.2743C29.4347 43.3027 29.5423 43.3139 29.3896 43.1328C29.4743 43.1724 29.5706 43.2575 29.6558 43.1724C29.7409 43.0873 29.8085 42.9629 30.0463 42.9346C30.2841 42.9062 30.3692 42.9458 30.4655 42.6968C30.5902 42.391 30.1598 42.391 30.1598 42.391C30.1598 42.391 30.358 42.2096 30.579 41.9717C30.8452 41.7227 31.151 41.3998 31.2245 41.0033C31.3492 40.2727 30.6358 40.1768 30.6358 40.1768L27.1753 41.2415L22.9447 41.0317L19.3372 42.8271L19.335 42.8267Z" fill="#927D49"/>
<path id="Dogecoin (DOGE)_99" fill-rule="evenodd" clip-rule="evenodd" d="M16.2257 32.8315C16.2257 32.8315 16.1137 32.973 16.0446 33.3071C15.9755 33.6413 16.005 33.6017 15.9483 33.8395C15.8915 34.0773 15.1945 36.4446 15.4559 37.2432C15.7172 38.0417 16.1697 38.3363 16.4527 38.9818C16.5094 39.1233 16.5647 39.2084 16.5942 39.3331C16.6905 39.752 16.6057 40.0749 16.7189 40.4942C16.7584 40.6357 16.8607 40.7999 17.0134 40.9698C17.3494 41.3207 17.8971 41.6549 18.1334 41.8927C18.4672 42.244 18.9432 42.9578 19.5491 43.0254C19.872 43.0649 20.3309 42.9291 20.7102 42.7028C21.0462 42.493 21.2537 42.1988 21.6062 42.0308C21.8552 41.9061 22.1214 41.8609 22.3592 41.8042C22.852 41.7079 23.2996 41.6922 23.5658 41.7475C23.9735 41.8326 24.9363 42.1271 25.4698 42.1271C25.8867 42.1204 26.3012 42.0634 26.7044 41.9573C27.5142 41.7195 28.4938 41.3114 29.1397 41.1303C29.519 41.0183 29.8247 40.9888 30.1365 40.9209C30.6688 40.7962 31.1161 40.6263 31.3711 40.3034C31.2012 40.1052 30.9918 39.7994 29.8587 39.8106C28.5733 39.839 27.0893 40.5524 26.3587 40.6659C25.6281 40.7794 25.3111 40.8753 24.4954 40.5808C23.6957 40.2832 23.6692 40.0865 23.6692 40.0865C23.6692 40.0865 22.8296 39.4992 22.4783 38.0022C22.127 36.5051 22.4783 35.4142 23.3903 34.3775C23.6281 34.1113 23.5714 33.8735 23.5714 33.8735C23.5714 33.8735 24.1717 33.0637 24.0074 32.3055C23.8264 31.5521 22.6653 31.7052 22.6653 31.7052L16.2261 32.8315H16.2257Z" fill="#6E6342"/>
<path id="Dogecoin (DOGE)_100" fill-rule="evenodd" clip-rule="evenodd" d="M17.1947 35.3516C17.1448 35.4454 17.1213 35.5511 17.1268 35.6573C17.138 35.81 17.1835 36.0083 17.642 36.4559C18.0328 36.8464 17.9477 37.2824 17.9477 37.2824C17.9477 37.2824 18.1445 37.322 18.6783 37.0723C19.0976 36.874 19.2383 37.2253 19.2383 37.2253C19.3604 37.1613 19.4926 37.1191 19.6292 37.1006C19.7529 37.0892 19.8727 37.051 19.9801 36.9886C19.9801 36.9886 20.4729 37.4926 20.9034 37.7304C21.2943 37.9403 21.5209 38.0817 21.7135 37.9403C21.8946 37.8156 21.8946 37.5606 21.883 37.4475C21.8381 37.343 21.7812 37.2442 21.7135 37.1529C21.5888 36.9718 21.3906 36.762 21.3775 36.5929C21.3492 36.2024 21.6721 35.7376 21.6038 35.6245C21.5354 35.5113 21.2812 35.483 20.6525 35.7096C20.0014 35.9246 17.1921 35.3527 17.1921 35.3527L17.1947 35.3516Z" fill="#39331F"/>
<path id="Dogecoin (DOGE)_101" fill-rule="evenodd" clip-rule="evenodd" d="M18.6778 37.8827C18.6778 37.8827 18.3553 37.577 18.4684 36.093C18.6053 36.091 18.7421 36.1042 18.8761 36.1325C18.8761 36.1325 19.0519 37.2824 18.6778 37.8827Z" fill="#292311"/>
<path id="Dogecoin (DOGE)_102" fill-rule="evenodd" clip-rule="evenodd" d="M16.3784 31.6986C16.4234 31.6652 16.4651 31.6277 16.503 31.5866C16.391 31.796 15.874 32.6341 16.2932 33.9539C16.7125 35.2676 17.7657 36.2472 19.0626 36.2928C20.3596 36.3383 21.0413 35.7037 21.8208 34.7524C22.1266 34.3731 22.4779 33.8971 22.7892 33.5746C23.2537 33.0702 23.6162 32.9287 23.6162 32.4419C23.6162 31.4451 22.5966 30.9974 21.0958 30.5502C19.595 30.1029 18.2413 30.1582 17.539 30.4643C16.854 30.7981 16.5594 31.1494 16.378 31.6989L16.3784 31.6986Z" fill="#252211"/>
<path id="Dogecoin (DOGE)_103" fill-rule="evenodd" clip-rule="evenodd" d="M21.1984 38.3299L21.3104 38.2732C21.3104 38.2732 21.3384 37.8252 21.5198 37.8371C21.7009 37.8655 21.786 38.1037 21.7688 38.1885C21.7576 38.2732 21.7125 38.4151 21.531 38.3979C21.2932 38.4035 21.1973 38.3299 21.1973 38.3299H21.1984Z" fill="#3F3824"/>
<path id="Dogecoin (DOGE)_104" fill-rule="evenodd" clip-rule="evenodd" d="M20.6943 36.4272C20.6943 36.4272 20.8063 36.3877 20.9433 36.5236C21.0553 36.5236 21.5437 36.4668 21.6967 36.5631C21.8498 36.6594 21.895 36.7442 21.895 36.7442C21.895 36.7442 21.323 36.8689 21.0113 36.7442C20.6943 36.6367 20.6943 36.4272 20.6943 36.4272H20.6943Z" fill="#2D2815"/>
<path id="Dogecoin (DOGE)_105" fill-rule="evenodd" clip-rule="evenodd" d="M23.2149 36.5128C23.2149 36.4844 22.9092 36.2749 22.5862 36.2066C22.5295 36.1954 22.5179 36.235 22.4742 36.235C22.4458 36.2238 22.4346 36.1387 22.4346 36.1387L22.251 36.2354C22.251 36.2354 22.2226 36.2749 22.3189 36.3474C22.4037 36.4153 22.5455 36.4721 22.5851 36.5852C22.6247 36.6983 22.6247 36.7379 22.6418 36.755C22.6531 36.7662 22.8513 36.755 22.9476 36.6983C23.0439 36.6416 23.2254 36.549 23.2138 36.5116L23.2149 36.5128Z" fill="#82764F"/>
<path id="Dogecoin (DOGE)_106" fill-rule="evenodd" clip-rule="evenodd" d="M20.3545 37.6611C20.3545 37.6611 20.4109 37.2706 20.7905 37.2535C21.1811 37.2251 21.255 37.6044 21.255 37.6044L21.0284 37.831C21.0284 37.8254 20.8585 37.5876 20.3564 37.6611H20.3545Z" fill="#2D2816"/>
<path id="Dogecoin (DOGE)_107" fill-rule="evenodd" clip-rule="evenodd" d="M22.8183 35.9794C22.8183 35.9794 22.6085 36.206 22.1444 36.274C22.1048 36.2172 22.0197 36.1041 22.1444 35.923C22.2691 35.742 22.4106 35.6852 22.5521 35.7416C22.6796 35.7623 22.7834 35.8551 22.8183 35.9794Z" fill="#574F35"/>
<path id="Dogecoin (DOGE)_108" fill-rule="evenodd" clip-rule="evenodd" d="M23.6731 36.2573C23.6847 36.2005 23.6451 36.1893 23.6731 36.1609C23.7011 36.1326 23.8545 36.0762 23.8829 36.1042C23.8941 36.1158 23.8829 36.1609 23.8829 36.2162C23.8829 36.2714 23.8829 36.3282 23.8545 36.3689C23.815 36.4256 23.7018 36.454 23.6451 36.4372C23.5883 36.4204 23.5771 36.3409 23.5771 36.3252C23.6051 36.314 23.6731 36.2856 23.6731 36.2573ZM24.6401 35.6457C24.6401 35.6173 24.7365 35.5605 24.7932 35.5605C24.878 35.5605 24.878 35.6285 24.8895 35.6457C24.9175 35.6569 24.9175 35.6341 24.9459 35.6852C24.9743 35.7364 25.0142 35.8267 24.9855 35.8835C24.9567 35.9402 24.844 35.9794 24.816 35.9682C24.7764 35.9399 24.6517 35.6852 24.6401 35.6457Z" fill="#82764F"/>
<path id="Dogecoin (DOGE)_109" fill-rule="evenodd" clip-rule="evenodd" d="M22.6934 36.3871C22.6934 36.3871 22.8181 36.4151 22.9879 36.557C22.9312 36.5965 22.8461 36.6417 22.8461 36.6417C22.8461 36.6417 22.8349 36.5114 22.6934 36.3867V36.3871Z" fill="#6E6342"/>
<path id="Dogecoin (DOGE)_110" fill-rule="evenodd" clip-rule="evenodd" d="M22.4156 35.1413C22.3872 35.1133 22.5004 35.0454 22.5683 35.0566C22.6362 35.0678 22.6646 35.1133 22.7382 35.1245C22.8117 35.1357 22.8233 35.0961 22.8502 35.0678C22.877 35.0394 22.9749 35.0566 22.9917 35.0678C23.0021 35.0802 23.0116 35.0934 23.02 35.1073C23.0224 35.0638 23.0429 35.0232 23.0764 34.9953C23.1204 34.963 23.1768 34.9525 23.2295 34.967C23.2407 35.0065 23.2974 35.148 23.2862 35.1764C23.275 35.2048 23.1052 35.2447 23.0764 35.216C23.1048 35.2843 23.2295 35.4258 23.2463 35.4538C23.2631 35.4818 23.1216 35.5501 23.0652 35.5389C22.9861 35.5333 22.4989 35.2499 22.4141 35.1424L22.4156 35.1413ZM23.1573 34.2013C23.1468 34.1728 23.1267 34.1487 23.1005 34.1333C23.061 34.1221 22.9307 34.1333 22.9307 34.2013C22.9307 34.2692 23.0427 34.6493 23.1685 34.8472C23.3103 35.0454 23.4063 35.2093 23.5026 35.2548C23.5654 35.2834 23.6395 35.2586 23.6725 35.1981C23.6837 35.1697 23.7121 34.9603 23.7009 34.4675C23.6897 33.9747 23.6725 33.499 23.6441 33.4707C23.6157 33.4423 23.5026 33.4427 23.463 33.499C23.4235 33.5554 23.1685 34.1165 23.1569 34.2013H23.1573Z" fill="#585136"/>
<path id="Dogecoin (DOGE)_111" fill-rule="evenodd" clip-rule="evenodd" d="M22.6537 37.1015C22.6537 37.1015 22.4554 36.9768 22.2628 37.062C22.0817 37.1471 22.0929 37.4812 22.0929 37.4812C22.1756 37.5136 22.269 37.503 22.3423 37.4528C22.467 37.3681 22.6253 37.2266 22.6537 37.1019V37.1015Z" fill="#574F35"/>
<path id="Dogecoin (DOGE)_112" fill-rule="evenodd" clip-rule="evenodd" d="M23.028 37.5495C23.0168 37.4375 22.916 37.4375 22.916 37.3796C22.9303 37.3227 22.9816 37.2829 23.0403 37.2833C23.0971 37.2833 23.1523 37.3512 23.2218 37.3953C23.2897 37.4349 23.3916 37.5073 23.4028 37.5935C23.414 37.6798 23.2908 37.9161 23.1538 37.9161C23.0168 37.9161 23.0575 37.6611 23.0291 37.548L23.028 37.5495ZM24.1213 37.3963C24.1213 37.3963 23.8947 37.4643 23.9115 37.3963C23.9283 37.3284 23.9799 37.3116 24.0534 37.3116C24.0908 37.2725 24.141 37.2482 24.1949 37.2433C24.2257 37.2417 24.256 37.2519 24.2796 37.2716C24.2796 37.2716 24.4327 37.2037 24.4779 37.2433C24.5231 37.2828 24.4895 37.2828 24.5175 37.3284C24.5531 37.3789 24.5765 37.4371 24.5858 37.4982C24.5858 37.5434 24.4159 37.6397 24.2796 37.6229C24.1213 37.589 24.1493 37.4247 24.1213 37.3963ZM25.4403 37.1413C25.4403 37.1413 25.5083 37.1809 25.4519 37.2264C25.4123 37.266 25.2141 37.3384 25.0438 37.3511C24.874 37.3511 24.7213 37.3791 24.7213 37.3228C24.7213 37.2664 24.8628 37.1529 24.9475 37.1245C24.9819 37.0814 25.0342 37.0564 25.0894 37.0566C25.1573 37.0566 25.4231 37.0282 25.4971 37.017C25.565 37.0054 25.6218 37.045 25.5818 37.1017C25.565 37.1413 25.4403 37.1413 25.4403 37.1413ZM25.8311 35.3927C25.8311 35.3927 25.746 35.5738 25.65 35.5738C25.5537 35.5626 25.5537 35.5342 25.5537 35.5058C25.5537 35.4663 25.65 35.3644 25.6385 35.336C25.6105 35.336 25.5421 35.336 25.5537 35.268C25.5537 35.2113 25.65 35.1433 25.7348 35.156C25.7988 35.1034 25.8785 35.0736 25.9614 35.0713C26.0577 35.0713 26.1425 35.0993 26.1425 35.156C26.1425 35.2128 26.0305 35.3371 25.9894 35.3658C25.9442 35.411 25.8875 35.4405 25.8311 35.3938V35.3927ZM24.5399 38.7394C24.5399 38.7394 24.4279 38.751 24.4279 38.8074C24.4279 38.8358 24.4559 38.8358 24.4958 38.819C24.5189 38.8177 24.5416 38.8138 24.5638 38.8074C24.575 38.819 24.575 38.8753 24.6601 38.8753C24.73 38.8659 24.7974 38.8428 24.8584 38.8074C24.9263 38.7794 24.983 38.7506 24.983 38.6954C24.9547 38.5991 24.8979 38.5535 24.8132 38.5535C24.7697 38.5508 24.7264 38.5606 24.6885 38.5819C24.6885 38.5819 24.6601 38.5251 24.5638 38.5819C24.4675 38.6386 24.4787 38.6386 24.507 38.667C24.5578 38.7122 24.541 38.7417 24.541 38.7417L24.5399 38.7394ZM23.8999 39.3289C23.8999 39.3005 24.0414 39.2437 24.081 39.2609C24.1205 39.2721 24.2337 39.4871 24.2337 39.5099C24.2337 39.5383 24.0922 39.6062 24.0354 39.6062C23.9787 39.6062 23.8827 39.5099 23.8827 39.4942C23.8827 39.483 23.9507 39.4662 23.9507 39.4547C23.9675 39.4267 23.8999 39.3583 23.8999 39.33V39.3289ZM23.4519 38.502C23.4802 38.4908 23.4802 38.4624 23.5198 38.4341C23.5449 38.4174 23.5764 38.4132 23.6049 38.4229C23.6252 38.3868 23.6605 38.3617 23.7012 38.3545C23.7692 38.3433 23.8259 38.3545 23.8132 38.3829C23.8132 38.468 23.87 38.5244 23.87 38.5924C23.87 38.6603 23.8304 38.7454 23.6889 38.8022C23.5474 38.8417 23.3548 38.8417 23.3264 38.8305C23.298 38.8193 23.2697 38.7059 23.298 38.6491C23.3264 38.5924 23.4056 38.5304 23.4511 38.502H23.4519Z" fill="#82764F"/>
<path id="Dogecoin (DOGE)_113" fill-rule="evenodd" clip-rule="evenodd" d="M23.6321 38.5391C23.6321 38.5391 23.5358 38.5958 23.5358 38.6242C23.5273 38.6516 23.5235 38.6802 23.5246 38.7089C23.5246 38.7257 23.6493 38.6977 23.6661 38.6806C23.6717 38.6694 23.6321 38.5686 23.6321 38.5391Z" fill="#6E6342"/>
<path id="Dogecoin (DOGE)_114" fill-rule="evenodd" clip-rule="evenodd" d="M22.79 38.2738C22.8464 38.2853 22.9427 38.2738 23.0163 38.3021C23.073 38.3305 23.1126 38.3872 23.0558 38.4552C22.9991 38.5231 22.9438 38.6251 22.818 38.6079C22.6765 38.5967 22.5406 38.5231 22.5406 38.4664C22.5358 38.3939 22.5603 38.3225 22.6086 38.2682C22.6653 38.223 22.6933 38.2514 22.7896 38.2738H22.79Z" fill="#585136"/>
<path id="Dogecoin (DOGE)_115" fill-rule="evenodd" clip-rule="evenodd" d="M22.722 38.3301C22.722 38.3301 22.5409 38.4716 22.4954 38.5399C22.4387 38.6078 22.1613 38.9588 22.0765 39.0323C22.1047 38.9827 22.1368 38.9353 22.1725 38.8908C22.0605 38.9624 21.9765 39.0704 21.9347 39.1966C21.8667 39.4064 22.3143 39.5195 22.6085 39.6046C22.9027 39.6898 23.0166 39.7166 23.0166 39.7166C22.9083 39.5539 22.8153 39.3814 22.7388 39.2014C22.6268 38.9353 22.5689 38.9069 22.6425 38.7822C22.6992 38.6575 22.7844 38.5727 22.7844 38.4764C22.7504 38.3868 22.722 38.3301 22.722 38.3301Z" fill="#574F35"/>
<path id="Dogecoin (DOGE)_116" fill-rule="evenodd" clip-rule="evenodd" d="M16.2654 38.7779C16.3066 38.7855 16.3489 38.7855 16.3901 38.7779C16.4748 38.7663 17.3585 38.4419 18.2818 38.5002C18.9729 38.5419 19.658 38.6545 20.3261 38.8362C21.4872 39.1419 22.9313 39.7478 23.8657 40.0935C24.1147 40.1895 24.3585 40.3597 24.5377 40.4273C25.2515 40.7051 25.2795 40.7051 25.6988 40.7786C26.1916 40.8466 26.6956 40.6823 27.2224 40.5692C27.8678 40.4273 28.9722 40.3594 29.9406 40.2179C30.2537 40.1745 30.5626 40.1044 30.8638 40.0084C30.8638 40.0084 30.0937 40.7786 28.2472 41.056C27.5008 41.1693 26.7423 41.1789 25.9933 41.0844C25.4042 41.0276 25.0137 40.9425 24.7192 40.8578C24.385 40.7614 23.6996 40.5064 22.8558 40.2978C22.2667 40.1447 21.6097 40.0316 20.8566 39.8901C18.9989 39.55 16.9829 39.1595 16.2646 38.7802L16.2654 38.7779Z" fill="#252211"/>
<path id="Dogecoin (DOGE)_117" fill-rule="evenodd" clip-rule="evenodd" d="M14.1817 35.2773C13.7337 35.6567 13.2584 36.0192 12.7944 36.3701L11.3955 37.4449C10.9199 37.7959 10.4554 38.1584 9.97944 38.5097C9.50344 38.861 9.02818 39.1947 8.52344 39.5177C8.97144 39.1384 9.44669 38.7871 9.92232 38.4417C10.3979 38.0964 10.8911 37.7578 11.3499 37.4076L12.7488 36.3313C13.2301 35.9803 13.6945 35.6178 14.1817 35.2781V35.2773ZM11.7071 39.2416C11.7071 39.2416 12.2111 38.8223 12.8398 38.2336C13.6212 37.5033 14.5784 36.5685 14.8841 36.399L11.7067 39.2419L11.7071 39.2416Z" fill="#CFB66C"/>
<path id="Dogecoin (DOGE)_118" fill-rule="evenodd" clip-rule="evenodd" d="M11.7061 39.2422C11.9554 38.9932 12.2216 38.7498 12.4878 38.5116L12.8955 38.1607C13.0202 38.0487 13.1621 37.9228 13.2864 37.7981C13.5354 37.5491 13.7792 37.2826 14.0282 37.028C14.1516 36.8999 14.2821 36.7789 14.4191 36.6655C14.4875 36.6049 14.5636 36.5534 14.6453 36.5124C14.7136 36.4728 14.7872 36.4004 14.8831 36.3877C14.8267 36.4728 14.7588 36.5124 14.7021 36.5859C14.6341 36.6427 14.5774 36.7106 14.521 36.767C14.3963 36.8917 14.2548 37.0048 14.1301 37.1183C13.8639 37.3449 13.5865 37.5663 13.3203 37.8034C13.0542 38.0404 12.8051 38.2962 12.5386 38.534C12.25 38.7778 11.9838 39.0156 11.7061 39.2433V39.2422ZM15.0928 36.9767C15.0928 36.9767 13.2467 38.7837 12.867 39.0778L15.0928 36.9767Z" fill="#CFB66C"/>
<path id="Dogecoin (DOGE)_119" fill-rule="evenodd" clip-rule="evenodd" d="M15.094 36.9756C14.9279 37.1678 14.7498 37.3494 14.5609 37.5192L14.0009 38.0515C13.8198 38.2326 13.6496 38.414 13.4573 38.5951C13.259 38.765 13.078 38.9311 12.8682 39.0879L13.4117 38.5555C13.5932 38.3745 13.7914 38.2218 13.9841 38.0403L14.5276 37.508C14.7143 37.3213 14.8957 37.1399 15.094 36.9756ZM15.1789 37.9554C15.0087 38.4303 14.8082 38.8939 14.5786 39.3431C14.103 40.2947 13.3895 41.4838 13.0778 42.0901L15.1789 37.9554Z" fill="#CFB66C"/>
<path id="Dogecoin (DOGE)_120" fill-rule="evenodd" clip-rule="evenodd" d="M15.1776 37.957C15.1776 38.1665 15.1208 38.3479 15.0529 38.529C14.9866 38.7102 14.9111 38.8879 14.8266 39.0614C14.7415 39.2312 14.6452 39.4127 14.5489 39.5769C14.4525 39.7412 14.3394 39.9107 14.2543 40.0809L13.6824 41.0889C13.4841 41.4249 13.2915 41.7628 13.082 42.0857C13.2235 41.7232 13.4162 41.3835 13.5976 41.0494C13.7958 40.7134 13.9769 40.3774 14.1576 40.0298C14.2458 39.8566 14.3252 39.679 14.3954 39.4978C14.4802 39.3163 14.5649 39.1465 14.6332 38.9822C14.718 38.8011 14.7859 38.6309 14.871 38.467C14.967 38.2912 15.0465 38.1213 15.1768 37.957L15.1776 37.957Z" fill="#CFB66C"/>
<path id="Dogecoin (DOGE)_121" fill-rule="evenodd" clip-rule="evenodd" d="M17.1945 42.6006C17.1945 42.6006 16.6345 43.3424 16.6905 44.2825C16.8432 43.79 17.0358 43.0366 17.1945 42.6006ZM17.7269 43.3438C17.7269 43.3438 17.5287 45.3598 17.3644 46.351C17.5966 45.2053 17.6418 45.3016 17.7269 43.3438ZM21.436 46.4703C21.436 46.4703 20.5979 48.9343 20.5807 49.619C20.7622 48.9149 21.1131 47.4764 21.436 46.4684V46.4703Z" fill="#DEC270"/>
<path id="Dogecoin (DOGE)_122" fill-rule="evenodd" clip-rule="evenodd" d="M23.3955 42.4473C23.3955 42.4473 24.7548 44.6899 25.7744 46.604C25.4985 45.6408 24.8638 43.8741 23.3955 42.4473Z" fill="#CBAF59"/>
<path id="Dogecoin (DOGE)_123" fill-rule="evenodd" clip-rule="evenodd" d="M27.0488 45.75C27.7952 47.0692 28.4682 48.4286 29.0648 49.8219C28.9517 48.8591 28.6456 47.2112 27.0488 45.75Z" fill="#E3C677"/>
<path id="Dogecoin (DOGE)_124" fill-rule="evenodd" clip-rule="evenodd" d="M37.7865 49.0563C38.0127 48.9148 38.4604 48.1443 38.8512 47.952C39.2417 47.7538 39.5363 47.7142 39.8876 47.3233C40.2385 46.9153 40.3356 46.6662 41.1051 46.3437C42.1814 45.8789 41.4411 45.2786 41.4411 45.2786C41.5596 45.1621 41.6864 45.0543 41.8204 44.956C42.0981 44.7466 42.4207 44.4916 42.3927 44.0439C42.3531 43.2909 42.2116 42.1978 41.5941 41.5635C42.1944 41.4388 43.3439 41.3541 44.0581 41.173C44.8847 40.9632 45.2644 40.6686 45.2644 40.6686C45.2644 40.6686 44.7887 39.8589 45.5589 39.0435C46.3291 38.2282 46.9578 37.741 47.4222 36.8289C46.8899 36.761 46.0782 36.478 44.007 37.265C44.1188 37.3176 44.2267 37.3781 44.3299 37.446C44.3299 37.446 43.0557 37.7973 42.5913 38.1882C41.7812 38.8733 41.6792 39.434 40.8015 39.8533C39.9238 40.2725 39.0401 40.159 38.3099 40.4988C37.5797 40.8385 37.4718 41.1275 37.2052 41.2522C37.262 41.3201 37.194 41.4332 37.3015 41.5295C37.2336 41.6259 36.8371 42.2714 36.435 42.2714C36.4746 42.4244 36.8143 42.5375 36.8143 42.5375C36.8143 42.5375 36.5653 42.719 35.931 42.7642C36.2536 43.1002 36.5597 43.4664 37.4035 43.9988C37.3355 44.1403 37.0521 44.3501 37.1656 44.6163C37.2903 44.8825 37.6136 45.245 38.9043 45.5395C38.2472 45.5675 37.4774 45.7206 36.4403 45.5791C35.4039 45.4544 35.234 45.3809 34.5941 45.5395C34.6621 45.6075 34.8431 45.6075 35.0018 45.7885C34.8319 45.7997 33.7672 45.6638 33.4047 46.1398C33.0254 46.6323 32.8611 47.4424 32.8895 47.986C32.6912 48.0823 32.4986 48.2522 32.5949 48.6035C32.6912 48.9548 33.1952 49.0679 33.5182 49.2885C33.8407 49.5263 33.8691 49.6111 34.1752 49.5547C34.4978 49.4868 34.9734 49.1642 35.2512 49.1642C35.5289 49.1642 35.7268 49.3737 35.7268 49.3737C35.7268 49.3737 36.4802 49.0111 36.5537 49.0791C36.6217 49.147 36.5649 49.5831 36.6385 49.651C36.7132 49.7022 37.5617 49.1982 37.7884 49.0563H37.7865Z" fill="#ECD592"/>
<path id="Dogecoin (DOGE)_125" fill-rule="evenodd" clip-rule="evenodd" d="M54.2507 26.3918C50.7111 17.2511 41.9609 15.5576 41.9609 15.5576H16.9965L17.0928 24.8682H22.0645V45.6587H16.9961V54.9525H41.2699C47.12 54.9525 51.8094 49.0736 51.8094 49.0736C59.319 38.4153 54.2503 26.3918 54.2503 26.3918H54.2507ZM41.4003 42.8098C41.4003 42.8098 39.4963 45.5568 37.4246 45.5568H33.2806L33.1825 24.891H38.5006C38.5006 24.891 40.9646 25.4062 42.686 30.2823C42.686 30.2823 44.9682 37.2636 41.4003 42.8098Z" fill="white" fill-opacity="0.8"/>
</g>
</svg>
