<svg width="70" height="70" viewBox="0 0 70 70" fill="none" xmlns="http://www.w3.org/2000/svg">
<g id="Tether (USDT)">
<path id="Tether (USDT)_2" d="M68.945 43.4667C64.2705 62.2169 45.2796 73.6279 26.5272 68.9521C7.78264 64.2776 -3.62836 45.2856 1.0482 26.5369C5.72065 7.78467 24.7115 -3.62718 43.4581 1.04732C62.2092 5.72182 73.6195 24.716 68.9445 43.467L68.9448 43.4667H68.945Z" fill="#50AF95"/>
<path id="Tether (USDT)_3" fill-rule="evenodd" clip-rule="evenodd" d="M39.429 38.9673C39.1815 38.9859 37.9029 39.0622 35.0506 39.0622C32.7821 39.0622 31.1714 38.9941 30.6063 38.9673C21.8392 38.5816 15.2954 37.0555 15.2954 35.2283C15.2954 33.401 21.8392 31.877 30.6063 31.4851V37.4474C31.1796 37.4886 32.8212 37.5855 35.0898 37.5855C37.8121 37.5855 39.1753 37.4721 39.4207 37.4494V31.4892C48.1692 31.879 54.6986 33.4052 54.6986 35.2283C54.6986 37.0514 48.1713 38.5775 39.4207 38.9652L39.429 38.9673ZM39.429 30.8726V25.5373H51.6381V17.4014H18.3972V25.5373H30.6042V30.8706C20.6823 31.3263 13.2207 33.2918 13.2207 35.647C13.2207 38.0022 20.6823 39.9655 30.6042 40.4233V57.5202H39.427V40.4172C49.3262 39.9614 56.7754 37.998 56.7754 35.6449C56.7754 33.2918 49.3324 31.3284 39.427 30.8706L39.429 30.8726Z" fill="white"/>
</g>
</svg>
