<svg width="71" height="71" viewBox="0 0 71 71" fill="none" xmlns="http://www.w3.org/2000/svg">
<g id="TRON (TRX)">
<path id="TRON (TRX)_2" fill-rule="evenodd" clip-rule="evenodd" d="M35.5 71C15.975 71 0 55.0253 0 35.3232C0.1775 15.7986 15.975 -0.176031 35.6775 0.00146498C55.2025 0.178961 71 15.9761 71 35.8557C70.8225 55.2028 55.025 71 35.5 71Z" fill="#FC070C"/>
<g id="TRON (TRX)_3">
<path id="TRON (TRX)_4" fill-rule="evenodd" clip-rule="evenodd" d="M60.7938 27.9893C59.825 27.0948 58.7017 26.0041 57.5312 24.8677C55.8871 23.2713 54.1498 21.5846 52.6166 20.2237L52.4613 20.115C52.2029 19.9075 51.9115 19.7448 51.5993 19.6336L50.4159 19.4128L50.4158 19.4127C42.2506 17.8892 15.7852 12.951 15.2408 13.0173C15.0798 13.0398 14.9259 13.0982 14.7904 13.1881L14.6428 13.3046C14.4612 13.4891 14.3232 13.712 14.239 13.9569L14.2002 14.0579V14.6092V14.6946C15.997 19.6979 20.6646 30.8715 24.9744 41.1884L24.9744 41.1885L24.9744 41.1886L24.9745 41.1887L24.9746 41.1889C28.6182 49.9112 32.006 58.0211 33.1871 61.2727L33.1875 61.274C33.343 61.7559 33.638 62.6705 34.1889 62.7171H34.3131C34.6082 62.7171 35.8662 61.0553 35.8662 61.0553C35.8662 61.0553 58.3554 33.7825 60.6307 30.8781C60.9252 30.5204 61.1853 30.1356 61.4073 29.7288C61.5226 29.0815 61.2897 28.4211 60.7938 27.9893ZM41.6357 31.1653L51.2339 23.2056L56.864 28.393L41.6357 31.1653ZM21.3832 17.1023L37.9084 30.6455L48.1202 22.0334L21.3832 17.1023ZM39.3991 34.1938L56.3126 31.4681L36.9763 54.7649L39.3991 34.1938ZM36.5262 33.2078L19.139 18.4532L34.0102 54.7807L36.5262 33.2078Z" fill="white"/>
</g>
</g>
</svg>
