<svg width="48" height="48" viewBox="0 0 48 48" fill="none" xmlns="http://www.w3.org/2000/svg">
<g id="visa">
<path id="bg" d="M2.9502 23.5992C2.9502 12.1945 12.1955 2.94922 23.6002 2.94922C35.0049 2.94922 44.2502 12.1945 44.2502 23.5992C44.2502 35.0039 35.0049 44.2492 23.6002 44.2492C12.1955 44.2492 2.9502 35.0039 2.9502 23.5992Z" fill="#172A73"/>
<path id="visa_2" d="M8.22266 14.3721V15.2508L11.4351 15.7566C13.7113 16.1149 15.5459 17.8259 16.0762 20.0849L19.8368 36.1031C19.9299 36.4995 20.2812 36.7795 20.6854 36.7795H25.9626C26.3107 36.7795 26.6254 36.5709 26.7633 36.2488L35.8663 14.9855C35.9905 14.6954 35.7794 14.3721 35.4659 14.3721H30.6039C30.2528 14.3721 29.9359 14.5842 29.7999 14.9103L23.7019 29.53L21.2693 16.5202C21.0364 15.2744 19.9564 14.3721 18.6983 14.3721H8.22266Z" fill="white"/>
</g>
</svg>
