<svg width="70" height="70" viewBox="0 0 70 70" fill="none" xmlns="http://www.w3.org/2000/svg">
<g id="XRP (XRP)">
<path id="XRP (XRP)_2" d="M68.945 43.4667C64.2705 62.2169 45.2796 73.6279 26.5272 68.9521C7.78264 64.2776 -3.62836 45.2856 1.0482 26.5369C5.72065 7.78467 24.7115 -3.62718 43.4581 1.04732C62.2092 5.72182 73.6195 24.716 68.9445 43.467L68.9448 43.4667H68.945Z" fill="#23292F"/>
<path id="XRP (XRP)_3" d="M52.2097 14.583H59.2726L44.5741 29.1365C39.2511 34.4041 30.6209 34.4041 25.2941 29.1365L10.5898 14.583H17.6585L28.8256 25.6384C32.2111 28.9751 37.6485 28.9751 41.034 25.6384L52.2097 14.583Z" fill="white"/>
<path id="XRP (XRP)_4" d="M17.5677 55.0519H10.5L25.294 40.4087C30.617 35.1411 39.2471 35.1411 44.5739 40.4087L59.3679 55.0519H52.305L41.0425 43.9068C37.657 40.5701 32.2196 40.5701 28.8341 43.9068L17.5677 55.0519Z" fill="white"/>
</g>
</svg>
