<svg width="103" height="26" fill="none" xmlns="http://www.w3.org/2000/svg"><path d="M98.461 4.326c0-.66.503-1.163 1.14-1.163.626 0 1.13.503 1.13 1.163 0 .67-.504 1.174-1.13 1.174-.637 0-1.14-.503-1.14-1.174zm1.14 1.397c.761 0 1.409-.592 1.409-1.397a1.4 1.4 0 00-1.409-1.398c-.771 0-1.42.604-1.42 1.398 0 .805.649 1.397 1.42 1.397zM99.3 4.438h.28l.425.693h.279l-.458-.705c.235-.033.414-.156.414-.447 0-.313-.19-.447-.57-.447h-.615v1.599h.245v-.693zm0-.213v-.492h.336c.168 0 .346.034.346.235 0 .246-.178.257-.38.257H99.3zM58.717 6.171c6.44 0 7.378-.202 7.378 6.708v.022c0 6.921-.95 6.653-7.39 6.653H51.35l.01-13.384h7.357zm2.303 9.034v-4.663h-4.662v4.663h4.662zm9.726 4.349H65.48l6.25-13.372h5.165l6.25 13.372h-5.266l-.738-1.543h-5.657l-.738 1.543zm3.567-8.598l-1.476 3.186h2.951l-1.475-3.186zM38.86 6.171c-3.42.056-3.398 2.292-3.398 4.192 0 1.924-.09 4.26 3.398 4.305m0 0h6.82v.917h-9.693v3.969h10.654c3.5-.056 3.399-2.393 3.399-4.305 0-1.923.09-4.248-3.399-4.304h-7.11v-.906h9.492V6.182L38.839 6.17M6.756 13.28l6.268 6.273h4.528V6.182H12.78l-.012 6.261-6.27-6.261H1.982v13.372h4.775v-6.272zm75.763-.424c0 6.954.961 6.764 7.412 6.764 6.45 0 7.39.19 7.39-6.764v-.011c0-6.966-.94-6.765-7.39-6.765-6.451 0-7.412-.201-7.412 6.764v.012zm5.075 2.325V10.52h4.662v4.662h-4.662zm9.179 8.8v-4.54h-4.528v4.54h4.528zM23.97 18.01h5.668l.738 1.543h5.254L29.38 6.182h-5.164l-6.239 13.372h5.266l.727-1.543zm4.304-3.869h-2.94l1.475-3.186 1.465 3.186z" fill="#fff"/></svg>