<svg width="97" height="37" fill="none" xmlns="http://www.w3.org/2000/svg"><g clip-path="url(#clip0_12_1402)"><mask id="a" style="mask-type:luminance" maskUnits="userSpaceOnUse" x="1" y="1" width="18" height="28"><path d="M18.098 25.028L1.222 28.944V1.836h16.876v23.192z" fill="#fff"/></mask><g mask="url(#a)" fill="#02428E"><path d="M18.098 25.028L1.222 28.944V1.836h16.876v23.192z"/><path d="M8.186 17.348c-10.51 6.066-23.941 2.42-29.98-8.134-6.04-10.554-2.41-24.044 8.099-30.11 10.51-6.063 23.941-2.42 29.98 8.133 6.04 10.557 2.412 24.044-8.099 30.11z"/></g><mask id="b" style="mask-type:luminance" maskUnits="userSpaceOnUse" x="-11" y="-6" width="41" height="43"><path d="M13.909-5.486l15.85 27.7L5.41 36.264l-15.85-27.7" fill="#fff"/></mask><g mask="url(#b)"><mask id="c" style="mask-type:luminance" maskUnits="userSpaceOnUse" x="1" y="1" width="18" height="28"><path d="M18.098 25.028L1.222 28.944V1.836h16.876v23.192z" fill="#fff"/></mask><g mask="url(#c)" fill-rule="evenodd" clip-rule="evenodd"><path d="M-4.49-4.813a3.424 3.424 0 014.685 1.27 3.454 3.454 0 01-1.266 4.705 3.424 3.424 0 01-4.684-1.27A3.454 3.454 0 01-4.49-4.814l-.03-.037A3.542 3.542 0 00-5.817-.028a3.51 3.51 0 004.802 1.303A3.541 3.541 0 00.282-3.547 3.51 3.51 0 00-4.52-4.85" fill="#008CD1"/><path d="M-4.532-4.836A3.51 3.51 0 01.269-3.534 3.541 3.541 0 01-1.028 1.29 3.51 3.51 0 01-5.83-.014a3.541 3.541 0 011.298-4.822l-.03-.089a3.628 3.628 0 00-1.33 4.94 3.597 3.597 0 004.92 1.334A3.627 3.627 0 00.355-3.59a3.595 3.595 0 00-4.918-1.334" fill="#008CD1"/><path d="M-4.524-4.911A3.595 3.595 0 01.395-3.577a3.627 3.627 0 01-1.33 4.94A3.596 3.596 0 01-5.852.03a3.627 3.627 0 011.329-4.94L-4.605-5A3.715 3.715 0 00-5.965.058 3.682 3.682 0 00-.93 1.424 3.713 3.713 0 00.43-3.633 3.68 3.68 0 00-4.604-5" fill="#008CD1"/><path d="M-4.567-4.986A3.681 3.681 0 01.47-3.619 3.715 3.715 0 01-.89 1.438 3.682 3.682 0 01-5.927.072a3.714 3.714 0 011.36-5.058l-.081-.088A3.802 3.802 0 00-6.04.1 3.768 3.768 0 00-.887 1.499 3.8 3.8 0 00.505-3.676a3.767 3.767 0 00-5.153-1.398" fill="#008CD1"/><path d="M-4.66-5.06A3.767 3.767 0 01.491-3.663 3.8 3.8 0 01-.9 1.513 3.767 3.767 0 01-6.053.115a3.8 3.8 0 011.392-5.176l-.03-.088A3.888 3.888 0 00-6.115.144a3.854 3.854 0 005.27 1.43A3.887 3.887 0 00.58-3.72a3.852 3.852 0 00-5.27-1.43" fill="#008CD1"/><path d="M-4.704-5.187a3.853 3.853 0 015.27 1.43A3.888 3.888 0 01-.856 1.536a3.854 3.854 0 01-5.27-1.43 3.887 3.887 0 011.423-5.293l-.03-.037A3.974 3.974 0 00-6.188.186 3.939 3.939 0 00-.802 1.649a3.973 3.973 0 001.456-5.41 3.938 3.938 0 00-5.387-1.462" fill="#008CD1"/><path d="M-4.746-5.261A3.938 3.938 0 01.64-3.8 3.974 3.974 0 01-.814 1.61 3.939 3.939 0 01-6.202.15a3.974 3.974 0 011.456-5.41l-.03-.037A4.06 4.06 0 00-6.263.23 4.025 4.025 0 00-.76 1.723 4.06 4.06 0 00.728-3.805a4.023 4.023 0 00-5.504-1.493" fill="#008CD1"/><path d="M-4.789-5.285A4.025 4.025 0 01.715-3.79 4.061 4.061 0 01-.772 1.737 4.025 4.025 0 01-6.276.243 4.06 4.06 0 01-4.79-5.285l-.03-.088A4.146 4.146 0 00-6.337.273 4.108 4.108 0 00-.716 1.797 4.145 4.145 0 00.803-3.848 4.11 4.11 0 00-4.82-5.373" fill="#008CD1"/><path d="M-4.78-5.36A4.11 4.11 0 01.84-3.833 4.147 4.147 0 01-.678 1.812 4.11 4.11 0 01-6.299.286 4.147 4.147 0 01-4.78-5.359l-.082-.089A4.233 4.233 0 00-6.412.316a4.194 4.194 0 005.74 1.556 4.231 4.231 0 001.55-5.763 4.195 4.195 0 00-5.739-1.557" fill="#008CD1"/><path d="M-4.823-5.434A4.196 4.196 0 01.915-3.877a4.233 4.233 0 01-1.55 5.763A4.196 4.196 0 01-6.374.33a4.233 4.233 0 011.55-5.763l-.08-.088A4.319 4.319 0 00-6.487.357 4.28 4.28 0 00-.63 1.946a4.318 4.318 0 001.582-5.88 4.28 4.28 0 00-5.856-1.588" fill="#008CD1"/><path d="M-4.917-5.509A4.282 4.282 0 01.939-3.92 4.32 4.32 0 01-.643 1.96 4.282 4.282 0 01-6.5.373a4.32 4.32 0 011.582-5.88l-.03-.09a4.406 4.406 0 00-1.613 6A4.366 4.366 0 00-.588 2.02a4.404 4.404 0 001.614-5.998 4.366 4.366 0 00-5.973-1.62" fill="#008AD0"/><path d="M-4.96-5.635a4.367 4.367 0 015.973 1.62 4.406 4.406 0 01-1.614 6A4.367 4.367 0 01-6.574.363 4.406 4.406 0 01-4.96-5.635l-.03-.037A4.492 4.492 0 00-6.634.444 4.451 4.451 0 00-.545 2.096 4.49 4.49 0 001.1-4.02a4.452 4.452 0 00-6.09-1.652" fill="#008AD0"/><path d="M-5.003-5.71a4.453 4.453 0 016.09 1.653A4.493 4.493 0 01-.558 2.059 4.453 4.453 0 01-6.648.407 4.493 4.493 0 01-5.003-5.71l-.03-.037A4.577 4.577 0 00-6.709.486 4.536 4.536 0 00-.502 2.171a4.577 4.577 0 001.677-6.233 4.538 4.538 0 00-6.208-1.685" fill="#008AD0"/><path d="M-5.046-5.733a4.538 4.538 0 016.208 1.684A4.579 4.579 0 01-.515 2.185 4.539 4.539 0 01-6.723.501a4.579 4.579 0 011.677-6.234l-.03-.088A4.664 4.664 0 00-6.783.529 4.622 4.622 0 00-.46 2.245a4.663 4.663 0 001.709-6.35 4.623 4.623 0 00-6.325-1.716" fill="#008AD0"/><path d="M-5.088-5.808a4.625 4.625 0 016.324 1.716A4.666 4.666 0 01-.472 2.26 4.625 4.625 0 01-6.797.544a4.666 4.666 0 011.709-6.352l-.03-.088A4.75 4.75 0 00-6.857.572 4.708 4.708 0 00-.417 2.32a4.749 4.749 0 001.74-6.468 4.708 4.708 0 00-6.44-1.748" fill="#008ACF"/><path d="M-5.08-5.882a4.71 4.71 0 016.442 1.747 4.752 4.752 0 01-1.74 6.47A4.71 4.71 0 01-6.82.587a4.752 4.752 0 011.74-6.47l-.08-.088A4.836 4.836 0 00-6.932.615a4.794 4.794 0 006.558 1.78 4.836 4.836 0 001.772-6.586 4.794 4.794 0 00-6.558-1.78" fill="#008ACF"/><path d="M-5.174-5.957a4.795 4.795 0 016.56 1.78A4.838 4.838 0 01-.388 2.408 4.796 4.796 0 01-6.946.63a4.838 4.838 0 011.772-6.586l-.029-.088A4.923 4.923 0 00-7.006.658 4.879 4.879 0 00-.331 2.47c2.34-1.35 3.148-4.353 1.803-6.703a4.88 4.88 0 00-6.675-1.811" fill="#008ACF"/><path d="M-5.217-6.032A4.882 4.882 0 011.46-4.22c1.345 2.35.537 5.354-1.803 6.705A4.882 4.882 0 01-7.02.673c-1.344-2.35-.536-5.354 1.803-6.705l-.029-.088A5.008 5.008 0 00-7.08.7 4.965 4.965 0 00-.288 2.544c2.381-1.374 3.203-4.43 1.835-6.821A4.965 4.965 0 00-5.246-6.12" fill="#008ACF"/><path d="M-5.26-6.158a4.967 4.967 0 016.794 1.843c1.368 2.392.545 5.447-1.835 6.821A4.966 4.966 0 01-7.095.664a5.011 5.011 0 011.836-6.822l-.03-.037C-7.71-4.797-8.547-1.688-7.155.744a5.05 5.05 0 006.91 1.875c2.422-1.397 3.258-4.506 1.866-6.94a5.051 5.051 0 00-6.91-1.874" fill="#0089CF"/><path d="M-5.302-6.181a5.053 5.053 0 016.91 1.875 5.098 5.098 0 01-1.867 6.94A5.053 5.053 0 01-7.169.758c-1.391-2.433-.555-5.542 1.867-6.94l-.03-.089C-7.794-4.848-8.644-1.686-7.23.787A5.137 5.137 0 00-.203 2.693c2.464-1.42 3.314-4.582 1.898-7.056A5.137 5.137 0 00-5.33-6.27" fill="#0089CF"/><path d="M-5.345-6.256a5.138 5.138 0 017.028 1.907c1.415 2.474.564 5.635-1.899 7.056A5.137 5.137 0 01-7.243.802c-1.416-2.475-.565-5.636 1.898-7.058l-.029-.088C-7.879-4.9-8.744-1.684-7.304.83A5.222 5.222 0 00-.16 2.768C2.344 1.323 3.209-1.89 1.77-4.406a5.222 5.222 0 00-7.144-1.938" fill="#0089CF"/><path d="M-5.336-6.33a5.222 5.222 0 017.143 1.938c1.44 2.515.575 5.73-1.929 7.174A5.223 5.223 0 01-7.266.845c-1.439-2.516-.574-5.73 1.93-7.175l-.08-.089A5.353 5.353 0 00-7.379.873a5.307 5.307 0 007.26 1.97c2.546-1.469 3.425-4.735 1.962-7.292a5.308 5.308 0 00-7.26-1.97" fill="#0089CF"/><path d="M-5.43-6.405a5.309 5.309 0 017.26 1.97c1.464 2.556.585 5.823-1.96 7.292A5.308 5.308 0 01-7.391.887c-1.463-2.556-.584-5.823 1.96-7.292l-.029-.089A5.443 5.443 0 00-7.453.916 5.393 5.393 0 00-.075 2.918c2.587-1.493 3.48-4.812 1.994-7.41A5.394 5.394 0 00-5.46-6.494" fill="#0089CE"/><path d="M-5.473-6.48a5.394 5.394 0 017.378 2.002c1.486 2.598.593 5.917-1.993 7.41A5.394 5.394 0 01-7.466.93c-1.486-2.598-.593-5.917 1.993-7.41l-.03-.089C-8.13-5.052-9.036-1.679-7.526.96A5.479 5.479 0 00-.032 2.992c2.628-1.516 3.534-4.888 2.025-7.527a5.48 5.48 0 00-7.495-2.034" fill="#0089CE"/><path d="M-5.516-6.605A5.48 5.48 0 011.98-4.573c1.51 2.64.603 6.012-2.024 7.528A5.48 5.48 0 01-7.54.922c-1.51-2.64-.603-6.012 2.024-7.527l-.029-.038c-2.669 1.54-3.59 4.965-2.057 7.645A5.565 5.565 0 00.011 3.067C2.68 1.527 3.6-1.898 2.067-4.578a5.565 5.565 0 00-7.612-2.065" fill="#0089CD"/><path d="M-5.559-6.629a5.565 5.565 0 017.613 2.065c1.534 2.68.612 6.105-2.056 7.645a5.565 5.565 0 01-7.612-2.065c-1.535-2.68-.613-6.105 2.055-7.645l-.029-.089c-2.71 1.564-3.645 5.042-2.088 7.763a5.65 5.65 0 007.73 2.097C2.764 1.578 3.698-1.9 2.142-4.621a5.651 5.651 0 00-7.73-2.097" fill="#0088CD"/><path d="M-5.602-6.703a5.65 5.65 0 017.73 2.096C3.685-1.886 2.75 1.592.041 3.155A5.65 5.65 0 01-7.69 1.06c-1.557-2.721-.622-6.2 2.087-7.762l-.029-.09c-2.75 1.588-3.7 5.119-2.12 7.88a5.736 5.736 0 007.847 2.13c2.751-1.588 3.7-5.118 2.12-7.88A5.734 5.734 0 00-5.63-6.794" fill="#0088CD"/><path d="M-5.593-6.778A5.736 5.736 0 012.254-4.65c1.581 2.763.63 6.293-2.12 7.88a5.736 5.736 0 01-7.846-2.129C-9.293-1.66-8.343-5.19-5.593-6.778l-.08-.09C-8.465-5.255-9.43-1.672-7.825 1.13A5.822 5.822 0 00.14 3.291c2.792-1.61 3.756-5.194 2.152-7.998a5.822 5.822 0 00-7.964-2.16" fill="#0088CD"/><path d="M-5.687-6.853a5.822 5.822 0 017.964 2.16c1.604 2.804.64 6.387-2.15 7.998a5.822 5.822 0 01-7.965-2.16c-1.604-2.804-.64-6.387 2.151-7.998l-.03-.089c-2.832 1.635-3.81 5.27-2.182 8.116A5.907 5.907 0 00.18 3.366c2.834-1.635 3.811-5.27 2.184-8.115a5.908 5.908 0 00-8.081-2.193" fill="#0088CD"/><path d="M-5.73-6.927a5.907 5.907 0 018.081 2.191C3.98-1.89 3.001 1.745.168 3.38a5.906 5.906 0 01-8.08-2.193c-1.628-2.844-.65-6.48 2.182-8.114l-.029-.09c-2.874 1.66-3.866 5.347-2.215 8.233A5.993 5.993 0 00.225 3.441C3.099 1.782 4.09-1.906 2.439-4.792.787-7.678-2.885-8.675-5.759-7.017" fill="#08C"/><path d="M-5.772-7.054A5.993 5.993 0 012.426-4.83C4.077-1.944 3.085 1.745.21 3.403a5.992 5.992 0 01-8.197-2.224c-1.652-2.886-.66-6.574 2.214-8.233l-.03-.037c-2.915 1.682-3.921 5.423-2.246 8.35 1.675 2.928 5.4 3.939 8.315 2.256 2.915-1.682 3.921-5.423 2.247-8.35a6.08 6.08 0 00-8.316-2.256" fill="#08C"/><path d="M-5.814-7.077C-2.9-8.759.825-7.748 2.5-4.82c1.675 2.926.67 6.667-2.246 8.35a6.078 6.078 0 01-8.315-2.256c-1.675-2.927-.669-6.668 2.247-8.35l-.03-.09c-2.957 1.707-3.977 5.5-2.278 8.47A6.165 6.165 0 00.31 3.59c2.956-1.705 3.977-5.5 2.278-8.468C.89-7.846-2.888-8.872-5.844-7.166" fill="#08C"/><path d="M-5.857-7.152c2.955-1.706 6.733-.68 8.431 2.288 1.7 2.968.679 6.762-2.278 8.468-2.955 1.705-6.733.68-8.431-2.288-1.7-2.968-.678-6.762 2.278-8.468l-.03-.088c-2.997 1.728-4.032 5.575-2.31 8.585 1.722 3.01 5.553 4.05 8.55 2.32 2.996-1.73 4.03-5.577 2.31-8.587C.94-7.93-2.89-8.97-5.887-7.24" fill="#0087CC"/><path d="M-5.849-7.226c2.997-1.73 6.827-.69 8.55 2.32 1.721 3.008.687 6.855-2.31 8.585-2.997 1.73-6.827.69-8.55-2.32-1.722-3.01-.687-6.856 2.31-8.585l-.08-.089c-3.04 1.753-4.088 5.652-2.342 8.703A6.336 6.336 0 00.396 3.74c3.037-1.753 4.086-5.652 2.34-8.703-1.745-3.05-5.628-4.104-8.666-2.35" fill="#0087CC"/><path d="M-5.943-7.301c3.038-1.754 6.92-.7 8.666 2.351C4.47-1.9 3.42 2 .382 3.753c-3.038 1.754-6.92.7-8.666-2.351-1.746-3.05-.697-6.95 2.341-8.703l-.03-.088c-3.079 1.776-4.142 5.728-2.373 8.82 1.77 3.093 5.705 4.16 8.784 2.383C3.517 2.037 4.581-1.915 2.81-5.007A6.42 6.42 0 00-5.973-7.39" fill="#0087CC"/><path d="M-5.985-7.376c3.078-1.777 7.013-.71 8.783 2.383C4.567-1.9 3.504 2.051.425 3.827c-3.079 1.778-7.014.71-8.783-2.382-1.77-3.092-.707-7.044 2.373-8.82l-.03-.09c-3.12 1.8-4.198 5.805-2.405 8.939A6.507 6.507 0 00.481 3.889c3.12-1.801 4.197-5.805 2.404-8.94-1.792-3.132-5.78-4.214-8.9-2.413" fill="#0087CC"/><path d="M-6.028-7.502c3.12-1.8 7.107-.719 8.9 2.415C4.665-1.954 3.588 2.05.467 3.851c-3.12 1.801-7.107.719-8.9-2.415-1.793-3.133-.716-7.137 2.405-8.938l-.03-.037c-3.162 1.824-4.253 5.881-2.436 9.056A6.593 6.593 0 00.524 3.964c3.16-1.824 4.252-5.882 2.435-9.057-1.816-3.174-5.856-4.27-9.017-2.446" fill="#0086CB"/><path d="M-6.07-7.577c3.16-1.824 7.2-.728 9.017 2.447C4.763-1.956 3.672 2.102.51 3.926c-3.16 1.824-7.2.728-9.017-2.447-1.816-3.175-.725-7.232 2.436-9.056l-.03-.037c-3.202 1.848-4.308 5.958-2.468 9.174 1.84 3.216 5.933 4.326 9.136 2.478C3.768 2.19 4.874-1.92 3.034-5.136c-1.84-3.215-5.932-4.326-9.135-2.478" fill="#0086CB"/><path d="M-6.114-7.6c3.203-1.848 7.295-.738 9.135 2.479 1.84 3.215.734 7.325-2.468 9.173C-2.65 5.9-6.741 4.79-8.582 1.574c-1.84-3.216-.734-7.326 2.468-9.174l-.03-.088c-3.243 1.871-4.363 6.033-2.5 9.29C-6.778 4.86-2.633 5.985.61 4.114c3.243-1.872 4.363-6.035 2.5-9.292-1.864-3.256-6.01-4.381-9.253-2.51" fill="#0085CA"/><path d="M-6.105-7.675c3.243-1.87 7.388-.747 9.252 2.51 1.863 3.258.744 7.42-2.5 9.292-3.243 1.871-7.388.747-9.252-2.51-1.864-3.258-.744-7.42 2.5-9.292l-.081-.088c-3.285 1.895-4.419 6.11-2.532 9.409C-6.83 4.944-2.632 6.083.652 4.188c3.284-1.896 4.418-6.111 2.53-9.41C1.296-8.52-2.901-9.658-6.185-7.763" fill="#0085CA"/><path d="M-6.148-7.75c3.285-1.895 7.482-.756 9.37 2.543C5.107-1.91 3.973 2.306.689 4.202c-3.285 1.895-7.482.756-9.37-2.542-1.886-3.299-.752-7.514 2.532-9.41l-.081-.088C-9.555-5.919-10.702-1.65-8.792 1.69-6.88 5.029-2.63 6.18.695 4.262 4.02 2.343 5.168-1.925 3.257-5.265c-1.91-3.339-6.16-4.492-9.486-2.573" fill="#0085CA"/><path d="M-6.242-7.824c3.326-1.92 7.575-.766 9.486 2.574 1.911 3.34.763 7.607-2.563 9.526-3.325 1.92-7.575.766-9.486-2.574-1.911-3.34-.763-7.607 2.563-9.526l-.03-.088C-9.639-5.97-10.8-1.65-8.866 1.732-6.931 5.112-2.63 6.28.738 4.337 4.103 2.394 5.266-1.927 3.33-5.307 1.397-8.688-2.905-9.855-6.272-7.912" fill="#0085CA"/><path d="M-6.285-7.95c3.367-1.943 7.67-.776 9.603 2.605C5.253-1.964 4.091 2.357.724 4.3c-3.367 1.943-7.669.776-9.603-2.605-1.935-3.381-.772-7.702 2.594-9.644l-.03-.037c-3.407 1.966-4.583 6.34-2.626 9.762C-6.983 5.197-2.627 6.378.78 4.412c3.407-1.967 4.584-6.34 2.626-9.763-1.959-3.421-6.313-4.603-9.72-2.636" fill="#0085CA"/><path d="M-6.327-8.025c3.407-1.966 7.762-.785 9.72 2.637C5.35-1.965 4.174 2.408.767 4.374c-3.408 1.967-7.762.785-9.72-2.637-1.959-3.422-.782-7.795 2.626-9.762l-.03-.037c-3.45 1.99-4.64 6.416-2.658 9.88C-7.033 5.28-2.625 6.476.822 4.487c3.45-1.991 4.64-6.417 2.658-9.88-1.981-3.463-6.389-4.66-9.837-2.669" fill="#0085CA"/><path d="M-6.37-8.048c3.449-1.99 7.856-.794 9.837 2.669C5.45-1.916 4.258 2.51.81 4.501c-3.45 1.99-7.857.794-9.838-2.67-1.981-3.463-.791-7.89 2.658-9.879l-.03-.089c-3.49 2.014-4.695 6.493-2.69 9.998 2.006 3.504 6.466 4.714 9.955 2.7 3.49-2.013 4.695-6.493 2.69-9.997C1.549-8.94-2.91-10.15-6.4-8.136" fill="#0085CA"/><path d="M-6.362-8.123c3.49-2.014 7.95-.804 9.955 2.701s.8 7.983-2.69 9.997c-3.49 2.014-7.949.804-9.954-2.7-2.005-3.505-.8-7.984 2.69-9.998l-.082-.088c-3.53 2.037-4.75 6.569-2.72 10.114 2.028 3.546 6.54 4.77 10.07 2.733C4.44 2.598 5.659-1.933 3.63-5.479 1.6-9.024-2.912-10.249-6.443-8.21" fill="#0085CA"/><path d="M-6.404-8.198c3.53-2.037 8.042-.813 10.071 2.733 2.029 3.546.81 8.077-2.72 10.115-3.531 2.037-8.043.813-10.072-2.733-2.029-3.546-.81-8.077 2.72-10.115l-.08-.088c-3.572 2.061-4.806 6.645-2.753 10.232C-7.185 5.533-2.62 6.772.95 4.711 4.523 2.649 5.756-1.934 3.703-5.522 1.651-9.109-2.914-10.347-6.486-8.286" fill="#0084C9"/><path d="M-6.498-8.272c3.571-2.061 8.136-.823 10.189 2.764C5.743-1.92 4.51 2.663.938 4.725c-3.572 2.06-8.137.822-10.19-2.765-2.051-3.587-.818-8.171 2.754-10.232l-.03-.089c-3.613 2.085-4.86 6.722-2.785 10.35C-7.236 5.618-2.62 6.87.993 4.785 4.606 2.7 5.854-1.936 3.778-5.565 1.7-9.193-2.915-10.445-6.528-8.36" fill="#0084C8"/><path d="M-6.541-8.398c3.613-2.086 8.23-.833 10.306 2.796C5.84-1.974 4.594 2.663.98 4.748c-3.613 2.084-8.23.832-10.307-2.796-2.076-3.629-.828-8.265 2.785-10.35l-.03-.037c-3.654 2.108-4.915 6.798-2.815 10.467 2.1 3.67 6.768 4.936 10.422 2.827C4.69 2.751 5.952-1.938 3.852-5.607c-2.1-3.67-6.77-4.937-10.423-2.828" fill="#0084C8"/><path d="M-6.584-8.473c3.654-2.108 8.323-.842 10.423 2.828 2.1 3.67.838 8.358-2.816 10.467S-7.3 5.664-9.4 1.994c-2.1-3.67-.838-8.359 2.816-10.467l-.03-.037c-3.695 2.132-4.97 6.874-2.847 10.585 2.123 3.71 6.845 4.991 10.54 2.859C4.774 2.803 6.049-1.94 3.926-5.65c-2.123-3.711-6.845-4.992-10.54-2.86" fill="#0083C8"/><path d="M-6.627-8.496c3.695-2.133 8.417-.851 10.54 2.86 2.124 3.71.848 8.452-2.847 10.585-3.695 2.132-8.417.85-10.54-2.86-2.124-3.71-.848-8.453 2.847-10.585l-.03-.089c-3.736 2.156-5.025 6.951-2.878 10.703 2.146 3.752 6.92 5.047 10.657 2.89C4.858 2.854 6.148-1.941 4-5.692 1.854-9.445-2.921-10.741-6.657-8.585" fill="#0083C8"/><path d="M-6.618-8.571c3.736-2.156 8.51-.86 10.657 2.891 2.147 3.752.857 8.547-2.879 10.703-3.736 2.156-8.51.86-10.657-2.891-2.147-3.752-.857-8.547 2.879-10.703L-6.7-8.66c-3.778 2.18-5.08 7.028-2.91 10.821s6.996 5.102 10.773 2.922c3.778-2.18 5.082-7.026 2.911-10.82C1.905-9.53-2.922-10.838-6.699-8.66" fill="#0083C8"/><path d="M-6.661-8.646c3.777-2.18 8.604-.87 10.775 2.924 2.17 3.793.866 8.64-2.911 10.82-3.777 2.18-8.605.87-10.775-2.923s-.866-8.641 2.911-10.82l-.081-.09C-10.56-6.53-11.878-1.63-9.684 2.206-7.49 6.037-2.61 7.361 1.207 5.157 5.025 2.955 6.344-1.945 4.15-5.779 1.955-9.614-2.924-10.938-6.742-8.734" fill="#0083C8"/><path d="M-6.755-8.72c3.818-2.203 8.698-.88 10.892 2.955 2.193 3.834.876 8.734-2.943 10.938-3.818 2.203-8.697.88-10.892-2.955-2.193-3.835-.875-8.735 2.943-10.938l-.03-.089c-3.86 2.227-5.191 7.18-2.973 11.056C-7.541 6.123-2.61 7.461 1.25 5.233c3.86-2.227 5.19-7.18 2.974-11.055-2.217-3.876-7.15-5.214-11.009-2.988" fill="#0083C8"/><path d="M-6.798-8.847c3.86-2.226 8.791-.889 11.01 2.987 2.217 3.876.884 8.828-2.975 11.056-3.86 2.227-8.79.889-11.009-2.987-2.217-3.876-.885-8.828 2.974-11.056l-.03-.037c-3.9 2.251-5.246 7.257-3.005 11.174C-7.59 6.207-2.608 7.559 1.293 5.308c3.9-2.251 5.247-7.256 3.005-11.173-2.24-3.917-7.225-5.27-11.126-3.019" fill="#0082C7"/><path d="M-6.84-8.921c3.9-2.251 8.884-.899 11.126 3.018C6.527-1.986 5.18 3.02 1.28 5.271c-3.9 2.25-8.885.898-11.126-3.019-2.242-3.917-.895-8.923 3.006-11.173l-.03-.037c-3.942 2.275-5.302 7.333-3.037 11.29 2.264 3.959 7.301 5.325 11.242 3.05C5.277 3.108 6.637-1.95 4.373-5.908 2.108-9.866-2.93-11.232-6.87-8.958" fill="#0082C7"/><path d="M-6.883-8.945c3.941-2.274 8.978-.907 11.243 3.05 2.264 3.959.904 9.017-3.037 11.292-3.942 2.274-8.979.908-11.244-3.05-2.264-3.959-.904-9.017 3.038-11.292l-.03-.088c-3.983 2.298-5.357 7.41-3.069 11.409 2.289 4 7.378 5.38 11.36 3.081C5.36 3.159 6.736-1.952 4.448-5.951c-2.29-4-7.379-5.38-11.361-3.082" fill="#0081C6"/><path d="M-6.875-9.02c3.983-2.298 9.072-.917 11.36 3.083 2.29 4 .914 9.11-3.068 11.409-3.983 2.298-9.073.917-11.36-3.083-2.29-3.999-.914-9.11 3.068-11.408l-.081-.089c-4.023 2.322-5.412 7.486-3.1 11.527 2.312 4.04 7.453 5.435 11.477 3.113C5.444 3.21 6.834-1.953 4.52-5.994c-2.312-4.04-7.454-5.435-11.477-3.114" fill="#0081C6"/><path d="M-6.918-9.094c4.024-2.321 9.166-.927 11.478 3.114 2.312 4.04.923 9.204-3.1 11.526-4.024 2.322-9.166.927-11.478-3.114-2.312-4.04-.923-9.204 3.1-11.526l-.08-.089c-4.065 2.346-5.468 7.563-3.132 11.645 2.335 4.08 7.53 5.49 11.594 3.145C5.528 3.26 6.93-1.955 4.596-6.037c-2.335-4.082-7.53-5.49-11.595-3.146" fill="#0081C6"/><path d="M-7.012-9.169c4.065-2.345 9.259-.936 11.595 3.146C6.92-1.941 5.515 3.275 1.451 5.62c-4.065 2.345-9.259.936-11.595-3.146-2.335-4.081-.932-9.298 3.132-11.644l-.03-.088c-4.105 2.37-5.522 7.638-3.163 11.76C-7.845 6.627-2.599 8.05 1.506 5.68 5.612 3.311 7.03-1.957 4.67-6.079c-2.359-4.124-7.605-5.548-11.712-3.178" fill="#0081C6"/><path d="M-7.054-9.295c4.105-2.369 9.352-.946 11.712 3.177 2.358 4.123.941 9.393-3.164 11.761-4.106 2.37-9.353.947-11.712-3.176s-.942-9.393 3.164-11.762l-.03-.037c-4.147 2.393-5.578 7.714-3.195 11.879 2.382 4.165 7.682 5.602 11.828 3.209C5.696 3.363 7.127-1.96 4.745-6.123c-2.383-4.164-7.682-5.602-11.828-3.209" fill="#0081C6"/><path d="M-7.097-9.37c4.146-2.392 9.446-.955 11.829 3.21 2.382 4.164.95 9.485-3.196 11.878-4.146 2.393-9.445.956-11.829-3.208-2.382-4.165-.95-9.486 3.196-11.88l-.03-.037C-11.314-6.99-12.76-1.616-10.353 2.59c2.407 4.207 7.758 5.658 11.946 3.242C5.78 3.414 7.226-1.96 4.819-6.166c-2.406-4.205-7.758-5.657-11.945-3.24" fill="#0081C5"/><path d="M-7.14-9.393c4.188-2.416 9.54-.964 11.946 3.241 2.406 4.206.96 9.58-3.227 11.996-4.187 2.417-9.54.966-11.945-3.24-2.407-4.205-.961-9.58 3.226-11.997l-.029-.088c-4.23 2.44-5.69 7.867-3.259 12.114 2.43 4.246 7.834 5.713 12.063 3.272 4.228-2.44 5.688-7.867 3.259-12.114C2.464-10.455-2.94-11.92-7.17-9.48" fill="#0081C5"/><path d="M-7.131-9.467c4.228-2.44 9.633-.975 12.062 3.272 2.43 4.247.97 9.674-3.258 12.114-4.228 2.44-9.633.975-12.062-3.272-2.43-4.247-.97-9.674 3.258-12.114l-.08-.09c-4.271 2.465-5.745 7.945-3.291 12.232 2.453 4.288 7.91 5.769 12.18 3.305S7.42-1.964 4.968-6.252c-2.453-4.287-7.91-5.768-12.18-3.304" fill="#0080C5"/><path d="M-7.174-9.542c4.27-2.464 9.726-.984 12.18 3.304 2.454 4.288.98 9.768-3.29 12.232-4.27 2.464-9.726.984-12.18-3.304-2.454-4.288-.98-9.768 3.29-12.232l-.08-.089c-4.311 2.488-5.8 8.02-3.323 12.35C-8.099 7.048-2.59 8.542 1.72 6.054c4.311-2.488 5.799-8.02 3.322-12.35-2.477-4.329-7.986-5.823-12.296-3.336" fill="#007FC4"/><path d="M-7.268-9.616c4.31-2.488 9.82-.994 12.297 3.335 2.477 4.33.99 9.862-3.322 12.35-4.31 2.487-9.82.993-12.296-3.336-2.478-4.33-.99-9.862 3.32-12.35l-.028-.089c-4.352 2.512-5.855 8.097-3.354 12.467 2.5 4.37 8.062 5.88 12.414 3.368C6.115 3.62 7.617-1.967 5.117-6.337c-2.501-4.37-8.062-5.88-12.414-3.369" fill="#007FC4"/><path d="M-7.31-9.742c4.35-2.512 9.913-1.003 12.413 3.367 2.501 4.37.999 9.956-3.353 12.467-4.352 2.512-9.913 1.003-12.414-3.368-2.501-4.37-.999-9.955 3.353-12.466l-.029-.038c-4.393 2.535-5.91 8.173-3.385 12.584 2.524 4.412 8.138 5.935 12.53 3.4C6.2 3.67 7.716-1.969 5.192-6.38c-2.524-4.412-8.138-5.935-12.53-3.4" fill="#007FC4"/><path d="M-7.354-9.817C-2.96-12.352 2.653-10.83 5.178-6.418 7.702-2.007 6.186 3.632 1.793 6.166-2.6 8.701-8.214 7.18-10.738 2.767c-2.525-4.411-1.008-10.05 3.384-12.584l-.029-.038c-4.434 2.56-5.965 8.25-3.417 12.702C-8.252 7.3-2.585 8.837 1.85 6.28 6.282 3.72 7.813-1.971 5.266-6.423c-2.549-4.453-8.215-5.99-12.649-3.432" fill="#007FC4"/><path d="M-7.396-9.84c4.434-2.56 10.1-1.022 12.648 3.43C7.8-1.957 6.27 3.734 1.836 6.293-2.598 8.852-8.265 7.315-10.813 2.862-13.36-1.592-11.83-7.282-7.396-9.84l-.03-.09c-4.474 2.583-6.02 8.326-3.448 12.82 2.571 4.494 8.29 6.046 12.765 3.464 4.475-2.583 6.02-8.326 3.45-12.82C2.768-10.96-2.95-12.512-7.426-9.93" fill="#007FC4"/><path d="M-7.388-9.915c4.475-2.582 10.194-1.032 12.766 3.462C7.949-1.959 6.405 3.785 1.93 6.367-2.545 8.95-8.264 7.4-10.836 2.905c-2.571-4.495-1.027-10.238 3.448-12.82l-.08-.09c-4.516 2.607-6.076 8.403-3.48 12.938 2.595 4.535 8.366 6.102 12.882 3.495C6.45 3.822 8.009-1.974 5.414-6.509s-8.366-6.1-12.882-3.495" fill="#007FC4"/><path d="M-7.43-9.99c4.516-2.606 10.288-1.04 12.882 3.495C8.047-1.96 6.488 3.837 1.972 6.442-2.544 9.048-8.316 7.482-10.91 2.948-13.505-1.588-11.947-7.384-7.43-9.99l-.081-.09c-4.557 2.631-6.13 8.48-3.512 13.056 2.618 4.576 8.443 6.157 13 3.527s6.13-8.479 3.512-13.055c-2.62-4.577-8.443-6.157-13-3.527" fill="#007EC3"/><path d="M-7.525-10.064c4.558-2.63 10.382-1.05 13 3.526C8.095-1.961 6.521 3.887 1.964 6.517c-4.558 2.63-10.381 1.05-13-3.526-2.62-4.578-1.046-10.426 3.511-13.055l-.029-.09C-12.152-7.5-13.74-1.599-11.097 3.02-8.455 7.637-2.58 9.231 2.02 6.578 6.618 3.924 8.205-1.977 5.563-6.595c-2.642-4.618-8.519-6.212-13.117-3.559" fill="#007EC3"/><path d="M-7.567-10.19c4.599-2.654 10.474-1.06 13.117 3.557C8.192-2.014 6.605 3.887 2.007 6.54-2.593 9.194-8.468 7.6-11.11 2.98c-2.643-4.618-1.056-10.518 3.543-13.172l-.03-.037c-4.639 2.677-6.24 8.631-3.575 13.29 2.666 4.659 8.595 6.267 13.234 3.59 4.64-2.677 6.241-8.631 3.576-13.29-2.667-4.659-8.595-6.267-13.235-3.59" fill="#007DC2"/><path d="M-7.61-10.265c4.64-2.678 10.568-1.07 13.234 3.59C8.29-2.017 6.689 3.937 2.049 6.614c-4.64 2.677-10.568 1.069-13.234-3.59-2.666-4.66-1.064-10.614 3.575-13.29l-.03-.037c-4.68 2.7-6.296 8.707-3.606 13.407 2.69 4.7 8.67 6.323 13.351 3.622 4.68-2.7 6.296-8.708 3.606-13.408-2.69-4.7-8.67-6.322-13.35-3.621" fill="#007DC2"/><path d="M-7.653-10.289c4.681-2.7 10.662-1.078 13.351 3.622C8.388-1.967 6.772 4.04 2.092 6.74c-4.68 2.7-10.662 1.079-13.351-3.622-2.69-4.7-1.074-10.707 3.606-13.408l-.029-.088c-4.721 2.724-6.351 8.784-3.639 13.525 2.714 4.741 8.748 6.378 13.469 3.654 4.721-2.725 6.35-8.784 3.638-13.526-2.713-4.741-8.747-6.378-13.468-3.653" fill="#007DC2"/><path d="M-7.695-10.363C-2.974-13.088 3.06-11.451 5.773-6.71 8.486-1.968 6.856 4.092 2.134 6.816-2.587 9.54-8.62 7.904-11.333 3.162-14.047-1.58-12.417-7.64-7.695-10.363l-.03-.089c-4.762 2.748-6.406 8.86-3.67 13.643 2.736 4.782 8.823 6.434 13.586 3.686C6.953 4.129 8.597-1.984 5.86-6.767 3.124-11.549-2.962-13.2-7.725-10.452" fill="#007DC2"/><path d="M-7.686-10.438c4.762-2.748 10.848-1.098 13.584 3.686C8.635-1.97 6.991 4.142 2.228 6.89-2.534 9.638-8.62 7.988-11.357 3.204c-2.736-4.782-1.093-10.894 3.67-13.642l-.08-.089c-4.804 2.772-6.463 8.937-3.702 13.76 2.76 4.824 8.899 6.49 13.702 3.718C7.037 4.18 8.695-1.986 5.934-6.809c-2.76-4.824-8.898-6.49-13.702-3.718" fill="#007CC1"/><path d="M-7.78-10.513c4.803-2.772 10.94-1.107 13.7 3.718 2.761 4.824 1.104 10.988-3.7 13.76-4.804 2.772-10.942 1.107-13.702-3.718-2.76-4.823-1.103-10.988 3.702-13.76l-.03-.088c-4.845 2.795-6.517 9.013-3.734 13.878C-8.76 8.142-2.568 9.82 2.276 7.026 7.12 4.23 8.793-1.987 6.009-6.853c-2.784-4.865-8.975-6.544-13.82-3.748" fill="#007CC1"/><path d="M-7.823-10.588c4.844-2.796 11.035-1.116 13.819 3.75C8.779-1.973 7.108 4.244 2.262 7.04-2.582 9.835-8.773 8.156-11.557 3.29c-2.783-4.865-1.111-11.082 3.734-13.877l-.03-.089c-4.886 2.82-6.573 9.09-3.765 13.996 2.807 4.906 9.05 6.6 13.937 3.78C7.204 4.282 8.89-1.988 6.083-6.895c-2.807-4.906-9.05-6.6-13.936-3.78" fill="#007CC1"/><path d="M-7.866-10.714C-2.98-13.534 3.263-11.84 6.07-6.933 8.878-2.026 7.191 4.244 2.305 7.063-2.58 9.883-8.824 8.189-11.63 3.282c-2.807-4.906-1.121-11.176 3.765-13.996l-.03-.037c-4.926 2.843-6.627 9.166-3.797 14.113C-8.86 8.31-2.566 10.018 2.362 7.175 7.288 4.332 8.989-1.99 6.158-6.939 3.327-11.886-2.97-13.594-7.896-10.75" fill="#007CC0"/><path d="M-7.909-10.737c4.927-2.843 11.222-1.135 14.054 3.813 2.831 4.947 1.13 11.27-3.797 14.113S-8.875 8.324-11.705 3.376c-2.832-4.947-1.13-11.27 3.796-14.113l-.03-.088c-4.967 2.866-6.682 9.242-3.828 14.23 2.854 4.989 9.203 6.712 14.171 3.845C7.372 4.384 9.086-1.992 6.232-6.982c-2.854-4.988-9.203-6.71-14.17-3.843" fill="#007BC0"/><path d="M-7.951-10.812c4.967-2.866 11.316-1.144 14.17 3.845C9.074-1.978 7.36 4.397 2.391 7.263-2.577 10.132-8.925 8.409-11.78 3.42c-2.855-4.988-1.14-11.364 3.828-14.23l-.03-.09c-5.009 2.89-6.738 9.32-3.86 14.35 2.878 5.03 9.279 6.766 14.288 3.876s6.738-9.319 3.86-14.35c-2.878-5.03-9.28-6.766-14.288-3.875" fill="#007BC0"/><path d="M-7.943-10.886c5.009-2.891 11.41-1.155 14.288 3.876 2.878 5.03 1.15 11.458-3.86 14.35-5.009 2.89-11.41 1.154-14.288-3.877-2.878-5.03-1.15-11.458 3.86-14.348l-.081-.089c-5.05 2.914-6.793 9.395-3.892 14.466C-9.013 8.562-2.56 10.313 2.49 7.4 7.54 4.485 9.283-1.995 6.38-7.067c-2.9-5.071-9.354-6.822-14.404-3.908" fill="#007AC0"/><path d="M-8.037-10.961c5.05-2.914 11.503-1.164 14.405 3.908C9.269-1.982 7.527 4.5 2.476 7.413c-5.05 2.914-11.503 1.164-14.405-3.908-2.901-5.071-1.158-11.552 3.892-14.466l-.03-.089c-5.09 2.938-6.849 9.472-3.923 14.584 2.925 5.112 9.431 6.878 14.523 3.94C7.623 4.536 9.38-1.997 6.455-7.11c-2.925-5.113-9.431-6.878-14.522-3.94" fill="#007AC0"/><path d="M-8.08-11.036c5.09-2.938 11.597-1.173 14.522 3.94C9.368-1.983 7.61 4.55 2.52 7.488c-5.09 2.938-11.597 1.172-14.522-3.94-2.925-5.112-1.168-11.646 3.923-14.584l-.03-.088c-5.131 2.96-6.903 9.548-3.955 14.701 2.95 5.154 9.508 6.933 14.64 3.972C7.707 4.587 9.48-1.999 6.53-7.153c-2.948-5.154-9.507-6.933-14.639-3.971" fill="#007ABF"/><path d="M-8.122-11.162c5.131-2.961 11.69-1.183 14.639 3.972C9.465-2.037 7.694 4.55 2.562 7.51c-5.132 2.961-11.69 1.183-14.64-3.972-2.948-5.153-1.177-11.74 3.956-14.701l-.03-.037c-5.173 2.985-6.96 9.624-3.987 14.82 2.973 5.194 9.584 6.988 14.757 4.003 5.173-2.986 6.958-9.625 3.986-14.82C3.63-12.391-2.98-14.184-8.152-11.2" fill="#007ABF"/><path d="M-8.165-11.185C-2.992-14.17 3.619-12.377 6.59-7.182 9.564-1.987 7.778 4.652 2.604 7.638c-5.172 2.985-11.783 1.19-14.756-4.004-2.972-5.195-1.187-11.834 3.987-14.82l-.03-.088c-5.214 3.01-7.014 9.701-4.018 14.937 2.996 5.236 9.66 7.044 14.874 4.035 5.214-3.009 7.014-9.7 4.017-14.936-2.995-5.237-9.66-7.045-14.873-4.036" fill="#0079BE"/><path d="M-8.208-11.26c5.214-3.01 11.877-1.201 14.874 4.035C9.662-1.989 7.862 4.703 2.647 7.712c-5.214 3.008-11.877 1.2-14.873-4.035-2.997-5.236-1.196-11.928 4.018-14.937l-.03-.088c-5.255 3.032-7.07 9.777-4.05 15.054 3.02 5.277 9.736 7.1 14.992 4.067C7.958 4.74 9.772-2.004 6.753-7.282c-3.02-5.277-9.736-7.099-14.99-4.066" fill="#0079BE"/><path d="M-8.2-11.335c5.255-3.032 11.972-1.21 14.991 4.068 3.02 5.277 1.206 12.02-4.05 15.054-5.255 3.032-11.97 1.21-14.99-4.067-3.02-5.277-1.206-12.022 4.05-15.055l-.082-.088c-5.295 3.056-7.124 9.854-4.081 15.172C-9.32 9.067-2.55 10.903 2.746 7.847 8.042 4.791 9.871-2.006 6.827-7.324c-3.043-5.32-9.812-7.155-15.108-4.1" fill="#0079BE"/><path d="M-8.293-11.41c5.295-3.056 12.064-1.22 15.107 4.1C9.858-1.992 8.03 4.805 2.733 7.862c-5.296 3.056-12.065 1.22-15.108-4.1-3.043-5.318-1.215-12.115 4.082-15.171l-.03-.089c-5.337 3.08-7.18 9.93-4.113 15.29 3.067 5.36 9.887 7.21 15.224 4.13 5.338-3.08 7.18-9.93 4.114-15.29-3.067-5.36-9.888-7.21-15.225-4.13" fill="#0078BE"/><path d="M-8.336-11.484C-3-14.564 3.82-12.714 6.889-7.354c3.066 5.36 1.224 12.21-4.113 15.29-5.337 3.08-12.158 1.23-15.225-4.13-3.067-5.36-1.225-12.21 4.113-15.29l-.03-.089c-5.378 3.104-7.235 10.007-4.144 15.408 3.09 5.4 9.963 7.265 15.341 4.161C8.21 4.893 10.066-2.009 6.976-7.41c-3.09-5.402-9.963-7.266-15.342-4.163" fill="#0078BE"/><path d="M-8.379-11.61c5.378-3.104 12.252-1.239 15.342 4.162S8.197 4.856 2.818 7.96C-2.56 11.063-9.433 9.198-12.524 3.797c-3.09-5.4-1.234-12.304 4.145-15.407l-.03-.037c-5.419 3.127-7.29 10.082-4.176 15.525C-9.47 9.32-2.545 11.198 2.874 8.07c5.42-3.126 7.29-10.08 4.176-15.523s-10.04-7.322-15.459-4.194" fill="#0078BD"/><path d="M-8.422-11.633c5.42-3.127 12.345-1.25 15.46 4.194C10.15-1.997 8.28 4.958 2.86 8.086-2.56 11.213-9.484 9.334-12.6 3.89c-3.113-5.442-1.243-12.397 4.177-15.524l-.03-.089c-5.46 3.15-7.345 10.159-4.207 15.643 3.138 5.483 10.115 7.377 15.576 4.225 5.46-3.151 7.345-10.159 4.208-15.642-3.138-5.484-10.116-7.377-15.577-4.226" fill="#0078BD"/><path d="M-8.464-11.708c5.46-3.151 12.438-1.257 15.576 4.226C10.249-2 8.364 5.008 2.904 8.16c-5.46 3.151-12.44 1.258-15.577-4.226-3.137-5.483-1.252-12.491 4.209-15.642l-.03-.089c-5.502 3.175-7.4 10.235-4.24 15.76C-9.572 9.489-2.541 11.397 2.96 8.222 8.461 5.047 10.361-2.014 7.2-7.54c-3.161-5.525-10.191-7.433-15.693-4.258" fill="#0077BC"/><path d="M-8.456-11.783c5.501-3.174 12.532-1.267 15.694 4.258 3.16 5.524 1.26 12.585-4.24 15.76-5.501 3.174-12.532 1.267-15.694-4.258-3.161-5.524-1.261-12.585 4.24-15.76l-.081-.088c-5.542 3.198-7.456 10.31-4.27 15.878 3.184 5.565 10.267 7.487 15.81 4.288 5.542-3.198 7.455-10.311 4.27-15.877-3.184-5.566-10.267-7.487-15.81-4.29" fill="#0077BC"/><path d="M-8.55-11.858c5.542-3.198 12.625-1.276 15.81 4.29C10.446-2.002 8.532 5.11 2.99 8.31c-5.543 3.198-12.626 1.276-15.811-4.29-3.185-5.565-1.271-12.679 4.271-15.878l-.03-.088c-5.583 3.222-7.51 10.388-4.302 15.995C-9.674 9.656-2.538 11.592 3.045 8.37 8.629 5.148 10.556-2.018 7.348-7.625 4.139-13.233-2.996-15.168-8.58-11.946" fill="#0077BC"/><path d="M-8.593-11.932c5.583-3.223 12.72-1.286 15.928 4.321 3.209 5.607 1.28 12.773-4.303 15.996-5.583 3.22-12.72 1.285-15.928-4.322s-1.28-12.773 4.303-15.995l-.03-.089c-5.624 3.246-7.566 10.464-4.334 16.113 3.232 5.649 10.42 7.599 16.045 4.353C8.713 5.199 10.655-2.02 7.422-7.668 4.19-13.317-2.998-15.266-8.623-12.02" fill="#0076BC"/><path d="M-8.635-12.059c5.624-3.245 12.812-1.295 16.044 4.353C10.642-2.057 8.7 5.162 3.075 8.408-2.55 11.653-9.738 9.703-12.97 4.055c-3.232-5.649-1.29-12.867 4.335-16.114l-.03-.037c-5.666 3.27-7.621 10.541-4.366 16.231C-9.775 9.825-2.535 11.79 3.13 8.52 8.797 5.25 10.752-2.02 7.497-7.71 4.24-13.4-3-15.365-8.665-12.096" fill="#0076BC"/><path d="M-8.678-12.082c5.665-3.27 12.905-1.304 16.162 4.385 3.255 5.69 1.299 12.96-4.367 16.23-5.665 3.27-12.905 1.305-16.162-4.384-3.255-5.69-1.299-12.961 4.367-16.23l-.03-.09c-5.707 3.294-7.677 10.618-4.397 16.35 3.278 5.73 10.572 7.708 16.278 4.415C8.88 5.302 10.851-2.023 7.571-7.754c-3.28-5.731-10.572-7.71-16.28-4.416" fill="#0076BB"/><path d="M-8.721-12.156c5.706-3.293 13-1.314 16.28 4.416C10.836-2.01 8.866 5.315 3.16 8.61c-5.706 3.292-13 1.314-16.279-4.417s-1.308-13.055 4.398-16.348l-.03-.089C-14.498-8.928-16.483-1.55-13.18 4.221S-2.532 11.986 3.216 8.67c5.748-3.317 7.732-10.694 4.43-16.465-3.303-5.773-10.649-7.766-16.397-4.449" fill="#0076BB"/><path d="M-8.712-12.231c5.747-3.317 13.093-1.324 16.396 4.448 3.302 5.772 1.318 13.15-4.43 16.466C-2.494 12-9.839 10.007-13.142 4.235c-3.303-5.773-1.318-13.149 4.43-16.466l-.082-.089c-5.788 3.341-7.787 10.77-4.46 16.584 3.326 5.813 10.724 7.82 16.513 4.48 5.789-3.341 7.787-10.77 4.46-16.583-3.326-5.814-10.723-7.821-16.513-4.48" fill="#0075BA"/><path d="M-8.807-12.306c5.79-3.34 13.188-1.333 16.514 4.48C11.033-2.012 9.034 5.418 3.246 8.757c-5.79 3.341-13.187 1.334-16.514-4.479-3.325-5.814-1.327-13.243 4.461-16.584l-.03-.088c-5.829 3.364-7.842 10.846-4.492 16.701 3.35 5.854 10.8 7.876 16.63 4.511 5.83-3.364 7.843-10.846 4.493-16.7-3.35-5.856-10.8-7.876-16.63-4.512" fill="#0075BA"/><path d="M-8.85-12.38c5.831-3.364 13.281-1.343 16.63 4.511C11.132-2.013 9.119 5.468 3.29 8.832c-5.83 3.365-13.28 1.343-16.631-4.511-3.35-5.855-1.337-13.337 4.493-16.702l-.03-.088c-5.87 3.388-7.897 10.923-4.524 16.82 3.374 5.895 10.877 7.93 16.747 4.542C9.216 5.505 11.242-2.03 7.87-7.925 4.495-13.822-3.008-15.857-8.88-12.47" fill="#0075BA"/><path d="M-8.892-12.507c5.871-3.388 13.373-1.352 16.747 4.544 3.374 5.896 1.347 13.43-4.524 16.818-5.871 3.388-13.373 1.353-16.747-4.543-3.374-5.896-1.346-13.43 4.524-16.819l-.03-.037c-5.912 3.412-7.953 11-4.555 16.937C-10.08 10.33-2.525 12.38 3.387 8.968c5.912-3.412 7.953-11 4.556-16.936-3.397-5.938-10.953-7.987-16.865-4.576" fill="#0074BA"/><path d="M-8.935-12.58c5.913-3.413 13.468-1.363 16.864 4.574C11.327-2.068 9.286 5.519 3.374 8.93c-5.912 3.412-13.468 1.362-16.864-4.575-3.397-5.937-1.356-13.525 4.555-16.936l-.03-.038c-5.952 3.436-8.007 11.076-4.587 17.055 3.42 5.978 11.03 8.041 16.982 4.606C9.383 5.607 11.438-2.033 8.017-8.01c-3.42-5.98-11.028-8.043-16.982-4.608" fill="#0074BA"/><path d="M-8.977-12.604c5.953-3.436 13.56-1.372 16.98 4.606C11.426-2.018 9.37 5.621 3.418 9.056c-5.954 3.436-13.56 1.372-16.982-4.606-3.42-5.98-1.365-13.619 4.588-17.054l-.03-.09C-15.001-9.233-17.07-1.54-13.626 4.48c3.444 6.019 11.105 8.097 17.098 4.638 5.995-3.46 8.064-11.152 4.62-17.171-3.445-6.02-11.105-8.098-17.1-4.64" fill="#0073B9"/><path d="M-8.969-12.679c5.994-3.459 13.655-1.38 17.098 4.639C11.574-2.02 9.504 5.672 3.511 9.13c-5.995 3.46-13.655 1.382-17.099-4.637-3.444-6.02-1.375-13.713 4.619-17.172l-.081-.089c-6.035 3.483-8.118 11.229-4.65 17.289 3.467 6.061 11.18 8.153 17.215 4.67C9.551 5.71 11.634-2.036 8.166-8.096 4.698-14.158-3.014-16.25-9.05-12.768" fill="#0073B8"/><path d="M-9.012-12.753c6.036-3.483 13.748-1.39 17.216 4.67 3.468 6.061 1.384 13.806-4.65 17.289-6.036 3.483-13.748 1.39-17.216-4.67-3.468-6.062-1.384-13.807 4.65-17.29l-.08-.089c-6.077 3.507-8.174 11.305-4.683 17.407 3.492 6.102 11.257 8.209 17.333 4.703C9.635 5.76 11.732-2.038 8.241-8.14c-3.492-6.102-11.257-8.209-17.333-4.703" fill="#0073B8"/><path d="M-9.106-12.828c6.077-3.506 13.841-1.4 17.333 4.702C11.719-2.024 9.62 5.774 3.545 9.28c-6.077 3.507-13.841 1.4-17.333-4.701-3.491-6.103-1.394-13.9 4.682-17.407l-.029-.09c-6.118 3.531-8.23 11.382-4.714 17.525C-10.334 10.75-2.516 12.872 3.6 9.34 9.718 5.811 11.83-2.04 8.315-8.183 4.8-14.327-3.018-16.447-9.135-12.917" fill="#0072B8"/><path d="M-9.149-12.954c6.118-3.53 13.936-1.41 17.45 4.733C11.817-2.077 9.705 5.774 3.588 9.304c-6.118 3.53-13.936 1.409-17.45-4.734-3.516-6.144-1.403-13.995 4.713-17.524l-.029-.038c-6.158 3.554-8.284 11.458-4.746 17.642 3.539 6.185 11.409 8.32 17.567 4.766C9.803 5.862 11.928-2.041 8.39-8.226c-3.54-6.184-11.41-8.32-17.568-4.766" fill="#0072B7"/><path d="M-9.191-13.029c6.158-3.554 14.028-1.419 17.567 4.765C11.916-2.079 9.788 5.825 3.63 9.378c-6.16 3.554-14.029 1.419-17.567-4.765-3.54-6.185-1.413-14.088 4.745-17.642l-.03-.038c-6.2 3.578-8.34 11.534-4.777 17.76 3.562 6.226 11.484 8.375 17.684 4.798 6.2-3.578 8.34-11.534 4.778-17.76C4.9-14.495-3.022-16.644-9.22-13.067" fill="#0072B7"/><path d="M-9.234-13.052c6.2-3.578 14.122-1.428 17.684 4.797C12.013-2.03 9.872 5.927 3.673 9.505c-6.2 3.577-14.121 1.428-17.684-4.798-3.562-6.226-1.422-14.182 4.777-17.76l-.03-.089c-6.24 3.602-8.394 11.611-4.809 17.878 3.586 6.267 11.561 8.43 17.802 4.83 6.24-3.601 8.395-11.61 4.81-17.878-3.587-6.266-11.562-8.43-17.802-4.83" fill="#0071B7"/><path d="M-9.226-13.127c6.241-3.602 14.216-1.438 17.802 4.829 3.586 6.267 1.431 14.276-4.809 17.877-6.24 3.602-14.215 1.438-17.801-4.829-3.586-6.267-1.431-14.276 4.808-17.877l-.08-.088c-6.282 3.624-8.45 11.686-4.84 17.994 3.609 6.308 11.636 8.486 17.918 4.861 6.282-3.625 8.45-11.686 4.84-17.995-3.609-6.307-11.637-8.485-17.918-4.86" fill="#0071B6"/><path d="M-9.268-13.202C-2.986-16.827 5.04-14.649 8.65-8.34c3.61 6.309 1.441 14.37-4.84 17.995-6.282 3.625-14.309 1.447-17.918-4.86-3.61-6.31-1.441-14.37 4.84-17.996l-.08-.088c-6.323 3.648-8.506 11.763-4.873 18.112 3.633 6.35 11.713 8.54 18.035 4.893 6.323-3.65 8.506-11.763 4.873-18.113S-3.027-16.939-9.349-13.29" fill="#0071B6"/><path d="M-9.362-13.276c6.323-3.65 14.403-1.457 18.035 4.892 3.634 6.35 1.45 14.464-4.871 18.113-6.323 3.649-14.403 1.456-18.036-4.893-3.633-6.35-1.45-14.464 4.872-18.112l-.03-.089c-6.363 3.672-8.56 11.84-4.904 18.23 3.657 6.39 11.79 8.597 18.153 4.925 6.364-3.673 8.561-11.84 4.904-18.23-3.657-6.39-11.79-8.598-18.152-4.925" fill="#0070B6"/><path d="M-9.405-13.403c6.364-3.672 14.496-1.465 18.153 4.925 3.656 6.39 1.46 14.558-4.904 18.23-6.364 3.672-14.496 1.466-18.152-4.924-3.657-6.391-1.46-14.558 4.903-18.23l-.03-.038C-15.838-9.744-18.05-1.524-14.37 4.908-10.69 11.34-2.505 13.56 3.9 9.864 10.305 6.168 12.515-2.05 8.835-8.483c-3.68-6.432-11.865-8.653-18.27-4.957" fill="#0070B6"/><path d="M-9.448-13.477c6.405-3.697 14.59-1.476 18.27 4.956 3.68 6.432 1.47 14.651-4.935 18.348-6.405 3.696-14.59 1.475-18.27-4.957-3.68-6.432-1.469-14.651 4.935-18.347l-.029-.037c-6.446 3.72-8.671 11.992-4.967 18.464 3.704 6.474 11.94 8.708 18.387 4.99 6.446-3.721 8.67-11.993 4.966-18.466C5.206-15-3.03-17.234-9.477-13.514" fill="#0070B6"/><path d="M-9.49-13.5c6.445-3.72 14.683-1.485 18.387 4.987C12.6-2.039 10.375 6.233 3.93 9.953c-6.446 3.72-14.684 1.485-18.387-4.989C-18.161-1.508-15.936-9.78-9.491-13.5l-.029-.088c-6.487 3.743-8.726 12.068-4.999 18.582 3.728 6.515 12.017 8.764 18.504 5.02C10.473 6.27 12.711-2.054 8.984-8.568 5.257-15.083-3.034-17.332-9.52-13.59" fill="#006FB5"/><path d="M-9.482-13.575c6.487-3.744 14.777-1.494 18.504 5.02 3.728 6.514 1.488 14.84-4.998 18.583-6.487 3.743-14.777 1.494-18.504-5.02-3.728-6.515-1.488-14.84 4.998-18.583l-.08-.089c-6.529 3.767-8.782 12.145-5.031 18.7 3.751 6.556 12.093 8.82 18.621 5.052 6.528-3.767 8.782-12.144 5.03-18.7-3.75-6.555-12.093-8.82-18.62-5.052" fill="#006FB4"/><path d="M-9.525-13.65c6.528-3.767 14.871-1.504 18.622 5.052 3.751 6.555 1.497 14.934-5.03 18.7-6.528 3.768-14.871 1.504-18.622-5.052-3.751-6.555-1.497-14.933 5.03-18.7l-.08-.088c-6.57 3.79-8.837 12.22-5.063 18.817 3.775 6.597 12.17 8.875 18.739 5.084 6.57-3.79 8.836-12.221 5.062-18.818-3.775-6.597-12.17-8.874-18.738-5.083" fill="#006FB4"/><path d="M-9.619-13.725c6.57-3.79 14.964-1.513 18.739 5.083 3.774 6.598 1.507 15.028-5.062 18.819-6.569 3.79-14.964 1.513-18.738-5.084-3.775-6.596-1.507-15.027 5.061-18.818l-.029-.088C-16.258-10-18.54-1.515-14.742 5.122c3.799 6.639 12.246 8.93 18.856 5.116 6.61-3.815 8.892-12.298 5.093-18.936-3.798-6.638-12.246-8.93-18.855-5.115" fill="#006EB4"/><path d="M-9.662-13.85c6.61-3.816 15.058-1.524 18.856 5.114C12.993-2.098 10.71 6.385 4.101 10.2c-6.61 3.815-15.057 1.523-18.856-5.116-3.798-6.637-1.516-15.12 5.093-18.935l-.029-.037c-6.65 3.838-8.947 12.373-5.125 19.053 3.822 6.68 12.321 8.985 18.973 5.147C10.807 6.474 13.104-2.062 9.28-8.74c-3.82-6.68-12.319-8.987-18.97-5.148" fill="#006EB4"/><path d="M-9.704-13.926c6.65-3.838 15.15-1.532 18.972 5.148C13.09-2.1 10.794 6.437 4.143 10.275c-6.65 3.838-15.15 1.532-18.972-5.148-3.822-6.678-1.526-15.215 5.125-19.053l-.03-.037c-6.692 3.862-9.002 12.45-5.157 19.17 3.846 6.722 12.398 9.041 19.09 5.18 6.692-3.862 9.002-12.45 5.157-19.171-3.846-6.72-12.397-9.04-19.09-5.179" fill="#006DB3"/><path d="M-9.746-13.949c6.691-3.862 15.243-1.541 19.089 5.18 3.845 6.72 1.535 15.308-5.157 19.17-6.692 3.862-15.244 1.542-19.09-5.18-3.845-6.72-1.535-15.308 5.158-19.17l-.03-.088c-6.734 3.885-9.058 12.526-5.19 19.288 3.87 6.762 12.475 9.096 19.208 5.211C10.975 6.576 13.3-2.065 9.43-8.827c-3.869-6.761-12.473-9.096-19.206-5.21" fill="#006DB3"/><path d="M-9.738-14.024C-3.005-17.909 5.6-15.574 9.47-8.812c3.868 6.76 1.544 15.402-5.19 19.288-6.732 3.885-15.337 1.55-19.206-5.211-3.868-6.761-1.544-15.403 5.19-19.288l-.082-.089c-6.774 3.91-9.113 12.603-5.22 19.406 3.892 6.803 12.55 9.152 19.324 5.243 6.773-3.91 9.112-12.604 5.22-19.407-3.893-6.802-12.55-9.151-19.324-5.242" fill="#006CB2"/><path d="M-9.78-14.098c6.773-3.91 15.43-1.56 19.323 5.243 3.893 6.802 1.554 15.496-5.22 19.405-6.774 3.91-15.432 1.56-19.324-5.242-3.893-6.803-1.554-15.497 5.22-19.406l-.08-.089c-6.816 3.933-9.169 12.68-5.253 19.524 3.917 6.844 12.626 9.207 19.442 5.274 6.814-3.933 9.168-12.68 5.25-19.524-3.915-6.844-12.624-9.207-19.44-5.274" fill="#006CB2"/><path d="M-9.875-14.173c6.815-3.933 15.525-1.57 19.441 5.275 3.916 6.843 1.563 15.59-5.252 19.523-6.815 3.932-15.524 1.57-19.44-5.274-3.917-6.844-1.564-15.59 5.251-19.524l-.03-.088c-6.856 3.956-9.223 12.755-5.283 19.64 3.94 6.886 12.702 9.264 19.558 5.307C11.226 6.73 13.593-2.07 9.653-8.956 5.713-15.84-3.048-18.218-9.904-14.26" fill="#006CB2"/><path d="M-9.917-14.3C-3.062-18.255 5.7-15.878 9.64-8.992c3.94 6.885 1.572 15.685-5.284 19.641-6.856 3.957-15.619 1.58-19.558-5.306-3.94-6.885-1.573-15.685 5.284-19.641l-.03-.037c-6.898 3.98-9.279 12.832-5.316 19.759 3.964 6.927 12.779 9.317 19.676 5.338C11.31 6.78 13.691-2.072 9.728-9 5.764-15.925-3.05-18.317-9.947-14.336" fill="#006CB2"/><path d="M-9.96-14.374c6.897-3.98 15.711-1.589 19.675 5.338 3.963 6.926 1.582 15.779-5.316 19.76-6.896 3.98-15.711 1.588-19.675-5.34-3.963-6.925-1.582-15.777 5.316-19.758l-.03-.037c-6.939 4.004-9.334 12.908-5.347 19.877 3.987 6.968 12.854 9.373 19.793 5.369C11.394 6.83 13.79-2.074 9.802-9.042 5.816-16.009-3.05-18.414-9.99-14.41" fill="#006BB1"/><path d="M-10.003-14.397c6.938-4.004 15.805-1.598 19.792 5.37 3.987 6.967 1.592 15.872-5.347 19.876-6.938 4.004-15.805 1.598-19.792-5.37-3.987-6.967-1.591-15.872 5.347-19.876l-.03-.088c-6.98 4.027-9.388 12.984-5.379 19.994 4.011 7.009 12.931 9.428 19.91 5.4 6.98-4.026 9.39-12.984 5.379-19.994-4.011-7.008-12.93-9.428-19.91-5.4" fill="#006BB1"/><path d="M-9.994-14.472C-3.016-18.5 5.904-16.079 9.915-9.07c4.01 7.008 1.6 15.966-5.379 19.994-6.979 4.028-15.899 1.608-19.91-5.402-4.01-7.01-1.6-15.966 5.38-19.994l-.082-.088c-7.02 4.05-9.444 13.06-5.41 20.111 4.035 7.051 13.007 9.485 20.027 5.433 7.02-4.05 9.444-13.061 5.41-20.112-4.034-7.05-13.006-9.484-20.027-5.432" fill="#006AB1"/><path d="M-10.037-14.546c7.02-4.051 15.992-1.617 20.026 5.433C14.023-2.063 11.6 6.947 4.58 11c-7.02 4.05-15.992 1.617-20.027-5.434-4.033-7.05-1.61-16.06 5.41-20.111l-.08-.089c-7.062 4.075-9.5 13.138-5.442 20.23 4.058 7.091 13.082 9.54 20.144 5.464 7.06-4.075 9.499-13.138 5.441-20.23-4.057-7.09-13.082-9.539-20.143-5.464" fill="#006AB0"/><path d="M-10.131-14.621c7.062-4.075 16.086-1.627 20.143 5.465C14.07-2.065 11.633 7 4.57 11.074c-7.06 4.074-16.086 1.626-20.143-5.466-4.058-7.092-1.62-16.154 5.442-20.23l-.03-.088c-7.103 4.1-9.554 13.214-5.473 20.347 4.08 7.133 13.158 9.596 20.26 5.497C11.73 7.036 14.182-2.08 10.1-9.213c-4.082-7.133-13.158-9.596-20.261-5.497" fill="#006AB0"/><path d="M-10.174-14.748c7.103-4.098 16.18-1.636 20.261 5.497 4.08 7.133 1.63 16.248-5.474 20.347-7.103 4.098-16.179 1.636-20.26-5.497-4.081-7.133-1.63-16.248 5.473-20.347l-.03-.037c-7.143 4.123-9.61 13.29-5.504 20.465 4.104 7.174 13.234 9.651 20.378 5.528 7.143-4.122 9.609-13.29 5.504-20.464-4.104-7.174-13.234-9.65-20.378-5.529" fill="#0069AF"/><path d="M-10.217-14.822c7.144-4.122 16.273-1.646 20.378 5.529C14.266-2.12 11.8 7.048 4.656 11.17c-7.144 4.123-16.273 1.646-20.378-5.528-4.105-7.175-1.638-16.342 5.505-20.465l-.03-.037c-7.184 4.146-9.664 13.367-5.536 20.582 4.129 7.216 13.31 9.706 20.495 5.56 7.184-4.146 9.665-13.367 5.537-20.581-4.13-7.216-13.31-9.707-20.496-5.561" fill="#0069AF"/><path d="M-10.26-14.845c7.185-4.147 16.367-1.655 20.496 5.56 4.128 7.216 1.648 16.436-5.537 20.583-7.185 4.145-16.367 1.655-20.495-5.561-4.129-7.215-1.648-16.436 5.537-20.582l-.03-.089c-7.226 4.17-9.72 13.444-5.568 20.7 4.152 7.257 13.386 9.762 20.612 5.592 7.225-4.17 9.72-13.444 5.568-20.7-4.153-7.256-13.386-9.761-20.612-5.592" fill="#0068AF"/><path d="M-10.25-14.92c7.225-4.17 16.459-1.664 20.611 5.592 4.152 7.257 1.658 16.53-5.568 20.7-7.226 4.17-16.46 1.665-20.612-5.592-4.152-7.257-1.658-16.53 5.568-20.7l-.081-.088c-7.267 4.193-9.775 13.52-5.6 20.817 4.176 7.298 13.463 9.817 20.73 5.623 7.266-4.193 9.775-13.52 5.6-20.816-4.176-7.298-13.463-9.818-20.73-5.624" fill="#0068AF"/><path d="M-10.293-14.995c7.266-4.193 16.553-1.674 20.729 5.624 4.175 7.298 1.666 16.625-5.6 20.818-7.267 4.193-16.554 1.674-20.73-5.624-4.176-7.298-1.667-16.624 5.6-20.818l-.08-.088c-7.309 4.217-9.831 13.596-5.632 20.935 4.199 7.34 13.539 9.873 20.846 5.655 7.308-4.216 9.831-13.596 5.632-20.934-4.2-7.34-13.539-9.874-20.847-5.656" fill="#0068AE"/><path d="M-10.388-15.07C-3.08-19.285 6.26-16.753 10.46-9.413c4.199 7.34 1.676 16.718-5.632 20.935-7.308 4.217-16.647 1.684-20.847-5.655-4.198-7.34-1.676-16.718 5.632-20.935l-.03-.089c-7.349 4.24-9.886 13.673-5.662 21.053 4.222 7.38 13.614 9.928 20.962 5.687 7.35-4.24 9.887-13.673 5.664-21.052-4.223-7.38-13.615-9.929-20.964-5.688" fill="#0067AD"/><path d="M-10.43-15.196c7.349-4.24 16.74-1.692 20.963 5.688 4.223 7.38 1.686 16.811-5.663 21.052-7.35 4.242-16.74 1.694-20.964-5.687-4.223-7.38-1.685-16.811 5.664-21.053l-.03-.037c-7.39 4.265-9.941 13.75-5.695 21.171 4.247 7.422 13.691 9.983 21.08 5.719 7.39-4.265 9.942-13.749 5.696-21.17-4.247-7.422-13.691-9.984-21.081-5.72" fill="#0067AD"/><path d="M-10.473-15.27c7.39-4.264 16.834-1.703 21.08 5.72 4.246 7.42 1.696 16.905-5.695 21.17-7.39 4.264-16.834 1.702-21.08-5.72-4.246-7.421-1.695-16.906 5.695-21.17l-.03-.037C-17.934-11.02-20.5-1.482-16.23 5.98c4.27 7.463 13.766 10.04 21.197 5.75 7.431-4.288 9.997-13.825 5.727-21.287-4.27-7.463-13.767-10.04-21.198-5.751" fill="#0067AD"/><path d="M-10.516-15.294c7.431-4.287 16.928-1.711 21.198 5.752 4.27 7.462 1.704 17-5.727 21.287-7.43 4.289-16.927 1.713-21.198-5.75-4.27-7.463-1.704-17 5.727-21.289l-.03-.088C-18.018-11.07-20.597-1.48-16.304 6.024c4.294 7.504 13.843 10.094 21.315 5.782 7.472-4.312 10.052-13.901 5.758-21.405-4.293-7.504-13.843-10.095-21.315-5.783" fill="#0066AD"/><path d="M-10.559-15.368c7.473-4.311 17.021-1.721 21.316 5.783C15.05-2.081 12.47 7.508 4.998 11.82c-7.472 4.312-17.02 1.722-21.315-5.782-4.294-7.504-1.714-17.094 5.758-21.406l-.03-.089c-7.513 4.336-10.106 13.979-5.789 21.524 4.317 7.545 13.918 10.15 21.432 5.814 7.513-4.335 10.107-13.978 5.79-21.523-4.318-7.545-13.92-10.15-21.433-5.815" fill="#0066AC"/><path d="M-10.55-15.442c7.513-4.336 17.115-1.732 21.431 5.814C15.2-2.083 12.605 7.559 5.092 11.894-2.42 16.23-12.023 13.626-16.339 6.08c-4.318-7.545-1.724-17.187 5.789-21.522l-.081-.09c-7.555 4.36-10.162 14.055-5.821 21.642 4.34 7.585 13.994 10.204 21.548 5.845 7.555-4.359 10.163-14.054 5.822-21.64-4.34-7.586-13.995-10.206-21.55-5.846" fill="#0065AC"/><path d="M-10.644-15.517c7.554-4.36 17.208-1.74 21.549 5.846 4.341 7.586 1.733 17.281-5.821 21.64-7.555 4.36-17.208 1.74-21.55-5.846-4.34-7.586-1.732-17.28 5.822-21.64l-.03-.09c-7.595 4.384-10.217 14.132-5.853 21.76 4.365 7.627 14.07 10.26 21.666 5.877S15.357-2.1 10.992-9.728c-4.364-7.627-14.07-10.26-21.666-5.878" fill="#0065AC"/><path d="M-10.687-15.591c7.595-4.384 17.302-1.75 21.666 5.877 4.364 7.628 1.743 17.376-5.853 21.758-7.595 4.383-17.302 1.75-21.666-5.878-4.364-7.627-1.742-17.375 5.853-21.758l-.03-.089c-7.636 4.407-10.272 14.208-5.884 21.877 4.388 7.669 14.146 10.315 21.783 5.909 7.636-4.406 10.272-14.207 5.885-21.876-4.389-7.669-14.148-10.316-21.784-5.91" fill="#0065AB"/><path d="M-10.73-15.718c7.637-4.407 17.395-1.76 21.783 5.91C15.442-2.14 12.805 7.66 5.17 12.066c-7.636 4.407-17.395 1.76-21.783-5.91-4.389-7.668-1.752-17.468 5.884-21.875l-.03-.038c-7.677 4.43-10.327 14.284-5.915 21.995 4.411 7.709 14.222 10.371 21.9 5.94C12.902 7.75 15.553-2.103 11.14-9.813c-4.411-7.71-14.223-10.372-21.9-5.942" fill="#0064AB"/><path d="M-10.773-15.741c7.678-4.43 17.489-1.77 21.9 5.94C15.54-2.09 12.89 7.764 5.213 12.194c-7.678 4.43-17.489 1.77-21.9-5.94-4.412-7.71-1.762-17.564 5.915-21.994l-.03-.09C-18.52-11.375-21.185-1.47-16.75 6.282c4.435 7.75 14.299 10.428 22.017 5.973C12.986 7.8 15.65-2.106 11.216-9.856c-4.436-7.752-14.3-10.428-22.018-5.974" fill="#0064AA"/><path d="M-10.815-15.816c7.718-4.454 17.582-1.778 22.017 5.973 4.436 7.751 1.771 17.657-5.947 22.111-7.719 4.454-17.583 1.779-22.018-5.973-4.435-7.751-1.77-17.657 5.948-22.11l-.03-.09c-7.76 4.478-10.438 14.437-5.98 22.229 4.46 7.792 14.376 10.483 22.135 6.005C13.07 7.851 15.75-2.107 11.29-9.9c-4.459-7.792-14.376-10.483-22.135-6.005" fill="#0063AA"/><path d="M-10.807-15.89c7.76-4.478 17.676-1.788 22.135 6.004 4.458 7.793 1.78 17.751-5.98 22.229-7.759 4.477-17.675 1.788-22.134-6.005-4.458-7.792-1.78-17.75 5.98-22.228l-.082-.09c-7.8 4.502-10.493 14.514-6.01 22.347 4.482 7.833 14.45 10.538 22.25 6.037C13.154 7.902 15.847-2.11 11.365-9.942 6.882-17.776-3.087-20.481-10.887-15.98" fill="#0063AA"/><path d="M-10.9-15.965c7.8-4.502 17.769-1.798 22.25 6.036 4.484 7.834 1.79 17.845-6.01 22.346-7.8 4.502-17.77 1.798-22.252-6.036-4.482-7.834-1.79-17.845 6.011-22.346l-.03-.09c-7.841 4.526-10.548 14.59-6.042 22.464 4.506 7.875 14.527 10.594 22.369 6.07 7.841-4.525 10.549-14.59 6.043-22.465-4.507-7.874-14.528-10.593-22.37-6.069" fill="#0063A9"/><path d="M-10.944-16.04c7.842-4.526 17.864-1.807 22.37 6.068s1.799 17.94-6.043 22.464C-2.46 17.017-12.48 14.3-16.986 6.424s-1.8-17.94 6.043-22.464l-.03-.09c-7.883 4.55-10.604 14.666-6.074 22.583 4.53 7.915 14.603 10.649 22.485 6.1 7.883-4.549 10.604-14.665 6.075-22.582-4.53-7.916-14.604-10.648-22.486-6.1" fill="#0062A9"/><path d="M-10.986-16.166c7.882-4.55 17.956-1.817 22.485 6.1 4.53 7.916 1.81 18.032-6.074 22.581-7.882 4.55-17.956 1.817-22.485-6.1-4.53-7.916-1.809-18.032 6.074-22.581l-.03-.037c-7.924 4.572-10.659 14.74-6.106 22.698 4.554 7.958 14.68 10.705 22.603 6.133 7.924-4.573 10.66-14.742 6.107-22.7-4.554-7.957-14.68-10.704-22.604-6.131" fill="#0062A8"/><path d="M-11.029-16.19c7.924-4.572 18.05-1.825 22.603 6.132 4.554 7.958 1.818 18.128-6.106 22.7-7.923 4.573-18.05 1.825-22.603-6.132-4.553-7.957-1.818-18.127 6.106-22.7l-.03-.088c-7.964 4.596-10.714 14.818-6.137 22.816 4.576 7.999 14.755 10.76 22.72 6.165 7.965-4.597 10.715-14.819 6.138-22.817-4.578-7.999-14.755-10.76-22.72-6.164" fill="#0061A8"/><path d="M-11.072-16.264c7.965-4.596 18.144-1.835 22.72 6.163 4.577 8 1.828 18.221-6.137 22.817-7.965 4.597-18.143 1.836-22.72-6.163-4.577-7.999-1.828-18.22 6.137-22.817l-.029-.088C-19.107-11.733-21.87-1.46-17.27 6.58c4.601 8.04 14.832 10.816 22.838 6.196 8.005-4.62 10.77-14.894 6.17-22.934-4.601-8.04-14.832-10.816-22.838-6.195" fill="#0061A8"/><path d="M-11.063-16.339c8.006-4.62 18.237-1.844 22.837 6.195 4.6 8.04 1.837 18.315-6.169 22.935-8.006 4.62-18.237 1.845-22.837-6.195-4.6-8.04-1.837-18.315 6.169-22.935l-.08-.088c-8.047 4.643-10.826 14.97-6.202 23.051 4.624 8.081 14.908 10.871 22.954 6.228C13.656 8.209 16.435-2.119 11.81-10.2c-4.624-8.081-14.907-10.872-22.954-6.227" fill="#0061A8"/><path d="M-11.157-16.413c8.047-4.644 18.33-1.855 22.954 6.226 4.624 8.082 1.846 18.41-6.2 23.053-8.047 4.643-18.331 1.854-22.955-6.227-4.624-8.081-1.846-18.41 6.2-23.052l-.028-.089c-8.088 4.667-10.881 15.047-6.233 23.17 4.647 8.121 14.983 10.926 23.071 6.259 8.088-4.668 10.88-15.048 6.232-23.17-4.646-8.123-14.982-10.926-23.07-6.259" fill="#0060A7"/><path d="M-11.2-16.488c8.088-4.668 18.424-1.864 23.072 6.259 4.647 8.122 1.855 18.502-6.233 23.17-8.088 4.667-18.424 1.863-23.071-6.26-4.648-8.122-1.856-18.502 6.232-23.17l-.03-.088c-8.128 4.691-10.935 15.123-6.264 23.287 4.672 8.164 15.06 10.982 23.189 6.291 8.129-4.691 10.936-15.124 6.264-23.287-4.67-8.164-15.06-10.982-23.188-6.29" fill="#0060A7"/><path d="M-11.243-16.614c8.13-4.691 18.518-1.873 23.189 6.29C16.617-2.16 13.81 8.273 5.682 12.964c-8.129 4.69-18.518 1.873-23.189-6.291-4.671-8.164-1.865-18.597 6.264-23.288l-.029-.036c-8.17 4.714-10.991 15.2-6.296 23.404 4.694 8.205 15.136 11.038 23.306 6.323 8.17-4.715 10.99-15.2 6.295-23.405-4.695-8.205-15.135-11.037-23.305-6.322" fill="#005FA6"/><path d="M-11.286-16.638c8.17-4.714 18.612-1.882 23.306 6.323 4.695 8.204 1.875 18.69-6.295 23.405s-18.611 1.882-23.306-6.323c-4.695-8.204-1.875-18.69 6.295-23.405l-.029-.088c-8.21 4.738-11.045 15.276-6.328 23.522C-12.924 15.042-2.43 17.889 5.78 13.15c8.211-4.739 11.046-15.277 6.328-23.523-4.718-8.246-15.212-11.093-23.423-6.354" fill="#005FA6"/><path d="M-11.328-16.712c8.21-4.739 18.704-1.892 23.423 6.354 4.718 8.246 1.884 18.784-6.327 23.523-8.211 4.738-18.705 1.892-23.424-6.354-4.718-8.247-1.883-18.785 6.328-23.523l-.03-.089c-8.252 4.762-11.1 15.353-6.36 23.64 4.743 8.287 15.29 11.149 23.541 6.387 8.252-4.762 11.102-15.354 6.359-23.64-4.742-8.288-15.287-11.149-23.54-6.387" fill="#005FA6"/><path d="M-11.32-16.787c8.252-4.762 18.799-1.901 23.54 6.386 4.742 8.287 1.894 18.878-6.358 23.64-8.252 4.762-18.799 1.902-23.54-6.386-4.742-8.288-1.894-18.878 6.358-23.64l-.08-.088c-8.293 4.785-11.156 15.428-6.391 23.757C-13.026 15.21-2.427 18.085 5.866 13.3c8.293-4.786 11.156-15.43 6.39-23.758C7.492-18.786-3.107-21.66-11.4-16.875" fill="#005EA5"/><path d="M-11.414-16.862c8.293-4.786 18.892-1.91 23.658 6.418 4.765 8.328 1.902 18.972-6.39 23.758-8.295 4.786-18.893 1.91-23.658-6.418-4.766-8.329-1.903-18.972 6.39-23.758l-.029-.088c-8.334 4.809-11.212 15.505-6.423 23.875 4.79 8.37 15.44 11.26 23.775 6.45 8.334-4.81 11.211-15.506 6.422-23.876-4.789-8.37-15.44-11.26-23.774-6.45" fill="#005EA5"/><path d="M-11.457-16.936c8.335-4.81 18.986-1.92 23.775 6.449 4.789 8.37 1.912 19.067-6.422 23.876-8.335 4.809-18.986 1.92-23.775-6.45-4.788-8.37-1.912-19.066 6.423-23.875l-.03-.089C-19.86-12.192-22.753-1.443-17.94 6.968c4.813 8.41 15.516 11.315 23.891 6.482 8.376-4.834 11.267-15.583 6.454-23.994-4.812-8.41-15.515-11.314-23.89-6.48" fill="#005DA4"/><path d="M-11.5-17.063c8.377-4.833 19.08-1.93 23.892 6.481 4.813 8.412 1.922 19.16-6.453 23.994-8.376 4.833-19.08 1.929-23.892-6.482-4.813-8.411-1.922-19.16 6.454-23.993l-.03-.037c-8.416 4.857-11.321 15.658-6.486 24.11 4.837 8.453 15.593 11.37 24.01 6.514 8.416-4.857 11.321-15.659 6.485-24.11C7.644-19.04-3.112-21.957-11.528-17.1" fill="#005DA4"/><path d="M-11.542-17.137c8.417-4.857 19.172-1.94 24.009 6.513 4.835 8.453 1.93 19.253-6.486 24.11-8.417 4.857-19.172 1.94-24.008-6.513-4.836-8.452-1.931-19.253 6.485-24.11l-.03-.037c-8.457 4.88-11.377 15.734-6.517 24.227C-13.23 15.547-2.42 18.48 6.037 13.6c8.457-4.881 11.377-15.735 6.517-24.229-4.86-8.493-15.668-11.425-24.125-6.544" fill="#005CA3"/><path d="M-11.585-17.16c8.458-4.881 19.266-1.95 24.126 6.545 4.86 8.493 1.94 19.347-6.517 24.228-8.458 4.88-19.266 1.948-24.126-6.546-4.86-8.493-1.94-19.347 6.517-24.228l-.029-.088c-8.498 4.904-11.432 15.81-6.55 24.345 4.884 8.535 15.745 11.481 24.244 6.578 8.498-4.905 11.432-15.812 6.548-24.347-4.883-8.534-15.744-11.48-24.242-6.576" fill="#005CA3"/><path d="M-11.575-17.235c8.498-4.905 19.358-1.958 24.242 6.577 4.883 8.535 1.95 19.441-6.55 24.346-8.498 4.904-19.358 1.957-24.242-6.578-4.884-8.534-1.95-19.44 6.55-24.345l-.082-.089c-8.54 4.928-11.488 15.888-6.58 24.463 4.907 8.576 15.82 11.537 24.36 6.61 8.539-4.929 11.486-15.889 6.58-24.465-4.907-8.575-15.82-11.536-24.36-6.608" fill="#005CA3"/><path d="M-11.618-17.31c8.54-4.928 19.452-1.968 24.36 6.61C17.647-2.126 14.7 8.833 6.16 13.761-2.38 18.69-13.293 15.73-18.2 7.153c-4.906-8.576-1.959-19.535 6.582-24.463l-.082-.088c-8.58 4.951-11.542 15.963-6.612 24.58 4.93 8.617 15.897 11.592 24.477 6.64 8.58-4.95 11.543-15.963 6.612-24.58-4.93-8.617-15.896-11.592-24.477-6.64" fill="#005BA3"/><path d="M-11.712-17.385c8.58-4.951 19.546-1.977 24.476 6.641 4.931 8.617 1.969 19.63-6.612 24.581-8.58 4.952-19.546 1.977-24.477-6.641-4.93-8.617-1.969-19.63 6.613-24.58l-.03-.09c-8.622 4.976-11.598 16.041-6.645 24.7 4.955 8.657 15.974 11.647 24.595 6.671 8.621-4.975 11.598-16.04 6.644-24.698C7.898-19.46-3.121-22.45-11.742-17.473" fill="#005AA2"/><path d="M-11.755-17.511c8.621-4.975 19.64-1.986 24.594 6.673C17.793-2.18 14.817 8.884 6.194 13.86c-8.621 4.975-19.639 1.987-24.593-6.672-4.954-8.659-1.978-19.723 6.644-24.699l-.03-.037c-8.663 5-11.654 16.117-6.675 24.816 4.978 8.7 16.048 11.703 24.71 6.704 8.663-5 11.654-16.116 6.676-24.816s-16.048-11.703-24.71-6.704" fill="#005AA1"/><path d="M-11.798-17.586c8.663-4.999 19.733-1.995 24.711 6.705 4.978 8.7 1.987 19.817-6.676 24.816-8.662 4.999-19.733 1.995-24.71-6.705-4.979-8.699-1.988-19.817 6.675-24.816l-.03-.037C-20.53-12.6-23.536-1.429-18.535 7.311c5.001 8.74 16.125 11.759 24.829 6.736C14.997 9.024 18.002-2.146 13-10.887c-5-8.74-16.124-11.759-24.828-6.736" fill="#005AA1"/><path d="M-11.84-17.609c8.703-5.022 19.826-2.005 24.828 6.736 5 8.741 1.996 19.911-6.708 24.934-8.704 5.022-19.826 2.005-24.828-6.736-5.001-8.74-1.997-19.91 6.707-24.934l-.03-.088c-8.744 5.046-11.764 16.27-6.738 25.051 5.025 8.782 16.2 11.814 24.945 6.767C15.081 9.075 18.1-2.147 13.075-10.93c-5.025-8.782-16.2-11.814-24.945-6.767" fill="#0059A1"/><path d="M-11.832-17.684c8.745-5.046 19.92-2.014 24.945 6.769 5.025 8.781 2.006 20.004-6.74 25.05-8.744 5.047-19.92 2.015-24.944-6.767-5.025-8.782-2.007-20.005 6.739-25.052l-.081-.088c-8.786 5.07-11.82 16.346-6.77 25.169 5.047 8.823 16.275 11.87 25.062 6.799 8.786-5.07 11.819-16.345 6.77-25.17C8.1-19.795-3.128-22.841-11.913-17.771" fill="#0058A0"/><path d="M-11.875-17.758c8.786-5.07 20.014-2.024 25.063 6.8C18.236-2.136 15.203 9.14 6.417 14.21c-8.786 5.069-20.014 2.023-25.063-6.8-5.049-8.823-2.015-20.1 6.771-25.17l-.081-.088c-8.827 5.094-11.875 16.423-6.802 25.287 5.072 8.864 16.352 11.925 25.18 6.83 8.826-5.093 11.873-16.42 6.801-25.286-5.071-8.864-16.352-11.924-25.179-6.83" fill="#0058A0"/><path d="M-11.969-17.833c8.827-5.094 20.107-2.034 25.18 6.831 5.071 8.865 2.025 20.193-6.803 25.287-8.827 5.094-20.107 2.033-25.18-6.831-5.071-8.865-2.024-20.193 6.803-25.287l-.03-.089c-8.868 5.118-11.929 16.5-6.833 25.405 5.096 8.905 16.428 11.98 25.297 6.862 8.867-5.117 11.929-16.498 6.833-25.404C8.202-19.965-3.131-23.039-12-17.922" fill="#00589F"/><path d="M-12.012-17.96C-3.144-23.076 8.19-20 13.285-11.095 18.381-2.19 15.32 9.191 6.451 14.308c-8.868 5.118-20.201 2.043-25.297-6.863-5.096-8.905-2.034-20.287 6.834-25.404l-.03-.037c-8.908 5.141-11.984 16.575-6.865 25.522 5.12 8.947 16.505 12.036 25.414 6.894 8.91-5.14 11.985-16.574 6.865-25.522-5.12-8.947-16.505-12.035-25.413-6.894" fill="#00589F"/><path d="M-12.054-18.034c8.909-5.14 20.294-2.052 25.414 6.895 5.118 8.947 2.043 20.38-6.866 25.522-8.91 5.14-20.294 2.052-25.414-6.895-5.12-8.947-2.044-20.38 6.866-25.522l-.03-.037c-8.95 5.165-12.04 16.652-6.897 25.64 5.143 8.988 16.58 12.09 25.531 6.926 8.95-5.165 12.04-16.651 6.897-25.64-5.143-8.988-16.581-12.09-25.531-6.926" fill="#00579F"/><path d="M-12.097-18.057c8.95-5.165 20.387-2.062 25.53 6.927 5.144 8.988 2.054 20.474-6.897 25.639-8.95 5.165-20.387 2.061-25.53-6.926-5.143-8.988-2.054-20.475 6.897-25.64l-.03-.089c-8.99 5.19-12.095 16.729-6.928 25.758C-13.89 16.64-2.4 19.758 6.593 14.57c8.99-5.19 12.095-16.728 6.928-25.757-5.167-9.03-16.657-12.147-25.648-6.959" fill="#00569E"/><path d="M-12.088-18.132c8.99-5.188 20.48-2.07 25.648 6.959 5.166 9.029 2.062 20.568-6.93 25.757-8.99 5.188-20.48 2.07-25.648-6.959-5.166-9.029-2.062-20.568 6.93-25.757l-.082-.088c-9.032 5.212-12.15 16.804-6.96 25.875 5.19 9.07 16.733 12.202 25.766 6.99 9.032-5.213 12.15-16.804 6.96-25.875-5.19-9.07-16.734-12.202-25.766-6.99" fill="#00569E"/><path d="M-12.131-18.207c9.032-5.212 20.574-2.08 25.765 6.99 5.19 9.071 2.072 20.663-6.96 25.875-9.033 5.213-20.575 2.08-25.766-6.99-5.19-9.07-2.072-20.662 6.96-25.875l-.08-.088c-9.074 5.236-12.206 16.881-6.992 25.993 5.214 9.111 16.808 12.257 25.882 7.021 9.073-5.236 12.206-16.88 6.992-25.992-5.214-9.112-16.81-12.258-25.883-7.022" fill="#00569E"/><path d="M-12.225-18.281c9.073-5.235 20.668-2.09 25.882 7.022 5.214 9.112 2.08 20.757-6.992 25.992-9.073 5.236-20.67 2.09-25.883-7.022-5.214-9.111-2.081-20.756 6.993-25.992l-.03-.089C-21.37-13.11-24.516-1.412-19.28 7.74c5.237 9.153 16.885 12.314 26 7.054 9.114-5.26 12.26-16.957 7.023-26.11-5.237-9.153-16.885-12.313-26-7.054" fill="#00559D"/><path d="M-12.268-18.407c9.114-5.26 20.762-2.1 26 7.054 5.236 9.152 2.09 20.85-7.025 26.109-9.114 5.26-20.762 2.1-26-7.053-5.236-9.153-2.09-20.85 7.025-26.11l-.03-.037c-9.155 5.283-12.316 17.033-7.055 26.228 5.26 9.194 16.96 12.368 26.116 7.084 9.156-5.283 12.316-17.033 7.056-26.227-5.261-9.195-16.962-12.369-26.117-7.085" fill="#00549D"/><path d="M-12.31-18.482c9.154-5.284 20.854-2.109 26.115 7.085 5.262 9.195 2.1 20.944-7.055 26.228-9.155 5.283-20.855 2.109-26.117-7.085-5.26-9.194-2.099-20.944 7.056-26.228l-.03-.037c-9.196 5.307-12.371 17.11-7.086 26.345 5.284 9.236 17.037 12.424 26.233 7.117 9.197-5.307 12.371-17.11 7.087-26.345-5.285-9.236-17.037-12.424-26.234-7.117" fill="#00549C"/><path d="M-12.354-18.505c9.197-5.307 20.95-2.118 26.233 7.117 5.285 9.235 2.11 21.038-7.086 26.345-9.196 5.307-20.95 2.118-26.234-7.117-5.284-9.235-2.109-21.038 7.087-26.345l-.03-.089C-21.62-13.263-24.81-1.408-19.502 7.869c5.308 9.277 17.113 12.48 26.35 7.149 9.239-5.33 12.427-17.186 7.12-26.463-5.31-9.277-17.114-12.48-26.352-7.149" fill="#00539C"/><path d="M-12.345-18.58c9.237-5.33 21.042-2.127 26.35 7.15 5.309 9.276 2.12 21.131-7.118 26.462-9.237 5.33-21.042 2.128-26.35-7.149-5.309-9.276-2.12-21.132 7.118-26.462l-.081-.09c-9.278 5.355-12.482 17.263-7.15 26.581 5.332 9.318 17.189 12.535 26.467 7.18 9.28-5.354 12.483-17.262 7.15-26.58-5.33-9.318-17.188-12.535-26.467-7.18" fill="#00539B"/><path d="M-12.388-18.654c9.278-5.355 21.137-2.137 26.468 7.18 5.331 9.318 2.128 21.226-7.15 26.58-9.278 5.355-21.137 2.138-26.468-7.18-5.331-9.318-2.128-21.226 7.15-26.58l-.081-.09c-9.32 5.38-12.537 17.34-7.182 26.7 5.355 9.358 17.266 12.589 26.585 7.211C16.254 9.79 19.471-2.17 14.116-11.53s-17.265-12.591-26.585-7.213" fill="#00529B"/><path d="M-12.482-18.729c9.32-5.378 21.23-2.147 26.585 7.212 5.355 9.36 2.138 21.32-7.182 26.698-9.32 5.379-21.23 2.147-26.584-7.212-5.356-9.359-2.138-21.32 7.181-26.698l-.03-.089c-9.36 5.402-12.592 17.415-7.213 26.816 5.379 9.4 17.341 12.646 26.702 7.244C16.338 9.84 19.57-2.173 14.19-11.573 8.81-20.974-3.151-24.22-12.512-18.818" fill="#00529B"/><path d="M-12.525-18.855c9.36-5.402 21.323-2.156 26.702 7.244 5.379 9.4 2.147 21.413-7.213 26.815-9.36 5.402-21.323 2.157-26.702-7.244-5.379-9.4-2.147-21.413 7.213-26.815l-.03-.038C-21.956-13.467-25.202-1.4-19.799 8.041c5.402 9.442 17.417 12.701 26.818 7.276 9.403-5.426 12.648-17.492 7.246-26.933-5.403-9.443-17.417-12.702-26.82-7.277" fill="#00519A"/><path d="M-12.567-18.93c9.4-5.425 21.416-2.166 26.818 7.276 5.403 9.441 2.157 21.508-7.244 26.933-9.402 5.426-21.417 2.166-26.82-7.276-5.402-9.441-2.156-21.508 7.246-26.933l-.03-.038C-22.04-13.518-25.3-1.399-19.874 8.084c5.426 9.483 17.494 12.756 26.936 7.307 9.444-5.449 12.703-17.568 7.277-27.05-5.426-9.484-17.493-12.757-26.936-7.309" fill="#00519A"/><path d="M-12.61-18.953c9.442-5.449 21.51-2.175 26.936 7.307 5.427 9.483 2.166 21.602-7.277 27.051-9.442 5.45-21.51 2.175-26.936-7.307-5.426-9.483-2.166-21.602 7.277-27.05l-.03-.09c-9.484 5.473-12.758 17.644-7.308 27.169 5.45 9.524 17.57 12.812 27.053 7.34 9.484-5.474 12.758-17.645 7.309-27.17-5.45-9.524-17.57-12.811-27.054-7.34" fill="#005099"/><path d="M-12.602-19.028c9.484-5.473 21.604-2.184 27.053 7.34 5.45 9.523 2.176 21.695-7.307 27.168-9.484 5.473-21.604 2.184-27.054-7.34-5.45-9.523-2.175-21.695 7.308-27.168l-.08-.089c-9.525 5.497-12.813 17.721-7.34 27.287 5.472 9.565 17.645 12.867 27.17 7.37 9.525-5.495 12.813-17.72 7.34-27.285-5.473-9.566-17.645-12.868-27.17-7.372" fill="#005099"/><path d="M-12.644-19.102c9.524-5.497 21.697-2.194 27.17 7.37C20-2.165 16.71 10.059 7.186 15.556c-9.524 5.497-21.697 2.194-27.17-7.371-5.474-9.566-2.185-21.79 7.34-27.286l-.082-.089c-9.565 5.52-12.868 17.797-7.37 27.404 5.496 9.605 17.72 12.922 27.286 7.402 9.566-5.52 12.869-17.798 7.372-27.404-5.497-9.607-17.722-12.923-27.289-7.403" fill="#004F99"/><path d="M-12.738-19.177c9.565-5.52 21.79-2.204 27.287 7.403 5.497 9.606 2.194 21.883-7.371 27.403-9.566 5.52-21.79 2.204-27.288-7.402-5.497-9.608-2.194-21.884 7.372-27.404l-.03-.088c-9.607 5.543-12.924 17.872-7.403 27.52 5.52 9.648 17.798 12.979 27.404 7.435 9.608-5.544 12.924-17.874 7.404-27.521C9.117-21.48-3.16-24.81-12.768-19.265" fill="#004F98"/><path d="M-12.781-19.303c9.606-5.544 21.885-2.213 27.405 7.434 5.52 9.649 2.203 21.978-7.403 27.521-9.608 5.545-21.885 2.214-27.405-7.434s-2.204-21.978 7.403-27.521l-.03-.037C-22.46-13.773-25.79-1.39-20.246 8.299s17.874 13.034 27.522 7.466c9.649-5.568 12.98-17.95 7.435-27.639-5.544-9.69-17.874-13.034-27.522-7.466" fill="#004F98"/><path d="M-12.824-19.378c9.649-5.567 21.978-2.223 27.522 7.466 5.544 9.69 2.213 22.072-7.435 27.64-9.648 5.567-21.978 2.222-27.522-7.467-5.543-9.69-2.213-22.072 7.435-27.639l-.03-.037c-9.689 5.59-13.034 18.026-7.466 27.756 5.568 9.73 17.95 13.09 27.639 7.499 9.69-5.592 13.034-18.027 7.466-27.757-5.567-9.73-17.95-13.09-27.639-7.498" fill="#004E98"/><path d="M-12.867-19.401c9.69-5.592 22.071-2.232 27.64 7.498 5.567 9.73 2.222 22.165-7.467 27.756-9.69 5.592-22.071 2.232-27.639-7.498-5.568-9.73-2.223-22.165 7.466-27.756l-.03-.088c-9.73 5.614-13.088 18.102-7.498 27.873 5.591 9.772 18.027 13.145 27.757 7.53 9.73-5.615 13.09-18.103 7.497-27.874-5.59-9.771-18.025-13.145-27.756-7.53" fill="#004E97"/><path d="M-12.858-19.476c9.73-5.615 22.165-2.241 27.756 7.53 5.59 9.772 2.232 22.26-7.498 27.874-9.73 5.615-22.165 2.242-27.756-7.53-5.592-9.772-2.232-22.26 7.498-27.874l-.081-.088c-9.771 5.638-13.145 18.178-7.53 27.99 5.615 9.814 18.103 13.202 27.873 7.563 9.772-5.639 13.145-18.18 7.53-27.992-5.615-9.812-18.102-13.2-27.873-7.561" fill="#004D96"/><path d="M-12.901-19.55c9.772-5.64 22.258-2.251 27.873 7.561 5.615 9.813 2.242 22.353-7.53 27.992-9.77 5.639-22.258 2.25-27.872-7.562-5.615-9.813-2.242-22.353 7.529-27.992l-.08-.088c-9.813 5.662-13.2 18.255-7.562 28.109 5.638 9.854 18.178 13.256 27.99 7.594 9.813-5.663 13.2-18.256 7.561-28.11-5.638-9.853-18.177-13.256-27.99-7.593" fill="#004D96"/><path d="M-12.995-19.625c9.813-5.663 22.352-2.26 27.99 7.593 5.64 9.854 2.251 22.448-7.56 28.11-9.813 5.661-22.353 2.26-27.991-7.594-5.639-9.854-2.25-22.447 7.561-28.11l-.03-.088c-9.853 5.686-13.255 18.332-7.593 28.227 5.662 9.895 18.255 13.312 28.108 7.626 9.854-5.686 13.255-18.333 7.593-28.228-5.662-9.894-18.254-13.31-28.107-7.625" fill="#004C96"/><path d="M-13.038-19.752c9.854-5.686 22.446-2.27 28.108 7.625 5.662 9.896 2.26 22.542-7.593 28.228-9.854 5.686-22.446 2.27-28.108-7.625-5.661-9.896-2.26-22.542 7.593-28.227l-.029-.037c-9.895 5.709-13.31 18.407-7.625 28.343 5.686 9.937 18.33 13.367 28.225 7.658 9.894-5.71 13.31-18.409 7.624-28.345-5.685-9.936-18.33-13.367-28.224-7.656" fill="#004B95"/><path d="M-13.08-19.826c9.894-5.71 22.538-2.28 28.224 7.657s2.27 22.634-7.624 28.344c-9.895 5.71-22.54 2.28-28.225-7.656-5.686-9.937-2.27-22.635 7.624-28.345l-.029-.037C-23.045-14.13-26.475-1.38-20.767 8.598c5.71 9.979 18.407 13.423 28.342 7.69 9.936-5.734 13.366-18.485 7.656-28.463-5.708-9.977-18.406-13.422-28.34-7.688" fill="#004B95"/><path d="M-13.123-19.85c9.936-5.733 22.633-2.288 28.342 7.69 5.708 9.977 2.279 22.729-7.656 28.462-9.936 5.733-22.633 2.288-28.342-7.689-5.71-9.978-2.28-22.73 7.656-28.462l-.03-.089c-9.976 5.757-13.42 18.56-7.688 28.58 5.733 10.019 18.483 13.477 28.46 7.72 9.976-5.757 13.42-18.56 7.687-28.58-5.733-10.018-18.482-13.477-28.458-7.72" fill="#004B94"/><path d="M-13.166-19.924c9.977-5.758 22.726-2.298 28.459 7.72 5.733 10.02 2.288 22.823-7.688 28.58-9.977 5.758-22.726 2.298-28.459-7.72-5.733-10.02-2.288-22.823 7.688-28.58l-.029-.089c-10.018 5.78-13.476 18.638-7.72 28.697 5.757 10.06 18.558 13.534 28.576 7.753C17.679 10.656 21.137-2.2 15.38-12.26 9.623-22.32-3.179-25.794-13.196-20.012" fill="#004A94"/><path d="M-13.158-19.999c10.018-5.78 22.82-2.307 28.577 7.752 5.756 10.06 2.297 22.917-7.72 28.698-10.018 5.78-22.82 2.308-28.576-7.752-5.756-10.06-2.298-22.917 7.72-28.698l-.08-.088C-23.298-14.283-26.77-1.374-20.99 8.727c5.78 10.102 18.635 13.59 28.694 7.785 10.059-5.804 13.53-18.714 7.75-28.815-5.78-10.101-18.634-13.589-28.692-7.784" fill="#004993"/><path d="M-13.252-20.074c10.06-5.804 22.914-2.317 28.694 7.784 5.78 10.102 2.307 23.011-7.751 28.816-10.06 5.804-22.914 2.317-28.694-7.784-5.78-10.102-2.307-23.011 7.751-28.816l-.029-.088c-10.1 5.828-13.586 18.79-7.783 28.932 5.804 10.143 18.71 13.645 28.81 7.817 10.1-5.829 13.587-18.79 7.783-28.933-5.803-10.142-18.71-13.645-28.81-7.816" fill="#004893"/><path d="M-13.294-20.148c10.1-5.829 23.006-2.327 28.81 7.815C21.32-2.19 17.833 10.772 7.734 16.601c-10.1 5.827-23.007 2.326-28.81-7.816-5.805-10.143-2.317-23.105 7.782-28.933l-.03-.089c-10.14 5.852-13.641 18.867-7.815 29.05 5.828 10.184 18.787 13.7 28.928 7.848C17.93 10.81 21.43-2.204 15.603-12.389c-5.827-10.184-18.786-13.7-28.926-7.848" fill="#004892"/><path d="M-13.337-20.274c10.141-5.852 23.1-2.336 28.928 7.847 5.827 10.184 2.325 23.199-7.815 29.05-10.14 5.852-23.1 2.337-28.927-7.848-5.827-10.183-2.326-23.198 7.814-29.05l-.03-.037c-10.181 5.876-13.696 18.943-7.846 29.168 5.851 10.225 18.863 13.755 29.045 7.88 10.182-5.876 13.697-18.943 7.846-29.168-5.851-10.225-18.863-13.755-29.044-7.88" fill="#004792"/><path d="M-13.38-20.298c10.182-5.876 23.194-2.345 29.045 7.88C21.515-2.193 18 10.874 7.819 16.75c-10.182 5.876-23.194 2.345-29.045-7.88-5.85-10.225-2.335-23.292 7.846-29.168l-.029-.088c-10.223 5.899-13.752 19.02-7.878 29.285 5.875 10.267 18.938 13.81 29.162 7.911 10.222-5.899 13.752-19.018 7.877-29.285-5.874-10.266-18.939-13.81-29.16-7.911" fill="#004692"/><path d="M-13.422-20.372c10.223-5.9 23.287-2.355 29.161 7.91 5.874 10.267 2.345 23.387-7.877 29.287-10.223 5.899-23.287 2.354-29.162-7.911-5.874-10.267-2.345-23.387 7.878-29.286l-.03-.089c-10.264 5.923-13.807 19.096-7.91 29.403 5.898 10.308 19.015 13.866 29.28 7.943C18.18 10.962 21.723-2.21 15.826-12.518 9.929-22.825-3.188-26.384-13.452-20.461" fill="#004691"/><path d="M-13.414-20.447c10.264-5.923 23.381-2.364 29.28 7.943 5.897 10.308 2.353 23.48-7.91 29.403-10.264 5.923-23.381 2.365-29.28-7.943-5.897-10.307-2.353-23.48 7.91-29.403l-.08-.089C-23.8-14.589-27.357-1.363-21.435 8.984c5.92 10.35 19.09 13.923 29.395 7.975 10.305-5.946 13.863-19.17 7.941-29.52-5.921-10.348-19.09-13.922-29.395-7.975" fill="#004691"/><path d="M-13.508-20.522c10.305-5.946 23.474-2.373 29.396 7.975 5.921 10.349 2.364 23.574-7.94 29.521C-2.359 22.92-15.528 19.348-21.45 9c-5.92-10.349-2.363-23.574 7.941-29.52l-.03-.09c-10.343 5.97-13.915 19.25-7.969 29.639 5.944 10.39 19.166 13.977 29.512 8.006 10.345-5.97 13.917-19.247 7.972-29.638-5.944-10.39-19.167-13.977-29.512-8.006" fill="#004590"/><path d="M-13.55-20.596c10.345-5.97 23.568-2.384 29.513 8.007C21.907-2.2 18.335 11.079 7.99 17.049c-10.346 5.97-23.568 2.383-29.513-8.007s-2.373-23.668 7.972-29.639l-.029-.088c-10.387 5.994-13.973 19.324-8.004 29.756 5.968 10.431 19.242 14.032 29.63 8.038 10.386-5.993 13.973-19.324 8.004-29.756-5.97-10.43-19.243-14.032-29.63-8.038" fill="#004490"/><path d="M-13.594-20.723c10.388-5.993 23.662-2.392 29.63 8.04 5.97 10.43 2.383 23.76-8.004 29.755-10.387 5.993-23.66 2.393-29.63-8.039-5.969-10.43-2.382-23.761 8.004-29.756l-.029-.037C-24.05-14.742-27.65-1.358-21.658 9.114c5.992 10.473 19.318 14.088 29.746 8.07 10.428-6.018 14.028-19.401 8.036-29.874-5.992-10.472-19.32-14.087-29.747-8.07" fill="#00448F"/><path d="M-13.636-20.746c10.428-6.017 23.754-2.402 29.747 8.07 5.992 10.473 2.392 23.856-8.036 29.874-10.428 6.018-23.754 2.402-29.747-8.07-5.992-10.472-2.392-23.856 8.037-29.874l-.03-.088c-10.47 6.041-14.084 19.477-8.068 29.99C-15.717 19.672-2.338 23.3 8.131 17.259c10.469-6.041 14.083-19.477 8.067-29.99-6.015-10.514-19.394-14.144-29.863-8.102" fill="#00438F"/><path d="M-13.678-20.82c10.468-6.042 23.848-2.412 29.864 8.102 6.016 10.513 2.401 23.95-8.068 29.991-10.47 6.04-23.849 2.411-29.864-8.103-6.016-10.513-2.402-23.95 8.068-29.99l-.03-.09c-10.51 6.066-14.139 19.554-8.1 30.11 6.04 10.555 19.471 14.199 29.982 8.133 10.51-6.065 14.139-19.553 8.099-30.109-6.04-10.554-19.47-14.198-29.981-8.133" fill="#01428F"/></g></g><path d="M39.412 36.194l-7.277-16.71v16.71h-3.911V15.027h6.38l6.564 15.277V15.027h3.881v21.167h-5.637zm18.835-8.068v8.068h-4.501v-8.068L46.8 15.027h4.984l4.649 9.332 4.547-9.332h4.264l-6.997 13.1zm24.847 8.068V15.027h12.723v3h-8.412v5.726h7.719v2.995h-7.719v6.448h8.764v2.998H83.094zm-10.72.266c-1.994.035-4.14-.335-6.152-1.049v-3.178c1.918.696 3.722 1.125 5.555 1.08 2.506-.059 3.607-.928 3.645-2.666.038-1.628-1.092-2.15-4.348-3.757-3.115-1.54-5.137-2.76-5.184-6.105-.048-3.676 3.01-6.027 7.539-6.027 1.993 0 3.74.426 5.117.97v3.126c-1.548-.593-3.115-1.04-4.69-1.04-2.213 0-3.608.711-3.637 2.31-.029 1.576.968 2.074 3.93 3.422 4.36 1.98 5.66 3.7 5.632 6.73-.039 3.453-2.678 6.108-7.407 6.185z" fill="#1C2546"/></g><defs><clipPath id="clip0_12_1402"><path fill="#fff" transform="translate(0 .96)" d="M0 0h97v36H0z"/></clipPath></defs></svg>