<svg width="92" height="31" fill="none" xmlns="http://www.w3.org/2000/svg"><g clip-path="url(#clip0_12_1389)"><path d="M14.963 30.883c8.176 0 14.804-6.671 14.804-14.9 0-8.23-6.628-14.9-14.804-14.9-8.177 0-14.805 6.67-14.805 14.9 0 8.229 6.628 14.9 14.805 14.9z" fill="#FF4500"/><path d="M24.836 15.983a2.171 2.171 0 00-2.24-2.097 2.162 2.162 0 00-1.418.604 10.48 10.48 0 00-5.7-1.833l.96-4.648 3.169.67a1.482 1.482 0 001.63 1.322 1.487 1.487 0 001.314-1.64 1.482 1.482 0 00-1.63-1.323 1.465 1.465 0 00-1.119.73l-3.628-.73a.459.459 0 00-.549.352v.007l-1.093 5.17c-2.06.034-4.066.671-5.774 1.834a2.15 2.15 0 00-3.054.097 2.183 2.183 0 00.677 3.466 4.872 4.872 0 000 .656c0 3.337 3.864 6.052 8.63 6.052 4.765 0 8.63-2.712 8.63-6.052a4.846 4.846 0 000-.656 2.176 2.176 0 001.195-1.981zm-14.804 1.492a1.49 1.49 0 011.483-1.492c.817 0 1.483.67 1.483 1.492a1.49 1.49 0 01-1.483 1.493 1.493 1.493 0 01-1.483-1.493zm8.6 4.097a5.66 5.66 0 01-3.658 1.148 5.66 5.66 0 01-3.658-1.148.406.406 0 01.055-.567.398.398 0 01.508 0c.89.655 1.976.989 3.08.937a4.85 4.85 0 003.095-.907.415.415 0 11.578.596v-.06zm-.265-2.552a1.49 1.49 0 01-1.483-1.493 1.49 1.49 0 011.483-1.492c.817 0 1.483.67 1.483 1.492a1.486 1.486 0 01-1.42 1.548h-.074l.01-.055z" fill="#1C2546"/><path d="M82.756 11.438a2.023 2.023 0 002.016-2.03c0-1.12-.903-2.03-2.016-2.03a2.023 2.023 0 00-2.017 2.03c0 1.122.903 2.03 2.017 2.03z" fill="#FF4500"/><path d="M54.177 18.046a1.426 1.426 0 001.516-1.326c.004-.045.004-.097.004-.145a5.167 5.167 0 00-.1-.822 5.58 5.58 0 00-5.255-4.567c-2.955 0-5.424 2.734-5.424 6.09 0 3.355 2.429 6.092 5.42 6.092a5.365 5.365 0 004.192-1.763 1.184 1.184 0 00-.184-1.756c-.478-.3-1.1-.237-1.505.156a3.694 3.694 0 01-2.502 1.078 3.384 3.384 0 01-3.091-3.052h6.885l.044.015zm-3.85-4.567a3.26 3.26 0 012.956 2.537H47.38a3.236 3.236 0 012.948-2.537zm-5.291-1.111c0-.57-.42-1.056-.983-1.126a4.364 4.364 0 00-4.063 1.496v-.148a1.14 1.14 0 00-1.137-1.144 1.14 1.14 0 00-1.137 1.144v9.37a1.166 1.166 0 001.064 1.19 1.132 1.132 0 001.207-1.19v-4.807a3.47 3.47 0 013.78-3.644h.227a1.142 1.142 0 001.042-1.141zm38.854 1.229a1.14 1.14 0 00-1.138-1.144 1.14 1.14 0 00-1.137 1.144v8.36a1.14 1.14 0 001.137 1.144 1.14 1.14 0 001.137-1.144v-8.36zM67.108 7.246c0-.63-.507-1.141-1.133-1.141s-1.133.511-1.133 1.14v5.112a3.924 3.924 0 00-2.904-1.17c-2.955 0-5.424 2.733-5.424 6.088 0 3.356 2.432 6.093 5.424 6.093a3.991 3.991 0 002.955-1.182 1.13 1.13 0 001.406.77c.452-.133.776-.533.806-1.01l.003-14.7zm-5.177 13.866c-1.741 0-3.158-1.703-3.158-3.81 0-2.108 1.406-3.812 3.158-3.812 1.751 0 3.157 1.704 3.157 3.811 0 2.108-1.406 3.793-3.15 3.793l-.007.018zM78.965 7.246c0-.63-.507-1.141-1.133-1.141s-1.133.511-1.133 1.14v5.112a3.924 3.924 0 00-2.904-1.17c-2.955 0-5.424 2.733-5.424 6.088 0 3.356 2.432 6.093 5.424 6.093a3.992 3.992 0 002.955-1.182 1.13 1.13 0 002.212-.24l.003-14.7zm-5.174 13.866c-1.74 0-3.157-1.703-3.157-3.81 0-2.108 1.406-3.812 3.157-3.812 1.752 0 3.158 1.704 3.158 3.811 0 2.108-1.406 3.793-3.15 3.793l-.008.018zm15.989.841v-8.474h.983a.987.987 0 001.042-.93c0-.018.004-.04.004-.063a.99.99 0 00-.891-1.074c-.03-.003-.063-.003-.092-.003h-1.041V9.835a1.172 1.172 0 00-1.064-1.182 1.134 1.134 0 00-1.207 1.056c-.004.026-.004.055-.004.081v1.645h-.986a.987.987 0 00-1.041.93c0 .018-.004.04-.004.062a.99.99 0 00.983 1.078h.982v8.452c0 .63.508 1.14 1.133 1.14.626.041 1.16-.44 1.2-1.07.004-.022.004-.048.004-.074z" fill="#1C2546"/></g><defs><clipPath id="clip0_12_1389"><path fill="#fff" transform="translate(0 .96)" d="M0 0h92v30H0z"/></clipPath></defs></svg>