<svg width="27" height="28" fill="none" xmlns="http://www.w3.org/2000/svg"><path d="M24.75 7.25a3.375 3.375 0 11-6.75 0 3.375 3.375 0 016.75 0z" fill="#BAFF62"/><path fill-rule="evenodd" clip-rule="evenodd" d="M15.75 6.125h-4.5c-4.243 0-6.364 0-7.682 1.318-1.318 1.318-1.318 3.44-1.318 7.682 0 4.243 0 6.364 1.318 7.682 1.318 1.318 3.44 1.318 7.682 1.318h4.5c4.243 0 6.364 0 7.682-1.318 1.318-1.318 1.318-3.44 1.318-7.682 0-1.635 0-2.955-.075-4.035a5.043 5.043 0 01-3.3 1.223 5.06 5.06 0 01-1.544-.24l-1.512 1.26c-.997.83-1.805 1.504-2.519 1.963-.743.478-1.466.78-2.3.78-.834 0-1.557-.302-2.3-.78-.714-.46-1.522-1.133-2.52-1.964l-2.47-2.059a.844.844 0 011.08-1.296L9.72 12c1.05.874 1.778 1.48 2.393 1.875.596.383 1 .512 1.388.512.388 0 .792-.129 1.388-.512.615-.395 1.344-1 2.393-1.875l.945-.787a5.053 5.053 0 01-1.788-5.089h-.688z" fill="#BAFF62"/></svg>