<svg width="28" height="28" fill="none" xmlns="http://www.w3.org/2000/svg"><ellipse cx="8.5" cy="8" rx="8.5" ry="8" fill="#184AA9"/><circle cx="20" cy="20" r="8" fill="#2173F0"/><circle cx="14" cy="14" r="13" fill="url(#paint0_linear_26_5582)"/><path d="M14.069 7C16.182 7 19 8 18.295 9.333c-.962 1.823-2.817 0-4.226 0-1.41 0-2.114.667-2.114 1.334 0 .666.353 1.333 2.114 2C15.829 13.333 19 14.333 19 17c0 2.667-2.466 4-5.636 4-2.84 0-4.93-1.333-4.226-2.667.81-1.533 2.817.334 4.226.334 1.41 0 2.818-.334 2.818-1.667s-2.113-1.667-3.522-2.333c-1.761-.834-3.523-1.667-3.523-4C9.137 8.333 11.955 7 14.07 7z" fill="#fff"/><defs><linearGradient id="paint0_linear_26_5582" x1="3.889" y1="6.056" x2="23.389" y2="22.306" gradientUnits="userSpaceOnUse"><stop stop-color="#297AC0"/><stop offset="1" stop-color="#48B0F9"/></linearGradient></defs></svg>