<svg width="26" height="26" fill="none" xmlns="http://www.w3.org/2000/svg"><g clip-path="url(#clip0_26_5598)"><path d="M13 26c7.18 0 13-5.82 13-13S20.18 0 13 0 0 5.82 0 13s5.82 13 13 13z" fill="#F0F0F0"/><path d="M12.435 13H26c0-1.173-.157-2.31-.448-3.391H12.435V13zm0-6.783h11.657a13.07 13.07 0 00-3-3.391h-8.657v3.391zM13 26c3.059 0 5.871-1.058 8.092-2.826H4.907A12.944 12.944 0 0013 26zM1.907 19.783h22.184a12.926 12.926 0 001.46-3.392H.448c.326 1.21.822 2.35 1.46 3.392z" fill="#D80027"/><path d="M6.022 2.03h1.185l-1.102.8.42 1.296-1.101-.8-1.102.8.363-1.12c-.97.809-1.82 1.756-2.521 2.81h.38l-.702.51c-.11.183-.214.368-.315.556l.335 1.03-.624-.453c-.156.329-.298.665-.426 1.009l.37 1.136h1.361l-1.101.8.42 1.296-1.101-.8-.66.479A12.73 12.73 0 000 12.999h13V0c-2.568 0-4.962.746-6.978 2.03zm.503 9.67l-1.101-.8-1.102.8.42-1.296-1.101-.8h1.362l.42-1.296.421 1.296h1.363l-1.102.8.42 1.296zm-.42-5.083l.42 1.296-1.101-.8-1.102.8.42-1.296-1.101-.8h1.362l.42-1.296.421 1.296h1.363l-1.102.8zm5.083 5.083l-1.101-.8-1.102.8.42-1.296-1.101-.8h1.362l.42-1.296.421 1.296h1.363l-1.102.8.42 1.296zm-.42-5.083l.42 1.296-1.101-.8-1.102.8.42-1.296-1.101-.8h1.362l.42-1.296.421 1.296h1.363l-1.102.8zm0-3.787l.42 1.296-1.101-.8-1.102.8.42-1.296-1.101-.8h1.362l.42-1.295.421 1.295h1.363l-1.102.8z" fill="#0052B4"/></g><defs><clipPath id="clip0_26_5598"><path fill="#fff" d="M0 0h26v26H0z"/></clipPath></defs></svg>