<svg width="27" height="28" viewBox="0 0 27 28" fill="none" xmlns="http://www.w3.org/2000/svg">
<path d="M24.75 7.25C24.75 9.11396 23.239 10.625 21.375 10.625C19.511 10.625 18 9.11396 18 7.25C18 5.38604 19.511 3.875 21.375 3.875C23.239 3.875 24.75 5.38604 24.75 7.25Z" fill="#BAFF62"/>
<path fill-rule="evenodd" clip-rule="evenodd" d="M15.75 6.125H11.25C7.00736 6.125 4.88604 6.125 3.56802 7.44302C2.25 8.76104 2.25 10.8824 2.25 15.125C2.25 19.3676 2.25 21.489 3.56802 22.807C4.88604 24.125 7.00736 24.125 11.25 24.125H15.75C19.9926 24.125 22.114 24.125 23.432 22.807C24.75 21.489 24.75 19.3676 24.75 15.125C24.75 13.49 24.75 12.17 24.6746 11.0896C23.7884 11.8518 22.6355 12.3125 21.375 12.3125C20.8365 12.3125 20.3176 12.2284 19.8308 12.0727L18.3191 13.3324C17.322 14.1634 16.5137 14.8369 15.8004 15.2957C15.0574 15.7736 14.3337 16.0755 13.5 16.0755C12.6663 16.0755 11.9426 15.7736 11.1996 15.2957C10.4863 14.8369 9.67805 14.1634 8.6809 13.3324L6.20984 11.2732C5.85186 10.9749 5.80349 10.4428 6.10181 10.0848C6.40013 9.72686 6.93217 9.67849 7.29015 9.97681L9.71891 12.0008C10.7685 12.8754 11.4972 13.4807 12.1124 13.8764C12.7079 14.2594 13.1118 14.388 13.5 14.388C13.8882 14.388 14.2921 14.2594 14.8876 13.8764C15.5028 13.4807 16.2315 12.8754 17.2811 12.0008L18.2255 11.2138C17.0598 10.2863 16.3125 8.85542 16.3125 7.25C16.3125 6.86342 16.3558 6.48697 16.4379 6.12523C16.215 6.125 15.9858 6.125 15.75 6.125Z" fill="#BAFF62"/>
</svg>
