<svg width="28" height="28" viewBox="0 0 28 28" fill="none" xmlns="http://www.w3.org/2000/svg">
<g id="skype">
<ellipse id="ellipse" cx="8.5" cy="8" rx="8.5" ry="8" fill="#184AA9"/>
<circle id="ellipse_2" cx="20" cy="20" r="8" fill="#2173F0"/>
<circle id="ellipse_3" cx="14" cy="14" r="13" fill="url(#paint0_linear_26_5582)"/>
<path id="s" d="M14.0688 7C16.1822 7 19 8 18.2955 9.33333C17.3327 11.1557 15.4777 9.33333 14.0688 9.33333C12.6598 9.33333 11.9554 10 11.9554 10.6667C11.9554 11.3333 12.3076 12 14.0688 12.6667C15.8299 13.3333 19 14.3333 19 17C19 19.6667 16.5344 21 13.3643 21C10.5245 21 8.43307 19.6667 9.13753 18.3333C9.94766 16.8 11.9554 18.6667 13.3643 18.6667C14.7732 18.6667 16.1822 18.3333 16.1822 17C16.1822 15.6667 14.0687 15.3333 12.6598 14.6667C10.8986 13.8333 9.1375 13 9.1375 10.6667C9.1375 8.33333 11.9554 7 14.0688 7Z" fill="white"/>
</g>
<defs>
<linearGradient id="paint0_linear_26_5582" x1="3.88889" y1="6.05556" x2="23.3889" y2="22.3056" gradientUnits="userSpaceOnUse">
<stop stop-color="#297AC0"/>
<stop offset="1" stop-color="#48B0F9"/>
</linearGradient>
</defs>
</svg>
