<svg width="26" height="26" viewBox="0 0 26 26" fill="none" xmlns="http://www.w3.org/2000/svg">
<g clip-path="url(#clip0_26_5598)">
<path d="M13 25.9998C20.1797 25.9998 26 20.1795 26 12.9998C26 5.82005 20.1797 -0.000244141 13 -0.000244141C5.8203 -0.000244141 0 5.82005 0 12.9998C0 20.1795 5.8203 25.9998 13 25.9998Z" fill="#F0F0F0"/>
<path d="M12.4346 13H25.9998C25.9998 11.8266 25.8434 10.6899 25.5519 9.60864H12.4346V13Z" fill="#D80027"/>
<path d="M12.4346 6.21725H24.0917C23.2959 4.91867 22.2784 3.77087 21.0921 2.82593H12.4346V6.21725Z" fill="#D80027"/>
<path d="M12.9995 25.9999C16.059 25.9999 18.8712 24.9424 21.0918 23.1738H4.90723C7.12789 24.9424 9.94 25.9999 12.9995 25.9999Z" fill="#D80027"/>
<path d="M1.90748 19.7827H24.0914C24.7302 18.7402 25.2257 17.6007 25.5516 16.3914H0.447266C0.773129 17.6007 1.2686 18.7402 1.90748 19.7827Z" fill="#D80027"/>
<path d="M6.02184 2.02989H7.20652L6.10457 2.83046L6.52549 4.12583L5.42359 3.32527L4.32169 4.12583L4.68528 3.00677C3.71505 3.81495 2.86467 4.76182 2.16389 5.81685H2.54348L1.84204 6.32644C1.73276 6.50874 1.62795 6.69394 1.5275 6.88188L1.86245 7.9128L1.23754 7.45876C1.0822 7.78787 0.940113 8.1244 0.812398 8.46794L1.18143 9.60381H2.54348L1.44153 10.4044L1.86245 11.6998L0.760551 10.8992L0.100496 11.3788C0.0344297 11.9098 0 12.4508 0 12.9998H13C13 5.8201 13 4.97368 13 -0.000244141C10.4319 -0.000244141 8.03791 0.744717 6.02184 2.02989ZM6.52549 11.6998L5.42359 10.8992L4.32169 11.6998L4.74261 10.4044L3.64066 9.60381H5.00271L5.42359 8.30843L5.84447 9.60381H7.20652L6.10457 10.4044L6.52549 11.6998ZM6.10457 6.61742L6.52549 7.9128L5.42359 7.11223L4.32169 7.9128L4.74261 6.61742L3.64066 5.81685H5.00271L5.42359 4.52147L5.84447 5.81685H7.20652L6.10457 6.61742ZM11.1885 11.6998L10.0866 10.8992L8.98473 11.6998L9.40565 10.4044L8.3037 9.60381H9.66575L10.0866 8.30843L10.5075 9.60381H11.8696L10.7676 10.4044L11.1885 11.6998ZM10.7676 6.61742L11.1885 7.9128L10.0866 7.11223L8.98473 7.9128L9.40565 6.61742L8.3037 5.81685H9.66575L10.0866 4.52147L10.5075 5.81685H11.8696L10.7676 6.61742ZM10.7676 2.83046L11.1885 4.12583L10.0866 3.32527L8.98473 4.12583L9.40565 2.83046L8.3037 2.02989H9.66575L10.0866 0.73451L10.5075 2.02989H11.8696L10.7676 2.83046Z" fill="#0052B4"/>
</g>
<defs>
<clipPath id="clip0_26_5598">
<rect width="26" height="26" fill="white"/>
</clipPath>
</defs>
</svg>
