<svg width="35" height="36" viewBox="0 0 35 36" fill="none" xmlns="http://www.w3.org/2000/svg">
<g id="Group">
<g id="Group_2">
<path id="Vector" d="M35 18C35 27.665 27.165 35.5 17.5 35.5C12.405 35.5 7.81857 33.3229 4.62071 29.8479C3.78071 28.9357 3.03714 27.9336 2.40429 26.8586C0.876429 24.26 0 21.2321 0 18C0 8.335 7.835 0.5 17.5 0.5C20.7329 0.5 23.7607 1.37643 26.3586 2.905C27.4336 3.53714 28.435 4.28071 29.3471 5.12143C32.8221 8.31786 35 12.905 35 18Z" fill="#F0CD00"/>
<path id="Vector_2" d="M34.9999 17.9996C34.9999 27.4467 27.5149 35.1453 18.1513 35.4874C8.78773 35.1453 1.30273 27.4467 1.30273 17.9996C1.30273 8.55243 8.78773 0.853862 18.1513 0.511719C27.5149 0.853862 34.9999 8.55243 34.9999 17.9996Z" fill="#FFDE50"/>
<path id="Vector_3" d="M29.3472 5.1217L4.62073 29.8481C3.78073 28.936 3.03715 27.9338 2.4043 26.8588L26.3586 2.90527C27.4336 3.53742 28.435 4.28099 29.3472 5.1217Z" fill="#FFEA94"/>
<path id="Vector_4" d="M33.793 11.6023L11.1016 34.2938C9.49518 33.6623 8.00447 32.8002 6.6709 31.748L31.248 7.1709C32.3002 8.50447 33.1623 9.99518 33.793 11.6023Z" fill="#FFEA94"/>
<path id="Vector_5" d="M31.0985 17.9999C31.0985 25.5099 25.0099 31.5985 17.4999 31.5985C14.8842 31.5985 12.4414 30.8599 10.3678 29.5799C9.46422 29.0228 8.63137 28.3621 7.88422 27.6149C7.33494 27.0664 6.83208 26.4699 6.3828 25.8335C5.76422 24.9571 5.24637 24.0042 4.84708 22.9921C4.25565 21.4957 3.9228 19.8685 3.9028 18.1671C3.90137 18.1114 3.90137 18.0557 3.90137 17.9999C3.90137 10.4899 9.98922 4.40137 17.4999 4.40137C17.5557 4.40137 17.6121 4.40137 17.6678 4.4028C19.3692 4.4228 20.9957 4.75637 22.4921 5.34708C23.5042 5.74708 24.4571 6.26422 25.3335 6.8828C25.9699 7.3328 26.5657 7.83494 27.1149 8.38422C27.8621 9.13065 28.5228 9.96422 29.0799 10.8678C30.3599 12.9414 31.0985 15.3842 31.0985 17.9999Z" fill="#FAA300"/>
<path id="Vector_6" d="M27.1149 8.38422L7.88422 27.6149C7.33494 27.0664 6.83208 26.4699 6.3828 25.8335C5.76422 24.9571 5.24637 24.0042 4.84708 22.9921C4.25565 21.4957 3.9228 19.8685 3.9028 18.1671C3.90137 18.1114 3.90137 18.0557 3.90137 17.9999C3.90137 10.4899 9.98922 4.40137 17.4999 4.40137C17.5557 4.40137 17.6121 4.40137 17.6678 4.4028C19.3692 4.4228 20.9957 4.75637 22.4921 5.34708C23.5042 5.74708 24.4571 6.26422 25.3335 6.8828C25.9699 7.3328 26.5657 7.83494 27.1149 8.38422Z" fill="#FFBD00"/>
<path id="Vector_7" d="M31.0979 17.9999C31.0979 25.5099 25.0093 31.5985 17.4993 31.5985C17.2414 31.5985 16.9857 31.5914 16.7314 31.5771C23.8843 31.1792 29.5614 25.2521 29.5614 17.9999C29.5614 10.7478 23.8843 4.82065 16.7314 4.4228C16.9857 4.40851 17.2414 4.40137 17.4993 4.40137C25.0093 4.40137 31.0979 10.4899 31.0979 17.9999Z" fill="#F68E00"/>
</g>
<path id="Vector_8" d="M22.9748 18.8531H16.7432C17.7557 18.369 18.7724 17.848 19.6451 17.1461H22.9749C23.729 17.1461 24.3403 16.5348 24.3403 15.7808C24.3403 15.0267 23.729 14.4154 22.9749 14.4154H21.5799C21.7215 13.9438 21.7931 13.4478 21.7931 12.9286C21.7931 9.37954 18.9058 6.49219 15.3566 6.49219C12.7642 6.49219 10.4365 8.03504 9.42655 10.4228C9.13276 11.1173 9.45769 11.9185 10.1522 12.2123C10.8467 12.506 11.6478 12.1812 11.9416 11.4866C12.5233 10.1115 13.8637 9.2229 15.3566 9.2229C17.4 9.2229 19.0623 10.8853 19.0623 12.9285C19.0623 13.5095 18.8845 13.9888 18.5506 14.4153H7.7384C6.98433 14.4153 6.37305 15.0266 6.37305 15.7807C6.37305 16.5348 6.98433 17.146 7.7384 17.146H13.964C13.0681 17.5758 12.0275 18.121 11.1248 18.853H7.7384C6.98433 18.853 6.37305 19.4643 6.37305 20.2184C6.37305 20.9725 6.98433 21.5838 7.7384 21.5838H9.14419C9.00076 22.0388 8.92012 22.5328 8.92012 23.0705C8.92012 26.6196 11.8075 29.507 15.3565 29.507C16.6723 29.507 17.938 29.1123 19.0165 28.3656C20.0688 27.6373 20.8733 26.6252 21.3428 25.4389C21.6204 24.7378 21.277 23.9444 20.5759 23.6668C19.8748 23.3893 19.0814 23.7326 18.8038 24.4338C18.2405 25.8568 16.8873 26.7763 15.3565 26.7763C13.3132 26.7763 11.6508 25.1139 11.6508 23.0706C11.6508 22.511 11.8624 22.023 12.2219 21.5838H22.9748C23.7288 21.5838 24.3401 20.9725 24.3401 20.2185C24.3401 19.4644 23.7289 18.8531 22.9748 18.8531Z" fill="#F68E00"/>
<path id="Vector_9" d="M25.1184 18.8531H18.8867C19.8992 18.369 20.916 17.848 21.7887 17.1461H25.1185C25.8725 17.1461 26.4838 16.5348 26.4838 15.7808C26.4838 15.0267 25.8725 14.4154 25.1185 14.4154H23.7235C23.8651 13.9438 23.9367 13.4478 23.9367 12.9286C23.9367 9.37954 21.0493 6.49219 17.5002 6.49219C14.9077 6.49219 12.58 8.03504 11.5701 10.4228C11.2763 11.1173 11.6012 11.9185 12.2957 12.2123C12.9902 12.506 13.7914 12.1812 14.0852 11.4866C14.6668 10.1115 16.0072 9.2229 17.5002 9.2229C19.5435 9.2229 21.2059 10.8853 21.2059 12.9285C21.2059 13.5095 21.028 13.9888 20.6942 14.4153H9.88196C9.12789 14.4153 8.5166 15.0266 8.5166 15.7807C8.5166 16.5348 9.12789 17.146 9.88196 17.146H16.1075C15.2117 17.5758 14.1711 18.121 13.2683 18.853H9.88196C9.12789 18.853 8.5166 19.4643 8.5166 20.2184C8.5166 20.9725 9.12789 21.5838 9.88196 21.5838H11.2877C11.1443 22.0388 11.0637 22.5328 11.0637 23.0705C11.0637 26.6196 13.951 29.507 17.5001 29.507C18.8159 29.507 20.0815 29.1123 21.1601 28.3656C22.2124 27.6373 23.0168 26.6252 23.4864 25.4389C23.764 24.7378 23.4206 23.9444 22.7195 23.6668C22.0184 23.3893 21.225 23.7326 20.9474 24.4338C20.384 25.8568 19.0308 26.7763 17.5 26.7763C15.4567 26.7763 13.7944 25.1139 13.7944 23.0706C13.7944 22.511 14.006 22.023 14.3655 21.5838H25.1183C25.8724 21.5838 26.4837 20.9725 26.4837 20.2185C26.4837 19.4644 25.8725 18.8531 25.1184 18.8531Z" fill="#FFEA94"/>
</g>
</svg>
