<svg xmlns="http://www.w3.org/2000/svg" width="35" height="36" viewBox="0 0 35 36" fill="none">
  <g clip-path="url(#clip0_117_17164)">
    <path d="M35 18C35 27.665 27.165 35.5 17.5 35.5C12.405 35.5 7.81857 33.3229 4.62071 29.8479C3.78071 28.9357 3.03714 27.9336 2.40429 26.8586C0.876429 24.26 0 21.2321 0 18C0 8.335 7.835 0.5 17.5 0.5C20.7329 0.5 23.7607 1.37643 26.3586 2.905C27.4336 3.53714 28.435 4.28071 29.3471 5.12143C32.8221 8.31786 35 12.905 35 18Z" fill="#F0CD00"/>
    <path d="M34.9999 17.9996C34.9999 27.4467 27.5149 35.1453 18.1513 35.4874C8.78773 35.1453 1.30273 27.4467 1.30273 17.9996C1.30273 8.55243 8.78773 0.853862 18.1513 0.511719C27.5149 0.853862 34.9999 8.55243 34.9999 17.9996Z" fill="#FFDE50"/>
    <path d="M29.3472 5.1217L4.62073 29.8481C3.78073 28.936 3.03715 27.9338 2.4043 26.8588L26.3586 2.90527C27.4336 3.53742 28.435 4.28099 29.3472 5.1217Z" fill="#FFEA94"/>
    <path d="M33.793 11.6023L11.1016 34.2938C9.49518 33.6623 8.00447 32.8002 6.6709 31.748L31.248 7.1709C32.3002 8.50447 33.1623 9.99518 33.793 11.6023Z" fill="#FFEA94"/>
    <path d="M31.0985 17.9999C31.0985 25.5099 25.0099 31.5985 17.4999 31.5985C14.8842 31.5985 12.4414 30.8599 10.3678 29.5799C9.46422 29.0228 8.63137 28.3621 7.88422 27.6149C7.33494 27.0664 6.83208 26.4699 6.3828 25.8335C5.76422 24.9571 5.24637 24.0042 4.84708 22.9921C4.25565 21.4957 3.9228 19.8685 3.9028 18.1671C3.90137 18.1114 3.90137 18.0557 3.90137 17.9999C3.90137 10.4899 9.98922 4.40137 17.4999 4.40137C17.5557 4.40137 17.6121 4.40137 17.6678 4.4028C19.3692 4.4228 20.9957 4.75637 22.4921 5.34708C23.5042 5.74708 24.4571 6.26422 25.3335 6.8828C25.9699 7.3328 26.5657 7.83494 27.1149 8.38422C27.8621 9.13065 28.5228 9.96422 29.0799 10.8678C30.3599 12.9414 31.0985 15.3842 31.0985 17.9999Z" fill="#FAA300"/>
    <path d="M27.1149 8.38422L7.88422 27.6149C7.33494 27.0664 6.83208 26.4699 6.3828 25.8335C5.76422 24.9571 5.24637 24.0042 4.84708 22.9921C4.25565 21.4957 3.9228 19.8685 3.9028 18.1671C3.90137 18.1114 3.90137 18.0557 3.90137 17.9999C3.90137 10.4899 9.98922 4.40137 17.4999 4.40137C17.5557 4.40137 17.6121 4.40137 17.6678 4.4028C19.3692 4.4228 20.9957 4.75637 22.4921 5.34708C23.5042 5.74708 24.4571 6.26422 25.3335 6.8828C25.9699 7.3328 26.5657 7.83494 27.1149 8.38422Z" fill="#FFBD00"/>
    <path d="M31.0979 17.9999C31.0979 25.5099 25.0093 31.5985 17.4993 31.5985C17.2414 31.5985 16.9857 31.5914 16.7314 31.5771C23.8843 31.1792 29.5614 25.2521 29.5614 17.9999C29.5614 10.7478 23.8843 4.82065 16.7314 4.4228C16.9857 4.40851 17.2414 4.40137 17.4993 4.40137C25.0093 4.40137 31.0979 10.4899 31.0979 17.9999Z" fill="#F68E00"/>
    <path d="M17.0522 16.9552V11.448C17.9105 11.9215 18.4934 12.8353 18.4934 13.883C18.4934 14.622 19.0924 15.2211 19.8314 15.2211C20.5704 15.2211 21.1695 14.622 21.1695 13.883C21.1695 11.3365 19.4154 9.19235 17.0522 8.59421V7.50506C17.0522 6.76606 16.4531 6.16699 15.7141 6.16699C14.9751 6.16699 14.3761 6.76606 14.3761 7.50506V8.59414C12.0129 9.19235 10.2588 11.3364 10.2588 13.8829C10.2588 15.4034 10.7054 16.5891 11.624 17.5078C12.2938 18.1776 13.1835 18.6732 14.3761 19.0366V24.5524C13.5178 24.0789 12.9349 23.1651 12.9349 22.1175C12.9349 21.3785 12.3359 20.7794 11.5969 20.7794C10.8579 20.7794 10.2588 21.3785 10.2588 22.1175C10.2588 24.664 12.0129 26.8081 14.3761 27.4063V28.4954C14.3761 29.2344 14.9751 29.8334 15.7141 29.8334C16.4531 29.8334 17.0522 29.2344 17.0522 28.4954V27.4063C19.4154 26.8081 21.1695 24.6641 21.1695 22.1175C21.1695 20.6181 20.7038 19.3921 19.7854 18.4737C19.1179 17.8061 18.2171 17.3057 17.0522 16.9552ZM13.5164 15.6155C13.2456 15.3449 12.935 14.9033 12.935 13.8829C12.935 12.8353 13.5179 11.9215 14.3761 11.4479V16.1848C14.0152 16.0176 13.7295 15.8287 13.5164 15.6155ZM17.0522 24.5524V19.8009C18.2151 20.3425 18.4934 21.1173 18.4934 22.1175C18.4934 23.1651 17.9105 24.0789 17.0522 24.5524Z" fill="#F68E00"/>
    <path d="M18.8374 16.9552V11.448C19.6957 11.9215 20.2785 12.8353 20.2785 13.883C20.2785 14.622 20.8776 15.2211 21.6166 15.2211C22.3556 15.2211 22.9547 14.622 22.9547 13.883C22.9547 11.3365 21.2006 9.19235 18.8374 8.59421V7.50506C18.8374 6.76606 18.2383 6.16699 17.4993 6.16699C16.7603 6.16699 16.1612 6.76606 16.1612 7.50506V8.59414C13.798 9.19235 12.0439 11.3364 12.0439 13.8829C12.0439 15.4034 12.4905 16.5891 13.4092 17.5078C14.0789 18.1776 14.9687 18.6732 16.1612 19.0366V24.5524C15.3029 24.0789 14.7201 23.1651 14.7201 22.1175C14.7201 21.3785 14.121 20.7794 13.382 20.7794C12.643 20.7794 12.0439 21.3785 12.0439 22.1175C12.0439 24.664 13.798 26.8081 16.1612 27.4063V28.4954C16.1612 29.2344 16.7603 29.8334 17.4993 29.8334C18.2383 29.8334 18.8374 29.2344 18.8374 28.4954V27.4063C21.2006 26.8081 22.9547 24.6641 22.9547 22.1175C22.9547 20.6181 22.4889 19.3921 21.5705 18.4737C20.903 17.8061 20.0022 17.3057 18.8374 16.9552ZM15.3014 15.6155C15.0307 15.3449 14.7201 14.9033 14.7201 13.8829C14.7201 12.8353 15.3029 11.9215 16.1612 11.4479V16.1848C15.8004 16.0176 15.5147 15.8287 15.3014 15.6155ZM18.8374 24.5524V19.8009C20.0003 20.3425 20.2785 21.1173 20.2785 22.1175C20.2784 23.1651 19.6957 24.0789 18.8374 24.5524Z" fill="#FFEA94"/>
  </g>
  <defs>
    <clipPath id="clip0_117_17164">
      <rect y="0.5" width="35" height="35" rx="17.5" fill="white"/>
    </clipPath>
  </defs>
</svg>